Track 0:
MetaMessage('time_signature', numerator=4, denominator=4, clocks_per_click=24, notated_32nd_notes_per_beat=8, time=0)
MetaMessage('end_of_track', time=0)
Track 1:
MetaMessage('set_tempo', tempo=600000, time=0)
MetaMessage('set_tempo', tempo=600000, time=0)
MetaMessage('set_tempo', tempo=600000, time=0)
MetaMessage('set_tempo', tempo=600000, time=38016)
MetaMessage('end_of_track', time=0)
Track 2:
MetaMessage('track_name', name='Channel #2', time=0)
control_change channel=0 control=10 value=64 time=0
control_change channel=0 control=7 value=100 time=0
pitchwheel channel=0 pitch=0 time=0
control_change channel=0 control=101 value=0 time=0
control_change channel=0 control=100 value=0 time=0
control_change channel=0 control=6 value=12 time=0
control_change channel=0 control=10 value=64 time=0
control_change channel=0 control=7 value=100 time=0
pitchwheel channel=0 pitch=0 time=0
program_change channel=0 program=0 time=0
control_change channel=0 control=101 value=0 time=0
control_change channel=0 control=100 value=0 time=0
control_change channel=0 control=6 value=12 time=0
control_change channel=0 control=10 value=64 time=0
control_change channel=0 control=7 value=100 time=0
pitchwheel channel=0 pitch=0 time=0
program_change channel=0 program=0 time=0
control_change channel=0 control=101 value=0 time=0
control_change channel=0 control=100 value=0 time=0
control_change channel=0 control=6 value=12 time=0
control_change channel=0 control=10 value=64 time=0
control_change channel=0 control=7 value=100 time=0
pitchwheel channel=0 pitch=0 time=0
program_change channel=0 program=0 time=0
control_change channel=0 control=7 value=100 time=104
control_change channel=0 control=10 value=64 time=0
note_on channel=0 note=33 velocity=104 time=1048
note_off channel=0 note=33 velocity=104 time=48
note_on channel=0 note=33 velocity=86 time=27
note_off channel=0 note=33 velocity=86 time=18
note_on channel=0 note=33 velocity=86 time=51
note_off channel=0 note=33 velocity=86 time=51
note_on channel=0 note=33 velocity=84 time=24
note_on channel=0 note=40 velocity=74 time=21
note_off channel=0 note=33 velocity=84 time=3
note_off channel=0 note=40 velocity=74 time=20
note_on channel=0 note=42 velocity=82 time=4
note_on channel=0 note=45 velocity=84 time=21
note_off channel=0 note=42 velocity=82 time=3
pitchwheel channel=0 pitch=-122 time=48
pitchwheel channel=0 pitch=-211 time=4
pitchwheel channel=0 pitch=-341 time=3
pitchwheel channel=0 pitch=-464 time=4
pitchwheel channel=0 pitch=-634 time=3
pitchwheel channel=0 pitch=-894 time=3
pitchwheel channel=0 pitch=-1146 time=4
note_off channel=0 note=45 velocity=84 time=3
pitchwheel channel=0 pitch=-1297 time=0
pitchwheel channel=0 pitch=-873 time=4
pitchwheel channel=0 pitch=-382 time=3
pitchwheel channel=0 pitch=0 time=3
note_on channel=0 note=33 velocity=84 time=11
note_off channel=0 note=33 velocity=84 time=51
note_on channel=0 note=33 velocity=88 time=24
note_off channel=0 note=33 velocity=88 time=23
note_on channel=0 note=33 velocity=84 time=46
note_off channel=0 note=33 velocity=84 time=85
note_on channel=0 note=28 velocity=76 time=11
note_off channel=0 note=28 velocity=76 time=13
note_on channel=0 note=28 velocity=76 time=14
note_on channel=0 note=30 velocity=100 time=21
note_off channel=0 note=28 velocity=76 time=1
note_off channel=0 note=30 velocity=100 time=46
note_on channel=0 note=32 velocity=80 time=1
note_off channel=0 note=32 velocity=80 time=45
note_on channel=0 note=33 velocity=84 time=3
note_off channel=0 note=33 velocity=84 time=47
note_on channel=0 note=33 velocity=86 time=28
note_off channel=0 note=33 velocity=86 time=20
note_on channel=0 note=33 velocity=104 time=49
note_off channel=0 note=33 velocity=104 time=59
note_on channel=0 note=33 velocity=84 time=16
note_on channel=0 note=40 velocity=70 time=21
note_off channel=0 note=33 velocity=84 time=2
note_off channel=0 note=40 velocity=70 time=21
note_on channel=0 note=42 velocity=84 time=4
note_off channel=0 note=42 velocity=84 time=19
note_on channel=0 note=45 velocity=100 time=2
pitchwheel channel=0 pitch=-102 time=50
pitchwheel channel=0 pitch=-252 time=3
pitchwheel channel=0 pitch=-361 time=4
pitchwheel channel=0 pitch=-532 time=3
pitchwheel channel=0 pitch=-682 time=4
pitchwheel channel=0 pitch=-853 time=3
pitchwheel channel=0 pitch=-1064 time=3
pitchwheel channel=0 pitch=-1105 time=4
pitchwheel channel=0 pitch=-614 time=3
pitchwheel channel=0 pitch=-81 time=4
pitchwheel channel=0 pitch=0 time=1
note_off channel=0 note=45 velocity=100 time=5
note_on channel=0 note=33 velocity=100 time=9
note_off channel=0 note=33 velocity=100 time=44
note_on channel=0 note=33 velocity=86 time=31
note_off channel=0 note=33 velocity=86 time=32
note_on channel=0 note=33 velocity=96 time=37
note_off channel=0 note=33 velocity=96 time=55
note_on channel=0 note=33 velocity=78 time=20
note_off channel=0 note=33 velocity=78 time=18
note_on channel=0 note=28 velocity=96 time=3
note_off channel=0 note=28 velocity=96 time=43
note_on channel=0 note=30 velocity=96 time=5
note_off channel=0 note=30 velocity=96 time=43
note_on channel=0 note=32 velocity=72 time=5
note_off channel=0 note=32 velocity=72 time=45
note_on channel=0 note=33 velocity=84 time=3
note_off channel=0 note=33 velocity=84 time=56
note_on channel=0 note=33 velocity=86 time=19
note_off channel=0 note=33 velocity=86 time=25
note_on channel=0 note=33 velocity=100 time=44
note_off channel=0 note=33 velocity=100 time=59
note_on channel=0 note=33 velocity=78 time=16
note_on channel=0 note=40 velocity=78 time=21
note_off channel=0 note=33 velocity=78 time=2
note_off channel=0 note=40 velocity=78 time=21
note_on channel=0 note=42 velocity=92 time=4
note_off channel=0 note=42 velocity=92 time=20
note_on channel=0 note=45 velocity=88 time=1
pitchwheel channel=0 pitch=-40 time=54
pitchwheel channel=0 pitch=-143 time=1
pitchwheel channel=0 pitch=-273 time=3
pitchwheel channel=0 pitch=-341 time=4
pitchwheel channel=0 pitch=-423 time=4
pitchwheel channel=0 pitch=-552 time=3
pitchwheel channel=0 pitch=-682 time=4
pitchwheel channel=0 pitch=-894 time=3
pitchwheel channel=0 pitch=-1126 time=4
pitchwheel channel=0 pitch=-1365 time=3
pitchwheel channel=0 pitch=-1126 time=5
pitchwheel channel=0 pitch=-785 time=2
pitchwheel channel=0 pitch=0 time=2
pitchwheel channel=0 pitch=40 time=2
pitchwheel channel=0 pitch=0 time=1
note_on channel=0 note=33 velocity=104 time=1
note_off channel=0 note=45 velocity=88 time=1
note_off channel=0 note=33 velocity=104 time=46
note_on channel=0 note=33 velocity=84 time=28
note_off channel=0 note=33 velocity=84 time=30
note_on channel=0 note=33 velocity=84 time=39
note_off channel=0 note=33 velocity=84 time=57
note_on channel=0 note=33 velocity=80 time=18
note_off channel=0 note=33 velocity=80 time=20
note_on channel=0 note=28 velocity=88 time=1
note_off channel=0 note=28 velocity=88 time=46
note_on channel=0 note=30 velocity=84 time=2
note_off channel=0 note=30 velocity=84 time=40
note_on channel=0 note=32 velocity=86 time=8
note_off channel=0 note=32 velocity=86 time=39
note_on channel=0 note=33 velocity=86 time=9
note_off channel=0 note=33 velocity=86 time=42
note_on channel=0 note=33 velocity=86 time=33
note_off channel=0 note=33 velocity=86 time=23
note_on channel=0 note=33 velocity=84 time=46
note_off channel=0 note=33 velocity=84 time=62
note_on channel=0 note=33 velocity=80 time=13
note_off channel=0 note=33 velocity=80 time=12
note_on channel=0 note=33 velocity=100 time=9
note_off channel=0 note=33 velocity=100 time=46
note_on channel=0 note=32 velocity=104 time=2
note_off channel=0 note=32 velocity=104 time=66
note_on channel=0 note=30 velocity=100 time=30
note_off channel=0 note=30 velocity=100 time=54
note_on channel=0 note=30 velocity=96 time=21
note_off channel=0 note=30 velocity=96 time=30
note_on channel=0 note=28 velocity=96 time=39
note_off channel=0 note=28 velocity=96 time=70
note_on channel=0 note=28 velocity=100 time=26
note_off channel=0 note=28 velocity=100 time=24
note_on channel=0 note=28 velocity=68 time=24
note_off channel=0 note=28 velocity=68 time=21
note_on channel=0 note=30 velocity=100 time=6
note_on channel=0 note=32 velocity=104 time=21
note_off channel=0 note=30 velocity=100 time=5
note_off channel=0 note=32 velocity=104 time=36
note_on channel=0 note=28 velocity=92 time=7
note_off channel=0 note=28 velocity=92 time=50
note_on channel=0 note=28 velocity=92 time=25
note_off channel=0 note=28 velocity=92 time=28
note_on channel=0 note=28 velocity=88 time=41
note_off channel=0 note=28 velocity=88 time=51
note_on channel=0 note=28 velocity=86 time=24
note_on channel=0 note=40 velocity=96 time=21
note_off channel=0 note=28 velocity=86 time=2
note_off channel=0 note=40 velocity=96 time=30
note_on channel=0 note=40 velocity=96 time=16
note_off channel=0 note=40 velocity=96 time=21
note_on channel=0 note=35 velocity=86 time=6
note_off channel=0 note=35 velocity=86 time=44
note_on channel=0 note=36 velocity=68 time=4
note_on channel=0 note=37 velocity=84 time=21
note_off channel=0 note=36 velocity=68 time=3
note_off channel=0 note=37 velocity=84 time=43
note_on channel=0 note=37 velocity=104 time=29
note_off channel=0 note=37 velocity=104 time=34
note_on channel=0 note=37 velocity=92 time=35
note_off channel=0 note=37 velocity=92 time=54
note_on channel=0 note=37 velocity=74 time=21
note_off channel=0 note=37 velocity=74 time=21
note_on channel=0 note=38 velocity=84 time=0
note_off channel=0 note=38 velocity=84 time=44
note_on channel=0 note=39 velocity=82 time=4
note_off channel=0 note=39 velocity=82 time=18
note_on channel=0 note=39 velocity=74 time=9
note_off channel=0 note=39 velocity=74 time=19
note_on channel=0 note=40 velocity=76 time=2
note_off channel=0 note=40 velocity=76 time=22
note_on channel=0 note=41 velocity=86 time=5
note_on channel=0 note=42 velocity=96 time=21
note_off channel=0 note=41 velocity=86 time=1
note_off channel=0 note=42 velocity=96 time=64
note_on channel=0 note=42 velocity=104 time=10
note_off channel=0 note=42 velocity=104 time=31
note_on channel=0 note=42 velocity=100 time=38
note_off channel=0 note=42 velocity=100 time=58
note_on channel=0 note=42 velocity=84 time=17
note_off channel=0 note=42 velocity=84 time=16
note_on channel=0 note=42 velocity=74 time=5
note_off channel=0 note=42 velocity=74 time=28
note_on channel=0 note=42 velocity=76 time=20
note_off channel=0 note=42 velocity=76 time=26
note_on channel=0 note=40 velocity=92 time=1
note_off channel=0 note=40 velocity=92 time=61
note_on channel=0 note=39 velocity=92 time=8
note_off channel=0 note=39 velocity=92 time=49
note_on channel=0 note=39 velocity=100 time=26
note_off channel=0 note=39 velocity=100 time=34
note_on channel=0 note=39 velocity=96 time=35
note_off channel=0 note=39 velocity=96 time=59
note_on channel=0 note=39 velocity=74 time=16
note_on channel=0 note=47 velocity=88 time=21
note_off channel=0 note=39 velocity=74 time=2
note_off channel=0 note=47 velocity=88 time=23
note_on channel=0 note=47 velocity=86 time=23
note_off channel=0 note=47 velocity=86 time=21
note_on channel=0 note=39 velocity=80 time=6
note_off channel=0 note=39 velocity=80 time=61
note_on channel=0 note=38 velocity=92 time=8
note_off channel=0 note=38 velocity=92 time=53
note_on channel=0 note=38 velocity=84 time=22
note_off channel=0 note=38 velocity=84 time=25
note_on channel=0 note=38 velocity=86 time=44
note_off channel=0 note=38 velocity=86 time=88
note_on channel=0 note=38 velocity=88 time=8
note_off channel=0 note=38 velocity=88 time=52
note_on channel=0 note=37 velocity=104 time=23
note_off channel=0 note=37 velocity=104 time=63
note_on channel=0 note=35 velocity=86 time=6
note_off channel=0 note=35 velocity=86 time=48
note_on channel=0 note=35 velocity=84 time=27
note_off channel=0 note=35 velocity=84 time=25
note_on channel=0 note=35 velocity=86 time=44
note_off channel=0 note=35 velocity=86 time=65
note_on channel=0 note=35 velocity=78 time=31
note_off channel=0 note=35 velocity=78 time=45
note_on channel=0 note=28 velocity=84 time=3
note_off channel=0 note=28 velocity=84 time=48
note_on channel=0 note=30 velocity=92 time=0
note_off channel=0 note=30 velocity=92 time=39
note_on channel=0 note=33 velocity=82 time=9
note_off channel=0 note=33 velocity=82 time=39
note_on channel=0 note=33 velocity=86 time=36
note_off channel=0 note=33 velocity=86 time=26
note_on channel=0 note=33 velocity=88 time=43
note_off channel=0 note=33 velocity=88 time=93
note_on channel=0 note=40 velocity=82 time=3
note_off channel=0 note=40 velocity=82 time=23
note_on channel=0 note=42 velocity=84 time=4
note_off channel=0 note=42 velocity=84 time=20
note_on channel=0 note=45 velocity=84 time=1
pitchwheel channel=0 pitch=-40 time=54
pitchwheel channel=0 pitch=-191 time=1
pitchwheel channel=0 pitch=-361 time=3
pitchwheel channel=0 pitch=-512 time=4
pitchwheel channel=0 pitch=-682 time=3
pitchwheel channel=0 pitch=-935 time=3
pitchwheel channel=0 pitch=-1105 time=4
pitchwheel channel=0 pitch=-826 time=3
note_off channel=0 note=45 velocity=84 time=2
pitchwheel channel=0 pitch=-552 time=3
pitchwheel channel=0 pitch=0 time=3
note_on channel=0 note=33 velocity=96 time=13
note_off channel=0 note=33 velocity=96 time=53
note_on channel=0 note=33 velocity=86 time=22
note_off channel=0 note=33 velocity=86 time=41
note_on channel=0 note=33 velocity=96 time=28
note_off channel=0 note=33 velocity=96 time=48
note_on channel=0 note=33 velocity=74 time=27
note_off channel=0 note=33 velocity=74 time=19
note_on channel=0 note=28 velocity=66 time=2
note_off channel=0 note=28 velocity=66 time=9
note_on channel=0 note=28 velocity=74 time=18
note_on channel=0 note=30 velocity=96 time=21
note_off channel=0 note=28 velocity=74 time=2
note_on channel=0 note=32 velocity=80 time=46
note_off channel=0 note=30 velocity=96 time=6
note_off channel=0 note=32 velocity=80 time=42
note_on channel=0 note=33 velocity=80 time=0
note_off channel=0 note=33 velocity=80 time=57
note_on channel=0 note=33 velocity=84 time=18
note_off channel=0 note=33 velocity=84 time=21
note_on channel=0 note=40 velocity=84 time=0
note_off channel=0 note=40 velocity=84 time=22
note_on channel=0 note=42 velocity=80 time=5
note_off channel=0 note=42 velocity=80 time=20
note_on channel=0 note=45 velocity=86 time=1
note_off channel=0 note=45 velocity=86 time=54
note_on channel=0 note=33 velocity=82 time=21
note_off channel=0 note=33 velocity=82 time=18
note_on channel=0 note=33 velocity=100 time=3
note_off channel=0 note=33 velocity=100 time=38
note_on channel=0 note=33 velocity=96 time=10
note_off channel=0 note=33 velocity=96 time=56
note_on channel=0 note=33 velocity=86 time=40
note_off channel=0 note=33 velocity=86 time=53
note_on channel=0 note=33 velocity=82 time=22
note_on channel=0 note=40 velocity=68 time=21
note_off channel=0 note=33 velocity=82 time=2
note_off channel=0 note=40 velocity=68 time=21
note_on channel=0 note=42 velocity=86 time=4
note_off channel=0 note=42 velocity=86 time=20
note_on channel=0 note=45 velocity=96 time=1
note_off channel=0 note=45 velocity=96 time=48
note_on channel=0 note=33 velocity=84 time=27
note_off channel=0 note=33 velocity=84 time=17
note_on channel=0 note=33 velocity=88 time=4
note_off channel=0 note=33 velocity=88 time=33
note_on channel=0 note=33 velocity=86 time=15
note_off channel=0 note=33 velocity=86 time=63
note_on channel=0 note=33 velocity=112 time=33
note_off channel=0 note=33 velocity=112 time=50
note_on channel=0 note=33 velocity=42 time=25
note_off channel=0 note=33 velocity=42 time=9
note_on channel=0 note=33 velocity=100 time=60
note_off channel=0 note=33 velocity=100 time=78
note_on channel=0 note=33 velocity=86 time=18
note_off channel=0 note=33 velocity=86 time=37
note_on channel=0 note=40 velocity=80 time=11
note_off channel=0 note=40 velocity=80 time=22
note_on channel=0 note=42 velocity=84 time=5
note_on channel=0 note=45 velocity=68 time=21
note_off channel=0 note=42 velocity=84 time=1
note_off channel=0 note=45 velocity=68 time=32
note_on channel=0 note=33 velocity=84 time=15
note_off channel=0 note=33 velocity=84 time=53
note_on channel=0 note=33 velocity=92 time=91
note_off channel=0 note=33 velocity=92 time=71
note_on channel=0 note=28 velocity=104 time=4
note_off channel=0 note=28 velocity=104 time=65
note_on channel=0 note=30 velocity=80 time=4
note_off channel=0 note=30 velocity=80 time=47
note_on channel=0 note=32 velocity=80 time=1
note_off channel=0 note=32 velocity=80 time=47
note_on channel=0 note=33 velocity=82 time=1
note_off channel=0 note=33 velocity=82 time=57
note_on channel=0 note=33 velocity=66 time=18
note_off channel=0 note=33 velocity=66 time=19
note_on channel=0 note=33 velocity=92 time=50
note_off channel=0 note=33 velocity=92 time=80
note_on channel=0 note=33 velocity=86 time=16
note_off channel=0 note=33 velocity=86 time=45
note_on channel=0 note=40 velocity=76 time=3
note_off channel=0 note=40 velocity=76 time=22
note_on channel=0 note=42 velocity=84 time=5
note_off channel=0 note=42 velocity=84 time=20
note_on channel=0 note=45 velocity=88 time=1
note_off channel=0 note=45 velocity=88 time=46
note_on channel=0 note=42 velocity=80 time=2
note_off channel=0 note=42 velocity=80 time=44
note_on channel=0 note=42 velocity=82 time=31
note_off channel=0 note=42 velocity=82 time=12
note_on channel=0 note=42 velocity=96 time=57
note_off channel=0 note=42 velocity=96 time=96
note_on channel=0 note=37 velocity=74 time=0
note_off channel=0 note=37 velocity=74 time=22
note_on channel=0 note=42 velocity=86 time=26
note_off channel=0 note=42 velocity=86 time=23
note_on channel=0 note=40 velocity=80 time=4
note_on channel=0 note=30 velocity=84 time=21
note_off channel=0 note=40 velocity=80 time=1
note_off channel=0 note=30 velocity=84 time=22
note_on channel=0 note=28 velocity=96 time=25
note_off channel=0 note=28 velocity=96 time=52
note_on channel=0 note=28 velocity=96 time=23
note_off channel=0 note=28 velocity=96 time=15
note_on channel=0 note=32 velocity=100 time=54
note_off channel=0 note=32 velocity=100 time=94
note_on channel=0 note=40 velocity=82 time=2
note_off channel=0 note=40 velocity=82 time=12
note_on channel=0 note=40 velocity=86 time=36
note_off channel=0 note=40 velocity=86 time=22
note_on channel=0 note=42 velocity=96 time=5
note_on channel=0 note=45 velocity=100 time=21
note_off channel=0 note=42 velocity=96 time=1
note_off channel=0 note=45 velocity=100 time=17
note_on channel=0 note=28 velocity=88 time=30
note_off channel=0 note=28 velocity=88 time=58
note_on channel=0 note=28 velocity=92 time=17
note_off channel=0 note=28 velocity=92 time=21
note_on channel=0 note=32 velocity=104 time=48
note_off channel=0 note=32 velocity=104 time=90
note_on channel=0 note=40 velocity=86 time=6
note_off channel=0 note=40 velocity=86 time=16
note_on channel=0 note=40 velocity=66 time=32
note_off channel=0 note=40 velocity=66 time=23
note_on channel=0 note=42 velocity=62 time=4
note_on channel=0 note=45 velocity=100 time=21
note_off channel=0 note=42 velocity=62 time=2
note_off channel=0 note=45 velocity=100 time=21
note_on channel=0 note=40 velocity=84 time=25
note_off channel=0 note=40 velocity=84 time=53
note_on channel=0 note=42 velocity=100 time=22
note_off channel=0 note=42 velocity=100 time=18
note_on channel=0 note=42 velocity=88 time=51
note_off channel=0 note=42 velocity=88 time=96
note_on channel=0 note=40 velocity=80 time=0
note_off channel=0 note=40 velocity=80 time=21
note_on channel=0 note=42 velocity=84 time=6
note_on channel=0 note=40 velocity=80 time=21
note_off channel=0 note=42 velocity=84 time=1
note_off channel=0 note=40 velocity=80 time=19
note_on channel=0 note=42 velocity=100 time=7
note_off channel=0 note=42 velocity=100 time=21
note_on channel=0 note=30 velocity=84 time=0
note_off channel=0 note=30 velocity=84 time=20
note_on channel=0 note=30 velocity=104 time=28
note_off channel=0 note=30 velocity=104 time=42
note_on channel=0 note=30 velocity=88 time=33
note_off channel=0 note=30 velocity=88 time=16
note_on channel=0 note=30 velocity=108 time=53
note_off channel=0 note=30 velocity=108 time=64
note_on channel=0 note=30 velocity=100 time=32
note_off channel=0 note=30 velocity=100 time=16
note_on channel=0 note=30 velocity=76 time=11
note_off channel=0 note=30 velocity=76 time=14
note_on channel=0 note=30 velocity=100 time=7
note_off channel=0 note=30 velocity=100 time=41
note_on channel=0 note=32 velocity=82 time=7
note_off channel=0 note=32 velocity=82 time=46
note_on channel=0 note=33 velocity=84 time=2
note_off channel=0 note=33 velocity=84 time=58
note_on channel=0 note=33 velocity=68 time=17
note_off channel=0 note=33 velocity=68 time=14
note_on channel=0 note=33 velocity=82 time=55
note_off channel=0 note=33 velocity=82 time=75
note_on channel=0 note=33 velocity=82 time=21
note_on channel=0 note=40 velocity=31 time=48
note_off channel=0 note=33 velocity=82 time=1
note_off channel=0 note=40 velocity=31 time=20
note_on channel=0 note=42 velocity=84 time=6
note_off channel=0 note=42 velocity=84 time=19
note_on channel=0 note=45 velocity=96 time=2
note_off channel=0 note=45 velocity=96 time=34
note_on channel=0 note=33 velocity=84 time=14
note_off channel=0 note=33 velocity=84 time=53
note_on channel=0 note=33 velocity=80 time=22
note_off channel=0 note=33 velocity=80 time=22
note_on channel=0 note=33 velocity=84 time=47
note_off channel=0 note=33 velocity=84 time=71
note_on channel=0 note=28 velocity=100 time=4
note_off channel=0 note=28 velocity=100 time=64
note_on channel=0 note=30 velocity=80 time=5
note_off channel=0 note=30 velocity=80 time=46
note_on channel=0 note=32 velocity=74 time=2
note_off channel=0 note=32 velocity=74 time=47
note_on channel=0 note=33 velocity=82 time=1
note_off channel=0 note=33 velocity=82 time=54
note_on channel=0 note=33 velocity=82 time=21
note_off channel=0 note=33 velocity=82 time=17
note_on channel=0 note=33 velocity=100 time=52
note_off channel=0 note=33 velocity=100 time=83
note_on channel=0 note=33 velocity=82 time=13
note_off channel=0 note=33 velocity=82 time=48
note_on channel=0 note=40 velocity=74 time=0
note_off channel=0 note=40 velocity=74 time=22
note_on channel=0 note=42 velocity=84 time=5
note_on channel=0 note=45 velocity=86 time=21
note_off channel=0 note=42 velocity=84 time=1
note_off channel=0 note=45 velocity=86 time=46
note_on channel=0 note=42 velocity=84 time=1
note_off channel=0 note=42 velocity=84 time=46
note_on channel=0 note=42 velocity=96 time=29
note_off channel=0 note=42 velocity=96 time=26
note_on channel=0 note=42 velocity=88 time=43
note_off channel=0 note=42 velocity=88 time=64
note_on channel=0 note=42 velocity=74 time=32
note_off channel=0 note=42 velocity=74 time=23
note_on channel=0 note=40 velocity=84 time=4
note_on channel=0 note=42 velocity=84 time=21
note_off channel=0 note=40 velocity=84 time=3
note_off channel=0 note=42 velocity=84 time=44
note_on channel=0 note=30 velocity=80 time=1
note_off channel=0 note=30 velocity=80 time=36
note_on channel=0 note=40 velocity=96 time=12
note_off channel=0 note=40 velocity=96 time=45
note_on channel=0 note=28 velocity=86 time=30
note_off channel=0 note=28 velocity=86 time=19
note_on channel=0 note=40 velocity=80 time=50
note_off channel=0 note=40 velocity=80 time=77
note_on channel=0 note=40 velocity=82 time=19
note_off channel=0 note=40 velocity=82 time=18
note_on channel=0 note=42 velocity=96 time=9
note_off channel=0 note=42 velocity=96 time=17
note_on channel=0 note=45 velocity=86 time=4
note_off channel=0 note=45 velocity=86 time=40
note_on channel=0 note=50 velocity=92 time=8
pitchwheel channel=0 pitch=-122 time=20
pitchwheel channel=0 pitch=-402 time=2
pitchwheel channel=0 pitch=-614 time=4
pitchwheel channel=0 pitch=-894 time=3
pitchwheel channel=0 pitch=-976 time=4
pitchwheel channel=0 pitch=-785 time=3
pitchwheel channel=0 pitch=0 time=3
note_off channel=0 note=50 velocity=92 time=1
pitchwheel channel=0 pitch=40 time=1
pitchwheel channel=0 pitch=0 time=2
note_on channel=0 note=40 velocity=96 time=5
note_off channel=0 note=40 velocity=96 time=42
note_on channel=0 note=40 velocity=96 time=33
note_off channel=0 note=40 velocity=96 time=18
note_on channel=0 note=35 velocity=86 time=51
note_off channel=0 note=35 velocity=86 time=88
note_on channel=0 note=40 velocity=86 time=8
note_off channel=0 note=40 velocity=86 time=32
note_on channel=0 note=40 velocity=84 time=16
note_off channel=0 note=40 velocity=84 time=44
note_on channel=0 note=35 velocity=70 time=4
note_off channel=0 note=35 velocity=70 time=24
note_on channel=0 note=37 velocity=84 time=3
note_off channel=0 note=37 velocity=84 time=14
note_on channel=0 note=40 velocity=100 time=7
note_off channel=0 note=40 velocity=100 time=53
note_on channel=0 note=42 velocity=96 time=22
note_off channel=0 note=42 velocity=96 time=18
note_on channel=0 note=42 velocity=100 time=51
note_off channel=0 note=42 velocity=100 time=88
note_on channel=0 note=45 velocity=100 time=8
note_off channel=0 note=45 velocity=100 time=38
note_on channel=0 note=42 velocity=96 time=10
note_off channel=0 note=42 velocity=96 time=31
note_on channel=0 note=42 velocity=88 time=17
pitchwheel channel=0 pitch=-61 time=23
pitchwheel channel=0 pitch=-170 time=2
pitchwheel channel=0 pitch=-293 time=3
pitchwheel channel=0 pitch=-552 time=3
pitchwheel channel=0 pitch=-785 time=4
pitchwheel channel=0 pitch=-1085 time=3
pitchwheel channel=0 pitch=-1105 time=4
pitchwheel channel=0 pitch=-826 time=3
note_off channel=0 note=42 velocity=88 time=1
pitchwheel channel=0 pitch=0 time=1
note_on channel=0 note=30 velocity=100 time=1
pitchwheel channel=0 pitch=102 time=2
pitchwheel channel=0 pitch=0 time=2
note_off channel=0 note=30 velocity=100 time=47
note_on channel=0 note=30 velocity=88 time=24
note_off channel=0 note=30 velocity=88 time=24
note_on channel=0 note=30 velocity=112 time=45
note_off channel=0 note=30 velocity=112 time=92
note_on channel=0 note=42 velocity=88 time=4
note_off channel=0 note=42 velocity=88 time=35
note_on channel=0 note=42 velocity=104 time=13
note_off channel=0 note=42 velocity=104 time=44
note_on channel=0 note=30 velocity=62 time=4
note_off channel=0 note=30 velocity=62 time=41
note_on channel=0 note=35 velocity=96 time=7
note_off channel=0 note=35 velocity=96 time=52
note_on channel=0 note=35 velocity=82 time=23
note_off channel=0 note=35 velocity=82 time=27
note_on channel=0 note=35 velocity=88 time=42
note_off channel=0 note=35 velocity=88 time=55
note_on channel=0 note=35 velocity=82 time=20
note_off channel=0 note=35 velocity=82 time=12
note_on channel=0 note=35 velocity=96 time=9
note_off channel=0 note=35 velocity=96 time=17
note_on channel=0 note=35 velocity=86 time=10
note_off channel=0 note=35 velocity=86 time=17
note_on channel=0 note=35 velocity=84 time=4
note_off channel=0 note=35 velocity=84 time=44
note_on channel=0 note=30 velocity=72 time=4
note_off channel=0 note=30 velocity=72 time=43
note_on channel=0 note=28 velocity=104 time=5
note_off channel=0 note=28 velocity=104 time=43
note_on channel=0 note=28 velocity=100 time=32
note_off channel=0 note=28 velocity=100 time=21
note_on channel=0 note=28 velocity=104 time=48
note_off channel=0 note=28 velocity=104 time=73
note_on channel=0 note=28 velocity=82 time=23
note_off channel=0 note=28 velocity=82 time=20
note_on channel=0 note=30 velocity=108 time=7
note_off channel=0 note=30 velocity=108 time=18
note_on channel=0 note=32 velocity=104 time=3
note_off channel=0 note=32 velocity=104 time=46
note_on channel=0 note=30 velocity=82 time=2
note_off channel=0 note=30 velocity=82 time=43
note_on channel=0 note=33 velocity=104 time=5
note_off channel=0 note=33 velocity=104 time=50
note_on channel=0 note=33 velocity=100 time=25
note_off channel=0 note=33 velocity=100 time=14
note_on channel=0 note=33 velocity=104 time=55
note_off channel=0 note=33 velocity=104 time=50
note_on channel=0 note=33 velocity=86 time=25
note_on channel=0 note=40 velocity=80 time=21
note_off channel=0 note=33 velocity=86 time=2
note_off channel=0 note=40 velocity=80 time=21
note_on channel=0 note=42 velocity=80 time=4
note_on channel=0 note=45 velocity=92 time=21
note_off channel=0 note=42 velocity=80 time=1
pitchwheel channel=0 pitch=-81 time=45
pitchwheel channel=0 pitch=-191 time=3
pitchwheel channel=0 pitch=-293 time=3
pitchwheel channel=0 pitch=-382 time=4
pitchwheel channel=0 pitch=-464 time=3
pitchwheel channel=0 pitch=-573 time=3
pitchwheel channel=0 pitch=-682 time=4
pitchwheel channel=0 pitch=-853 time=3
pitchwheel channel=0 pitch=-976 time=4
pitchwheel channel=0 pitch=-853 time=4
note_off channel=0 note=45 velocity=92 time=3
pitchwheel channel=0 pitch=20 time=0
pitchwheel channel=0 pitch=0 time=1
note_on channel=0 note=33 velocity=104 time=15
note_off channel=0 note=33 velocity=104 time=46
note_on channel=0 note=33 velocity=100 time=29
note_off channel=0 note=33 velocity=100 time=18
note_on channel=0 note=33 velocity=86 time=51
note_off channel=0 note=33 velocity=86 time=60
note_on channel=0 note=28 velocity=76 time=15
note_off channel=0 note=28 velocity=76 time=12
note_on channel=0 note=28 velocity=86 time=9
note_off channel=0 note=28 velocity=86 time=21
note_on channel=0 note=30 velocity=82 time=27
note_off channel=0 note=30 velocity=82 time=47
note_on channel=0 note=32 velocity=82 time=1
note_off channel=0 note=32 velocity=82 time=48
note_on channel=0 note=33 velocity=84 time=0
note_off channel=0 note=33 velocity=84 time=55
note_on channel=0 note=33 velocity=108 time=20
note_off channel=0 note=33 velocity=108 time=17
note_on channel=0 note=33 velocity=100 time=52
note_off channel=0 note=33 velocity=100 time=63
note_on channel=0 note=33 velocity=76 time=12
note_on channel=0 note=40 velocity=80 time=21
note_off channel=0 note=33 velocity=76 time=4
note_off channel=0 note=40 velocity=80 time=18
note_on channel=0 note=42 velocity=84 time=5
note_off channel=0 note=42 velocity=84 time=18
note_on channel=0 note=45 velocity=104 time=3
pitchwheel channel=0 pitch=-122 time=47
pitchwheel channel=0 pitch=-232 time=4
pitchwheel channel=0 pitch=-341 time=3
pitchwheel channel=0 pitch=-532 time=3
pitchwheel channel=0 pitch=-634 time=4
pitchwheel channel=0 pitch=-744 time=3
pitchwheel channel=0 pitch=-805 time=4
pitchwheel channel=0 pitch=-826 time=3
pitchwheel channel=0 pitch=-634 time=4
pitchwheel channel=0 pitch=0 time=4
note_off channel=0 note=45 velocity=104 time=5
note_on channel=0 note=33 velocity=104 time=12
note_off channel=0 note=33 velocity=104 time=55
note_on channel=0 note=33 velocity=96 time=20
note_off channel=0 note=33 velocity=96 time=24
note_on channel=0 note=33 velocity=88 time=45
note_off channel=0 note=33 velocity=88 time=62
note_on channel=0 note=33 velocity=84 time=13
note_off channel=0 note=33 velocity=84 time=19
note_on channel=0 note=28 velocity=92 time=2
note_off channel=0 note=28 velocity=92 time=48
note_on channel=0 note=30 velocity=96 time=0
note_off channel=0 note=30 velocity=96 time=47
note_on channel=0 note=32 velocity=78 time=1
note_off channel=0 note=32 velocity=78 time=46
note_on channel=0 note=33 velocity=88 time=2
note_off channel=0 note=33 velocity=88 time=54
note_on channel=0 note=33 velocity=100 time=21
note_off channel=0 note=33 velocity=100 time=15
note_on channel=0 note=33 velocity=88 time=54
note_off channel=0 note=33 velocity=88 time=90
note_on channel=0 note=40 velocity=72 time=6
note_off channel=0 note=40 velocity=72 time=22
note_on channel=0 note=42 velocity=74 time=5
note_off channel=0 note=42 velocity=74 time=18
note_on channel=0 note=45 velocity=100 time=3
pitchwheel channel=0 pitch=-40 time=40
pitchwheel channel=0 pitch=-143 time=2
pitchwheel channel=0 pitch=-252 time=3
pitchwheel channel=0 pitch=-402 time=4
pitchwheel channel=0 pitch=-552 time=4
pitchwheel channel=0 pitch=-723 time=3
pitchwheel channel=0 pitch=-853 time=4
pitchwheel channel=0 pitch=-955 time=3
pitchwheel channel=0 pitch=-764 time=5
pitchwheel channel=0 pitch=-655 time=2
pitchwheel channel=0 pitch=0 time=1
note_off channel=0 note=45 velocity=100 time=4
note_on channel=0 note=33 velocity=108 time=21
note_off channel=0 note=33 velocity=108 time=54
note_on channel=0 note=33 velocity=76 time=21
note_off channel=0 note=33 velocity=76 time=37
note_on channel=0 note=33 velocity=86 time=32
note_off channel=0 note=33 velocity=86 time=93
note_on channel=0 note=28 velocity=66 time=3
note_off channel=0 note=28 velocity=66 time=16
note_on channel=0 note=28 velocity=74 time=11
note_off channel=0 note=28 velocity=74 time=21
note_on channel=0 note=30 velocity=86 time=0
note_off channel=0 note=30 velocity=86 time=47
note_on channel=0 note=32 velocity=82 time=1
note_off channel=0 note=32 velocity=82 time=44
note_on channel=0 note=33 velocity=80 time=4
note_off channel=0 note=33 velocity=80 time=42
note_on channel=0 note=33 velocity=80 time=33
note_off channel=0 note=33 velocity=80 time=22
note_on channel=0 note=33 velocity=86 time=47
note_off channel=0 note=33 velocity=86 time=69
note_on channel=0 note=33 velocity=60 time=6
note_off channel=0 note=33 velocity=60 time=11
note_on channel=0 note=33 velocity=88 time=10
note_off channel=0 note=33 velocity=88 time=45
note_on channel=0 note=32 velocity=96 time=3
note_off channel=0 note=32 velocity=96 time=75
note_on channel=0 note=30 velocity=104 time=21
note_off channel=0 note=30 velocity=104 time=57
note_on channel=0 note=30 velocity=92 time=18
note_off channel=0 note=30 velocity=92 time=29
note_on channel=0 note=28 velocity=108 time=40
note_off channel=0 note=28 velocity=108 time=56
note_on channel=0 note=28 velocity=80 time=19
note_off channel=0 note=28 velocity=80 time=63
note_on channel=0 note=28 velocity=92 time=6
note_off channel=0 note=28 velocity=92 time=24
note_on channel=0 note=30 velocity=72 time=3
note_on channel=0 note=32 velocity=80 time=21
note_off channel=0 note=30 velocity=72 time=3
note_off channel=0 note=32 velocity=80 time=45
note_on channel=0 note=28 velocity=92 time=0
note_off channel=0 note=28 velocity=92 time=54
note_on channel=0 note=28 velocity=67 time=21
note_off channel=0 note=28 velocity=67 time=12
note_on channel=0 note=28 velocity=96 time=9
note_off channel=0 note=28 velocity=96 time=18
note_on channel=0 note=28 velocity=104 time=30
note_off channel=0 note=28 velocity=104 time=51
note_on channel=0 note=28 velocity=82 time=24
note_on channel=0 note=40 velocity=88 time=21
note_off channel=0 note=28 velocity=82 time=1
note_off channel=0 note=40 velocity=88 time=21
note_on channel=0 note=35 velocity=84 time=5
note_on channel=0 note=40 velocity=104 time=21
note_off channel=0 note=35 velocity=84 time=1
note_off channel=0 note=40 velocity=104 time=46
note_on channel=0 note=35 velocity=76 time=1
note_off channel=0 note=35 velocity=76 time=20
note_on channel=0 note=36 velocity=78 time=7
note_off channel=0 note=36 velocity=78 time=19
note_on channel=0 note=37 velocity=104 time=2
note_off channel=0 note=37 velocity=104 time=57
note_on channel=0 note=37 velocity=104 time=18
note_off channel=0 note=37 velocity=104 time=16
note_on channel=0 note=37 velocity=100 time=53
note_off channel=0 note=37 velocity=100 time=56
note_on channel=0 note=37 velocity=84 time=19
note_on channel=0 note=39 velocity=96 time=21
note_off channel=0 note=37 velocity=84 time=3
note_off channel=0 note=39 velocity=96 time=15
note_on channel=0 note=39 velocity=80 time=9
note_off channel=0 note=39 velocity=80 time=21
note_on channel=0 note=40 velocity=78 time=0
note_off channel=0 note=40 velocity=78 time=15
note_on channel=0 note=40 velocity=60 time=12
note_off channel=0 note=40 velocity=60 time=9
note_on channel=0 note=40 velocity=76 time=12
note_off channel=0 note=40 velocity=76 time=20
note_on channel=0 note=41 velocity=70 time=7
note_off channel=0 note=41 velocity=70 time=19
note_on channel=0 note=42 velocity=96 time=2
note_off channel=0 note=42 velocity=96 time=50
note_on channel=0 note=42 velocity=100 time=25
note_off channel=0 note=42 velocity=100 time=12
note_on channel=0 note=42 velocity=96 time=9
note_off channel=0 note=42 velocity=96 time=23
note_on channel=0 note=42 velocity=88 time=25
note_off channel=0 note=42 velocity=88 time=57
note_on channel=0 note=42 velocity=88 time=18
note_off channel=0 note=42 velocity=88 time=11
note_on channel=0 note=42 velocity=88 time=10
note_off channel=0 note=42 velocity=88 time=13
note_on channel=0 note=42 velocity=88 time=14
note_off channel=0 note=42 velocity=88 time=15
note_on channel=0 note=42 velocity=96 time=6
note_off channel=0 note=42 velocity=96 time=45
note_on channel=0 note=40 velocity=86 time=3
note_off channel=0 note=40 velocity=86 time=42
note_on channel=0 note=39 velocity=76 time=6
note_off channel=0 note=39 velocity=76 time=55
note_on channel=0 note=39 velocity=84 time=20
note_off channel=0 note=39 velocity=84 time=13
note_on channel=0 note=39 velocity=82 time=8
note_off channel=0 note=39 velocity=82 time=19
note_on channel=0 note=39 velocity=96 time=29
note_off channel=0 note=39 velocity=96 time=55
note_on channel=0 note=39 velocity=74 time=20
note_off channel=0 note=39 velocity=74 time=11
note_on channel=0 note=39 velocity=78 time=10
note_off channel=0 note=39 velocity=78 time=13
note_on channel=0 note=39 velocity=70 time=14
note_off channel=0 note=39 velocity=70 time=9
note_on channel=0 note=39 velocity=108 time=12
note_off channel=0 note=39 velocity=108 time=46
note_on channel=0 note=39 velocity=74 time=29
note_on channel=0 note=38 velocity=86 time=21
note_off channel=0 note=39 velocity=74 time=2
note_off channel=0 note=38 velocity=86 time=56
note_on channel=0 note=38 velocity=92 time=17
note_off channel=0 note=38 velocity=92 time=15
note_on channel=0 note=38 velocity=92 time=54
note_off channel=0 note=38 velocity=92 time=78
note_on channel=0 note=38 velocity=86 time=18
note_off channel=0 note=38 velocity=86 time=18
note_on channel=0 note=38 velocity=100 time=30
note_off channel=0 note=38 velocity=100 time=23
note_on channel=0 note=37 velocity=88 time=4
note_off channel=0 note=37 velocity=88 time=65
note_on channel=0 note=35 velocity=88 time=4
note_off channel=0 note=35 velocity=88 time=38
note_on channel=0 note=35 velocity=74 time=37
note_off channel=0 note=35 velocity=74 time=18
note_on channel=0 note=35 velocity=86 time=51
note_off channel=0 note=35 velocity=86 time=71
note_on channel=0 note=30 velocity=88 time=4
note_on channel=0 note=35 velocity=88 time=21
note_off channel=0 note=30 velocity=88 time=2
note_off channel=0 note=35 velocity=88 time=11
note_on channel=0 note=35 velocity=82 time=14
note_on channel=0 note=28 velocity=88 time=21
note_off channel=0 note=35 velocity=82 time=2
note_off channel=0 note=28 velocity=88 time=40
note_on channel=0 note=30 velocity=74 time=6
note_off channel=0 note=30 velocity=74 time=47
note_on channel=0 note=33 velocity=86 time=1
note_off channel=0 note=33 velocity=86 time=45
note_on channel=0 note=33 velocity=86 time=30
note_off channel=0 note=33 velocity=86 time=21
note_on channel=0 note=33 velocity=104 time=48
note_off channel=0 note=33 velocity=104 time=47
note_on channel=0 note=33 velocity=72 time=28
note_off channel=0 note=33 velocity=72 time=12
note_on channel=0 note=33 velocity=98 time=9
note_off channel=0 note=33 velocity=98 time=26
note_on channel=0 note=40 velocity=82 time=22
note_off channel=0 note=40 velocity=82 time=24
note_on channel=0 note=42 velocity=104 time=3
note_on channel=0 note=45 velocity=96 time=21
note_off channel=0 note=42 velocity=104 time=2
note_off channel=0 note=45 velocity=96 time=46
note_on channel=0 note=33 velocity=104 time=0
note_off channel=0 note=33 velocity=104 time=51
note_on channel=0 note=33 velocity=86 time=24
note_off channel=0 note=33 velocity=86 time=19
note_on channel=0 note=33 velocity=86 time=50
note_off channel=0 note=33 velocity=86 time=49
note_on channel=0 note=33 velocity=80 time=26
note_on channel=0 note=28 velocity=72 time=21
note_off channel=0 note=33 velocity=80 time=1
note_off channel=0 note=28 velocity=72 time=12
note_on channel=0 note=28 velocity=74 time=14
note_off channel=0 note=28 velocity=74 time=21
note_on channel=0 note=30 velocity=100 time=0
note_off channel=0 note=30 velocity=100 time=47
note_on channel=0 note=32 velocity=84 time=1
note_off channel=0 note=32 velocity=84 time=19
note_on channel=0 note=32 velocity=84 time=8
note_on channel=0 note=33 velocity=86 time=21
note_off channel=0 note=32 velocity=84 time=2
note_off channel=0 note=33 velocity=86 time=43
note_on channel=0 note=33 velocity=86 time=30
note_off channel=0 note=33 velocity=86 time=21
note_on channel=0 note=33 velocity=104 time=48
note_off channel=0 note=33 velocity=104 time=47
note_on channel=0 note=33 velocity=72 time=28
note_off channel=0 note=33 velocity=72 time=12
note_on channel=0 note=33 velocity=98 time=9
note_off channel=0 note=33 velocity=98 time=26
note_on channel=0 note=40 velocity=82 time=22
note_off channel=0 note=40 velocity=82 time=22
note_on channel=0 note=42 velocity=104 time=5
note_on channel=0 note=45 velocity=96 time=21
note_off channel=0 note=42 velocity=104 time=2
note_off channel=0 note=45 velocity=96 time=46
note_on channel=0 note=33 velocity=84 time=0
note_off channel=0 note=33 velocity=84 time=53
note_on channel=0 note=33 velocity=82 time=22
note_off channel=0 note=33 velocity=82 time=23
note_on channel=0 note=33 velocity=82 time=46
note_off channel=0 note=33 velocity=82 time=60
note_on channel=0 note=33 velocity=74 time=15
note_off channel=0 note=33 velocity=74 time=14
note_on channel=0 note=33 velocity=76 time=7
note_off channel=0 note=33 velocity=76 time=47
note_on channel=0 note=28 velocity=80 time=1
note_off channel=0 note=28 velocity=80 time=42
note_on channel=0 note=30 velocity=78 time=6
note_off channel=0 note=30 velocity=78 time=44
note_on channel=0 note=33 velocity=82 time=4
note_off channel=0 note=33 velocity=82 time=50
note_on channel=0 note=33 velocity=86 time=25
note_off channel=0 note=33 velocity=86 time=26
note_on channel=0 note=40 velocity=80 time=139
note_off channel=0 note=40 velocity=80 time=20
note_on channel=0 note=42 velocity=86 time=7
note_on channel=0 note=45 velocity=86 time=21
note_off channel=0 note=42 velocity=86 time=3
note_off channel=0 note=45 velocity=86 time=44
note_on channel=0 note=33 velocity=86 time=1
note_off channel=0 note=33 velocity=86 time=19
note_on channel=0 note=33 velocity=104 time=29
note_off channel=0 note=33 velocity=104 time=51
note_on channel=0 note=33 velocity=82 time=24
note_off channel=0 note=33 velocity=82 time=12
note_on channel=0 note=33 velocity=104 time=57
note_off channel=0 note=33 velocity=104 time=80
note_on channel=0 note=40 velocity=66 time=16
note_on channel=0 note=42 velocity=74 time=27
note_off channel=0 note=40 velocity=66 time=2
note_on channel=0 note=45 velocity=86 time=19
note_off channel=0 note=42 velocity=74 time=2
note_off channel=0 note=45 velocity=86 time=35
note_on channel=0 note=32 velocity=112 time=11
note_off channel=0 note=32 velocity=112 time=26
note_on channel=0 note=33 velocity=108 time=22
note_off channel=0 note=33 velocity=108 time=54
note_on channel=0 note=33 velocity=86 time=21
note_off channel=0 note=33 velocity=86 time=22
note_on channel=0 note=33 velocity=104 time=47
note_off channel=0 note=33 velocity=104 time=57
note_on channel=0 note=33 velocity=64 time=18
note_off channel=0 note=33 velocity=64 time=12
note_on channel=0 note=33 velocity=82 time=9
note_off channel=0 note=33 velocity=82 time=48
note_on channel=0 note=40 velocity=78 time=0
note_off channel=0 note=40 velocity=78 time=22
note_on channel=0 note=42 velocity=64 time=5
note_on channel=0 note=45 velocity=88 time=21
note_off channel=0 note=42 velocity=64 time=1
note_off channel=0 note=45 velocity=88 time=47
note_on channel=0 note=33 velocity=88 time=0
note_off channel=0 note=33 velocity=88 time=53
note_on channel=0 note=33 velocity=82 time=22
note_off channel=0 note=33 velocity=82 time=17
note_on channel=0 note=33 velocity=76 time=52
note_off channel=0 note=33 velocity=76 time=61
note_on channel=0 note=33 velocity=78 time=14
note_off channel=0 note=33 velocity=78 time=21
note_on channel=0 note=28 velocity=96 time=0
note_off channel=0 note=28 velocity=96 time=46
note_on channel=0 note=30 velocity=82 time=2
note_off channel=0 note=30 velocity=82 time=46
note_on channel=0 note=32 velocity=76 time=2
note_off channel=0 note=32 velocity=76 time=47
note_on channel=0 note=33 velocity=84 time=1
note_off channel=0 note=33 velocity=84 time=58
note_on channel=0 note=33 velocity=86 time=17
note_off channel=0 note=33 velocity=86 time=27
note_on channel=0 note=33 velocity=92 time=42
note_off channel=0 note=33 velocity=92 time=80
note_on channel=0 note=33 velocity=86 time=16
note_off channel=0 note=33 velocity=86 time=46
note_on channel=0 note=40 velocity=78 time=2
note_off channel=0 note=40 velocity=78 time=18
note_on channel=0 note=42 velocity=68 time=9
note_on channel=0 note=45 velocity=80 time=21
note_off channel=0 note=42 velocity=68 time=3
note_off channel=0 note=45 velocity=80 time=44
note_on channel=0 note=42 velocity=74 time=1
note_off channel=0 note=42 velocity=74 time=56
note_on channel=0 note=42 velocity=86 time=19
note_off channel=0 note=42 velocity=86 time=17
note_on channel=0 note=42 velocity=96 time=52
note_off channel=0 note=42 velocity=96 time=62
note_on channel=0 note=42 velocity=76 time=34
note_off channel=0 note=42 velocity=76 time=23
note_on channel=0 note=37 velocity=74 time=4
note_on channel=0 note=42 velocity=92 time=21
note_off channel=0 note=37 velocity=74 time=1
note_off channel=0 note=42 velocity=92 time=42
note_on channel=0 note=32 velocity=82 time=5
pitchwheel channel=0 pitch=-61 time=15
pitchwheel channel=0 pitch=-191 time=2
pitchwheel channel=0 pitch=-314 time=3
pitchwheel channel=0 pitch=-464 time=3
pitchwheel channel=0 pitch=-593 time=4
pitchwheel channel=0 pitch=-785 time=3
pitchwheel channel=0 pitch=-955 time=4
pitchwheel channel=0 pitch=-1085 time=3
pitchwheel channel=0 pitch=-853 time=4
pitchwheel channel=0 pitch=0 time=2
pitchwheel channel=0 pitch=102 time=2
note_off channel=0 note=32 velocity=82 time=1
pitchwheel channel=0 pitch=0 time=1
note_on channel=0 note=28 velocity=104 time=1
note_off channel=0 note=28 velocity=104 time=50
note_on channel=0 note=28 velocity=88 time=25
note_off channel=0 note=28 velocity=88 time=20
note_on channel=0 note=32 velocity=104 time=1
note_off channel=0 note=32 velocity=104 time=47
note_on channel=0 note=40 velocity=88 time=1
note_off channel=0 note=40 velocity=88 time=88
note_on channel=0 note=40 velocity=86 time=8
note_off channel=0 note=40 velocity=86 time=13
note_on channel=0 note=40 velocity=66 time=14
note_off channel=0 note=40 velocity=66 time=8
note_on channel=0 note=40 velocity=80 time=13
note_off channel=0 note=40 velocity=80 time=27
note_on channel=0 note=44 velocity=100 time=0
note_on channel=0 note=47 velocity=92 time=21
note_off channel=0 note=44 velocity=100 time=2
note_off channel=0 note=47 velocity=92 time=15
note_on channel=0 note=28 velocity=100 time=31
note_off channel=0 note=28 velocity=100 time=54
note_on channel=0 note=28 velocity=80 time=21
pitchwheel channel=0 pitch=-191 time=7
pitchwheel channel=0 pitch=-484 time=3
pitchwheel channel=0 pitch=-744 time=3
pitchwheel channel=0 pitch=-914 time=4
note_off channel=0 note=28 velocity=80 time=1
pitchwheel channel=0 pitch=-935 time=3
note_on channel=0 note=32 velocity=108 time=0
pitchwheel channel=0 pitch=-826 time=4
pitchwheel channel=0 pitch=-655 time=3
pitchwheel channel=0 pitch=-512 time=3
pitchwheel channel=0 pitch=-361 time=3
pitchwheel channel=0 pitch=-211 time=4
pitchwheel channel=0 pitch=-40 time=3
pitchwheel channel=0 pitch=0 time=2
note_on channel=0 note=40 velocity=86 time=26
note_off channel=0 note=32 velocity=108 time=4
note_off channel=0 note=40 velocity=86 time=87
note_on channel=0 note=40 velocity=74 time=5
note_off channel=0 note=40 velocity=74 time=11
note_on channel=0 note=40 velocity=72 time=16
note_off channel=0 note=40 velocity=72 time=10
note_on channel=0 note=40 velocity=66 time=11
note_off channel=0 note=40 velocity=66 time=24
note_on channel=0 note=44 velocity=80 time=3
note_on channel=0 note=47 velocity=88 time=21
note_off channel=0 note=44 velocity=80 time=1
note_off channel=0 note=47 velocity=88 time=13
note_on channel=0 note=28 velocity=100 time=34
note_off channel=0 note=28 velocity=100 time=104
note_on channel=0 note=30 velocity=96 time=40
note_off channel=0 note=30 velocity=96 time=94
note_on channel=0 note=40 velocity=84 time=2
note_off channel=0 note=40 velocity=84 time=46
note_on channel=0 note=42 velocity=80 time=2
note_off channel=0 note=42 velocity=80 time=56
note_on channel=0 note=42 velocity=72 time=40
note_off channel=0 note=42 velocity=72 time=47
note_on channel=0 note=42 velocity=78 time=28
note_off channel=0 note=42 velocity=78 time=24
note_on channel=0 note=42 velocity=84 time=45
note_off channel=0 note=42 velocity=84 time=59
note_on channel=0 note=42 velocity=88 time=37
note_off channel=0 note=42 velocity=88 time=73
note_on channel=0 note=37 velocity=92 time=2
note_off channel=0 note=37 velocity=92 time=64
note_on channel=0 note=35 velocity=104 time=5
note_off channel=0 note=35 velocity=104 time=121
note_on channel=0 note=35 velocity=104 time=23
note_off channel=0 note=35 velocity=104 time=45
note_on channel=0 note=47 velocity=82 time=3
note_off channel=0 note=47 velocity=82 time=24
note_on channel=0 note=42 velocity=82 time=3
pitchwheel channel=0 pitch=-293 time=12
pitchwheel channel=0 pitch=-532 time=4
pitchwheel channel=0 pitch=-655 time=3
note_on channel=0 note=38 velocity=80 time=2
note_off channel=0 note=42 velocity=82 time=2
pitchwheel channel=0 pitch=-682 time=0
pitchwheel channel=0 pitch=-614 time=5
pitchwheel channel=0 pitch=-402 time=2
pitchwheel channel=0 pitch=-293 time=4
pitchwheel channel=0 pitch=0 time=2
note_off channel=0 note=38 velocity=80 time=22
pitchwheel channel=0 pitch=-20 time=3
pitchwheel channel=0 pitch=-211 time=1
pitchwheel channel=0 pitch=-423 time=3
pitchwheel channel=0 pitch=-443 time=4
note_on channel=0 note=38 velocity=84 time=0
pitchwheel channel=0 pitch=-464 time=3
pitchwheel channel=0 pitch=-402 time=5
pitchwheel channel=0 pitch=-273 time=2
pitchwheel channel=0 pitch=0 time=3
note_off channel=0 note=38 velocity=84 time=33
note_on channel=0 note=32 velocity=82 time=2
note_off channel=0 note=32 velocity=82 time=47
note_on channel=0 note=28 velocity=96 time=1
note_off channel=0 note=28 velocity=96 time=94
note_on channel=0 note=28 velocity=96 time=29
note_on channel=0 note=40 velocity=92 time=21
note_off channel=0 note=28 velocity=96 time=3
note_off channel=0 note=40 velocity=92 time=21
note_on channel=0 note=38 velocity=86 time=3
note_off channel=0 note=38 velocity=86 time=46
note_on channel=0 note=40 velocity=100 time=2
note_on channel=0 note=38 velocity=88 time=21
note_off channel=0 note=40 velocity=100 time=3
note_off channel=0 note=38 velocity=88 time=55
note_on channel=0 note=38 velocity=100 time=17
note_off channel=0 note=38 velocity=100 time=35
note_on channel=0 note=32 velocity=88 time=13
note_off channel=0 note=32 velocity=88 time=21
note_on channel=0 note=33 velocity=108 time=0
note_off channel=0 note=33 velocity=108 time=46
note_on channel=0 note=33 velocity=96 time=29
note_off channel=0 note=33 velocity=96 time=14
note_on channel=0 note=33 velocity=100 time=55
note_off channel=0 note=33 velocity=100 time=79
note_on channel=0 note=33 velocity=84 time=17
note_off channel=0 note=33 velocity=84 time=46
note_on channel=0 note=40 velocity=78 time=2
note_off channel=0 note=40 velocity=78 time=19
note_on channel=0 note=42 velocity=82 time=8
note_off channel=0 note=42 velocity=82 time=20
note_on channel=0 note=45 velocity=88 time=1
note_off channel=0 note=45 velocity=88 time=41
note_on channel=0 note=33 velocity=86 time=7
note_off channel=0 note=33 velocity=86 time=50
note_on channel=0 note=33 velocity=88 time=25
note_off channel=0 note=33 velocity=88 time=19
note_on channel=0 note=33 velocity=86 time=50
note_off channel=0 note=33 velocity=86 time=48
note_on channel=0 note=28 velocity=92 time=27
note_off channel=0 note=28 velocity=92 time=19
note_on channel=0 note=28 velocity=96 time=2
note_off channel=0 note=28 velocity=96 time=17
note_on channel=0 note=28 velocity=82 time=10
note_off channel=0 note=28 velocity=82 time=17
note_on channel=0 note=30 velocity=112 time=4
note_off channel=0 note=30 velocity=112 time=42
note_on channel=0 note=32 velocity=76 time=6
note_off channel=0 note=32 velocity=76 time=47
note_on channel=0 note=33 velocity=84 time=1
note_off channel=0 note=33 velocity=84 time=55
note_on channel=0 note=33 velocity=96 time=20
note_off channel=0 note=33 velocity=96 time=12
note_on channel=0 note=33 velocity=100 time=57
note_off channel=0 note=33 velocity=100 time=79
note_on channel=0 note=33 velocity=86 time=17
note_off channel=0 note=33 velocity=86 time=46
note_on channel=0 note=40 velocity=84 time=2
note_off channel=0 note=40 velocity=84 time=25
note_on channel=0 note=42 velocity=82 time=2
note_off channel=0 note=42 velocity=82 time=18
note_on channel=0 note=45 velocity=84 time=3
note_off channel=0 note=45 velocity=84 time=35
note_on channel=0 note=33 velocity=86 time=13
note_off channel=0 note=33 velocity=86 time=48
note_on channel=0 note=33 velocity=84 time=27
note_off channel=0 note=33 velocity=84 time=20
note_on channel=0 note=33 velocity=86 time=49
note_off channel=0 note=33 velocity=86 time=47
note_on channel=0 note=33 velocity=72 time=28
note_off channel=0 note=33 velocity=72 time=17
note_on channel=0 note=28 velocity=96 time=4
note_off channel=0 note=28 velocity=96 time=47
note_on channel=0 note=30 velocity=92 time=1
note_off channel=0 note=30 velocity=92 time=48
note_on channel=0 note=32 velocity=82 time=0
note_off channel=0 note=32 velocity=82 time=47
note_on channel=0 note=33 velocity=104 time=1
note_off channel=0 note=33 velocity=104 time=47
note_on channel=0 note=33 velocity=86 time=28
note_off channel=0 note=33 velocity=86 time=12
note_on channel=0 note=33 velocity=86 time=57
note_off channel=0 note=33 velocity=86 time=61
note_on channel=0 note=33 velocity=86 time=35
note_off channel=0 note=33 velocity=86 time=45
note_on channel=0 note=40 velocity=80 time=3
note_off channel=0 note=40 velocity=80 time=22
note_on channel=0 note=42 velocity=72 time=5
note_on channel=0 note=45 velocity=76 time=21
note_off channel=0 note=42 velocity=72 time=2
note_off channel=0 note=45 velocity=76 time=35
note_on channel=0 note=33 velocity=86 time=11
note_off channel=0 note=33 velocity=86 time=43
note_on channel=0 note=33 velocity=76 time=32
note_off channel=0 note=33 velocity=76 time=21
note_on channel=0 note=33 velocity=84 time=48
note_off channel=0 note=33 velocity=84 time=59
note_on channel=0 note=33 velocity=80 time=16
note_on channel=0 note=28 velocity=84 time=21
note_off channel=0 note=33 velocity=80 time=1
note_off channel=0 note=28 velocity=84 time=46
note_on channel=0 note=30 velocity=88 time=1
note_off channel=0 note=30 velocity=88 time=47
note_on channel=0 note=32 velocity=78 time=1
note_off channel=0 note=32 velocity=78 time=45
note_on channel=0 note=33 velocity=84 time=3
note_off channel=0 note=33 velocity=84 time=47
note_on channel=0 note=33 velocity=82 time=28
note_off channel=0 note=33 velocity=82 time=16
note_on channel=0 note=33 velocity=88 time=53
note_off channel=0 note=33 velocity=88 time=60
note_on channel=0 note=33 velocity=78 time=15
note_off channel=0 note=33 velocity=78 time=13
note_on channel=0 note=33 velocity=86 time=8
note_off channel=0 note=33 velocity=86 time=44
note_on channel=0 note=32 velocity=100 time=4
note_off channel=0 note=32 velocity=100 time=80
note_on channel=0 note=30 velocity=86 time=16
note_off channel=0 note=30 velocity=86 time=49
note_on channel=0 note=30 velocity=86 time=26
note_off channel=0 note=30 velocity=86 time=23
note_on channel=0 note=28 velocity=88 time=46
note_off channel=0 note=28 velocity=88 time=81
note_on channel=0 note=28 velocity=88 time=15
note_off channel=0 note=28 velocity=88 time=20
note_on channel=0 note=28 velocity=82 time=28
note_off channel=0 note=28 velocity=82 time=22
note_on channel=0 note=30 velocity=92 time=5
note_on channel=0 note=32 velocity=72 time=21
note_off channel=0 note=30 velocity=92 time=3
note_off channel=0 note=32 velocity=72 time=43
note_on channel=0 note=28 velocity=100 time=2
note_off channel=0 note=28 velocity=100 time=49
note_on channel=0 note=28 velocity=88 time=26
note_off channel=0 note=28 velocity=88 time=16
note_on channel=0 note=28 velocity=92 time=53
note_off channel=0 note=28 velocity=92 time=57
note_on channel=0 note=28 velocity=80 time=18
note_on channel=0 note=40 velocity=86 time=21
note_off channel=0 note=28 velocity=80 time=2
note_off channel=0 note=40 velocity=86 time=20
note_on channel=0 note=35 velocity=74 time=5
note_on channel=0 note=40 velocity=96 time=21
note_off channel=0 note=35 velocity=74 time=2
note_off channel=0 note=40 velocity=96 time=20
note_on channel=0 note=35 velocity=84 time=5
note_off channel=0 note=35 velocity=84 time=62
note_on channel=0 note=37 velocity=76 time=7
note_off channel=0 note=37 velocity=76 time=47
note_on channel=0 note=37 velocity=86 time=28
note_off channel=0 note=37 velocity=86 time=16
note_on channel=0 note=37 velocity=96 time=53
note_off channel=0 note=37 velocity=96 time=50
note_on channel=0 note=37 velocity=92 time=25
note_on channel=0 note=38 velocity=80 time=21
note_off channel=0 note=37 velocity=92 time=2
note_off channel=0 note=38 velocity=80 time=16
note_on channel=0 note=37 velocity=72 time=9
note_on channel=0 note=39 velocity=84 time=21
note_off channel=0 note=37 velocity=72 time=1
note_off channel=0 note=39 velocity=84 time=23
note_on channel=0 note=40 velocity=86 time=3
note_on channel=0 note=41 velocity=70 time=21
note_off channel=0 note=40 velocity=86 time=1
note_off channel=0 note=41 velocity=70 time=38
note_on channel=0 note=42 velocity=82 time=9
note_off channel=0 note=42 velocity=82 time=48
note_on channel=0 note=42 velocity=96 time=27
note_off channel=0 note=42 velocity=96 time=15
note_on channel=0 note=42 velocity=88 time=54
note_off channel=0 note=42 velocity=88 time=95
note_on channel=0 note=45 velocity=84 time=1
note_off channel=0 note=45 velocity=84 time=23
note_on channel=0 note=49 velocity=100 time=4
note_on channel=0 note=45 velocity=86 time=21
note_off channel=0 note=49 velocity=100 time=3
note_on channel=0 note=46 velocity=76 time=45
note_off channel=0 note=45 velocity=86 time=7
note_off channel=0 note=46 velocity=76 time=16
note_on channel=0 note=47 velocity=82 time=4
note_on channel=0 note=39 velocity=92 time=21
note_off channel=0 note=47 velocity=82 time=1
note_off channel=0 note=39 velocity=92 time=56
note_on channel=0 note=39 velocity=92 time=18
note_off channel=0 note=39 velocity=92 time=15
note_on channel=0 note=39 velocity=92 time=54
note_off channel=0 note=39 velocity=92 time=52
note_on channel=0 note=39 velocity=84 time=23
note_off channel=0 note=39 velocity=84 time=19
note_on channel=0 note=47 velocity=72 time=2
note_off channel=0 note=47 velocity=72 time=21
note_on channel=0 note=39 velocity=86 time=6
note_off channel=0 note=39 velocity=86 time=21
note_on channel=0 note=47 velocity=86 time=0
note_off channel=0 note=47 velocity=86 time=18
note_on channel=0 note=39 velocity=69 time=9
note_off channel=0 note=39 velocity=69 time=69
note_on channel=0 note=38 velocity=108 time=0
note_off channel=0 note=38 velocity=108 time=58
note_on channel=0 note=38 velocity=84 time=17
note_off channel=0 note=38 velocity=84 time=16
note_on channel=0 note=38 velocity=86 time=53
note_off channel=0 note=38 velocity=86 time=67
note_on channel=0 note=50 velocity=74 time=8
note_off channel=0 note=50 velocity=74 time=17
note_on channel=0 note=38 velocity=100 time=4
note_off channel=0 note=38 velocity=100 time=38
note_on channel=0 note=38 velocity=92 time=10
note_off channel=0 note=38 velocity=92 time=24
note_on channel=0 note=36 velocity=95 time=3
note_off channel=0 note=36 velocity=95 time=65
note_on channel=0 note=35 velocity=86 time=4
note_off channel=0 note=35 velocity=86 time=51
note_on channel=0 note=35 velocity=86 time=24
note_off channel=0 note=35 velocity=86 time=16
note_on channel=0 note=35 velocity=86 time=53
note_off channel=0 note=35 velocity=86 time=74
note_on channel=0 note=30 velocity=84 time=1
note_on channel=0 note=35 velocity=78 time=21
note_off channel=0 note=30 velocity=84 time=2
note_off channel=0 note=35 velocity=78 time=35
note_on channel=0 note=35 velocity=92 time=11
note_on channel=0 note=40 velocity=88 time=48
pitchwheel channel=0 pitch=-61 time=1
note_off channel=0 note=35 velocity=92 time=1
pitchwheel channel=0 pitch=-170 time=4
pitchwheel channel=0 pitch=-211 time=3
pitchwheel channel=0 pitch=-170 time=7
pitchwheel channel=0 pitch=-102 time=3
pitchwheel channel=0 pitch=0 time=1
note_off channel=0 note=40 velocity=88 time=18
note_on channel=0 note=33 velocity=86 time=10
note_off channel=0 note=33 velocity=86 time=54
note_on channel=0 note=33 velocity=104 time=21
note_off channel=0 note=33 velocity=104 time=20
note_on channel=0 note=33 velocity=96 time=49
note_off channel=0 note=33 velocity=96 time=76
note_on channel=0 note=33 velocity=84 time=20
note_on channel=0 note=40 velocity=78 time=48
note_off channel=0 note=33 velocity=84 time=8
note_off channel=0 note=40 velocity=78 time=14
note_on channel=0 note=42 velocity=84 time=5
note_on channel=0 note=45 velocity=50 time=21
note_off channel=0 note=42 velocity=84 time=1
note_off channel=0 note=45 velocity=50 time=35
note_on channel=0 note=33 velocity=92 time=12
note_off channel=0 note=33 velocity=92 time=52
note_on channel=0 note=33 velocity=76 time=23
note_off channel=0 note=33 velocity=76 time=23
note_on channel=0 note=33 velocity=84 time=46
note_off channel=0 note=33 velocity=84 time=55
note_on channel=0 note=33 velocity=74 time=20
note_off channel=0 note=33 velocity=74 time=20
note_on channel=0 note=28 velocity=84 time=1
note_off channel=0 note=28 velocity=84 time=47
note_on channel=0 note=30 velocity=96 time=1
note_off channel=0 note=30 velocity=96 time=46
note_on channel=0 note=32 velocity=76 time=2
note_off channel=0 note=32 velocity=76 time=47
note_on channel=0 note=33 velocity=84 time=1
note_off channel=0 note=33 velocity=84 time=48
note_on channel=0 note=33 velocity=100 time=27
note_off channel=0 note=33 velocity=100 time=12
note_on channel=0 note=33 velocity=96 time=57
note_off channel=0 note=33 velocity=96 time=81
note_on channel=0 note=33 velocity=84 time=15
note_on channel=0 note=40 velocity=82 time=48
note_off channel=0 note=33 velocity=84 time=3
note_off channel=0 note=40 velocity=82 time=21
note_on channel=0 note=42 velocity=86 time=3
note_off channel=0 note=42 velocity=86 time=20
note_on channel=0 note=45 velocity=96 time=1
pitchwheel channel=0 pitch=-81 time=24
pitchwheel channel=0 pitch=-252 time=2
pitchwheel channel=0 pitch=-443 time=3
pitchwheel channel=0 pitch=-573 time=4
pitchwheel channel=0 pitch=-655 time=3
pitchwheel channel=0 pitch=-682 time=3
pitchwheel channel=0 pitch=-102 time=4
pitchwheel channel=0 pitch=0 time=3
note_off channel=0 note=45 velocity=96 time=1
note_on channel=0 note=33 velocity=84 time=1
note_off channel=0 note=33 velocity=84 time=54
note_on channel=0 note=33 velocity=86 time=21
note_off channel=0 note=33 velocity=86 time=21
note_on channel=0 note=33 velocity=84 time=48
note_off channel=0 note=33 velocity=84 time=61
note_on channel=0 note=33 velocity=84 time=14
note_on channel=0 note=28 velocity=86 time=21
note_off channel=0 note=33 velocity=84 time=1
note_off channel=0 note=28 velocity=86 time=46
note_on channel=0 note=30 velocity=100 time=1
note_off channel=0 note=30 velocity=100 time=45
note_on channel=0 note=32 velocity=76 time=3
note_off channel=0 note=32 velocity=76 time=46
note_on channel=0 note=33 velocity=84 time=2
note_off channel=0 note=33 velocity=84 time=53
note_on channel=0 note=33 velocity=86 time=22
note_off channel=0 note=33 velocity=86 time=13
note_on channel=0 note=33 velocity=96 time=56
note_off channel=0 note=33 velocity=96 time=76
note_on channel=0 note=33 velocity=82 time=20
note_off channel=0 note=33 velocity=82 time=44
note_on channel=0 note=40 velocity=84 time=4
note_off channel=0 note=40 velocity=84 time=26
note_on channel=0 note=42 velocity=76 time=1
note_on channel=0 note=45 velocity=84 time=21
note_off channel=0 note=42 velocity=76 time=1
note_off channel=0 note=45 velocity=84 time=43
note_on channel=0 note=33 velocity=86 time=4
note_off channel=0 note=33 velocity=86 time=49
note_on channel=0 note=33 velocity=74 time=26
note_off channel=0 note=33 velocity=74 time=19
note_on channel=0 note=33 velocity=84 time=50
note_off channel=0 note=33 velocity=84 time=59
note_on channel=0 note=33 velocity=76 time=16
note_off channel=0 note=33 velocity=76 time=19
note_on channel=0 note=28 velocity=82 time=2
note_off channel=0 note=28 velocity=82 time=42
note_on channel=0 note=30 velocity=86 time=6
note_off channel=0 note=30 velocity=86 time=47
note_on channel=0 note=32 velocity=80 time=1
note_off channel=0 note=32 velocity=80 time=47
note_on channel=0 note=33 velocity=84 time=1
note_off channel=0 note=33 velocity=84 time=52
note_on channel=0 note=33 velocity=88 time=23
note_off channel=0 note=33 velocity=88 time=17
note_on channel=0 note=33 velocity=104 time=52
note_off channel=0 note=33 velocity=104 time=82
note_on channel=0 note=33 velocity=72 time=14
note_off channel=0 note=33 velocity=72 time=44
note_on channel=0 note=40 velocity=82 time=4
note_off channel=0 note=40 velocity=82 time=21
note_on channel=0 note=42 velocity=82 time=6
note_on channel=0 note=45 velocity=88 time=21
note_off channel=0 note=42 velocity=82 time=3
note_off channel=0 note=45 velocity=88 time=40
note_on channel=0 note=33 velocity=78 time=5
note_off channel=0 note=33 velocity=78 time=49
note_on channel=0 note=33 velocity=76 time=26
note_off channel=0 note=33 velocity=76 time=19
note_on channel=0 note=33 velocity=86 time=50
note_off channel=0 note=33 velocity=86 time=66
note_on channel=0 note=33 velocity=74 time=9
note_off channel=0 note=33 velocity=74 time=19
note_on channel=0 note=28 velocity=82 time=2
note_off channel=0 note=28 velocity=82 time=43
note_on channel=0 note=30 velocity=82 time=5
note_off channel=0 note=30 velocity=82 time=48
note_on channel=0 note=32 velocity=72 time=0
note_off channel=0 note=32 velocity=72 time=48
note_on channel=0 note=33 velocity=84 time=0
note_off channel=0 note=33 velocity=84 time=52
note_on channel=0 note=33 velocity=86 time=23
note_off channel=0 note=33 velocity=86 time=12
note_on channel=0 note=33 velocity=96 time=57
note_off channel=0 note=33 velocity=96 time=80
note_on channel=0 note=33 velocity=86 time=16
note_on channel=0 note=40 velocity=82 time=48
note_off channel=0 note=33 velocity=86 time=2
note_off channel=0 note=40 velocity=82 time=22
note_on channel=0 note=42 velocity=74 time=3
note_on channel=0 note=45 velocity=80 time=21
note_off channel=0 note=42 velocity=74 time=1
pitchwheel channel=0 pitch=-20 time=19
pitchwheel channel=0 pitch=-211 time=1
pitchwheel channel=0 pitch=-341 time=4
pitchwheel channel=0 pitch=-484 time=3
pitchwheel channel=0 pitch=-423 time=7
pitchwheel channel=0 pitch=0 time=4
note_off channel=0 note=45 velocity=80 time=6
note_on channel=0 note=33 velocity=82 time=3
note_off channel=0 note=33 velocity=82 time=60
note_on channel=0 note=33 velocity=84 time=15
note_off channel=0 note=33 velocity=84 time=17
note_on channel=0 note=33 velocity=86 time=52
note_off channel=0 note=33 velocity=86 time=67
note_on channel=0 note=33 velocity=82 time=8
note_off channel=0 note=33 velocity=82 time=18
note_on channel=0 note=28 velocity=84 time=3
note_on channel=0 note=30 velocity=86 time=48
note_off channel=0 note=28 velocity=84 time=4
note_on channel=0 note=32 velocity=76 time=44
note_off channel=0 note=30 velocity=86 time=7
note_on channel=0 note=33 velocity=86 time=41
note_off channel=0 note=32 velocity=76 time=5
note_off channel=0 note=33 velocity=86 time=49
note_on channel=0 note=33 velocity=84 time=21
note_off channel=0 note=33 velocity=84 time=18
note_on channel=0 note=33 velocity=84 time=51
note_off channel=0 note=33 velocity=84 time=81
note_on channel=0 note=33 velocity=88 time=15
note_on channel=0 note=40 velocity=70 time=48
note_off channel=0 note=33 velocity=88 time=8
note_on channel=0 note=42 velocity=84 time=19
note_off channel=0 note=40 velocity=70 time=8
note_on channel=0 note=45 velocity=74 time=13
note_off channel=0 note=42 velocity=84 time=7
note_off channel=0 note=45 velocity=74 time=36
note_on channel=0 note=33 velocity=88 time=5
note_off channel=0 note=33 velocity=88 time=55
note_on channel=0 note=33 velocity=78 time=20
note_off channel=0 note=33 velocity=78 time=16
note_on channel=0 note=33 velocity=76 time=53
note_off channel=0 note=33 velocity=76 time=63
note_on channel=0 note=33 velocity=84 time=12
note_off channel=0 note=33 velocity=84 time=18
note_on channel=0 note=28 velocity=84 time=3
note_on channel=0 note=30 velocity=84 time=48
note_off channel=0 note=28 velocity=84 time=6
note_on channel=0 note=32 velocity=74 time=42
note_off channel=0 note=30 velocity=84 time=9
note_on channel=0 note=33 velocity=72 time=39
note_off channel=0 note=32 velocity=74 time=2
note_off channel=0 note=33 velocity=72 time=51
note_on channel=0 note=33 velocity=84 time=22
note_off channel=0 note=33 velocity=84 time=11
note_on channel=0 note=33 velocity=86 time=58
note_off channel=0 note=33 velocity=86 time=79
note_on channel=0 note=33 velocity=84 time=17
note_off channel=0 note=33 velocity=84 time=44
note_on channel=0 note=40 velocity=76 time=4
note_on channel=0 note=42 velocity=74 time=27
note_off channel=0 note=40 velocity=76 time=8
note_on channel=0 note=45 velocity=82 time=13
note_off channel=0 note=42 velocity=74 time=4
note_off channel=0 note=45 velocity=82 time=42
note_on channel=0 note=33 velocity=76 time=2
note_off channel=0 note=33 velocity=76 time=56
note_on channel=0 note=33 velocity=86 time=19
note_off channel=0 note=33 velocity=86 time=18
note_on channel=0 note=33 velocity=84 time=51
note_off channel=0 note=33 velocity=84 time=62
note_on channel=0 note=33 velocity=76 time=13
note_off channel=0 note=33 velocity=76 time=19
note_on channel=0 note=28 velocity=82 time=2
note_off channel=0 note=28 velocity=82 time=48
note_on channel=0 note=30 velocity=76 time=0
note_off channel=0 note=30 velocity=76 time=47
note_on channel=0 note=32 velocity=74 time=1
note_off channel=0 note=32 velocity=74 time=46
note_on channel=0 note=33 velocity=80 time=2
note_off channel=0 note=33 velocity=80 time=46
note_on channel=0 note=33 velocity=84 time=29
note_off channel=0 note=33 velocity=84 time=15
note_on channel=0 note=33 velocity=86 time=54
note_off channel=0 note=33 velocity=86 time=73
note_on channel=0 note=33 velocity=80 time=23
note_on channel=0 note=40 velocity=78 time=48
note_off channel=0 note=33 velocity=80 time=12
note_off channel=0 note=40 velocity=78 time=14
note_on channel=0 note=42 velocity=64 time=1
note_on channel=0 note=45 velocity=84 time=21
note_off channel=0 note=42 velocity=64 time=2
note_off channel=0 note=45 velocity=84 time=45
note_on channel=0 note=33 velocity=78 time=1
note_off channel=0 note=33 velocity=78 time=63
note_on channel=0 note=33 velocity=84 time=12
note_off channel=0 note=33 velocity=84 time=21
note_on channel=0 note=33 velocity=78 time=48
note_off channel=0 note=33 velocity=78 time=53
note_on channel=0 note=33 velocity=78 time=22
note_off channel=0 note=33 velocity=78 time=21
note_on channel=0 note=28 velocity=82 time=0
note_on channel=0 note=30 velocity=78 time=48
note_off channel=0 note=28 velocity=82 time=2
note_on channel=0 note=32 velocity=78 time=46
note_off channel=0 note=30 velocity=78 time=4
note_off channel=0 note=32 velocity=78 time=43
control_change channel=0 control=101 value=0 time=1
control_change channel=0 control=100 value=0 time=0
control_change channel=0 control=6 value=12 time=0
control_change channel=0 control=10 value=64 time=0
control_change channel=0 control=7 value=100 time=0
pitchwheel channel=0 pitch=0 time=0
program_change channel=0 program=0 time=0
control_change channel=0 control=101 value=0 time=1
control_change channel=0 control=100 value=0 time=0
control_change channel=0 control=6 value=12 time=0
control_change channel=0 control=10 value=64 time=0
control_change channel=0 control=7 value=100 time=0
pitchwheel channel=0 pitch=0 time=0
program_change channel=0 program=0 time=0
MetaMessage('end_of_track', time=0)
Track 3:
MetaMessage('track_name', name='Channel #3', time=0)
control_change channel=1 control=10 value=64 time=0
control_change channel=1 control=7 value=100 time=0
pitchwheel channel=1 pitch=0 time=0
control_change channel=1 control=101 value=0 time=0
control_change channel=1 control=100 value=0 time=0
control_change channel=1 control=6 value=12 time=0
control_change channel=1 control=10 value=64 time=0
control_change channel=1 control=7 value=100 time=0
pitchwheel channel=1 pitch=0 time=0
program_change channel=1 program=0 time=0
control_change channel=1 control=101 value=0 time=0
control_change channel=1 control=100 value=0 time=0
control_change channel=1 control=6 value=12 time=0
control_change channel=1 control=10 value=64 time=0
control_change channel=1 control=7 value=100 time=0
pitchwheel channel=1 pitch=0 time=0
program_change channel=1 program=0 time=0
control_change channel=1 control=101 value=0 time=0
control_change channel=1 control=100 value=0 time=0
control_change channel=1 control=6 value=12 time=0
control_change channel=1 control=10 value=52 time=0
control_change channel=1 control=7 value=70 time=0
pitchwheel channel=1 pitch=0 time=0
program_change channel=1 program=0 time=0
control_change channel=1 control=7 value=70 time=109
control_change channel=1 control=10 value=52 time=0
note_on channel=1 note=89 velocity=100 time=935
note_on channel=1 note=88 velocity=99 time=4
note_on channel=1 note=86 velocity=97 time=4
note_on channel=1 note=84 velocity=95 time=4
note_on channel=1 note=83 velocity=93 time=4
note_on channel=1 note=81 velocity=91 time=4
note_off channel=1 note=89 velocity=100 time=4
note_on channel=1 note=79 velocity=90 time=0
note_off channel=1 note=88 velocity=99 time=4
note_on channel=1 note=77 velocity=88 time=0
note_off channel=1 note=86 velocity=97 time=4
note_on channel=1 note=76 velocity=86 time=0
note_off channel=1 note=84 velocity=95 time=4
note_on channel=1 note=74 velocity=84 time=0
note_off channel=1 note=83 velocity=93 time=4
note_on channel=1 note=72 velocity=82 time=0
note_off channel=1 note=81 velocity=91 time=4
note_on channel=1 note=71 velocity=80 time=0
note_off channel=1 note=79 velocity=90 time=4
note_on channel=1 note=69 velocity=79 time=0
note_off channel=1 note=77 velocity=88 time=4
note_on channel=1 note=67 velocity=77 time=0
note_off channel=1 note=76 velocity=86 time=4
note_on channel=1 note=65 velocity=75 time=0
note_on channel=1 note=64 velocity=75 time=0
note_off channel=1 note=74 velocity=84 time=4
note_on channel=1 note=62 velocity=73 time=0
note_off channel=1 note=72 velocity=82 time=4
note_on channel=1 note=60 velocity=71 time=0
note_off channel=1 note=71 velocity=80 time=4
note_on channel=1 note=59 velocity=70 time=0
note_off channel=1 note=69 velocity=79 time=4
note_on channel=1 note=57 velocity=68 time=0
note_off channel=1 note=67 velocity=77 time=4
note_on channel=1 note=55 velocity=66 time=0
note_off channel=1 note=64 velocity=75 time=4
note_off channel=1 note=65 velocity=75 time=0
note_on channel=1 note=53 velocity=64 time=0
note_off channel=1 note=62 velocity=73 time=4
note_on channel=1 note=52 velocity=62 time=0
note_off channel=1 note=60 velocity=71 time=4
note_on channel=1 note=50 velocity=61 time=0
note_off channel=1 note=59 velocity=70 time=4
note_off channel=1 note=57 velocity=68 time=4
note_off channel=1 note=55 velocity=66 time=4
note_off channel=1 note=53 velocity=64 time=4
note_off channel=1 note=52 velocity=62 time=4
note_off channel=1 note=50 velocity=61 time=4
note_on channel=1 note=69 velocity=84 time=23
note_on channel=1 note=64 velocity=100 time=0
note_on channel=1 note=61 velocity=96 time=0
note_on channel=1 note=57 velocity=92 time=0
note_off channel=1 note=64 velocity=100 time=11
note_off channel=1 note=57 velocity=92 time=0
note_off channel=1 note=69 velocity=84 time=2
note_off channel=1 note=61 velocity=96 time=0
note_on channel=1 note=69 velocity=66 time=56
note_on channel=1 note=64 velocity=88 time=0
note_on channel=1 note=61 velocity=86 time=0
note_on channel=1 note=57 velocity=82 time=0
note_off channel=1 note=69 velocity=66 time=30
note_off channel=1 note=57 velocity=82 time=5
note_off channel=1 note=64 velocity=88 time=0
note_off channel=1 note=61 velocity=86 time=1
note_on channel=1 note=69 velocity=92 time=39
note_on channel=1 note=64 velocity=84 time=0
note_on channel=1 note=61 velocity=86 time=0
note_on channel=1 note=57 velocity=82 time=0
note_off channel=1 note=69 velocity=92 time=31
note_off channel=1 note=57 velocity=82 time=7
note_off channel=1 note=61 velocity=86 time=0
note_off channel=1 note=64 velocity=84 time=1
note_on channel=1 note=69 velocity=88 time=30
note_on channel=1 note=64 velocity=84 time=0
note_on channel=1 note=61 velocity=86 time=0
note_on channel=1 note=57 velocity=84 time=0
note_off channel=1 note=64 velocity=84 time=71
note_off channel=1 note=61 velocity=86 time=0
note_off channel=1 note=57 velocity=84 time=1
note_off channel=1 note=69 velocity=88 time=0
note_on channel=1 note=69 velocity=92 time=99
note_on channel=1 note=66 velocity=76 time=0
note_on channel=1 note=62 velocity=88 time=0
note_on channel=1 note=57 velocity=86 time=0
note_off channel=1 note=62 velocity=88 time=17
note_off channel=1 note=66 velocity=76 time=1
note_off channel=1 note=57 velocity=86 time=0
note_off channel=1 note=69 velocity=92 time=2
note_on channel=1 note=69 velocity=88 time=49
note_on channel=1 note=66 velocity=74 time=0
note_on channel=1 note=62 velocity=88 time=0
note_on channel=1 note=57 velocity=84 time=0
note_off channel=1 note=69 velocity=88 time=27
note_off channel=1 note=57 velocity=84 time=2
note_off channel=1 note=66 velocity=74 time=3
note_off channel=1 note=62 velocity=88 time=0
note_on channel=1 note=69 velocity=84 time=43
note_on channel=1 note=66 velocity=82 time=0
note_on channel=1 note=62 velocity=86 time=0
note_on channel=1 note=57 velocity=76 time=0
note_off channel=1 note=69 velocity=84 time=31
note_off channel=1 note=57 velocity=76 time=7
note_off channel=1 note=62 velocity=86 time=3
note_off channel=1 note=66 velocity=82 time=1
note_on channel=1 note=69 velocity=92 time=27
note_on channel=1 note=66 velocity=86 time=0
note_on channel=1 note=62 velocity=84 time=0
note_on channel=1 note=57 velocity=76 time=0
note_off channel=1 note=69 velocity=92 time=104
note_off channel=1 note=57 velocity=76 time=2
note_off channel=1 note=66 velocity=86 time=0
note_off channel=1 note=62 velocity=84 time=1
note_on channel=1 note=69 velocity=92 time=64
note_on channel=1 note=64 velocity=88 time=0
note_on channel=1 note=61 velocity=86 time=0
note_on channel=1 note=57 velocity=82 time=0
note_off channel=1 note=57 velocity=82 time=13
note_off channel=1 note=64 velocity=88 time=2
note_off channel=1 note=61 velocity=86 time=1
note_off channel=1 note=69 velocity=92 time=3
note_on channel=1 note=69 velocity=86 time=50
note_on channel=1 note=64 velocity=86 time=0
note_on channel=1 note=61 velocity=86 time=0
note_on channel=1 note=57 velocity=78 time=0
note_off channel=1 note=69 velocity=86 time=29
note_off channel=1 note=64 velocity=86 time=1
note_off channel=1 note=61 velocity=86 time=1
note_off channel=1 note=57 velocity=78 time=1
note_on channel=1 note=69 velocity=86 time=43
note_on channel=1 note=64 velocity=76 time=0
note_on channel=1 note=61 velocity=82 time=0
note_on channel=1 note=57 velocity=74 time=0
note_off channel=1 note=57 velocity=74 time=31
note_off channel=1 note=69 velocity=86 time=1
note_off channel=1 note=61 velocity=82 time=0
note_off channel=1 note=64 velocity=76 time=2
note_on channel=1 note=69 velocity=92 time=35
note_on channel=1 note=64 velocity=96 time=0
note_on channel=1 note=61 velocity=84 time=0
note_on channel=1 note=57 velocity=84 time=0
note_off channel=1 note=69 velocity=92 time=106
note_off channel=1 note=57 velocity=84 time=4
note_off channel=1 note=64 velocity=96 time=2
note_off channel=1 note=61 velocity=84 time=3
note_on channel=1 note=69 velocity=86 time=56
note_on channel=1 note=66 velocity=86 time=0
note_on channel=1 note=62 velocity=100 time=0
note_on channel=1 note=57 velocity=84 time=0
note_off channel=1 note=69 velocity=86 time=17
note_off channel=1 note=62 velocity=100 time=0
note_off channel=1 note=57 velocity=84 time=0
note_off channel=1 note=66 velocity=86 time=1
note_on channel=1 note=69 velocity=86 time=51
note_on channel=1 note=66 velocity=88 time=0
note_on channel=1 note=62 velocity=88 time=0
note_on channel=1 note=57 velocity=84 time=0
note_off channel=1 note=69 velocity=86 time=27
note_off channel=1 note=57 velocity=84 time=2
note_off channel=1 note=66 velocity=88 time=2
note_off channel=1 note=62 velocity=88 time=1
note_on channel=1 note=69 velocity=82 time=43
note_on channel=1 note=66 velocity=86 time=0
note_on channel=1 note=62 velocity=86 time=0
note_on channel=1 note=57 velocity=76 time=0
note_off channel=1 note=69 velocity=82 time=31
note_off channel=1 note=62 velocity=86 time=1
note_off channel=1 note=57 velocity=76 time=4
note_off channel=1 note=66 velocity=86 time=1
note_on channel=1 note=69 velocity=82 time=32
note_on channel=1 note=66 velocity=86 time=0
note_on channel=1 note=62 velocity=88 time=0
note_on channel=1 note=57 velocity=80 time=0
note_off channel=1 note=69 velocity=82 time=108
note_off channel=1 note=62 velocity=88 time=3
note_off channel=1 note=66 velocity=86 time=2
note_off channel=1 note=57 velocity=80 time=3
note_on channel=1 note=69 velocity=88 time=55
note_on channel=1 note=64 velocity=84 time=0
note_on channel=1 note=61 velocity=84 time=0
note_on channel=1 note=57 velocity=80 time=0
note_off channel=1 note=64 velocity=84 time=16
note_off channel=1 note=61 velocity=84 time=1
note_off channel=1 note=69 velocity=88 time=2
note_off channel=1 note=57 velocity=80 time=5
note_on channel=1 note=69 velocity=86 time=45
note_on channel=1 note=64 velocity=82 time=0
note_on channel=1 note=61 velocity=84 time=0
note_on channel=1 note=57 velocity=80 time=0
note_off channel=1 note=57 velocity=80 time=28
note_off channel=1 note=69 velocity=86 time=0
note_off channel=1 note=61 velocity=84 time=3
note_off channel=1 note=64 velocity=82 time=0
note_on channel=1 note=69 velocity=86 time=44
note_on channel=1 note=64 velocity=86 time=0
note_on channel=1 note=61 velocity=82 time=0
note_on channel=1 note=57 velocity=76 time=0
note_off channel=1 note=69 velocity=86 time=32
note_off channel=1 note=57 velocity=76 time=1
note_off channel=1 note=61 velocity=82 time=1
note_off channel=1 note=64 velocity=86 time=4
note_on channel=1 note=69 velocity=92 time=31
note_on channel=1 note=64 velocity=92 time=0
note_on channel=1 note=61 velocity=84 time=0
note_on channel=1 note=57 velocity=84 time=0
note_off channel=1 note=69 velocity=92 time=113
note_off channel=1 note=61 velocity=84 time=11
note_off channel=1 note=57 velocity=84 time=0
note_off channel=1 note=64 velocity=92 time=3
note_on channel=1 note=69 velocity=92 time=44
note_on channel=1 note=66 velocity=86 time=0
note_on channel=1 note=62 velocity=88 time=0
note_on channel=1 note=57 velocity=86 time=0
note_off channel=1 note=62 velocity=88 time=21
note_off channel=1 note=66 velocity=86 time=1
note_off channel=1 note=57 velocity=86 time=1
note_off channel=1 note=69 velocity=92 time=0
note_on channel=1 note=69 velocity=84 time=46
note_on channel=1 note=66 velocity=86 time=0
note_on channel=1 note=62 velocity=88 time=0
note_on channel=1 note=57 velocity=78 time=0
note_off channel=1 note=69 velocity=84 time=27
note_off channel=1 note=57 velocity=78 time=1
note_off channel=1 note=66 velocity=86 time=0
note_off channel=1 note=62 velocity=88 time=1
note_on channel=1 note=69 velocity=84 time=46
note_on channel=1 note=66 velocity=86 time=0
note_on channel=1 note=62 velocity=92 time=0
note_on channel=1 note=57 velocity=82 time=0
note_off channel=1 note=69 velocity=84 time=30
note_off channel=1 note=62 velocity=92 time=2
note_off channel=1 note=66 velocity=86 time=1
note_off channel=1 note=57 velocity=82 time=3
note_on channel=1 note=69 velocity=88 time=33
note_on channel=1 note=66 velocity=88 time=0
note_on channel=1 note=62 velocity=100 time=0
note_on channel=1 note=57 velocity=84 time=0
note_off channel=1 note=62 velocity=100 time=86
note_off channel=1 note=57 velocity=84 time=3
note_off channel=1 note=69 velocity=88 time=4
note_off channel=1 note=66 velocity=88 time=1
note_on channel=1 note=71 velocity=86 time=77
note_on channel=1 note=68 velocity=86 time=0
note_on channel=1 note=64 velocity=88 time=0
note_on channel=1 note=59 velocity=86 time=0
note_off channel=1 note=59 velocity=86 time=19
note_off channel=1 note=71 velocity=86 time=3
note_off channel=1 note=64 velocity=88 time=3
note_off channel=1 note=68 velocity=86 time=2
note_on channel=1 note=71 velocity=86 time=42
note_on channel=1 note=68 velocity=86 time=0
note_on channel=1 note=64 velocity=88 time=0
note_on channel=1 note=59 velocity=86 time=0
note_off channel=1 note=59 velocity=86 time=25
note_off channel=1 note=71 velocity=86 time=2
note_off channel=1 note=68 velocity=86 time=6
note_off channel=1 note=64 velocity=88 time=3
note_on channel=1 note=73 velocity=86 time=39
note_on channel=1 note=69 velocity=86 time=0
note_on channel=1 note=64 velocity=92 time=0
note_on channel=1 note=61 velocity=84 time=0
note_off channel=1 note=73 velocity=86 time=69
note_off channel=1 note=61 velocity=84 time=2
note_off channel=1 note=69 velocity=86 time=2
note_off channel=1 note=64 velocity=92 time=6
note_on channel=1 note=71 velocity=86 time=38
note_on channel=1 note=68 velocity=82 time=0
note_on channel=1 note=64 velocity=92 time=0
note_on channel=1 note=59 velocity=84 time=0
note_off channel=1 note=71 velocity=86 time=40
note_off channel=1 note=68 velocity=82 time=0
note_off channel=1 note=64 velocity=92 time=1
note_off channel=1 note=59 velocity=84 time=9
note_on channel=1 note=69 velocity=88 time=46
note_on channel=1 note=66 velocity=84 time=0
note_on channel=1 note=62 velocity=100 time=0
note_on channel=1 note=59 velocity=88 time=0
note_off channel=1 note=59 velocity=88 time=39
note_off channel=1 note=69 velocity=88 time=2
note_off channel=1 note=66 velocity=84 time=3
note_off channel=1 note=62 velocity=100 time=0
note_on channel=1 note=69 velocity=104 time=4
note_on channel=1 note=66 velocity=96 time=0
note_on channel=1 note=62 velocity=104 time=0
note_on channel=1 note=59 velocity=88 time=0
note_off channel=1 note=59 velocity=88 time=23
note_off channel=1 note=69 velocity=104 time=1
note_off channel=1 note=66 velocity=96 time=1
note_off channel=1 note=62 velocity=104 time=0
note_on channel=1 note=69 velocity=86 time=71
note_on channel=1 note=64 velocity=100 time=0
note_on channel=1 note=61 velocity=84 time=0
note_on channel=1 note=57 velocity=88 time=0
note_off channel=1 note=64 velocity=100 time=180
note_off channel=1 note=57 velocity=88 time=1
note_off channel=1 note=61 velocity=84 time=2
note_off channel=1 note=69 velocity=86 time=3
note_on channel=1 note=71 velocity=86 time=54
note_on channel=1 note=68 velocity=88 time=0
note_on channel=1 note=64 velocity=88 time=0
note_on channel=1 note=59 velocity=86 time=0
note_off channel=1 note=71 velocity=86 time=203
note_off channel=1 note=64 velocity=88 time=6
note_off channel=1 note=59 velocity=86 time=2
note_off channel=1 note=68 velocity=88 time=4
note_on channel=1 note=71 velocity=80 time=25
note_on channel=1 note=68 velocity=78 time=0
note_on channel=1 note=64 velocity=88 time=0
note_on channel=1 note=59 velocity=88 time=0
note_off channel=1 note=59 velocity=88 time=26
note_off channel=1 note=71 velocity=80 time=5
note_off channel=1 note=64 velocity=88 time=0
note_off channel=1 note=68 velocity=78 time=3
note_on channel=1 note=71 velocity=86 time=14
note_on channel=1 note=68 velocity=92 time=0
note_on channel=1 note=64 velocity=92 time=0
note_on channel=1 note=59 velocity=104 time=0
note_off channel=1 note=59 velocity=104 time=39
note_off channel=1 note=64 velocity=92 time=6
note_off channel=1 note=71 velocity=86 time=4
note_off channel=1 note=68 velocity=92 time=7
note_on channel=1 note=71 velocity=86 time=40
note_on channel=1 note=68 velocity=84 time=0
note_on channel=1 note=65 velocity=104 time=0
note_on channel=1 note=61 velocity=82 time=0
note_off channel=1 note=71 velocity=86 time=204
note_off channel=1 note=65 velocity=104 time=2
note_off channel=1 note=61 velocity=82 time=4
note_off channel=1 note=68 velocity=84 time=1
note_on channel=1 note=71 velocity=74 time=29
note_on channel=1 note=68 velocity=66 time=0
note_on channel=1 note=65 velocity=92 time=0
note_on channel=1 note=61 velocity=64 time=0
note_off channel=1 note=61 velocity=64 time=29
note_off channel=1 note=68 velocity=66 time=2
note_off channel=1 note=71 velocity=74 time=1
note_off channel=1 note=65 velocity=92 time=1
note_on channel=1 note=71 velocity=78 time=15
note_on channel=1 note=68 velocity=82 time=0
note_on channel=1 note=65 velocity=100 time=0
note_on channel=1 note=61 velocity=80 time=0
note_off channel=1 note=65 velocity=100 time=30
note_off channel=1 note=71 velocity=78 time=1
note_off channel=1 note=68 velocity=82 time=2
note_off channel=1 note=61 velocity=80 time=4
note_on channel=1 note=69 velocity=84 time=59
note_on channel=1 note=66 velocity=84 time=0
note_on channel=1 note=64 velocity=92 time=0
note_on channel=1 note=61 velocity=74 time=0
note_off channel=1 note=61 velocity=74 time=44
note_off channel=1 note=69 velocity=84 time=4
note_off channel=1 note=64 velocity=92 time=2
note_off channel=1 note=66 velocity=84 time=3
note_on channel=1 note=69 velocity=84 time=22
note_on channel=1 note=66 velocity=82 time=0
note_on channel=1 note=64 velocity=96 time=0
note_on channel=1 note=61 velocity=80 time=0
note_off channel=1 note=64 velocity=96 time=12
note_off channel=1 note=66 velocity=82 time=1
note_off channel=1 note=61 velocity=80 time=0
note_off channel=1 note=69 velocity=84 time=2
note_on channel=1 note=69 velocity=82 time=54
note_on channel=1 note=66 velocity=86 time=0
note_on channel=1 note=64 velocity=92 time=0
note_on channel=1 note=61 velocity=76 time=0
note_off channel=1 note=61 velocity=76 time=177
note_off channel=1 note=64 velocity=92 time=7
note_off channel=1 note=66 velocity=86 time=1
note_off channel=1 note=69 velocity=82 time=1
note_on channel=1 note=69 velocity=92 time=54
note_on channel=1 note=66 velocity=86 time=0
note_on channel=1 note=63 velocity=86 time=0
note_on channel=1 note=59 velocity=84 time=0
note_off channel=1 note=59 velocity=84 time=48
note_off channel=1 note=69 velocity=92 time=1
note_off channel=1 note=63 velocity=86 time=1
note_off channel=1 note=66 velocity=86 time=4
note_on channel=1 note=69 velocity=84 time=21
note_on channel=1 note=66 velocity=84 time=0
note_on channel=1 note=63 velocity=82 time=0
note_on channel=1 note=59 velocity=86 time=0
note_off channel=1 note=66 velocity=84 time=11
note_off channel=1 note=63 velocity=82 time=1
note_off channel=1 note=59 velocity=86 time=2
note_off channel=1 note=69 velocity=84 time=1
note_on channel=1 note=69 velocity=84 time=54
note_on channel=1 note=66 velocity=82 time=0
note_on channel=1 note=63 velocity=80 time=0
note_on channel=1 note=59 velocity=86 time=0
note_off channel=1 note=69 velocity=84 time=68
note_off channel=1 note=59 velocity=86 time=3
note_off channel=1 note=63 velocity=80 time=0
note_off channel=1 note=66 velocity=82 time=4
note_on channel=1 note=69 velocity=76 time=21
note_on channel=1 note=66 velocity=76 time=0
note_on channel=1 note=63 velocity=78 time=0
note_on channel=1 note=59 velocity=78 time=0
note_off channel=1 note=66 velocity=76 time=11
note_off channel=1 note=63 velocity=78 time=1
note_off channel=1 note=69 velocity=76 time=1
note_off channel=1 note=59 velocity=78 time=0
note_on channel=1 note=69 velocity=88 time=35
note_on channel=1 note=66 velocity=100 time=0
note_on channel=1 note=63 velocity=104 time=0
note_on channel=1 note=59 velocity=88 time=0
note_off channel=1 note=66 velocity=100 time=43
note_off channel=1 note=63 velocity=104 time=5
note_off channel=1 note=69 velocity=88 time=1
note_off channel=1 note=59 velocity=88 time=4
note_on channel=1 note=69 velocity=84 time=70
note_on channel=1 note=66 velocity=80 time=0
note_on channel=1 note=62 velocity=86 time=0
note_on channel=1 note=57 velocity=78 time=0
note_off channel=1 note=69 velocity=84 time=22
note_off channel=1 note=57 velocity=78 time=3
note_off channel=1 note=62 velocity=86 time=1
note_off channel=1 note=66 velocity=80 time=0
note_on channel=1 note=69 velocity=84 time=43
note_on channel=1 note=66 velocity=88 time=0
note_on channel=1 note=62 velocity=92 time=0
note_on channel=1 note=57 velocity=84 time=0
note_off channel=1 note=69 velocity=84 time=30
note_off channel=1 note=66 velocity=88 time=2
note_off channel=1 note=62 velocity=92 time=2
note_off channel=1 note=57 velocity=84 time=1
note_on channel=1 note=69 velocity=86 time=40
note_on channel=1 note=66 velocity=86 time=0
note_on channel=1 note=62 velocity=86 time=0
note_on channel=1 note=57 velocity=82 time=0
note_off channel=1 note=69 velocity=86 time=26
note_off channel=1 note=66 velocity=86 time=3
note_off channel=1 note=57 velocity=82 time=3
note_off channel=1 note=62 velocity=86 time=0
note_on channel=1 note=69 velocity=88 time=37
note_on channel=1 note=66 velocity=84 time=0
note_on channel=1 note=62 velocity=92 time=0
note_on channel=1 note=57 velocity=78 time=0
note_off channel=1 note=69 velocity=88 time=125
note_off channel=1 note=66 velocity=84 time=7
note_off channel=1 note=57 velocity=78 time=1
note_off channel=1 note=62 velocity=92 time=1
note_on channel=1 note=69 velocity=80 time=37
note_on channel=1 note=66 velocity=80 time=0
note_on channel=1 note=62 velocity=86 time=0
note_on channel=1 note=57 velocity=78 time=0
note_off channel=1 note=57 velocity=78 time=18
note_off channel=1 note=69 velocity=80 time=1
note_off channel=1 note=62 velocity=86 time=2
note_off channel=1 note=66 velocity=80 time=0
note_on channel=1 note=69 velocity=82 time=48
note_on channel=1 note=66 velocity=80 time=0
note_on channel=1 note=62 velocity=86 time=0
note_on channel=1 note=57 velocity=48 time=0
note_off channel=1 note=57 velocity=48 time=32
note_off channel=1 note=69 velocity=82 time=7
note_off channel=1 note=62 velocity=86 time=4
note_off channel=1 note=66 velocity=80 time=1
note_on channel=1 note=69 velocity=92 time=31
note_on channel=1 note=66 velocity=88 time=0
note_on channel=1 note=62 velocity=88 time=0
note_on channel=1 note=57 velocity=84 time=0
note_off channel=1 note=69 velocity=92 time=38
note_off channel=1 note=57 velocity=84 time=4
note_off channel=1 note=62 velocity=88 time=0
note_off channel=1 note=66 velocity=88 time=1
note_on channel=1 note=69 velocity=92 time=26
note_on channel=1 note=66 velocity=86 time=0
note_on channel=1 note=62 velocity=92 time=0
note_on channel=1 note=57 velocity=84 time=0
note_off channel=1 note=69 velocity=92 time=116
note_off channel=1 note=66 velocity=86 time=3
note_off channel=1 note=57 velocity=84 time=7
note_off channel=1 note=62 velocity=92 time=0
note_on channel=1 note=69 velocity=88 time=45
note_on channel=1 note=64 velocity=86 time=0
note_on channel=1 note=61 velocity=84 time=0
note_on channel=1 note=57 velocity=86 time=0
note_off channel=1 note=57 velocity=86 time=15
note_off channel=1 note=64 velocity=86 time=2
note_off channel=1 note=61 velocity=84 time=2
note_off channel=1 note=69 velocity=88 time=2
note_on channel=1 note=69 velocity=92 time=48
note_on channel=1 note=64 velocity=80 time=0
note_on channel=1 note=61 velocity=76 time=0
note_on channel=1 note=57 velocity=82 time=0
note_off channel=1 note=57 velocity=82 time=38
note_off channel=1 note=69 velocity=92 time=0
note_off channel=1 note=61 velocity=76 time=3
note_off channel=1 note=64 velocity=80 time=0
note_on channel=1 note=69 velocity=84 time=34
note_on channel=1 note=64 velocity=88 time=0
note_on channel=1 note=61 velocity=78 time=0
note_on channel=1 note=57 velocity=84 time=0
note_off channel=1 note=69 velocity=84 time=31
note_off channel=1 note=57 velocity=84 time=8
note_off channel=1 note=61 velocity=78 time=0
note_off channel=1 note=64 velocity=88 time=5
note_on channel=1 note=69 velocity=88 time=25
note_on channel=1 note=64 velocity=88 time=0
note_on channel=1 note=61 velocity=80 time=0
note_on channel=1 note=57 velocity=76 time=0
note_off channel=1 note=69 velocity=88 time=112
note_off channel=1 note=57 velocity=76 time=13
note_off channel=1 note=61 velocity=80 time=4
note_off channel=1 note=64 velocity=88 time=1
note_on channel=1 note=69 velocity=82 time=41
note_on channel=1 note=66 velocity=84 time=0
note_on channel=1 note=62 velocity=100 time=0
note_on channel=1 note=57 velocity=82 time=0
note_off channel=1 note=62 velocity=100 time=14
note_off channel=1 note=66 velocity=84 time=1
note_off channel=1 note=57 velocity=82 time=0
note_off channel=1 note=69 velocity=82 time=2
note_on channel=1 note=69 velocity=82 time=52
note_on channel=1 note=66 velocity=80 time=0
note_on channel=1 note=62 velocity=84 time=0
note_on channel=1 note=57 velocity=70 time=0
note_off channel=1 note=69 velocity=82 time=33
note_off channel=1 note=62 velocity=84 time=4
note_off channel=1 note=66 velocity=80 time=0
note_off channel=1 note=57 velocity=70 time=2
note_on channel=1 note=69 velocity=76 time=36
note_on channel=1 note=66 velocity=72 time=0
note_on channel=1 note=62 velocity=82 time=0
note_on channel=1 note=57 velocity=76 time=0
note_off channel=1 note=69 velocity=76 time=26
note_off channel=1 note=66 velocity=72 time=5
note_off channel=1 note=57 velocity=76 time=2
note_off channel=1 note=62 velocity=82 time=3
note_on channel=1 note=69 velocity=84 time=33
note_on channel=1 note=66 velocity=78 time=0
note_on channel=1 note=62 velocity=78 time=0
note_on channel=1 note=57 velocity=80 time=0
note_off channel=1 note=66 velocity=78 time=118
note_off channel=1 note=69 velocity=84 time=1
note_off channel=1 note=62 velocity=78 time=4
note_off channel=1 note=57 velocity=80 time=0
note_on channel=1 note=69 velocity=88 time=261
note_on channel=1 note=66 velocity=76 time=0
note_on channel=1 note=62 velocity=88 time=0
note_on channel=1 note=57 velocity=84 time=0
note_off channel=1 note=69 velocity=88 time=25
note_off channel=1 note=57 velocity=84 time=0
note_off channel=1 note=66 velocity=76 time=2
note_off channel=1 note=62 velocity=88 time=0
note_on channel=1 note=69 velocity=86 time=21
note_on channel=1 note=66 velocity=88 time=0
note_on channel=1 note=62 velocity=92 time=0
note_on channel=1 note=57 velocity=84 time=0
note_off channel=1 note=69 velocity=86 time=41
note_off channel=1 note=62 velocity=92 time=0
note_off channel=1 note=66 velocity=88 time=1
note_off channel=1 note=57 velocity=84 time=1
note_on channel=1 note=69 velocity=88 time=293
note_on channel=1 note=66 velocity=80 time=0
note_on channel=1 note=62 velocity=88 time=0
note_on channel=1 note=57 velocity=86 time=0
note_off channel=1 note=62 velocity=88 time=22
note_off channel=1 note=57 velocity=86 time=1
note_off channel=1 note=66 velocity=80 time=1
note_off channel=1 note=69 velocity=88 time=0
note_on channel=1 note=69 velocity=88 time=24
note_on channel=1 note=66 velocity=82 time=0
note_on channel=1 note=62 velocity=96 time=0
note_on channel=1 note=57 velocity=86 time=0
note_off channel=1 note=69 velocity=88 time=35
note_off channel=1 note=66 velocity=82 time=1
note_off channel=1 note=62 velocity=96 time=0
note_off channel=1 note=57 velocity=86 time=4
note_on channel=1 note=64 velocity=92 time=56
note_on channel=1 note=61 velocity=76 time=0
note_on channel=1 note=57 velocity=74 time=0
note_off channel=1 note=61 velocity=76 time=97
note_off channel=1 note=64 velocity=92 time=3
note_off channel=1 note=57 velocity=74 time=2
note_on channel=1 note=64 velocity=78 time=42
note_on channel=1 note=61 velocity=72 time=0
note_on channel=1 note=57 velocity=74 time=0
note_off channel=1 note=64 velocity=78 time=174
note_off channel=1 note=57 velocity=74 time=2
note_off channel=1 note=61 velocity=72 time=3
note_on channel=1 note=66 velocity=76 time=61
note_on channel=1 note=62 velocity=74 time=0
note_on channel=1 note=57 velocity=76 time=0
note_off channel=1 note=66 velocity=76 time=103
note_off channel=1 note=57 velocity=76 time=1
note_off channel=1 note=62 velocity=74 time=1
note_on channel=1 note=66 velocity=70 time=39
note_on channel=1 note=62 velocity=84 time=0
note_on channel=1 note=57 velocity=70 time=0
note_off channel=1 note=57 velocity=70 time=107
note_off channel=1 note=66 velocity=70 time=13
note_off channel=1 note=62 velocity=84 time=6
note_on channel=1 note=68 velocity=86 time=18
note_on channel=1 note=64 velocity=86 time=0
note_on channel=1 note=59 velocity=76 time=0
note_off channel=1 note=68 velocity=86 time=62
note_off channel=1 note=59 velocity=76 time=0
note_off channel=1 note=64 velocity=86 time=7
note_on channel=1 note=64 velocity=92 time=27
note_on channel=1 note=61 velocity=74 time=0
note_on channel=1 note=57 velocity=74 time=0
note_off channel=1 note=61 velocity=74 time=93
note_off channel=1 note=64 velocity=92 time=5
note_off channel=1 note=57 velocity=74 time=0
note_on channel=1 note=64 velocity=88 time=46
note_on channel=1 note=61 velocity=82 time=0
note_on channel=1 note=57 velocity=74 time=0
note_off channel=1 note=61 velocity=82 time=194
note_off channel=1 note=64 velocity=88 time=4
note_off channel=1 note=57 velocity=74 time=1
note_on channel=1 note=66 velocity=86 time=41
note_on channel=1 note=61 velocity=82 time=0
note_on channel=1 note=57 velocity=78 time=0
note_off channel=1 note=66 velocity=86 time=92
note_off channel=1 note=61 velocity=82 time=4
note_off channel=1 note=57 velocity=78 time=6
note_on channel=1 note=66 velocity=86 time=42
note_on channel=1 note=61 velocity=84 time=0
note_on channel=1 note=57 velocity=86 time=0
note_off channel=1 note=57 velocity=86 time=192
note_off channel=1 note=61 velocity=84 time=2
note_off channel=1 note=66 velocity=86 time=0
note_on channel=1 note=52 velocity=100 time=46
note_on channel=1 note=40 velocity=96 time=0
note_off channel=1 note=52 velocity=100 time=42
note_off channel=1 note=40 velocity=96 time=0
note_on channel=1 note=52 velocity=108 time=33
note_on channel=1 note=40 velocity=104 time=0
note_off channel=1 note=52 velocity=108 time=17
note_off channel=1 note=40 velocity=104 time=6
note_on channel=1 note=52 velocity=96 time=46
note_on channel=1 note=40 velocity=78 time=0
note_off channel=1 note=40 velocity=78 time=195
note_off channel=1 note=52 velocity=96 time=6
note_on channel=1 note=52 velocity=92 time=39
note_on channel=1 note=40 velocity=86 time=0
note_off channel=1 note=52 velocity=92 time=51
note_off channel=1 note=40 velocity=86 time=0
note_on channel=1 note=52 velocity=104 time=24
note_on channel=1 note=40 velocity=104 time=0
note_off channel=1 note=52 velocity=104 time=22
note_off channel=1 note=40 velocity=104 time=3
note_on channel=1 note=52 velocity=100 time=44
note_on channel=1 note=40 velocity=100 time=0
note_off channel=1 note=40 velocity=100 time=180
note_off channel=1 note=52 velocity=100 time=13
note_on channel=1 note=52 velocity=92 time=47
note_on channel=1 note=40 velocity=86 time=0
note_off channel=1 note=40 velocity=86 time=38
note_off channel=1 note=52 velocity=92 time=8
note_on channel=1 note=54 velocity=112 time=29
note_on channel=1 note=42 velocity=96 time=0
note_off channel=1 note=54 velocity=112 time=18
note_off channel=1 note=42 velocity=96 time=5
note_on channel=1 note=54 velocity=96 time=46
note_on channel=1 note=42 velocity=88 time=0
note_off channel=1 note=42 velocity=88 time=202
note_off channel=1 note=54 velocity=96 time=13
note_on channel=1 note=64 velocity=108 time=25
note_on channel=1 note=52 velocity=100 time=0
note_off channel=1 note=52 velocity=100 time=57
note_off channel=1 note=64 velocity=108 time=7
note_on channel=1 note=66 velocity=112 time=11
note_on channel=1 note=54 velocity=92 time=0
note_off channel=1 note=66 velocity=112 time=16
note_off channel=1 note=54 velocity=92 time=2
note_on channel=1 note=66 velocity=112 time=51
note_on channel=1 note=54 velocity=86 time=0
note_off channel=1 note=54 velocity=86 time=190
note_off channel=1 note=66 velocity=112 time=16
note_on channel=1 note=69 velocity=86 time=34
note_on channel=1 note=64 velocity=82 time=0
note_on channel=1 note=61 velocity=76 time=0
note_on channel=1 note=57 velocity=72 time=0
note_off channel=1 note=57 velocity=72 time=52
note_off channel=1 note=69 velocity=86 time=0
note_off channel=1 note=61 velocity=76 time=3
note_off channel=1 note=64 velocity=82 time=2
note_on channel=1 note=69 velocity=96 time=18
note_on channel=1 note=64 velocity=108 time=0
note_on channel=1 note=61 velocity=88 time=0
note_on channel=1 note=57 velocity=86 time=0
note_off channel=1 note=57 velocity=86 time=10
note_off channel=1 note=64 velocity=108 time=0
note_off channel=1 note=61 velocity=88 time=1
note_off channel=1 note=69 velocity=96 time=3
note_on channel=1 note=69 velocity=86 time=55
note_on channel=1 note=64 velocity=84 time=0
note_on channel=1 note=61 velocity=76 time=0
note_on channel=1 note=57 velocity=82 time=0
note_off channel=1 note=69 velocity=86 time=196
note_off channel=1 note=64 velocity=84 time=6
note_off channel=1 note=61 velocity=76 time=6
note_off channel=1 note=57 velocity=82 time=1
note_on channel=1 note=69 velocity=84 time=31
note_on channel=1 note=66 velocity=84 time=0
note_on channel=1 note=62 velocity=86 time=0
note_on channel=1 note=57 velocity=86 time=0
note_off channel=1 note=69 velocity=84 time=50
note_off channel=1 note=57 velocity=86 time=1
note_off channel=1 note=62 velocity=86 time=2
note_off channel=1 note=66 velocity=84 time=2
note_on channel=1 note=69 velocity=86 time=20
note_on channel=1 note=66 velocity=86 time=0
note_on channel=1 note=62 velocity=88 time=0
note_on channel=1 note=57 velocity=82 time=0
note_off channel=1 note=57 velocity=82 time=9
note_off channel=1 note=62 velocity=88 time=2
note_off channel=1 note=66 velocity=86 time=1
note_off channel=1 note=69 velocity=86 time=2
note_on channel=1 note=69 velocity=88 time=55
note_on channel=1 note=66 velocity=88 time=0
note_on channel=1 note=62 velocity=86 time=0
note_on channel=1 note=57 velocity=84 time=0
note_off channel=1 note=69 velocity=88 time=199
note_off channel=1 note=66 velocity=88 time=2
note_off channel=1 note=62 velocity=86 time=0
note_off channel=1 note=57 velocity=84 time=6
note_on channel=1 note=69 velocity=82 time=33
note_on channel=1 note=64 velocity=86 time=0
note_on channel=1 note=61 velocity=78 time=0
note_on channel=1 note=57 velocity=80 time=0
note_off channel=1 note=69 velocity=82 time=55
note_off channel=1 note=57 velocity=80 time=2
note_off channel=1 note=61 velocity=78 time=1
note_off channel=1 note=64 velocity=86 time=5
note_on channel=1 note=69 velocity=100 time=12
note_on channel=1 note=64 velocity=100 time=0
note_on channel=1 note=61 velocity=92 time=0
note_on channel=1 note=57 velocity=88 time=0
note_off channel=1 note=61 velocity=92 time=10
note_off channel=1 note=57 velocity=88 time=1
note_off channel=1 note=64 velocity=100 time=0
note_off channel=1 note=69 velocity=100 time=3
note_on channel=1 note=69 velocity=92 time=55
note_on channel=1 note=64 velocity=100 time=0
note_on channel=1 note=61 velocity=88 time=0
note_on channel=1 note=57 velocity=92 time=0
note_off channel=1 note=69 velocity=92 time=196
note_off channel=1 note=61 velocity=88 time=6
note_off channel=1 note=57 velocity=92 time=0
note_off channel=1 note=64 velocity=100 time=7
note_on channel=1 note=66 velocity=82 time=31
note_on channel=1 note=61 velocity=84 time=0
note_on channel=1 note=57 velocity=84 time=0
note_off channel=1 note=57 velocity=84 time=54
note_off channel=1 note=66 velocity=82 time=2
note_off channel=1 note=61 velocity=84 time=1
note_on channel=1 note=66 velocity=96 time=18
note_on channel=1 note=61 velocity=88 time=0
note_on channel=1 note=57 velocity=86 time=0
note_off channel=1 note=61 velocity=88 time=11
note_off channel=1 note=57 velocity=86 time=3
note_off channel=1 note=66 velocity=96 time=0
note_on channel=1 note=66 velocity=92 time=55
note_on channel=1 note=61 velocity=88 time=0
note_on channel=1 note=57 velocity=88 time=0
note_off channel=1 note=66 velocity=92 time=200
note_off channel=1 note=57 velocity=88 time=3
note_off channel=1 note=61 velocity=88 time=7
note_on channel=1 note=68 velocity=84 time=30
note_on channel=1 note=64 velocity=84 time=0
note_on channel=1 note=62 velocity=80 time=0
note_on channel=1 note=59 velocity=78 time=0
note_on channel=1 note=52 velocity=76 time=0
note_on channel=1 note=40 velocity=84 time=0
note_off channel=1 note=40 velocity=84 time=47
note_off channel=1 note=52 velocity=76 time=2
note_off channel=1 note=59 velocity=78 time=3
note_off channel=1 note=62 velocity=80 time=1
note_off channel=1 note=68 velocity=84 time=4
note_off channel=1 note=64 velocity=84 time=4
note_on channel=1 note=68 velocity=108 time=14
note_on channel=1 note=64 velocity=104 time=0
note_on channel=1 note=62 velocity=104 time=0
note_on channel=1 note=59 velocity=96 time=0
note_on channel=1 note=52 velocity=112 time=0
note_on channel=1 note=40 velocity=104 time=0
note_off channel=1 note=62 velocity=104 time=12
note_off channel=1 note=59 velocity=96 time=1
note_off channel=1 note=64 velocity=104 time=2
note_off channel=1 note=52 velocity=112 time=0
note_off channel=1 note=68 velocity=108 time=2
note_off channel=1 note=40 velocity=104 time=5
note_on channel=1 note=69 velocity=96 time=47
note_on channel=1 note=64 velocity=88 time=0
note_on channel=1 note=61 velocity=96 time=0
note_on channel=1 note=52 velocity=92 time=0
note_on channel=1 note=40 velocity=84 time=0
note_off channel=1 note=61 velocity=96 time=190
note_off channel=1 note=64 velocity=88 time=0
note_off channel=1 note=69 velocity=96 time=1
note_off channel=1 note=52 velocity=92 time=7
note_off channel=1 note=40 velocity=84 time=0
note_on channel=1 note=68 velocity=86 time=42
note_on channel=1 note=64 velocity=88 time=0
note_on channel=1 note=62 velocity=86 time=0
note_on channel=1 note=59 velocity=80 time=0
note_on channel=1 note=52 velocity=80 time=0
note_on channel=1 note=40 velocity=86 time=0
note_off channel=1 note=59 velocity=80 time=54
note_off channel=1 note=40 velocity=86 time=3
note_off channel=1 note=62 velocity=86 time=1
note_off channel=1 note=52 velocity=80 time=0
note_off channel=1 note=68 velocity=86 time=2
note_off channel=1 note=64 velocity=88 time=3
note_on channel=1 note=68 velocity=108 time=12
note_on channel=1 note=64 velocity=96 time=0
note_on channel=1 note=62 velocity=108 time=0
note_on channel=1 note=59 velocity=96 time=0
note_on channel=1 note=52 velocity=96 time=0
note_on channel=1 note=40 velocity=100 time=0
note_off channel=1 note=62 velocity=108 time=13
note_off channel=1 note=64 velocity=96 time=2
note_off channel=1 note=59 velocity=96 time=0
note_off channel=1 note=68 velocity=108 time=3
note_off channel=1 note=52 velocity=96 time=0
note_off channel=1 note=40 velocity=100 time=10
note_on channel=1 note=69 velocity=92 time=41
note_on channel=1 note=64 velocity=86 time=0
note_on channel=1 note=61 velocity=88 time=0
note_on channel=1 note=52 velocity=86 time=0
note_on channel=1 note=40 velocity=86 time=0
note_off channel=1 note=61 velocity=88 time=208
note_off channel=1 note=64 velocity=86 time=1
note_off channel=1 note=69 velocity=92 time=0
note_off channel=1 note=52 velocity=86 time=4
note_off channel=1 note=40 velocity=86 time=3
note_on channel=1 note=52 velocity=108 time=24
note_on channel=1 note=40 velocity=104 time=0
note_off channel=1 note=40 velocity=104 time=38
note_off channel=1 note=52 velocity=108 time=7
note_on channel=1 note=54 velocity=108 time=30
note_on channel=1 note=42 velocity=88 time=0
note_off channel=1 note=54 velocity=108 time=18
note_off channel=1 note=42 velocity=88 time=6
note_on channel=1 note=54 velocity=100 time=45
note_on channel=1 note=42 velocity=92 time=0
note_off channel=1 note=42 velocity=92 time=67
note_off channel=1 note=54 velocity=100 time=8
note_on channel=1 note=42 velocity=80 time=0
note_on channel=1 note=45 velocity=88 time=21
note_off channel=1 note=42 velocity=80 time=27
note_on channel=1 note=49 velocity=100 time=0
note_off channel=1 note=45 velocity=88 time=16
note_on channel=1 note=54 velocity=122 time=5
note_off channel=1 note=49 velocity=100 time=15
note_on channel=1 note=57 velocity=96 time=12
note_on channel=1 note=61 velocity=104 time=21
note_off channel=1 note=54 velocity=122 time=6
note_off channel=1 note=57 velocity=96 time=5
note_on channel=1 note=69 velocity=108 time=16
note_off channel=1 note=61 velocity=104 time=3
note_off channel=1 note=69 velocity=108 time=11
note_on channel=1 note=68 velocity=108 time=7
note_on channel=1 note=64 velocity=100 time=0
note_on channel=1 note=59 velocity=88 time=0
note_off channel=1 note=59 velocity=88 time=50
note_off channel=1 note=68 velocity=108 time=5
note_off channel=1 note=64 velocity=100 time=8
note_on channel=1 note=66 velocity=117 time=12
note_on channel=1 note=61 velocity=112 time=0
note_on channel=1 note=57 velocity=88 time=0
note_off channel=1 note=61 velocity=112 time=9
note_off channel=1 note=57 velocity=88 time=2
note_off channel=1 note=66 velocity=117 time=3
note_on channel=1 note=66 velocity=100 time=55
note_on channel=1 note=61 velocity=108 time=0
note_on channel=1 note=57 velocity=92 time=0
note_off channel=1 note=57 velocity=92 time=136
note_off channel=1 note=61 velocity=108 time=6
note_off channel=1 note=66 velocity=100 time=1
note_on channel=1 note=73 velocity=108 time=97
note_on channel=1 note=61 velocity=104 time=0
note_off channel=1 note=73 velocity=108 time=20
note_off channel=1 note=61 velocity=104 time=1
note_on channel=1 note=74 velocity=104 time=54
note_on channel=1 note=62 velocity=92 time=0
note_off channel=1 note=62 velocity=92 time=19
note_off channel=1 note=74 velocity=104 time=2
note_on channel=1 note=74 velocity=104 time=48
note_on channel=1 note=62 velocity=92 time=0
note_off channel=1 note=74 velocity=104 time=147
note_off channel=1 note=62 velocity=92 time=12
note_on channel=1 note=71 velocity=92 time=81
note_on channel=1 note=68 velocity=84 time=0
note_on channel=1 note=64 velocity=88 time=0
note_on channel=1 note=62 velocity=100 time=0
note_on channel=1 note=52 velocity=88 time=0
note_off channel=1 note=64 velocity=88 time=333
note_off channel=1 note=68 velocity=84 time=1
note_off channel=1 note=71 velocity=92 time=3
note_off channel=1 note=62 velocity=100 time=5
note_off channel=1 note=52 velocity=88 time=18
note_on channel=1 note=69 velocity=96 time=51
note_on channel=1 note=64 velocity=86 time=0
note_on channel=1 note=61 velocity=92 time=0
note_on channel=1 note=57 velocity=92 time=0
note_off channel=1 note=57 velocity=92 time=14
note_off channel=1 note=64 velocity=86 time=3
note_off channel=1 note=69 velocity=96 time=1
note_off channel=1 note=61 velocity=92 time=0
note_on channel=1 note=69 velocity=96 time=51
note_on channel=1 note=64 velocity=100 time=0
note_on channel=1 note=61 velocity=84 time=0
note_on channel=1 note=57 velocity=88 time=0
note_off channel=1 note=57 velocity=88 time=33
note_off channel=1 note=69 velocity=96 time=2
note_off channel=1 note=61 velocity=84 time=1
note_off channel=1 note=64 velocity=100 time=4
note_on channel=1 note=69 velocity=84 time=35
note_on channel=1 note=64 velocity=96 time=0
note_on channel=1 note=61 velocity=80 time=0
note_on channel=1 note=57 velocity=78 time=0
note_off channel=1 note=69 velocity=84 time=40
note_off channel=1 note=57 velocity=78 time=11
note_off channel=1 note=61 velocity=80 time=5
note_off channel=1 note=64 velocity=96 time=4
note_on channel=1 note=69 velocity=108 time=9
note_on channel=1 note=64 velocity=96 time=0
note_on channel=1 note=61 velocity=88 time=0
note_on channel=1 note=57 velocity=84 time=0
note_off channel=1 note=69 velocity=108 time=104
note_off channel=1 note=64 velocity=96 time=4
note_off channel=1 note=57 velocity=84 time=3
note_off channel=1 note=61 velocity=88 time=1
note_on channel=1 note=69 velocity=86 time=59
note_on channel=1 note=66 velocity=92 time=0
note_on channel=1 note=62 velocity=100 time=0
note_on channel=1 note=57 velocity=86 time=0
note_off channel=1 note=57 velocity=86 time=15
note_off channel=1 note=69 velocity=86 time=0
note_off channel=1 note=66 velocity=92 time=2
note_off channel=1 note=62 velocity=100 time=0
note_on channel=1 note=69 velocity=92 time=52
note_on channel=1 note=66 velocity=88 time=0
note_on channel=1 note=62 velocity=104 time=0
note_on channel=1 note=57 velocity=92 time=0
note_off channel=1 note=69 velocity=92 time=30
note_off channel=1 note=62 velocity=104 time=2
note_off channel=1 note=57 velocity=92 time=1
note_off channel=1 note=66 velocity=88 time=1
note_on channel=1 note=69 velocity=86 time=41
note_on channel=1 note=66 velocity=86 time=0
note_on channel=1 note=62 velocity=92 time=0
note_on channel=1 note=57 velocity=84 time=0
note_off channel=1 note=69 velocity=86 time=33
note_off channel=1 note=66 velocity=86 time=3
note_off channel=1 note=57 velocity=84 time=1
note_off channel=1 note=62 velocity=92 time=2
note_on channel=1 note=69 velocity=96 time=30
note_on channel=1 note=66 velocity=86 time=0
note_on channel=1 note=62 velocity=100 time=0
note_on channel=1 note=57 velocity=92 time=0
note_off channel=1 note=69 velocity=96 time=116
note_off channel=1 note=57 velocity=92 time=9
note_off channel=1 note=66 velocity=86 time=2
note_off channel=1 note=62 velocity=100 time=1
note_on channel=1 note=69 velocity=84 time=43
note_on channel=1 note=64 velocity=104 time=0
note_on channel=1 note=61 velocity=82 time=0
note_on channel=1 note=57 velocity=86 time=0
note_off channel=1 note=64 velocity=104 time=25
note_off channel=1 note=57 velocity=86 time=0
note_off channel=1 note=61 velocity=82 time=2
note_off channel=1 note=69 velocity=84 time=0
note_on channel=1 note=69 velocity=92 time=42
note_on channel=1 note=64 velocity=92 time=0
note_on channel=1 note=61 velocity=84 time=0
note_on channel=1 note=57 velocity=88 time=0
note_off channel=1 note=69 velocity=92 time=29
note_off channel=1 note=57 velocity=88 time=4
note_off channel=1 note=61 velocity=84 time=0
note_off channel=1 note=64 velocity=92 time=3
note_on channel=1 note=69 velocity=92 time=39
note_on channel=1 note=64 velocity=82 time=0
note_on channel=1 note=61 velocity=82 time=0
note_on channel=1 note=57 velocity=84 time=0
note_off channel=1 note=69 velocity=92 time=30
note_off channel=1 note=61 velocity=82 time=6
note_off channel=1 note=57 velocity=84 time=2
note_off channel=1 note=64 velocity=82 time=4
note_on channel=1 note=69 velocity=100 time=27
note_on channel=1 note=64 velocity=96 time=0
note_on channel=1 note=61 velocity=92 time=0
note_on channel=1 note=57 velocity=96 time=0
note_off channel=1 note=69 velocity=100 time=118
note_off channel=1 note=64 velocity=96 time=9
note_off channel=1 note=61 velocity=92 time=4
note_off channel=1 note=57 velocity=96 time=1
note_on channel=1 note=69 velocity=92 time=39
note_on channel=1 note=66 velocity=86 time=0
note_on channel=1 note=62 velocity=88 time=0
note_on channel=1 note=57 velocity=88 time=0
note_off channel=1 note=57 velocity=88 time=17
note_off channel=1 note=62 velocity=88 time=1
note_off channel=1 note=66 velocity=86 time=2
note_off channel=1 note=69 velocity=92 time=0
note_on channel=1 note=69 velocity=96 time=49
note_on channel=1 note=66 velocity=92 time=0
note_on channel=1 note=62 velocity=92 time=0
note_on channel=1 note=57 velocity=84 time=0
note_off channel=1 note=57 velocity=84 time=25
note_off channel=1 note=69 velocity=96 time=1
note_off channel=1 note=62 velocity=92 time=1
note_off channel=1 note=66 velocity=92 time=1
note_on channel=1 note=69 velocity=88 time=47
note_on channel=1 note=66 velocity=92 time=0
note_on channel=1 note=62 velocity=96 time=0
note_on channel=1 note=57 velocity=88 time=0
note_off channel=1 note=69 velocity=88 time=25
note_off channel=1 note=57 velocity=88 time=2
note_off channel=1 note=66 velocity=92 time=1
note_off channel=1 note=62 velocity=96 time=1
note_on channel=1 note=69 velocity=100 time=40
note_on channel=1 note=66 velocity=82 time=0
note_on channel=1 note=62 velocity=96 time=0
note_on channel=1 note=57 velocity=88 time=0
note_off channel=1 note=69 velocity=100 time=105
note_off channel=1 note=66 velocity=82 time=1
note_off channel=1 note=62 velocity=96 time=4
note_off channel=1 note=57 velocity=88 time=0
note_on channel=1 note=69 velocity=88 time=61
note_on channel=1 note=64 velocity=88 time=0
note_on channel=1 note=61 velocity=84 time=0
note_on channel=1 note=57 velocity=84 time=0
note_off channel=1 note=64 velocity=88 time=20
note_off channel=1 note=57 velocity=84 time=1
note_off channel=1 note=69 velocity=88 time=2
note_off channel=1 note=61 velocity=84 time=1
note_on channel=1 note=69 velocity=100 time=45
note_on channel=1 note=64 velocity=88 time=0
note_on channel=1 note=61 velocity=84 time=0
note_on channel=1 note=57 velocity=86 time=0
note_off channel=1 note=57 velocity=86 time=28
note_off channel=1 note=69 velocity=100 time=0
note_off channel=1 note=64 velocity=88 time=3
note_off channel=1 note=61 velocity=84 time=2
note_on channel=1 note=69 velocity=96 time=42
note_on channel=1 note=64 velocity=104 time=0
note_on channel=1 note=61 velocity=84 time=0
note_on channel=1 note=57 velocity=86 time=0
note_off channel=1 note=64 velocity=104 time=27
note_off channel=1 note=69 velocity=96 time=1
note_off channel=1 note=61 velocity=84 time=2
note_off channel=1 note=57 velocity=86 time=5
note_on channel=1 note=69 velocity=96 time=34
note_on channel=1 note=64 velocity=100 time=0
note_on channel=1 note=61 velocity=86 time=0
note_on channel=1 note=57 velocity=92 time=0
note_off channel=1 note=69 velocity=96 time=112
note_off channel=1 note=57 velocity=92 time=10
note_off channel=1 note=64 velocity=100 time=2
note_off channel=1 note=61 velocity=86 time=1
note_on channel=1 note=69 velocity=86 time=46
note_on channel=1 note=66 velocity=86 time=0
note_on channel=1 note=62 velocity=96 time=0
note_on channel=1 note=57 velocity=82 time=0
note_off channel=1 note=69 velocity=86 time=25
note_off channel=1 note=62 velocity=96 time=2
note_off channel=1 note=66 velocity=86 time=0
note_off channel=1 note=57 velocity=82 time=4
note_on channel=1 note=69 velocity=92 time=38
note_on channel=1 note=66 velocity=86 time=0
note_on channel=1 note=62 velocity=88 time=0
note_on channel=1 note=57 velocity=92 time=0
note_off channel=1 note=69 velocity=92 time=27
note_off channel=1 note=66 velocity=86 time=5
note_off channel=1 note=57 velocity=92 time=0
note_off channel=1 note=62 velocity=88 time=2
note_on channel=1 note=69 velocity=86 time=41
note_on channel=1 note=66 velocity=92 time=0
note_on channel=1 note=62 velocity=100 time=0
note_on channel=1 note=57 velocity=92 time=0
note_off channel=1 note=69 velocity=86 time=34
note_off channel=1 note=62 velocity=100 time=1
note_off channel=1 note=57 velocity=92 time=2
note_off channel=1 note=66 velocity=92 time=0
note_on channel=1 note=69 velocity=92 time=32
note_on channel=1 note=66 velocity=88 time=0
note_on channel=1 note=62 velocity=108 time=0
note_on channel=1 note=57 velocity=108 time=0
note_off channel=1 note=62 velocity=108 time=114
note_off channel=1 note=66 velocity=88 time=4
note_off channel=1 note=69 velocity=92 time=1
note_off channel=1 note=57 velocity=108 time=6
note_on channel=1 note=71 velocity=86 time=46
note_on channel=1 note=68 velocity=92 time=0
note_on channel=1 note=64 velocity=92 time=0
note_on channel=1 note=59 velocity=100 time=0
note_off channel=1 note=71 velocity=86 time=23
note_off channel=1 note=59 velocity=100 time=2
note_off channel=1 note=68 velocity=92 time=0
note_off channel=1 note=64 velocity=92 time=1
note_on channel=1 note=71 velocity=82 time=43
note_on channel=1 note=68 velocity=86 time=0
note_on channel=1 note=64 velocity=80 time=0
note_on channel=1 note=59 velocity=88 time=0
note_off channel=1 note=59 velocity=88 time=32
note_off channel=1 note=71 velocity=82 time=3
note_off channel=1 note=64 velocity=80 time=6
note_off channel=1 note=68 velocity=86 time=1
note_on channel=1 note=73 velocity=86 time=33
note_on channel=1 note=69 velocity=84 time=0
note_on channel=1 note=64 velocity=104 time=0
note_on channel=1 note=61 velocity=86 time=0
note_off channel=1 note=61 velocity=86 time=57
note_off channel=1 note=64 velocity=104 time=3
note_off channel=1 note=73 velocity=86 time=4
note_off channel=1 note=69 velocity=84 time=1
note_on channel=1 note=73 velocity=78 time=4
note_on channel=1 note=69 velocity=88 time=0
note_on channel=1 note=64 velocity=88 time=0
note_on channel=1 note=61 velocity=82 time=0
note_off channel=1 note=61 velocity=82 time=21
note_off channel=1 note=73 velocity=78 time=2
note_off channel=1 note=69 velocity=88 time=2
note_off channel=1 note=64 velocity=88 time=4
note_on channel=1 note=71 velocity=100 time=19
note_on channel=1 note=68 velocity=96 time=0
note_on channel=1 note=64 velocity=100 time=0
note_on channel=1 note=59 velocity=108 time=0
note_off channel=1 note=64 velocity=100 time=42
note_off channel=1 note=68 velocity=96 time=1
note_off channel=1 note=71 velocity=100 time=3
note_off channel=1 note=59 velocity=108 time=4
note_on channel=1 note=69 velocity=86 time=46
note_on channel=1 note=66 velocity=86 time=0
note_on channel=1 note=62 velocity=96 time=0
note_on channel=1 note=57 velocity=86 time=0
note_off channel=1 note=69 velocity=86 time=55
note_off channel=1 note=57 velocity=86 time=1
note_off channel=1 note=62 velocity=96 time=2
note_off channel=1 note=66 velocity=86 time=0
note_on channel=1 note=69 velocity=100 time=17
note_on channel=1 note=66 velocity=108 time=0
note_on channel=1 note=62 velocity=104 time=0
note_on channel=1 note=57 velocity=92 time=0
note_off channel=1 note=57 velocity=92 time=13
note_off channel=1 note=69 velocity=100 time=4
note_off channel=1 note=66 velocity=108 time=0
note_off channel=1 note=62 velocity=104 time=0
note_on channel=1 note=69 velocity=100 time=52
note_on channel=1 note=64 velocity=108 time=0
note_on channel=1 note=61 velocity=88 time=0
note_on channel=1 note=57 velocity=104 time=0
note_off channel=1 note=69 velocity=100 time=195
note_off channel=1 note=64 velocity=108 time=0
note_off channel=1 note=57 velocity=104 time=3
note_off channel=1 note=61 velocity=88 time=1
note_on channel=1 note=71 velocity=100 time=41
note_on channel=1 note=68 velocity=92 time=0
note_on channel=1 note=64 velocity=96 time=0
note_on channel=1 note=59 velocity=88 time=0
note_off channel=1 note=71 velocity=100 time=201
note_off channel=1 note=59 velocity=88 time=4
note_off channel=1 note=64 velocity=96 time=5
note_off channel=1 note=68 velocity=92 time=7
note_on channel=1 note=71 velocity=84 time=23
note_on channel=1 note=68 velocity=80 time=0
note_on channel=1 note=64 velocity=86 time=0
note_on channel=1 note=59 velocity=86 time=0
note_off channel=1 note=71 velocity=84 time=32
note_off channel=1 note=59 velocity=86 time=1
note_off channel=1 note=68 velocity=80 time=3
note_off channel=1 note=64 velocity=86 time=3
note_on channel=1 note=71 velocity=92 time=9
note_on channel=1 note=68 velocity=88 time=0
note_on channel=1 note=64 velocity=92 time=0
note_on channel=1 note=59 velocity=100 time=0
note_off channel=1 note=59 velocity=100 time=51
note_off channel=1 note=64 velocity=92 time=2
note_off channel=1 note=71 velocity=92 time=1
note_off channel=1 note=68 velocity=88 time=5
note_on channel=1 note=71 velocity=84 time=37
note_on channel=1 note=68 velocity=86 time=0
note_on channel=1 note=65 velocity=104 time=0
note_on channel=1 note=61 velocity=82 time=0
note_off channel=1 note=71 velocity=84 time=194
note_off channel=1 note=65 velocity=104 time=4
note_off channel=1 note=61 velocity=82 time=3
note_off channel=1 note=68 velocity=86 time=1
note_on channel=1 note=71 velocity=82 time=38
note_on channel=1 note=68 velocity=74 time=0
note_on channel=1 note=65 velocity=88 time=0
note_on channel=1 note=61 velocity=66 time=0
note_off channel=1 note=65 velocity=88 time=29
note_off channel=1 note=61 velocity=66 time=1
note_off channel=1 note=71 velocity=82 time=0
note_off channel=1 note=68 velocity=74 time=1
note_on channel=1 note=71 velocity=84 time=17
note_on channel=1 note=68 velocity=76 time=0
note_on channel=1 note=65 velocity=100 time=0
note_on channel=1 note=61 velocity=80 time=0
note_off channel=1 note=71 velocity=84 time=42
note_off channel=1 note=65 velocity=100 time=2
note_off channel=1 note=68 velocity=76 time=2
note_off channel=1 note=61 velocity=80 time=23
note_on channel=1 note=69 velocity=84 time=27
note_on channel=1 note=66 velocity=80 time=0
note_on channel=1 note=64 velocity=88 time=0
note_on channel=1 note=61 velocity=76 time=0
note_off channel=1 note=69 velocity=84 time=50
note_off channel=1 note=66 velocity=80 time=3
note_off channel=1 note=61 velocity=76 time=1
note_off channel=1 note=64 velocity=88 time=1
note_on channel=1 note=69 velocity=82 time=20
note_on channel=1 note=66 velocity=82 time=0
note_on channel=1 note=64 velocity=88 time=0
note_on channel=1 note=61 velocity=82 time=0
note_off channel=1 note=61 velocity=82 time=11
note_off channel=1 note=64 velocity=88 time=1
note_off channel=1 note=66 velocity=82 time=0
note_off channel=1 note=69 velocity=82 time=1
note_on channel=1 note=69 velocity=84 time=56
note_on channel=1 note=66 velocity=84 time=0
note_on channel=1 note=64 velocity=92 time=0
note_on channel=1 note=61 velocity=74 time=0
note_off channel=1 note=61 velocity=74 time=188
note_off channel=1 note=69 velocity=84 time=3
note_off channel=1 note=64 velocity=92 time=2
note_off channel=1 note=66 velocity=84 time=5
note_on channel=1 note=69 velocity=86 time=42
note_on channel=1 note=66 velocity=86 time=0
note_on channel=1 note=63 velocity=86 time=0
note_on channel=1 note=59 velocity=88 time=0
note_off channel=1 note=69 velocity=86 time=51
note_off channel=1 note=59 velocity=88 time=2
note_off channel=1 note=63 velocity=86 time=1
note_off channel=1 note=66 velocity=86 time=3
note_on channel=1 note=69 velocity=86 time=18
note_on channel=1 note=66 velocity=82 time=0
note_on channel=1 note=63 velocity=86 time=0
note_on channel=1 note=59 velocity=86 time=0
note_off channel=1 note=66 velocity=82 time=11
note_off channel=1 note=63 velocity=86 time=2
note_off channel=1 note=59 velocity=86 time=1
note_off channel=1 note=69 velocity=86 time=5
note_on channel=1 note=69 velocity=82 time=50
note_on channel=1 note=66 velocity=88 time=0
note_on channel=1 note=63 velocity=88 time=0
note_on channel=1 note=59 velocity=88 time=0
note_off channel=1 note=59 velocity=88 time=118
note_off channel=1 note=69 velocity=82 time=1
note_off channel=1 note=63 velocity=88 time=1
note_off channel=1 note=66 velocity=88 time=2
note_on channel=1 note=69 velocity=96 time=22
note_on channel=1 note=66 velocity=84 time=0
note_on channel=1 note=63 velocity=84 time=0
note_on channel=1 note=59 velocity=88 time=0
note_off channel=1 note=69 velocity=96 time=58
note_off channel=1 note=66 velocity=84 time=2
note_off channel=1 note=63 velocity=84 time=0
note_off channel=1 note=59 velocity=88 time=6
note_on channel=1 note=69 velocity=86 time=57
note_on channel=1 note=66 velocity=78 time=0
note_on channel=1 note=62 velocity=92 time=0
note_on channel=1 note=57 velocity=92 time=0
note_off channel=1 note=57 velocity=92 time=12
note_off channel=1 note=66 velocity=78 time=5
note_off channel=1 note=62 velocity=92 time=1
note_off channel=1 note=69 velocity=86 time=1
note_on channel=1 note=69 velocity=82 time=50
note_on channel=1 note=66 velocity=84 time=0
note_on channel=1 note=62 velocity=92 time=0
note_on channel=1 note=57 velocity=84 time=0
note_off channel=1 note=69 velocity=82 time=29
note_off channel=1 note=62 velocity=92 time=4
note_off channel=1 note=66 velocity=84 time=0
note_off channel=1 note=57 velocity=84 time=1
note_on channel=1 note=69 velocity=86 time=41
note_on channel=1 note=66 velocity=82 time=0
note_on channel=1 note=62 velocity=86 time=0
note_on channel=1 note=57 velocity=86 time=0
note_off channel=1 note=69 velocity=86 time=30
note_off channel=1 note=57 velocity=86 time=6
note_off channel=1 note=66 velocity=82 time=1
note_off channel=1 note=62 velocity=86 time=0
note_on channel=1 note=69 velocity=88 time=32
note_on channel=1 note=66 velocity=88 time=0
note_on channel=1 note=62 velocity=96 time=0
note_on channel=1 note=57 velocity=84 time=0
note_off channel=1 note=69 velocity=88 time=123
note_off channel=1 note=66 velocity=88 time=6
note_off channel=1 note=57 velocity=84 time=5
note_off channel=1 note=62 velocity=96 time=4
note_on channel=1 note=69 velocity=84 time=33
note_on channel=1 note=66 velocity=78 time=0
note_on channel=1 note=62 velocity=88 time=0
note_on channel=1 note=57 velocity=76 time=0
note_off channel=1 note=57 velocity=76 time=22
note_off channel=1 note=69 velocity=84 time=0
note_off channel=1 note=66 velocity=78 time=1
note_off channel=1 note=62 velocity=88 time=0
note_on channel=1 note=69 velocity=84 time=46
note_on channel=1 note=66 velocity=86 time=0
note_on channel=1 note=62 velocity=88 time=0
note_on channel=1 note=57 velocity=82 time=0
note_off channel=1 note=69 velocity=84 time=30
note_off channel=1 note=62 velocity=88 time=3
note_off channel=1 note=66 velocity=86 time=3
note_off channel=1 note=57 velocity=82 time=1
note_on channel=1 note=69 velocity=86 time=38
note_on channel=1 note=66 velocity=88 time=0
note_on channel=1 note=62 velocity=88 time=0
note_on channel=1 note=57 velocity=78 time=0
note_off channel=1 note=69 velocity=86 time=36
note_off channel=1 note=62 velocity=88 time=4
note_off channel=1 note=66 velocity=88 time=0
note_off channel=1 note=57 velocity=78 time=1
note_on channel=1 note=69 velocity=84 time=28
note_on channel=1 note=66 velocity=86 time=0
note_on channel=1 note=62 velocity=96 time=0
note_on channel=1 note=57 velocity=84 time=0
note_off channel=1 note=69 velocity=84 time=118
note_off channel=1 note=62 velocity=96 time=5
note_off channel=1 note=66 velocity=86 time=1
note_off channel=1 note=57 velocity=84 time=3
note_on channel=1 note=69 velocity=88 time=44
note_on channel=1 note=64 velocity=88 time=0
note_on channel=1 note=61 velocity=82 time=0
note_on channel=1 note=57 velocity=84 time=0
note_off channel=1 note=57 velocity=84 time=22
note_off channel=1 note=69 velocity=88 time=2
note_off channel=1 note=64 velocity=88 time=2
note_off channel=1 note=61 velocity=82 time=1
note_on channel=1 note=69 velocity=84 time=42
note_on channel=1 note=64 velocity=92 time=0
note_on channel=1 note=61 velocity=82 time=0
note_on channel=1 note=57 velocity=78 time=0
note_off channel=1 note=69 velocity=84 time=33
note_off channel=1 note=64 velocity=92 time=2
note_off channel=1 note=57 velocity=78 time=1
note_off channel=1 note=61 velocity=82 time=3
note_on channel=1 note=69 velocity=84 time=36
note_on channel=1 note=64 velocity=86 time=0
note_on channel=1 note=61 velocity=76 time=0
note_on channel=1 note=57 velocity=74 time=0
note_off channel=1 note=69 velocity=84 time=27
note_off channel=1 note=64 velocity=86 time=1
note_off channel=1 note=57 velocity=74 time=3
note_off channel=1 note=61 velocity=76 time=2
note_on channel=1 note=69 velocity=104 time=36
note_on channel=1 note=64 velocity=88 time=0
note_on channel=1 note=61 velocity=84 time=0
note_on channel=1 note=57 velocity=86 time=0
note_off channel=1 note=69 velocity=104 time=123
note_off channel=1 note=57 velocity=86 time=14
note_off channel=1 note=64 velocity=88 time=4
note_off channel=1 note=61 velocity=84 time=2
note_on channel=1 note=69 velocity=86 time=28
note_on channel=1 note=66 velocity=86 time=0
note_on channel=1 note=62 velocity=96 time=0
note_on channel=1 note=57 velocity=82 time=0
note_off channel=1 note=69 velocity=86 time=21
note_off channel=1 note=57 velocity=82 time=1
note_off channel=1 note=66 velocity=86 time=1
note_off channel=1 note=62 velocity=96 time=1
note_on channel=1 note=69 velocity=86 time=45
note_on channel=1 note=66 velocity=84 time=0
note_on channel=1 note=62 velocity=80 time=0
note_on channel=1 note=57 velocity=78 time=0
note_off channel=1 note=69 velocity=86 time=26
note_off channel=1 note=62 velocity=80 time=6
note_off channel=1 note=57 velocity=78 time=1
note_off channel=1 note=66 velocity=84 time=0
note_on channel=1 note=69 velocity=82 time=42
note_on channel=1 note=66 velocity=84 time=0
note_on channel=1 note=62 velocity=88 time=0
note_on channel=1 note=57 velocity=86 time=0
note_off channel=1 note=69 velocity=82 time=26
note_off channel=1 note=66 velocity=84 time=3
note_off channel=1 note=57 velocity=86 time=1
note_off channel=1 note=62 velocity=88 time=5
note_on channel=1 note=69 velocity=88 time=34
note_on channel=1 note=66 velocity=84 time=0
note_on channel=1 note=62 velocity=86 time=0
note_on channel=1 note=57 velocity=78 time=0
note_off channel=1 note=66 velocity=84 time=117
note_off channel=1 note=69 velocity=88 time=3
note_off channel=1 note=62 velocity=86 time=4
note_off channel=1 note=57 velocity=78 time=5
note_on channel=1 note=69 velocity=82 time=42
note_on channel=1 note=64 velocity=96 time=0
note_on channel=1 note=61 velocity=82 time=0
note_on channel=1 note=57 velocity=80 time=0
note_off channel=1 note=69 velocity=82 time=24
note_off channel=1 note=57 velocity=80 time=1
note_off channel=1 note=64 velocity=96 time=1
note_off channel=1 note=61 velocity=82 time=2
note_on channel=1 note=69 velocity=84 time=41
note_on channel=1 note=64 velocity=92 time=0
note_on channel=1 note=61 velocity=82 time=0
note_on channel=1 note=57 velocity=78 time=0
note_off channel=1 note=57 velocity=78 time=32
note_off channel=1 note=69 velocity=84 time=0
note_off channel=1 note=61 velocity=82 time=3
note_off channel=1 note=64 velocity=92 time=2
note_on channel=1 note=69 velocity=84 time=38
note_on channel=1 note=64 velocity=82 time=0
note_on channel=1 note=61 velocity=80 time=0
note_on channel=1 note=57 velocity=78 time=0
note_off channel=1 note=69 velocity=84 time=37
note_off channel=1 note=57 velocity=78 time=6
note_off channel=1 note=61 velocity=80 time=2
note_off channel=1 note=64 velocity=82 time=2
note_on channel=1 note=69 velocity=86 time=22
note_on channel=1 note=64 velocity=88 time=0
note_on channel=1 note=61 velocity=86 time=0
note_on channel=1 note=57 velocity=88 time=0
note_off channel=1 note=69 velocity=86 time=134
note_off channel=1 note=64 velocity=88 time=1
note_off channel=1 note=57 velocity=88 time=3
note_off channel=1 note=61 velocity=86 time=2
note_on channel=1 note=69 velocity=86 time=31
note_on channel=1 note=66 velocity=86 time=0
note_on channel=1 note=62 velocity=88 time=0
note_on channel=1 note=57 velocity=88 time=0
note_off channel=1 note=69 velocity=86 time=23
note_off channel=1 note=62 velocity=88 time=3
note_off channel=1 note=57 velocity=88 time=1
note_off channel=1 note=66 velocity=86 time=0
note_on channel=1 note=69 velocity=78 time=42
note_on channel=1 note=66 velocity=82 time=0
note_on channel=1 note=62 velocity=84 time=0
note_on channel=1 note=57 velocity=70 time=0
note_off channel=1 note=69 velocity=78 time=36
note_off channel=1 note=66 velocity=82 time=1
note_off channel=1 note=62 velocity=84 time=3
note_off channel=1 note=57 velocity=70 time=2
note_on channel=1 note=69 velocity=84 time=33
note_on channel=1 note=66 velocity=82 time=0
note_on channel=1 note=62 velocity=88 time=0
note_on channel=1 note=57 velocity=80 time=0
note_off channel=1 note=69 velocity=84 time=34
note_off channel=1 note=66 velocity=82 time=3
note_off channel=1 note=62 velocity=88 time=0
note_off channel=1 note=57 velocity=80 time=1
note_on channel=1 note=69 velocity=92 time=31
note_on channel=1 note=66 velocity=88 time=0
note_on channel=1 note=62 velocity=92 time=0
note_on channel=1 note=57 velocity=88 time=0
note_off channel=1 note=69 velocity=92 time=130
note_off channel=1 note=66 velocity=88 time=1
note_off channel=1 note=57 velocity=88 time=4
note_off channel=1 note=62 velocity=92 time=0
note_on channel=1 note=69 velocity=96 time=249
note_on channel=1 note=66 velocity=84 time=0
note_on channel=1 note=62 velocity=96 time=0
note_on channel=1 note=57 velocity=88 time=0
note_off channel=1 note=69 velocity=96 time=35
note_off channel=1 note=57 velocity=88 time=0
note_off channel=1 note=62 velocity=96 time=2
note_off channel=1 note=66 velocity=84 time=2
note_on channel=1 note=69 velocity=96 time=9
note_on channel=1 note=66 velocity=92 time=0
note_on channel=1 note=62 velocity=100 time=0
note_on channel=1 note=57 velocity=82 time=0
note_off channel=1 note=57 velocity=82 time=41
note_off channel=1 note=69 velocity=96 time=1
note_off channel=1 note=66 velocity=92 time=0
note_off channel=1 note=62 velocity=100 time=2
note_on channel=1 note=69 velocity=88 time=292
note_on channel=1 note=66 velocity=78 time=0
note_on channel=1 note=62 velocity=88 time=0
note_on channel=1 note=57 velocity=76 time=0
note_off channel=1 note=69 velocity=88 time=25
note_off channel=1 note=62 velocity=88 time=2
note_off channel=1 note=57 velocity=76 time=0
note_off channel=1 note=66 velocity=78 time=0
note_on channel=1 note=69 velocity=104 time=21
note_on channel=1 note=66 velocity=96 time=0
note_on channel=1 note=62 velocity=100 time=0
note_on channel=1 note=57 velocity=88 time=0
note_off channel=1 note=69 velocity=104 time=33
note_off channel=1 note=62 velocity=100 time=0
note_off channel=1 note=57 velocity=88 time=0
note_off channel=1 note=66 velocity=96 time=1
note_on channel=1 note=64 velocity=96 time=62
note_on channel=1 note=61 velocity=84 time=0
note_on channel=1 note=57 velocity=86 time=0
note_off channel=1 note=64 velocity=96 time=114
note_off channel=1 note=61 velocity=84 time=0
note_off channel=1 note=57 velocity=86 time=4
note_on channel=1 note=64 velocity=88 time=26
note_on channel=1 note=61 velocity=82 time=0
note_on channel=1 note=57 velocity=78 time=0
note_off channel=1 note=57 velocity=78 time=195
note_off channel=1 note=64 velocity=88 time=0
note_off channel=1 note=61 velocity=82 time=3
note_on channel=1 note=69 velocity=84 time=42
note_on channel=1 note=66 velocity=76 time=0
note_on channel=1 note=62 velocity=82 time=0
note_on channel=1 note=57 velocity=76 time=0
note_off channel=1 note=69 velocity=84 time=97
note_off channel=1 note=66 velocity=76 time=4
note_off channel=1 note=62 velocity=82 time=2
note_off channel=1 note=57 velocity=76 time=4
note_on channel=1 note=69 velocity=86 time=37
note_on channel=1 note=66 velocity=88 time=0
note_on channel=1 note=62 velocity=88 time=0
note_on channel=1 note=57 velocity=86 time=0
note_off channel=1 note=69 velocity=86 time=193
note_off channel=1 note=66 velocity=88 time=1
note_off channel=1 note=62 velocity=88 time=2
note_off channel=1 note=57 velocity=86 time=1
note_on channel=1 note=64 velocity=96 time=43
note_on channel=1 note=61 velocity=82 time=0
note_on channel=1 note=57 velocity=82 time=0
note_off channel=1 note=61 velocity=82 time=108
note_off channel=1 note=57 velocity=82 time=2
note_off channel=1 note=64 velocity=96 time=2
note_on channel=1 note=64 velocity=88 time=32
note_on channel=1 note=61 velocity=84 time=0
note_on channel=1 note=57 velocity=96 time=0
note_off channel=1 note=61 velocity=84 time=194
note_off channel=1 note=57 velocity=96 time=6
note_off channel=1 note=64 velocity=88 time=2
note_on channel=1 note=66 velocity=92 time=38
note_on channel=1 note=61 velocity=86 time=0
note_on channel=1 note=57 velocity=84 time=0
note_off channel=1 note=66 velocity=92 time=103
note_off channel=1 note=61 velocity=86 time=5
note_off channel=1 note=57 velocity=84 time=5
note_on channel=1 note=66 velocity=88 time=31
note_on channel=1 note=61 velocity=92 time=0
note_on channel=1 note=57 velocity=86 time=0
note_off channel=1 note=57 velocity=86 time=205
note_off channel=1 note=66 velocity=88 time=4
note_off channel=1 note=61 velocity=92 time=3
note_on channel=1 note=68 velocity=88 time=28
note_on channel=1 note=64 velocity=82 time=0
note_on channel=1 note=62 velocity=86 time=0
note_on channel=1 note=59 velocity=82 time=0
note_on channel=1 note=52 velocity=92 time=0
note_on channel=1 note=40 velocity=96 time=0
note_off channel=1 note=62 velocity=86 time=47
note_off channel=1 note=40 velocity=96 time=1
note_off channel=1 note=52 velocity=92 time=0
note_off channel=1 note=68 velocity=88 time=1
note_off channel=1 note=59 velocity=82 time=2
note_off channel=1 note=64 velocity=82 time=4
note_on channel=1 note=68 velocity=88 time=20
note_on channel=1 note=64 velocity=92 time=0
note_on channel=1 note=62 velocity=92 time=0
note_on channel=1 note=59 velocity=86 time=0
note_on channel=1 note=52 velocity=88 time=0
note_on channel=1 note=40 velocity=100 time=0
note_off channel=1 note=62 velocity=92 time=13
note_off channel=1 note=59 velocity=86 time=1
note_off channel=1 note=52 velocity=88 time=0
note_off channel=1 note=64 velocity=92 time=2
note_off channel=1 note=68 velocity=88 time=1
note_off channel=1 note=40 velocity=100 time=4
note_on channel=1 note=69 velocity=88 time=48
note_on channel=1 note=64 velocity=86 time=0
note_on channel=1 note=61 velocity=92 time=0
note_on channel=1 note=52 velocity=86 time=0
note_on channel=1 note=40 velocity=88 time=0
note_off channel=1 note=64 velocity=86 time=201
note_off channel=1 note=52 velocity=86 time=1
note_off channel=1 note=40 velocity=88 time=1
note_off channel=1 note=69 velocity=88 time=0
note_off channel=1 note=61 velocity=92 time=2
note_on channel=1 note=68 velocity=84 time=35
note_on channel=1 note=64 velocity=84 time=0
note_on channel=1 note=62 velocity=84 time=0
note_on channel=1 note=59 velocity=82 time=0
note_on channel=1 note=52 velocity=84 time=0
note_on channel=1 note=40 velocity=92 time=0
note_off channel=1 note=59 velocity=82 time=56
note_off channel=1 note=40 velocity=92 time=4
note_off channel=1 note=68 velocity=84 time=0
note_off channel=1 note=62 velocity=84 time=1
note_off channel=1 note=52 velocity=84 time=2
note_off channel=1 note=64 velocity=84 time=3
note_on channel=1 note=68 velocity=92 time=9
note_on channel=1 note=64 velocity=88 time=0
note_on channel=1 note=62 velocity=104 time=0
note_on channel=1 note=59 velocity=88 time=0
note_on channel=1 note=52 velocity=100 time=0
note_on channel=1 note=40 velocity=96 time=0
note_off channel=1 note=62 velocity=104 time=14
note_off channel=1 note=64 velocity=88 time=2
note_off channel=1 note=59 velocity=88 time=0
note_off channel=1 note=68 velocity=92 time=3
note_off channel=1 note=52 velocity=100 time=1
note_off channel=1 note=40 velocity=96 time=6
note_on channel=1 note=69 velocity=92 time=43
note_on channel=1 note=64 velocity=88 time=0
note_on channel=1 note=61 velocity=96 time=0
note_on channel=1 note=52 velocity=84 time=0
note_on channel=1 note=40 velocity=82 time=0
note_off channel=1 note=61 velocity=96 time=201
note_off channel=1 note=64 velocity=88 time=1
note_off channel=1 note=40 velocity=82 time=1
note_off channel=1 note=69 velocity=92 time=0
note_off channel=1 note=52 velocity=84 time=2
note_on channel=1 note=52 velocity=104 time=35
note_on channel=1 note=40 velocity=84 time=0
note_off channel=1 note=40 velocity=84 time=41
note_off channel=1 note=52 velocity=104 time=10
note_on channel=1 note=54 velocity=108 time=24
note_on channel=1 note=42 velocity=88 time=0
note_off channel=1 note=54 velocity=108 time=16
note_off channel=1 note=42 velocity=88 time=10
note_on channel=1 note=54 velocity=88 time=43
note_on channel=1 note=42 velocity=86 time=0
note_off channel=1 note=54 velocity=88 time=50
note_off channel=1 note=42 velocity=86 time=2
note_on channel=1 note=42 velocity=82 time=23
note_on channel=1 note=45 velocity=92 time=21
note_off channel=1 note=42 velocity=82 time=15
note_on channel=1 note=49 velocity=96 time=12
note_off channel=1 note=45 velocity=92 time=7
note_on channel=1 note=54 velocity=117 time=14
note_off channel=1 note=49 velocity=96 time=14
note_on channel=1 note=57 velocity=86 time=13
note_on channel=1 note=61 velocity=104 time=21
note_off channel=1 note=57 velocity=86 time=15
note_off channel=1 note=54 velocity=117 time=5
note_off channel=1 note=61 velocity=104 time=2
note_on channel=1 note=69 velocity=86 time=5
note_off channel=1 note=69 velocity=86 time=15
note_on channel=1 note=68 velocity=96 time=6
note_on channel=1 note=64 velocity=100 time=0
note_on channel=1 note=59 velocity=84 time=0
note_off channel=1 note=59 velocity=84 time=53
note_off channel=1 note=68 velocity=96 time=2
note_off channel=1 note=64 velocity=100 time=8
note_on channel=1 note=66 velocity=104 time=12
note_on channel=1 note=61 velocity=100 time=0
note_on channel=1 note=57 velocity=84 time=0
note_off channel=1 note=57 velocity=84 time=11
note_off channel=1 note=61 velocity=100 time=1
note_off channel=1 note=66 velocity=104 time=1
note_on channel=1 note=66 velocity=88 time=56
note_on channel=1 note=61 velocity=104 time=0
note_on channel=1 note=57 velocity=84 time=0
note_off channel=1 note=57 velocity=84 time=123
note_off channel=1 note=61 velocity=104 time=9
note_off channel=1 note=66 velocity=88 time=3
note_on channel=1 note=73 velocity=104 time=105
note_on channel=1 note=69 velocity=92 time=0
note_on channel=1 note=66 velocity=86 time=0
note_on channel=1 note=61 velocity=96 time=0
note_on channel=1 note=47 velocity=92 time=0
note_off channel=1 note=73 velocity=104 time=43
note_off channel=1 note=61 velocity=96 time=2
note_off channel=1 note=69 velocity=92 time=2
note_off channel=1 note=66 velocity=86 time=3
note_on channel=1 note=74 velocity=86 time=25
note_on channel=1 note=69 velocity=88 time=0
note_on channel=1 note=66 velocity=92 time=0
note_on channel=1 note=62 velocity=92 time=0
note_off channel=1 note=62 velocity=92 time=14
note_off channel=1 note=74 velocity=86 time=1
note_off channel=1 note=66 velocity=92 time=2
note_off channel=1 note=69 velocity=88 time=0
note_on channel=1 note=74 velocity=96 time=52
note_on channel=1 note=69 velocity=104 time=0
note_on channel=1 note=66 velocity=104 time=0
note_on channel=1 note=62 velocity=96 time=0
note_off channel=1 note=74 velocity=96 time=176
note_off channel=1 note=69 velocity=104 time=2
note_off channel=1 note=66 velocity=104 time=4
note_off channel=1 note=47 velocity=92 time=10
note_off channel=1 note=62 velocity=96 time=8
note_on channel=1 note=71 velocity=86 time=40
note_on channel=1 note=68 velocity=88 time=0
note_on channel=1 note=64 velocity=100 time=0
note_on channel=1 note=62 velocity=88 time=0
note_on channel=1 note=52 velocity=92 time=0
note_off channel=1 note=52 velocity=92 time=98
note_off channel=1 note=68 velocity=88 time=185
note_off channel=1 note=71 velocity=86 time=2
note_off channel=1 note=64 velocity=100 time=2
note_off channel=1 note=62 velocity=88 time=4
note_on channel=1 note=69 velocity=92 time=120
note_on channel=1 note=64 velocity=84 time=0
note_on channel=1 note=61 velocity=84 time=0
note_on channel=1 note=57 velocity=88 time=0
note_off channel=1 note=57 velocity=88 time=13
note_off channel=1 note=61 velocity=84 time=2
note_off channel=1 note=69 velocity=92 time=1
note_off channel=1 note=64 velocity=84 time=0
note_on channel=1 note=69 velocity=96 time=53
note_on channel=1 note=64 velocity=88 time=0
note_on channel=1 note=61 velocity=86 time=0
note_on channel=1 note=57 velocity=92 time=0
note_off channel=1 note=69 velocity=96 time=22
note_off channel=1 note=61 velocity=86 time=4
note_off channel=1 note=64 velocity=88 time=2
note_off channel=1 note=57 velocity=92 time=0
note_on channel=1 note=69 velocity=86 time=47
note_on channel=1 note=64 velocity=92 time=0
note_on channel=1 note=61 velocity=84 time=0
note_on channel=1 note=57 velocity=86 time=0
note_off channel=1 note=57 velocity=86 time=26
note_off channel=1 note=69 velocity=86 time=1
note_off channel=1 note=61 velocity=84 time=1
note_off channel=1 note=64 velocity=92 time=0
note_on channel=1 note=69 velocity=92 time=41
note_on channel=1 note=64 velocity=92 time=0
note_on channel=1 note=61 velocity=88 time=0
note_on channel=1 note=57 velocity=84 time=0
note_off channel=1 note=69 velocity=92 time=88
note_off channel=1 note=64 velocity=92 time=4
note_off channel=1 note=57 velocity=84 time=0
note_off channel=1 note=61 velocity=88 time=3
note_on channel=1 note=69 velocity=92 time=76
note_on channel=1 note=66 velocity=92 time=0
note_on channel=1 note=62 velocity=100 time=0
note_on channel=1 note=57 velocity=84 time=0
note_off channel=1 note=62 velocity=100 time=19
note_off channel=1 note=57 velocity=84 time=1
note_off channel=1 note=69 velocity=92 time=1
note_off channel=1 note=66 velocity=92 time=1
note_on channel=1 note=69 velocity=92 time=47
note_on channel=1 note=66 velocity=92 time=0
note_on channel=1 note=62 velocity=96 time=0
note_on channel=1 note=57 velocity=84 time=0
note_off channel=1 note=69 velocity=92 time=26
note_off channel=1 note=66 velocity=92 time=3
note_off channel=1 note=62 velocity=96 time=1
note_off channel=1 note=57 velocity=84 time=1
note_on channel=1 note=69 velocity=92 time=44
note_on channel=1 note=66 velocity=88 time=0
note_on channel=1 note=62 velocity=88 time=0
note_on channel=1 note=57 velocity=84 time=0
note_off channel=1 note=69 velocity=92 time=30
note_off channel=1 note=66 velocity=88 time=7
note_off channel=1 note=57 velocity=84 time=4
note_off channel=1 note=62 velocity=88 time=1
note_on channel=1 note=69 velocity=100 time=27
note_on channel=1 note=66 velocity=96 time=0
note_on channel=1 note=62 velocity=100 time=0
note_on channel=1 note=57 velocity=80 time=0
note_off channel=1 note=66 velocity=96 time=103
note_off channel=1 note=69 velocity=100 time=2
note_off channel=1 note=57 velocity=80 time=5
note_off channel=1 note=62 velocity=100 time=2
note_on channel=1 note=69 velocity=96 time=59
note_on channel=1 note=64 velocity=86 time=0
note_on channel=1 note=61 velocity=86 time=0
note_on channel=1 note=57 velocity=84 time=0
note_off channel=1 note=64 velocity=86 time=23
note_off channel=1 note=61 velocity=86 time=1
note_off channel=1 note=69 velocity=96 time=1
note_off channel=1 note=57 velocity=84 time=2
note_on channel=1 note=69 velocity=100 time=42
note_on channel=1 note=64 velocity=92 time=0
note_on channel=1 note=61 velocity=84 time=0
note_on channel=1 note=57 velocity=92 time=0
note_off channel=1 note=57 velocity=92 time=30
note_off channel=1 note=69 velocity=100 time=0
note_off channel=1 note=61 velocity=84 time=1
note_off channel=1 note=64 velocity=92 time=3
note_on channel=1 note=69 velocity=92 time=41
note_on channel=1 note=64 velocity=92 time=0
note_on channel=1 note=61 velocity=82 time=0
note_on channel=1 note=57 velocity=86 time=0
note_off channel=1 note=69 velocity=92 time=31
note_off channel=1 note=57 velocity=86 time=3
note_off channel=1 note=61 velocity=82 time=3
note_off channel=1 note=64 velocity=92 time=4
note_on channel=1 note=69 velocity=100 time=28
note_on channel=1 note=64 velocity=96 time=0
note_on channel=1 note=61 velocity=84 time=0
note_on channel=1 note=57 velocity=96 time=0
note_off channel=1 note=69 velocity=100 time=109
note_off channel=1 note=57 velocity=96 time=6
note_off channel=1 note=64 velocity=96 time=3
note_off channel=1 note=61 velocity=84 time=2
note_on channel=1 note=69 velocity=96 time=51
note_on channel=1 note=66 velocity=88 time=0
note_on channel=1 note=62 velocity=104 time=0
note_on channel=1 note=57 velocity=88 time=0
note_off channel=1 note=69 velocity=96 time=22
note_off channel=1 note=62 velocity=104 time=1
note_off channel=1 note=66 velocity=88 time=0
note_off channel=1 note=57 velocity=88 time=2
note_on channel=1 note=69 velocity=88 time=44
note_on channel=1 note=66 velocity=88 time=0
note_on channel=1 note=62 velocity=96 time=0
note_on channel=1 note=57 velocity=80 time=0
note_off channel=1 note=69 velocity=88 time=26
note_off channel=1 note=66 velocity=88 time=6
note_off channel=1 note=57 velocity=80 time=1
note_off channel=1 note=62 velocity=96 time=0
note_on channel=1 note=69 velocity=104 time=42
note_on channel=1 note=66 velocity=92 time=0
note_on channel=1 note=62 velocity=88 time=0
note_on channel=1 note=57 velocity=88 time=0
note_off channel=1 note=69 velocity=104 time=26
note_off channel=1 note=66 velocity=92 time=5
note_off channel=1 note=62 velocity=88 time=1
note_off channel=1 note=57 velocity=88 time=1
note_on channel=1 note=69 velocity=88 time=36
note_on channel=1 note=66 velocity=92 time=0
note_on channel=1 note=62 velocity=96 time=0
note_on channel=1 note=57 velocity=88 time=0
note_off channel=1 note=69 velocity=88 time=126
note_off channel=1 note=66 velocity=92 time=1
note_off channel=1 note=62 velocity=96 time=8
note_off channel=1 note=57 velocity=88 time=3
note_on channel=1 note=69 velocity=96 time=33
note_on channel=1 note=64 velocity=88 time=0
note_on channel=1 note=61 velocity=88 time=0
note_on channel=1 note=57 velocity=100 time=0
note_off channel=1 note=57 velocity=100 time=15
note_off channel=1 note=64 velocity=88 time=4
note_off channel=1 note=61 velocity=88 time=0
note_off channel=1 note=69 velocity=96 time=1
note_on channel=1 note=69 velocity=92 time=49
note_on channel=1 note=64 velocity=100 time=0
note_on channel=1 note=61 velocity=86 time=0
note_on channel=1 note=57 velocity=92 time=0
note_off channel=1 note=57 velocity=92 time=28
note_off channel=1 note=61 velocity=86 time=1
note_off channel=1 note=69 velocity=92 time=1
note_off channel=1 note=64 velocity=100 time=1
note_on channel=1 note=69 velocity=92 time=44
note_on channel=1 note=64 velocity=88 time=0
note_on channel=1 note=61 velocity=84 time=0
note_on channel=1 note=57 velocity=86 time=0
note_off channel=1 note=69 velocity=92 time=25
note_off channel=1 note=61 velocity=84 time=3
note_off channel=1 note=57 velocity=86 time=1
note_off channel=1 note=64 velocity=88 time=0
note_on channel=1 note=69 velocity=96 time=40
note_on channel=1 note=64 velocity=96 time=0
note_on channel=1 note=61 velocity=86 time=0
note_on channel=1 note=57 velocity=84 time=0
note_off channel=1 note=69 velocity=96 time=130
note_off channel=1 note=57 velocity=84 time=14
note_off channel=1 note=61 velocity=86 time=6
note_off channel=1 note=64 velocity=96 time=4
note_on channel=1 note=69 velocity=88 time=17
note_on channel=1 note=66 velocity=92 time=0
note_on channel=1 note=62 velocity=104 time=0
note_on channel=1 note=57 velocity=84 time=0
note_off channel=1 note=62 velocity=104 time=15
note_off channel=1 note=57 velocity=84 time=1
note_off channel=1 note=66 velocity=92 time=1
note_off channel=1 note=69 velocity=88 time=1
note_on channel=1 note=69 velocity=88 time=51
note_on channel=1 note=66 velocity=88 time=0
note_on channel=1 note=62 velocity=96 time=0
note_on channel=1 note=57 velocity=86 time=0
note_off channel=1 note=57 velocity=86 time=21
note_off channel=1 note=69 velocity=88 time=3
note_off channel=1 note=66 velocity=88 time=1
note_off channel=1 note=62 velocity=96 time=0
note_on channel=1 note=69 velocity=84 time=50
note_on channel=1 note=66 velocity=88 time=0
note_on channel=1 note=62 velocity=92 time=0
note_on channel=1 note=57 velocity=84 time=0
note_off channel=1 note=66 velocity=88 time=27
note_off channel=1 note=69 velocity=84 time=2
note_off channel=1 note=62 velocity=92 time=0
note_off channel=1 note=57 velocity=84 time=6
note_on channel=1 note=69 velocity=88 time=34
note_on channel=1 note=66 velocity=88 time=0
note_on channel=1 note=62 velocity=104 time=0
note_on channel=1 note=57 velocity=92 time=0
note_off channel=1 note=57 velocity=92 time=101
note_off channel=1 note=62 velocity=104 time=0
note_off channel=1 note=66 velocity=88 time=3
note_off channel=1 note=69 velocity=88 time=2
note_on channel=1 note=71 velocity=92 time=65
note_on channel=1 note=68 velocity=96 time=0
note_on channel=1 note=64 velocity=104 time=0
note_on channel=1 note=59 velocity=92 time=0
note_off channel=1 note=59 velocity=92 time=16
note_off channel=1 note=64 velocity=104 time=2
note_off channel=1 note=71 velocity=92 time=1
note_off channel=1 note=68 velocity=96 time=1
note_on channel=1 note=71 velocity=96 time=49
note_on channel=1 note=68 velocity=86 time=0
note_on channel=1 note=64 velocity=88 time=0
note_on channel=1 note=59 velocity=92 time=0
note_off channel=1 note=59 velocity=92 time=26
note_off channel=1 note=71 velocity=96 time=0
note_off channel=1 note=68 velocity=86 time=4
note_off channel=1 note=64 velocity=88 time=2
note_on channel=1 note=73 velocity=88 time=43
note_on channel=1 note=69 velocity=96 time=0
note_on channel=1 note=64 velocity=100 time=0
note_on channel=1 note=61 velocity=104 time=0
note_off channel=1 note=73 velocity=88 time=66
note_off channel=1 note=69 velocity=96 time=4
note_off channel=1 note=61 velocity=104 time=1
note_off channel=1 note=64 velocity=100 time=2
note_on channel=1 note=71 velocity=86 time=44
note_on channel=1 note=68 velocity=92 time=0
note_on channel=1 note=64 velocity=96 time=0
note_on channel=1 note=59 velocity=88 time=0
note_off channel=1 note=64 velocity=96 time=47
note_off channel=1 note=68 velocity=92 time=1
note_off channel=1 note=71 velocity=86 time=3
note_off channel=1 note=59 velocity=88 time=9
note_on channel=1 note=69 velocity=86 time=36
note_on channel=1 note=66 velocity=92 time=0
note_on channel=1 note=62 velocity=104 time=0
note_on channel=1 note=57 velocity=88 time=0
note_off channel=1 note=69 velocity=86 time=40
note_off channel=1 note=62 velocity=104 time=7
note_off channel=1 note=66 velocity=92 time=1
note_off channel=1 note=57 velocity=88 time=4
note_on channel=1 note=69 velocity=88 time=23
note_on channel=1 note=66 velocity=86 time=0
note_on channel=1 note=62 velocity=92 time=0
note_on channel=1 note=57 velocity=82 time=0
note_off channel=1 note=62 velocity=92 time=13
note_off channel=1 note=57 velocity=82 time=4
note_off channel=1 note=66 velocity=86 time=1
note_off channel=1 note=69 velocity=88 time=1
note_on channel=1 note=69 velocity=96 time=50
note_on channel=1 note=64 velocity=96 time=0
note_on channel=1 note=61 velocity=92 time=0
note_on channel=1 note=57 velocity=86 time=0
note_off channel=1 note=64 velocity=96 time=194
note_off channel=1 note=57 velocity=86 time=2
note_off channel=1 note=61 velocity=92 time=5
note_off channel=1 note=69 velocity=96 time=0
note_on channel=1 note=68 velocity=100 time=39
note_on channel=1 note=64 velocity=100 time=0
note_on channel=1 note=59 velocity=92 time=0
note_off channel=1 note=64 velocity=100 time=194
note_off channel=1 note=68 velocity=100 time=2
note_off channel=1 note=59 velocity=92 time=6
note_on channel=1 note=68 velocity=88 time=38
note_on channel=1 note=64 velocity=84 time=0
note_on channel=1 note=59 velocity=82 time=0
note_off channel=1 note=68 velocity=88 time=39
note_off channel=1 note=59 velocity=82 time=0
note_off channel=1 note=64 velocity=84 time=3
note_on channel=1 note=68 velocity=92 time=6
note_on channel=1 note=64 velocity=104 time=0
note_on channel=1 note=59 velocity=86 time=0
note_off channel=1 note=64 velocity=104 time=42
note_off channel=1 note=68 velocity=92 time=6
note_off channel=1 note=59 velocity=86 time=7
note_on channel=1 note=71 velocity=96 time=41
note_on channel=1 note=68 velocity=88 time=0
note_on channel=1 note=65 velocity=108 time=0
note_on channel=1 note=61 velocity=86 time=0
note_off channel=1 note=65 velocity=108 time=196
note_off channel=1 note=71 velocity=96 time=6
note_off channel=1 note=61 velocity=86 time=3
note_off channel=1 note=68 velocity=88 time=7
note_on channel=1 note=71 velocity=77 time=28
note_on channel=1 note=68 velocity=77 time=0
note_on channel=1 note=65 velocity=77 time=0
note_on channel=1 note=61 velocity=77 time=0
note_off channel=1 note=61 velocity=77 time=32
note_off channel=1 note=65 velocity=77 time=0
note_off channel=1 note=71 velocity=77 time=1
note_off channel=1 note=68 velocity=77 time=3
note_on channel=1 note=71 velocity=86 time=12
note_on channel=1 note=68 velocity=82 time=0
note_on channel=1 note=65 velocity=86 time=0
note_on channel=1 note=61 velocity=82 time=0
note_off channel=1 note=71 velocity=86 time=37
note_off channel=1 note=65 velocity=86 time=1
note_off channel=1 note=68 velocity=82 time=3
note_off channel=1 note=61 velocity=82 time=3
note_on channel=1 note=69 velocity=88 time=52
note_on channel=1 note=66 velocity=84 time=0
note_on channel=1 note=64 velocity=88 time=0
note_on channel=1 note=61 velocity=82 time=0
note_off channel=1 note=69 velocity=88 time=47
note_off channel=1 note=61 velocity=82 time=9
note_off channel=1 note=64 velocity=88 time=1
note_off channel=1 note=66 velocity=84 time=1
note_on channel=1 note=69 velocity=86 time=17
note_on channel=1 note=66 velocity=84 time=0
note_on channel=1 note=64 velocity=88 time=0
note_on channel=1 note=61 velocity=88 time=0
note_off channel=1 note=61 velocity=88 time=12
note_off channel=1 note=64 velocity=88 time=0
note_off channel=1 note=66 velocity=84 time=3
note_off channel=1 note=69 velocity=86 time=0
note_on channel=1 note=69 velocity=88 time=54
note_on channel=1 note=66 velocity=84 time=0
note_on channel=1 note=64 velocity=92 time=0
note_on channel=1 note=61 velocity=92 time=0
note_off channel=1 note=69 velocity=88 time=179
note_off channel=1 note=61 velocity=92 time=0
note_off channel=1 note=64 velocity=92 time=1
note_off channel=1 note=66 velocity=84 time=2
note_on channel=1 note=71 velocity=88 time=58
note_on channel=1 note=66 velocity=92 time=0
note_on channel=1 note=63 velocity=88 time=0
note_on channel=1 note=59 velocity=88 time=0
note_off channel=1 note=59 velocity=88 time=53
note_off channel=1 note=71 velocity=88 time=2
note_off channel=1 note=63 velocity=88 time=1
note_off channel=1 note=66 velocity=92 time=4
note_on channel=1 note=71 velocity=96 time=15
note_on channel=1 note=66 velocity=88 time=0
note_on channel=1 note=63 velocity=92 time=0
note_on channel=1 note=59 velocity=86 time=0
note_off channel=1 note=63 velocity=92 time=12
note_off channel=1 note=59 velocity=86 time=1
note_off channel=1 note=66 velocity=88 time=1
note_off channel=1 note=71 velocity=96 time=2
note_on channel=1 note=71 velocity=92 time=53
note_on channel=1 note=66 velocity=88 time=0
note_on channel=1 note=63 velocity=84 time=0
note_on channel=1 note=59 velocity=88 time=0
note_off channel=1 note=71 velocity=92 time=72
note_off channel=1 note=59 velocity=88 time=0
note_off channel=1 note=63 velocity=84 time=3
note_off channel=1 note=66 velocity=88 time=3
note_on channel=1 note=71 velocity=78 time=18
note_on channel=1 note=66 velocity=76 time=0
note_on channel=1 note=63 velocity=76 time=0
note_on channel=1 note=59 velocity=74 time=0
note_off channel=1 note=71 velocity=78 time=28
note_off channel=1 note=59 velocity=74 time=0
note_off channel=1 note=63 velocity=76 time=2
note_off channel=1 note=66 velocity=76 time=1
note_on channel=1 note=71 velocity=88 time=17
note_on channel=1 note=66 velocity=92 time=0
note_on channel=1 note=63 velocity=92 time=0
note_on channel=1 note=59 velocity=96 time=0
note_off channel=1 note=66 velocity=92 time=66
note_off channel=1 note=71 velocity=88 time=2
note_off channel=1 note=63 velocity=92 time=3
note_off channel=1 note=59 velocity=96 time=13
note_on channel=1 note=69 velocity=84 time=39
note_on channel=1 note=66 velocity=82 time=0
note_on channel=1 note=62 velocity=100 time=0
note_on channel=1 note=57 velocity=96 time=0
note_off channel=1 note=62 velocity=100 time=17
note_off channel=1 note=57 velocity=96 time=2
note_off channel=1 note=66 velocity=82 time=0
note_off channel=1 note=69 velocity=84 time=0
note_on channel=1 note=69 velocity=92 time=50
note_on channel=1 note=66 velocity=86 time=0
note_on channel=1 note=62 velocity=96 time=0
note_on channel=1 note=57 velocity=86 time=0
note_off channel=1 note=57 velocity=86 time=31
note_off channel=1 note=62 velocity=96 time=0
note_off channel=1 note=69 velocity=92 time=0
note_off channel=1 note=66 velocity=86 time=2
note_on channel=1 note=69 velocity=86 time=42
note_on channel=1 note=66 velocity=86 time=0
note_on channel=1 note=62 velocity=82 time=0
note_on channel=1 note=57 velocity=80 time=0
note_off channel=1 note=69 velocity=86 time=29
note_off channel=1 note=57 velocity=80 time=2
note_off channel=1 note=66 velocity=86 time=2
note_off channel=1 note=62 velocity=82 time=1
note_on channel=1 note=69 velocity=100 time=35
note_on channel=1 note=66 velocity=84 time=0
note_on channel=1 note=62 velocity=100 time=0
note_on channel=1 note=57 velocity=84 time=0
note_off channel=1 note=69 velocity=100 time=130
note_off channel=1 note=57 velocity=84 time=8
note_off channel=1 note=62 velocity=100 time=3
note_off channel=1 note=66 velocity=84 time=1
note_on channel=1 note=69 velocity=84 time=29
note_on channel=1 note=66 velocity=86 time=0
note_on channel=1 note=62 velocity=92 time=0
note_on channel=1 note=57 velocity=88 time=0
note_off channel=1 note=69 velocity=84 time=19
note_off channel=1 note=66 velocity=86 time=3
note_off channel=1 note=57 velocity=88 time=1
note_off channel=1 note=62 velocity=92 time=0
note_on channel=1 note=69 velocity=84 time=46
note_on channel=1 note=66 velocity=92 time=0
note_on channel=1 note=62 velocity=96 time=0
note_on channel=1 note=57 velocity=82 time=0
note_off channel=1 note=69 velocity=84 time=28
note_off channel=1 note=66 velocity=92 time=3
note_off channel=1 note=57 velocity=82 time=1
note_off channel=1 note=62 velocity=96 time=0
note_on channel=1 note=69 velocity=82 time=43
note_on channel=1 note=66 velocity=82 time=0
note_on channel=1 note=62 velocity=86 time=0
note_on channel=1 note=57 velocity=84 time=0
note_off channel=1 note=69 velocity=82 time=23
note_off channel=1 note=66 velocity=82 time=3
note_off channel=1 note=57 velocity=84 time=2
note_off channel=1 note=62 velocity=86 time=0
note_on channel=1 note=69 velocity=100 time=41
note_on channel=1 note=66 velocity=86 time=0
note_on channel=1 note=62 velocity=92 time=0
note_on channel=1 note=57 velocity=84 time=0
note_off channel=1 note=57 velocity=84 time=141
note_off channel=1 note=69 velocity=100 time=2
note_off channel=1 note=62 velocity=92 time=3
note_off channel=1 note=66 velocity=86 time=5
note_on channel=1 note=69 velocity=86 time=20
note_on channel=1 note=64 velocity=88 time=0
note_on channel=1 note=61 velocity=88 time=0
note_on channel=1 note=57 velocity=88 time=0
note_off channel=1 note=69 velocity=86 time=19
note_off channel=1 note=61 velocity=88 time=2
note_off channel=1 note=64 velocity=88 time=0
note_off channel=1 note=57 velocity=88 time=1
note_on channel=1 note=69 velocity=84 time=47
note_on channel=1 note=64 velocity=86 time=0
note_on channel=1 note=61 velocity=80 time=0
note_on channel=1 note=57 velocity=74 time=0
note_off channel=1 note=69 velocity=84 time=26
note_off channel=1 note=61 velocity=80 time=3
note_off channel=1 note=57 velocity=74 time=0
note_off channel=1 note=64 velocity=86 time=1
note_on channel=1 note=69 velocity=86 time=45
note_on channel=1 note=64 velocity=86 time=0
note_on channel=1 note=61 velocity=86 time=0
note_on channel=1 note=57 velocity=70 time=0
note_off channel=1 note=57 velocity=70 time=22
note_off channel=1 note=69 velocity=86 time=2
note_off channel=1 note=61 velocity=86 time=1
note_off channel=1 note=64 velocity=86 time=1
note_on channel=1 note=69 velocity=92 time=43
note_on channel=1 note=64 velocity=88 time=0
note_on channel=1 note=61 velocity=84 time=0
note_on channel=1 note=57 velocity=84 time=0
note_off channel=1 note=69 velocity=92 time=123
note_off channel=1 note=57 velocity=84 time=9
note_off channel=1 note=64 velocity=88 time=6
note_off channel=1 note=61 velocity=84 time=5
note_on channel=1 note=69 velocity=86 time=28
note_on channel=1 note=66 velocity=86 time=0
note_on channel=1 note=62 velocity=92 time=0
note_on channel=1 note=57 velocity=84 time=0
note_off channel=1 note=69 velocity=86 time=21
note_off channel=1 note=57 velocity=84 time=2
note_off channel=1 note=66 velocity=86 time=0
note_off channel=1 note=62 velocity=92 time=1
note_on channel=1 note=69 velocity=80 time=45
note_on channel=1 note=66 velocity=86 time=0
note_on channel=1 note=62 velocity=86 time=0
note_on channel=1 note=57 velocity=76 time=0
note_off channel=1 note=69 velocity=80 time=29
note_off channel=1 note=66 velocity=86 time=1
note_off channel=1 note=57 velocity=76 time=1
note_off channel=1 note=62 velocity=86 time=4
note_on channel=1 note=69 velocity=78 time=40
note_on channel=1 note=66 velocity=84 time=0
note_on channel=1 note=62 velocity=86 time=0
note_on channel=1 note=57 velocity=78 time=0
note_off channel=1 note=69 velocity=78 time=25
note_off channel=1 note=57 velocity=78 time=3
note_off channel=1 note=66 velocity=84 time=2
note_off channel=1 note=62 velocity=86 time=1
note_on channel=1 note=69 velocity=88 time=38
note_on channel=1 note=66 velocity=86 time=0
note_on channel=1 note=62 velocity=100 time=0
note_on channel=1 note=57 velocity=88 time=0
note_off channel=1 note=69 velocity=88 time=127
note_off channel=1 note=66 velocity=86 time=4
note_off channel=1 note=62 velocity=100 time=3
note_off channel=1 note=57 velocity=88 time=2
note_on channel=1 note=69 velocity=88 time=35
note_on channel=1 note=64 velocity=88 time=0
note_on channel=1 note=61 velocity=84 time=0
note_on channel=1 note=57 velocity=84 time=0
note_off channel=1 note=57 velocity=84 time=15
note_off channel=1 note=69 velocity=88 time=3
note_off channel=1 note=64 velocity=88 time=1
note_off channel=1 note=61 velocity=84 time=1
note_on channel=1 note=69 velocity=88 time=49
note_on channel=1 note=64 velocity=86 time=0
note_on channel=1 note=61 velocity=80 time=0
note_on channel=1 note=57 velocity=84 time=0
note_off channel=1 note=57 velocity=84 time=26
note_off channel=1 note=69 velocity=88 time=0
note_off channel=1 note=64 velocity=86 time=1
note_off channel=1 note=61 velocity=80 time=0
note_on channel=1 note=69 velocity=86 time=48
note_on channel=1 note=64 velocity=84 time=0
note_on channel=1 note=61 velocity=76 time=0
note_on channel=1 note=57 velocity=84 time=0
note_off channel=1 note=69 velocity=86 time=28
note_off channel=1 note=64 velocity=84 time=4
note_off channel=1 note=61 velocity=76 time=2
note_off channel=1 note=57 velocity=84 time=4
note_on channel=1 note=69 velocity=92 time=31
note_on channel=1 note=64 velocity=92 time=0
note_on channel=1 note=61 velocity=84 time=0
note_on channel=1 note=57 velocity=84 time=0
note_off channel=1 note=69 velocity=92 time=121
note_off channel=1 note=57 velocity=84 time=14
note_off channel=1 note=64 velocity=92 time=2
note_off channel=1 note=61 velocity=84 time=0
note_on channel=1 note=69 velocity=84 time=34
note_on channel=1 note=66 velocity=84 time=0
note_on channel=1 note=62 velocity=92 time=0
note_on channel=1 note=57 velocity=84 time=0
note_off channel=1 note=57 velocity=84 time=17
note_off channel=1 note=62 velocity=92 time=2
note_off channel=1 note=69 velocity=84 time=2
note_off channel=1 note=66 velocity=84 time=1
note_on channel=1 note=69 velocity=88 time=47
note_on channel=1 note=66 velocity=86 time=0
note_on channel=1 note=62 velocity=96 time=0
note_on channel=1 note=57 velocity=82 time=0
note_off channel=1 note=69 velocity=88 time=29
note_off channel=1 note=66 velocity=86 time=3
note_off channel=1 note=62 velocity=96 time=1
note_off channel=1 note=57 velocity=82 time=3
note_on channel=1 note=69 velocity=86 time=39
note_on channel=1 note=66 velocity=78 time=0
note_on channel=1 note=62 velocity=92 time=0
note_on channel=1 note=57 velocity=88 time=0
note_off channel=1 note=69 velocity=86 time=25
note_off channel=1 note=57 velocity=88 time=1
note_off channel=1 note=66 velocity=78 time=0
note_off channel=1 note=62 velocity=92 time=1
note_on channel=1 note=69 velocity=88 time=42
note_on channel=1 note=66 velocity=86 time=0
note_on channel=1 note=62 velocity=96 time=0
note_on channel=1 note=57 velocity=88 time=0
note_off channel=1 note=69 velocity=88 time=130
note_off channel=1 note=66 velocity=86 time=0
note_off channel=1 note=62 velocity=96 time=5
note_off channel=1 note=57 velocity=88 time=3
note_on channel=1 note=69 velocity=88 time=33
note_on channel=1 note=64 velocity=86 time=0
note_on channel=1 note=61 velocity=82 time=0
note_on channel=1 note=57 velocity=88 time=0
note_off channel=1 note=57 velocity=88 time=21
note_off channel=1 note=69 velocity=88 time=2
note_off channel=1 note=61 velocity=82 time=2
note_off channel=1 note=64 velocity=86 time=1
note_on channel=1 note=69 velocity=88 time=43
note_on channel=1 note=64 velocity=92 time=0
note_on channel=1 note=61 velocity=80 time=0
note_on channel=1 note=57 velocity=84 time=0
note_off channel=1 note=69 velocity=88 time=27
note_off channel=1 note=57 velocity=84 time=1
note_off channel=1 note=64 velocity=92 time=4
note_off channel=1 note=61 velocity=80 time=1
note_on channel=1 note=69 velocity=84 time=42
note_on channel=1 note=64 velocity=96 time=0
note_on channel=1 note=61 velocity=80 time=0
note_on channel=1 note=57 velocity=84 time=0
note_off channel=1 note=57 velocity=84 time=21
note_off channel=1 note=61 velocity=80 time=5
note_off channel=1 note=69 velocity=84 time=1
note_off channel=1 note=64 velocity=96 time=0
note_on channel=1 note=69 velocity=86 time=42
note_on channel=1 note=64 velocity=100 time=0
note_on channel=1 note=61 velocity=80 time=0
note_on channel=1 note=57 velocity=86 time=0
note_off channel=1 note=69 velocity=86 time=123
note_off channel=1 note=57 velocity=86 time=11
note_off channel=1 note=61 velocity=80 time=3
note_off channel=1 note=64 velocity=100 time=12
note_on channel=1 note=69 velocity=88 time=22
note_on channel=1 note=66 velocity=82 time=0
note_on channel=1 note=62 velocity=82 time=0
note_on channel=1 note=57 velocity=82 time=0
note_off channel=1 note=66 velocity=82 time=21
note_off channel=1 note=69 velocity=88 time=2
note_off channel=1 note=62 velocity=82 time=3
note_off channel=1 note=57 velocity=82 time=1
note_on channel=1 note=69 velocity=88 time=42
note_on channel=1 note=66 velocity=86 time=0
note_on channel=1 note=62 velocity=88 time=0
note_on channel=1 note=57 velocity=76 time=0
note_off channel=1 note=69 velocity=88 time=27
note_off channel=1 note=62 velocity=88 time=1
note_off channel=1 note=66 velocity=86 time=2
note_off channel=1 note=57 velocity=76 time=1
note_on channel=1 note=69 velocity=86 time=44
note_on channel=1 note=66 velocity=84 time=0
note_on channel=1 note=62 velocity=96 time=0
note_on channel=1 note=57 velocity=84 time=0
note_off channel=1 note=69 velocity=86 time=25
note_off channel=1 note=57 velocity=84 time=1
note_off channel=1 note=62 velocity=96 time=0
note_off channel=1 note=66 velocity=84 time=0
note_on channel=1 note=69 velocity=100 time=43
note_on channel=1 note=66 velocity=86 time=0
note_on channel=1 note=62 velocity=92 time=0
note_on channel=1 note=57 velocity=78 time=0
note_off channel=1 note=69 velocity=100 time=122
note_off channel=1 note=57 velocity=78 time=8
note_off channel=1 note=66 velocity=86 time=0
note_off channel=1 note=62 velocity=92 time=4
note_on channel=1 note=69 velocity=88 time=37
note_on channel=1 note=64 velocity=88 time=0
note_on channel=1 note=61 velocity=78 time=0
note_on channel=1 note=57 velocity=84 time=0
note_off channel=1 note=57 velocity=84 time=16
note_off channel=1 note=61 velocity=78 time=2
note_off channel=1 note=64 velocity=88 time=1
note_off channel=1 note=69 velocity=88 time=0
note_on channel=1 note=69 velocity=96 time=50
note_on channel=1 note=64 velocity=88 time=0
note_on channel=1 note=61 velocity=84 time=0
note_on channel=1 note=57 velocity=86 time=0
note_off channel=1 note=69 velocity=96 time=25
note_off channel=1 note=57 velocity=86 time=3
note_off channel=1 note=64 velocity=88 time=1
note_off channel=1 note=61 velocity=84 time=0
note_on channel=1 note=69 velocity=88 time=46
note_on channel=1 note=64 velocity=88 time=0
note_on channel=1 note=61 velocity=82 time=0
note_on channel=1 note=57 velocity=86 time=0
note_off channel=1 note=57 velocity=86 time=24
note_off channel=1 note=61 velocity=82 time=2
note_off channel=1 note=69 velocity=88 time=1
note_off channel=1 note=64 velocity=88 time=0
note_on channel=1 note=69 velocity=92 time=42
note_on channel=1 note=64 velocity=82 time=0
note_on channel=1 note=61 velocity=86 time=0
note_on channel=1 note=57 velocity=84 time=0
note_off channel=1 note=69 velocity=92 time=122
note_off channel=1 note=57 velocity=84 time=9
note_off channel=1 note=61 velocity=86 time=2
note_off channel=1 note=64 velocity=82 time=2
note_on channel=1 note=69 velocity=84 time=36
note_on channel=1 note=66 velocity=84 time=0
note_on channel=1 note=62 velocity=88 time=0
note_on channel=1 note=57 velocity=86 time=0
note_off channel=1 note=57 velocity=86 time=20
note_off channel=1 note=62 velocity=88 time=0
note_off channel=1 note=66 velocity=84 time=2
note_off channel=1 note=69 velocity=84 time=2
note_on channel=1 note=69 velocity=88 time=45
note_on channel=1 note=66 velocity=86 time=0
note_on channel=1 note=62 velocity=92 time=0
note_on channel=1 note=57 velocity=84 time=0
note_off channel=1 note=69 velocity=88 time=27
note_off channel=1 note=62 velocity=92 time=4
note_off channel=1 note=66 velocity=86 time=0
note_off channel=1 note=57 velocity=84 time=1
note_on channel=1 note=69 velocity=84 time=43
note_on channel=1 note=66 velocity=70 time=0
note_on channel=1 note=62 velocity=96 time=0
note_on channel=1 note=57 velocity=84 time=0
note_off channel=1 note=69 velocity=84 time=41
note_off channel=1 note=66 velocity=70 time=6
note_off channel=1 note=62 velocity=96 time=1
note_off channel=1 note=57 velocity=84 time=1
note_on channel=1 note=69 velocity=88 time=20
note_on channel=1 note=66 velocity=80 time=0
note_on channel=1 note=62 velocity=88 time=0
note_on channel=1 note=57 velocity=84 time=0
note_off channel=1 note=69 velocity=88 time=46
note_off channel=1 note=57 velocity=84 time=4
note_off channel=1 note=62 velocity=88 time=1
note_off channel=1 note=66 velocity=80 time=0
note_on channel=1 note=69 velocity=92 time=24
note_on channel=1 note=66 velocity=92 time=0
note_on channel=1 note=62 velocity=88 time=0
note_on channel=1 note=57 velocity=82 time=0
note_off channel=1 note=69 velocity=92 time=61
note_off channel=1 note=66 velocity=92 time=4
note_off channel=1 note=62 velocity=88 time=0
note_off channel=1 note=57 velocity=82 time=7
note_on channel=1 note=69 velocity=100 time=24
note_on channel=1 note=64 velocity=104 time=0
note_on channel=1 note=61 velocity=88 time=0
note_on channel=1 note=57 velocity=92 time=0
note_off channel=1 note=57 velocity=92 time=18
note_off channel=1 note=61 velocity=88 time=5
note_off channel=1 note=69 velocity=100 time=0
note_off channel=1 note=64 velocity=104 time=2
note_on channel=1 note=69 velocity=88 time=44
note_on channel=1 note=64 velocity=96 time=0
note_on channel=1 note=61 velocity=80 time=0
note_on channel=1 note=57 velocity=80 time=0
note_off channel=1 note=69 velocity=88 time=34
note_off channel=1 note=64 velocity=96 time=4
note_off channel=1 note=57 velocity=80 time=2
note_off channel=1 note=61 velocity=80 time=2
note_on channel=1 note=69 velocity=86 time=33
note_on channel=1 note=64 velocity=84 time=0
note_on channel=1 note=61 velocity=66 time=0
note_on channel=1 note=57 velocity=76 time=0
note_off channel=1 note=69 velocity=86 time=34
note_off channel=1 note=64 velocity=84 time=2
note_off channel=1 note=57 velocity=76 time=3
note_off channel=1 note=61 velocity=66 time=0
note_on channel=1 note=69 velocity=100 time=30
note_on channel=1 note=64 velocity=88 time=0
note_on channel=1 note=61 velocity=88 time=0
note_on channel=1 note=57 velocity=88 time=0
note_off channel=1 note=69 velocity=100 time=115
note_off channel=1 note=64 velocity=88 time=14
note_off channel=1 note=61 velocity=88 time=3
note_off channel=1 note=57 velocity=88 time=0
note_on channel=1 note=69 velocity=86 time=39
note_on channel=1 note=66 velocity=84 time=0
note_on channel=1 note=62 velocity=88 time=0
note_on channel=1 note=57 velocity=84 time=0
note_off channel=1 note=62 velocity=88 time=19
note_off channel=1 note=66 velocity=84 time=1
note_off channel=1 note=57 velocity=84 time=3
note_off channel=1 note=69 velocity=86 time=0
note_on channel=1 note=69 velocity=86 time=46
note_on channel=1 note=66 velocity=88 time=0
note_on channel=1 note=62 velocity=104 time=0
note_on channel=1 note=57 velocity=84 time=0
note_off channel=1 note=57 velocity=84 time=27
note_off channel=1 note=62 velocity=104 time=0
note_off channel=1 note=69 velocity=86 time=0
note_off channel=1 note=66 velocity=88 time=2
note_on channel=1 note=69 velocity=84 time=46
note_on channel=1 note=66 velocity=82 time=0
note_on channel=1 note=62 velocity=96 time=0
note_on channel=1 note=57 velocity=80 time=0
note_off channel=1 note=69 velocity=84 time=24
note_off channel=1 note=62 velocity=96 time=4
note_off channel=1 note=66 velocity=82 time=0
note_off channel=1 note=57 velocity=80 time=5
note_on channel=1 note=69 velocity=86 time=36
note_on channel=1 note=66 velocity=84 time=0
note_on channel=1 note=62 velocity=96 time=0
note_on channel=1 note=57 velocity=84 time=0
note_off channel=1 note=69 velocity=86 time=133
note_off channel=1 note=66 velocity=84 time=3
note_off channel=1 note=57 velocity=84 time=3
note_off channel=1 note=62 velocity=96 time=3
note_on channel=1 note=69 velocity=88 time=29
note_on channel=1 note=64 velocity=86 time=0
note_on channel=1 note=61 velocity=84 time=0
note_on channel=1 note=57 velocity=84 time=0
note_off channel=1 note=64 velocity=86 time=23
note_off channel=1 note=69 velocity=88 time=1
note_off channel=1 note=57 velocity=84 time=4
note_off channel=1 note=61 velocity=84 time=0
note_on channel=1 note=69 velocity=86 time=41
note_on channel=1 note=64 velocity=88 time=0
note_on channel=1 note=61 velocity=84 time=0
note_on channel=1 note=57 velocity=86 time=0
note_off channel=1 note=57 velocity=86 time=23
note_off channel=1 note=64 velocity=88 time=1
note_off channel=1 note=69 velocity=86 time=0
note_off channel=1 note=61 velocity=84 time=2
note_on channel=1 note=69 velocity=88 time=49
note_on channel=1 note=64 velocity=84 time=0
note_on channel=1 note=61 velocity=82 time=0
note_on channel=1 note=57 velocity=84 time=0
note_off channel=1 note=69 velocity=88 time=28
note_off channel=1 note=57 velocity=84 time=2
note_off channel=1 note=61 velocity=82 time=0
note_off channel=1 note=64 velocity=84 time=1
note_on channel=1 note=69 velocity=92 time=38
note_on channel=1 note=64 velocity=92 time=0
note_on channel=1 note=61 velocity=86 time=0
note_on channel=1 note=57 velocity=92 time=0
note_off channel=1 note=69 velocity=92 time=131
note_off channel=1 note=64 velocity=92 time=5
note_off channel=1 note=57 velocity=92 time=2
note_off channel=1 note=61 velocity=86 time=5
note_on channel=1 note=69 velocity=88 time=28
note_on channel=1 note=66 velocity=86 time=0
note_on channel=1 note=62 velocity=88 time=0
note_on channel=1 note=57 velocity=84 time=0
note_off channel=1 note=69 velocity=88 time=28
note_off channel=1 note=66 velocity=86 time=2
note_off channel=1 note=62 velocity=88 time=0
note_off channel=1 note=57 velocity=84 time=4
note_on channel=1 note=69 velocity=96 time=35
note_on channel=1 note=66 velocity=86 time=0
note_on channel=1 note=62 velocity=96 time=0
note_on channel=1 note=57 velocity=84 time=0
note_off channel=1 note=69 velocity=96 time=25
note_off channel=1 note=66 velocity=86 time=0
note_off channel=1 note=62 velocity=96 time=4
note_off channel=1 note=57 velocity=84 time=4
note_on channel=1 note=69 velocity=84 time=42
note_on channel=1 note=66 velocity=78 time=0
note_on channel=1 note=62 velocity=88 time=0
note_on channel=1 note=57 velocity=84 time=0
note_off channel=1 note=57 velocity=84 time=22
note_off channel=1 note=62 velocity=88 time=1
note_off channel=1 note=66 velocity=78 time=2
note_off channel=1 note=69 velocity=84 time=1
note_on channel=1 note=69 velocity=92 time=43
note_on channel=1 note=66 velocity=88 time=0
note_on channel=1 note=62 velocity=104 time=0
note_on channel=1 note=57 velocity=86 time=0
note_off channel=1 note=69 velocity=92 time=130
note_off channel=1 note=66 velocity=88 time=1
note_off channel=1 note=62 velocity=104 time=6
note_off channel=1 note=57 velocity=86 time=4
note_on channel=1 note=69 velocity=88 time=30
note_on channel=1 note=64 velocity=96 time=0
note_on channel=1 note=61 velocity=80 time=0
note_on channel=1 note=57 velocity=82 time=0
note_off channel=1 note=69 velocity=88 time=22
note_off channel=1 note=57 velocity=82 time=1
note_off channel=1 note=64 velocity=96 time=2
note_off channel=1 note=61 velocity=80 time=1
note_on channel=1 note=69 velocity=86 time=43
note_on channel=1 note=64 velocity=92 time=0
note_on channel=1 note=61 velocity=78 time=0
note_on channel=1 note=57 velocity=84 time=0
note_off channel=1 note=57 velocity=84 time=24
note_off channel=1 note=69 velocity=86 time=2
note_off channel=1 note=64 velocity=92 time=0
note_off channel=1 note=61 velocity=78 time=2
note_on channel=1 note=69 velocity=86 time=47
note_on channel=1 note=64 velocity=88 time=0
note_on channel=1 note=61 velocity=80 time=0
note_on channel=1 note=57 velocity=84 time=0
note_off channel=1 note=57 velocity=84 time=25
note_off channel=1 note=61 velocity=80 time=0
note_off channel=1 note=69 velocity=86 time=1
note_off channel=1 note=64 velocity=88 time=1
note_on channel=1 note=69 velocity=92 time=42
note_on channel=1 note=64 velocity=92 time=0
note_on channel=1 note=61 velocity=86 time=0
note_on channel=1 note=57 velocity=92 time=0
note_off channel=1 note=69 velocity=92 time=132
note_off channel=1 note=61 velocity=86 time=10
note_off channel=1 note=57 velocity=92 time=2
note_off channel=1 note=64 velocity=92 time=5
note_on channel=1 note=69 velocity=82 time=22
note_on channel=1 note=66 velocity=74 time=0
note_on channel=1 note=62 velocity=80 time=0
note_on channel=1 note=57 velocity=84 time=0
note_off channel=1 note=62 velocity=80 time=16
note_off channel=1 note=66 velocity=74 time=4
note_off channel=1 note=57 velocity=84 time=1
note_off channel=1 note=69 velocity=82 time=1
note_on channel=1 note=69 velocity=88 time=47
note_on channel=1 note=66 velocity=86 time=0
note_on channel=1 note=62 velocity=100 time=0
note_on channel=1 note=57 velocity=82 time=0
note_off channel=1 note=69 velocity=88 time=26
note_off channel=1 note=66 velocity=86 time=0
note_off channel=1 note=57 velocity=82 time=2
note_off channel=1 note=62 velocity=100 time=0
note_on channel=1 note=69 velocity=84 time=47
note_on channel=1 note=66 velocity=88 time=0
note_on channel=1 note=62 velocity=86 time=0
note_on channel=1 note=57 velocity=86 time=0
note_off channel=1 note=69 velocity=84 time=29
note_off channel=1 note=57 velocity=86 time=2
note_off channel=1 note=66 velocity=88 time=0
note_off channel=1 note=62 velocity=86 time=3
note_on channel=1 note=69 velocity=92 time=35
note_on channel=1 note=66 velocity=88 time=0
note_on channel=1 note=62 velocity=88 time=0
note_on channel=1 note=57 velocity=88 time=0
note_off channel=1 note=69 velocity=92 time=133
note_off channel=1 note=66 velocity=88 time=5
note_off channel=1 note=62 velocity=88 time=1
note_off channel=1 note=57 velocity=88 time=1
note_on channel=1 note=69 velocity=88 time=31
note_on channel=1 note=64 velocity=88 time=0
note_on channel=1 note=61 velocity=84 time=0
note_on channel=1 note=57 velocity=96 time=0
note_off channel=1 note=57 velocity=96 time=16
note_off channel=1 note=69 velocity=88 time=5
note_off channel=1 note=64 velocity=88 time=0
note_off channel=1 note=61 velocity=84 time=0
note_on channel=1 note=69 velocity=88 time=48
note_on channel=1 note=64 velocity=84 time=0
note_on channel=1 note=61 velocity=82 time=0
note_on channel=1 note=57 velocity=84 time=0
note_off channel=1 note=57 velocity=84 time=24
note_off channel=1 note=64 velocity=84 time=2
note_off channel=1 note=69 velocity=88 time=0
note_off channel=1 note=61 velocity=82 time=1
note_on channel=1 note=69 velocity=88 time=48
note_on channel=1 note=64 velocity=88 time=0
note_on channel=1 note=61 velocity=82 time=0
note_on channel=1 note=57 velocity=86 time=0
note_off channel=1 note=57 velocity=86 time=20
note_off channel=1 note=64 velocity=88 time=0
note_off channel=1 note=61 velocity=82 time=3
note_off channel=1 note=69 velocity=88 time=1
note_on channel=1 note=69 velocity=84 time=45
note_on channel=1 note=64 velocity=88 time=0
note_on channel=1 note=61 velocity=82 time=0
note_on channel=1 note=57 velocity=82 time=0
note_off channel=1 note=69 velocity=84 time=112
note_off channel=1 note=57 velocity=82 time=19
note_off channel=1 note=64 velocity=88 time=1
note_off channel=1 note=61 velocity=82 time=7
note_on channel=1 note=69 velocity=86 time=32
note_on channel=1 note=66 velocity=80 time=0
note_on channel=1 note=62 velocity=92 time=0
note_on channel=1 note=57 velocity=78 time=0
note_off channel=1 note=57 velocity=78 time=19
note_off channel=1 note=62 velocity=92 time=1
note_off channel=1 note=69 velocity=86 time=1
note_off channel=1 note=66 velocity=80 time=3
note_on channel=1 note=69 velocity=88 time=45
note_on channel=1 note=66 velocity=88 time=0
note_on channel=1 note=62 velocity=88 time=0
note_on channel=1 note=57 velocity=82 time=0
note_off channel=1 note=69 velocity=88 time=40
note_off channel=1 note=66 velocity=88 time=4
note_off channel=1 note=57 velocity=82 time=1
note_off channel=1 note=62 velocity=88 time=0
note_on channel=1 note=69 velocity=86 time=30
note_on channel=1 note=66 velocity=76 time=0
note_on channel=1 note=62 velocity=86 time=0
note_on channel=1 note=57 velocity=86 time=0
note_off channel=1 note=66 velocity=76 time=23
note_off channel=1 note=62 velocity=86 time=2
note_off channel=1 note=69 velocity=86 time=0
note_off channel=1 note=57 velocity=86 time=2
note_on channel=1 note=69 velocity=84 time=42
note_on channel=1 note=66 velocity=78 time=0
note_on channel=1 note=62 velocity=88 time=0
note_on channel=1 note=57 velocity=84 time=0
note_off channel=1 note=69 velocity=84 time=42
note_off channel=1 note=57 velocity=84 time=8
note_off channel=1 note=62 velocity=88 time=1
note_off channel=1 note=66 velocity=78 time=1
note_on channel=1 note=69 velocity=86 time=23
note_on channel=1 note=66 velocity=88 time=0
note_on channel=1 note=62 velocity=100 time=0
note_on channel=1 note=57 velocity=80 time=0
note_off channel=1 note=69 velocity=86 time=56
note_off channel=1 note=66 velocity=88 time=3
note_off channel=1 note=62 velocity=100 time=0
note_off channel=1 note=57 velocity=80 time=2
control_change channel=1 control=101 value=0 time=8
control_change channel=1 control=100 value=0 time=0
control_change channel=1 control=6 value=12 time=0
control_change channel=1 control=10 value=52 time=0
control_change channel=1 control=7 value=70 time=0
pitchwheel channel=1 pitch=0 time=0
program_change channel=1 program=0 time=0
control_change channel=1 control=101 value=0 time=1
control_change channel=1 control=100 value=0 time=0
control_change channel=1 control=6 value=12 time=0
control_change channel=1 control=10 value=52 time=0
control_change channel=1 control=7 value=70 time=0
pitchwheel channel=1 pitch=0 time=0
program_change channel=1 program=0 time=0
MetaMessage('end_of_track', time=0)
Track 4:
MetaMessage('track_name', name='Channel #4', time=0)
control_change channel=2 control=10 value=64 time=0
control_change channel=2 control=7 value=100 time=0
pitchwheel channel=2 pitch=0 time=0
control_change channel=2 control=101 value=0 time=0
control_change channel=2 control=100 value=0 time=0
control_change channel=2 control=6 value=12 time=0
control_change channel=2 control=10 value=64 time=0
control_change channel=2 control=7 value=100 time=0
pitchwheel channel=2 pitch=0 time=0
program_change channel=2 program=0 time=0
control_change channel=2 control=101 value=0 time=0
control_change channel=2 control=100 value=0 time=0
control_change channel=2 control=6 value=12 time=0
control_change channel=2 control=10 value=64 time=0
control_change channel=2 control=7 value=100 time=0
pitchwheel channel=2 pitch=0 time=0
program_change channel=2 program=0 time=0
control_change channel=2 control=101 value=0 time=0
control_change channel=2 control=100 value=0 time=0
control_change channel=2 control=6 value=12 time=0
control_change channel=2 control=10 value=64 time=0
control_change channel=2 control=7 value=110 time=0
pitchwheel channel=2 pitch=0 time=0
program_change channel=2 program=0 time=0
control_change channel=2 control=7 value=110 time=114
control_change channel=2 control=10 value=64 time=0
note_on channel=2 note=71 velocity=101 time=3630
note_off channel=2 note=71 velocity=101 time=94
note_on channel=2 note=73 velocity=93 time=2
note_on channel=2 note=71 velocity=93 time=24
note_off channel=2 note=73 velocity=93 time=1
note_off channel=2 note=71 velocity=93 time=20
note_on channel=2 note=69 velocity=79 time=3
note_off channel=2 note=69 velocity=79 time=285
note_on channel=2 note=73 velocity=97 time=51
note_off channel=2 note=73 velocity=97 time=92
note_on channel=2 note=71 velocity=101 time=4
note_off channel=2 note=71 velocity=101 time=13
note_on channel=2 note=71 velocity=97 time=35
note_off channel=2 note=71 velocity=97 time=178
note_on channel=2 note=73 velocity=101 time=62
note_off channel=2 note=73 velocity=101 time=87
note_on channel=2 note=71 velocity=101 time=9
note_off channel=2 note=71 velocity=101 time=12
note_on channel=2 note=71 velocity=101 time=36
note_on channel=2 note=73 velocity=93 time=96
note_off channel=2 note=71 velocity=101 time=1
note_off channel=2 note=73 velocity=93 time=129
note_on channel=2 note=69 velocity=97 time=14
note_off channel=2 note=69 velocity=97 time=71
note_on channel=2 note=71 velocity=97 time=1
note_off channel=2 note=71 velocity=97 time=71
note_on channel=2 note=68 velocity=97 time=1
note_off channel=2 note=68 velocity=97 time=47
note_on channel=2 note=69 velocity=89 time=1
note_off channel=2 note=69 velocity=89 time=66
note_on channel=2 note=71 velocity=97 time=6
note_off channel=2 note=71 velocity=97 time=72
note_on channel=2 note=68 velocity=101 time=0
note_off channel=2 note=68 velocity=101 time=47
note_on channel=2 note=69 velocity=79 time=1
note_off channel=2 note=69 velocity=79 time=24
note_on channel=2 note=68 velocity=93 time=0
note_off channel=2 note=68 velocity=93 time=24
note_on channel=2 note=66 velocity=71 time=0
note_off channel=2 note=66 velocity=71 time=131
note_on channel=2 note=73 velocity=97 time=13
note_off channel=2 note=73 velocity=97 time=42
note_on channel=2 note=71 velocity=71 time=6
note_off channel=2 note=71 velocity=71 time=24
note_on channel=2 note=73 velocity=93 time=0
note_off channel=2 note=73 velocity=93 time=24
note_on channel=2 note=71 velocity=89 time=0
note_off channel=2 note=71 velocity=89 time=24
note_on channel=2 note=69 velocity=101 time=0
note_off channel=2 note=69 velocity=101 time=71
note_on channel=2 note=68 velocity=101 time=1
note_off channel=2 note=68 velocity=101 time=65
note_on channel=2 note=69 velocity=93 time=7
note_off channel=2 note=69 velocity=93 time=16
note_on channel=2 note=69 velocity=97 time=56
note_off channel=2 note=69 velocity=97 time=203
note_on channel=2 note=68 velocity=97 time=37
note_off channel=2 note=68 velocity=97 time=63
note_on channel=2 note=69 velocity=93 time=9
note_off channel=2 note=69 velocity=93 time=15
note_on channel=2 note=69 velocity=97 time=57
note_off channel=2 note=69 velocity=97 time=136
note_on channel=2 note=71 velocity=89 time=8
note_off channel=2 note=71 velocity=89 time=17
note_on channel=2 note=69 velocity=105 time=7
note_off channel=2 note=69 velocity=105 time=15
note_on channel=2 note=69 velocity=89 time=33
note_off channel=2 note=69 velocity=89 time=17
note_on channel=2 note=68 velocity=93 time=7
note_off channel=2 note=68 velocity=93 time=69
note_on channel=2 note=69 velocity=89 time=3
note_off channel=2 note=69 velocity=89 time=19
note_on channel=2 note=69 velocity=97 time=53
note_off channel=2 note=69 velocity=97 time=589
note_on channel=2 note=61 velocity=93 time=803
note_off channel=2 note=61 velocity=93 time=43
note_on channel=2 note=64 velocity=79 time=5
note_off channel=2 note=64 velocity=79 time=11
note_on channel=2 note=64 velocity=89 time=13
note_off channel=2 note=64 velocity=89 time=17
note_on channel=2 note=64 velocity=89 time=31
note_off channel=2 note=64 velocity=89 time=17
note_on channel=2 note=64 velocity=73 time=31
note_off channel=2 note=64 velocity=73 time=6
note_on channel=2 note=64 velocity=85 time=18
note_off channel=2 note=64 velocity=85 time=17
note_on channel=2 note=64 velocity=89 time=31
note_off channel=2 note=64 velocity=89 time=14
note_on channel=2 note=64 velocity=93 time=34
pitchwheel channel=2 pitch=409 time=21
pitchwheel channel=2 pitch=1208 time=3
pitchwheel channel=2 pitch=1358 time=3
note_off channel=2 note=64 velocity=93 time=357
pitchwheel channel=2 pitch=628 time=9
pitchwheel channel=2 pitch=-382 time=2
pitchwheel channel=2 pitch=-402 time=3
pitchwheel channel=2 pitch=0 time=1
pitchwheel channel=2 pitch=129 time=2
pitchwheel channel=2 pitch=0 time=2
note_on channel=2 note=61 velocity=93 time=77
note_off channel=2 note=61 velocity=93 time=35
note_on channel=2 note=64 velocity=77 time=13
note_off channel=2 note=64 velocity=77 time=15
note_on channel=2 note=64 velocity=89 time=9
note_off channel=2 note=64 velocity=89 time=15
note_on channel=2 note=64 velocity=79 time=33
note_off channel=2 note=64 velocity=79 time=17
note_on channel=2 note=64 velocity=79 time=31
note_off channel=2 note=64 velocity=79 time=12
note_on channel=2 note=64 velocity=85 time=12
note_off channel=2 note=64 velocity=85 time=18
note_on channel=2 note=64 velocity=81 time=30
note_off channel=2 note=64 velocity=81 time=17
pitchwheel channel=2 pitch=-143 time=19
pitchwheel channel=2 pitch=-682 time=2
pitchwheel channel=2 pitch=-1256 time=4
pitchwheel channel=2 pitch=-1365 time=3
note_on channel=2 note=61 velocity=93 time=3
pitchwheel channel=2 pitch=-1338 time=21
pitchwheel channel=2 pitch=-785 time=1
pitchwheel channel=2 pitch=-573 time=4
pitchwheel channel=2 pitch=0 time=5
note_off channel=2 note=61 velocity=93 time=303
note_on channel=2 note=59 velocity=77 time=26
note_off channel=2 note=59 velocity=77 time=17
note_on channel=2 note=61 velocity=89 time=7
note_off channel=2 note=61 velocity=89 time=21
note_on channel=2 note=59 velocity=97 time=3
note_off channel=2 note=59 velocity=97 time=38
note_on channel=2 note=59 velocity=85 time=34
note_off channel=2 note=59 velocity=85 time=29
note_on channel=2 note=59 velocity=77 time=19
note_off channel=2 note=59 velocity=77 time=12
note_on channel=2 note=59 velocity=89 time=12
note_off channel=2 note=59 velocity=89 time=22
note_on channel=2 note=59 velocity=81 time=26
note_off channel=2 note=59 velocity=81 time=10
note_on channel=2 note=59 velocity=85 time=14
note_off channel=2 note=59 velocity=85 time=48
note_on channel=2 note=61 velocity=93 time=0
note_off channel=2 note=61 velocity=93 time=33
note_on channel=2 note=61 velocity=93 time=15
note_off channel=2 note=61 velocity=93 time=24
note_on channel=2 note=59 velocity=79 time=120
note_off channel=2 note=59 velocity=79 time=36
note_on channel=2 note=59 velocity=77 time=12
note_off channel=2 note=59 velocity=77 time=10
note_on channel=2 note=59 velocity=93 time=14
note_off channel=2 note=59 velocity=93 time=24
note_on channel=2 note=59 velocity=79 time=24
note_off channel=2 note=59 velocity=79 time=15
note_on channel=2 note=61 velocity=97 time=9
note_off channel=2 note=61 velocity=97 time=75
note_on channel=2 note=59 velocity=79 time=69
note_on channel=2 note=57 velocity=81 time=24
note_off channel=2 note=59 velocity=79 time=2
note_off channel=2 note=57 velocity=81 time=16
note_on channel=2 note=56 velocity=73 time=30
note_off channel=2 note=56 velocity=73 time=22
note_on channel=2 note=52 velocity=79 time=2
note_off channel=2 note=52 velocity=79 time=31
note_on channel=2 note=54 velocity=101 time=41
note_off channel=2 note=54 velocity=101 time=10
note_on channel=2 note=54 velocity=85 time=14
note_off channel=2 note=54 velocity=85 time=23
note_on channel=2 note=54 velocity=89 time=25
note_off channel=2 note=54 velocity=89 time=527
note_on channel=2 note=61 velocity=97 time=97
note_off channel=2 note=61 velocity=97 time=41
note_on channel=2 note=64 velocity=75 time=7
note_off channel=2 note=64 velocity=75 time=11
note_on channel=2 note=64 velocity=89 time=13
note_off channel=2 note=64 velocity=89 time=17
note_on channel=2 note=64 velocity=97 time=31
note_off channel=2 note=64 velocity=97 time=17
note_on channel=2 note=64 velocity=79 time=31
note_off channel=2 note=64 velocity=79 time=9
note_on channel=2 note=64 velocity=93 time=15
note_off channel=2 note=64 velocity=93 time=39
note_on channel=2 note=69 velocity=79 time=9
note_off channel=2 note=69 velocity=79 time=55
note_on channel=2 note=66 velocity=97 time=41
note_off channel=2 note=66 velocity=97 time=370
note_on channel=2 note=61 velocity=89 time=62
note_off channel=2 note=61 velocity=89 time=37
note_on channel=2 note=64 velocity=75 time=11
note_off channel=2 note=64 velocity=75 time=12
note_on channel=2 note=64 velocity=81 time=12
note_off channel=2 note=64 velocity=81 time=19
note_on channel=2 note=64 velocity=97 time=29
note_off channel=2 note=64 velocity=97 time=17
note_on channel=2 note=64 velocity=79 time=31
note_off channel=2 note=64 velocity=79 time=10
note_on channel=2 note=64 velocity=81 time=14
note_off channel=2 note=64 velocity=81 time=35
note_on channel=2 note=64 velocity=97 time=13
note_off channel=2 note=64 velocity=97 time=24
pitchwheel channel=2 pitch=-102 time=94
pitchwheel channel=2 pitch=-341 time=2
pitchwheel channel=2 pitch=-552 time=4
pitchwheel channel=2 pitch=-853 time=3
pitchwheel channel=2 pitch=-1146 time=3
pitchwheel channel=2 pitch=-1365 time=4
note_on channel=2 note=61 velocity=89 time=10
pitchwheel channel=2 pitch=-1317 time=52
pitchwheel channel=2 pitch=-1276 time=1
pitchwheel channel=2 pitch=-1235 time=3
pitchwheel channel=2 pitch=-1167 time=4
pitchwheel channel=2 pitch=-1146 time=4
pitchwheel channel=2 pitch=-1064 time=3
pitchwheel channel=2 pitch=-935 time=4
pitchwheel channel=2 pitch=-805 time=3
pitchwheel channel=2 pitch=-703 time=4
pitchwheel channel=2 pitch=-593 time=3
pitchwheel channel=2 pitch=-532 time=5
pitchwheel channel=2 pitch=-443 time=3
pitchwheel channel=2 pitch=-382 time=5
pitchwheel channel=2 pitch=-273 time=1
pitchwheel channel=2 pitch=-211 time=5
pitchwheel channel=2 pitch=-61 time=2
pitchwheel channel=2 pitch=0 time=4
note_off channel=2 note=61 velocity=89 time=236
note_on channel=2 note=59 velocity=97 time=42
note_off channel=2 note=59 velocity=97 time=31
note_on channel=2 note=59 velocity=65 time=17
note_off channel=2 note=59 velocity=65 time=8
note_on channel=2 note=59 velocity=79 time=16
note_off channel=2 note=59 velocity=79 time=25
note_on channel=2 note=59 velocity=71 time=23
note_off channel=2 note=59 velocity=71 time=9
note_on channel=2 note=59 velocity=97 time=15
note_off channel=2 note=59 velocity=97 time=35
note_on channel=2 note=61 velocity=101 time=13
note_off channel=2 note=61 velocity=101 time=31
note_on channel=2 note=61 velocity=101 time=17
note_off channel=2 note=61 velocity=101 time=23
note_on channel=2 note=59 velocity=93 time=121
note_off channel=2 note=59 velocity=93 time=33
note_on channel=2 note=59 velocity=73 time=15
note_off channel=2 note=59 velocity=73 time=9
note_on channel=2 note=59 velocity=105 time=15
note_off channel=2 note=59 velocity=105 time=22
note_on channel=2 note=59 velocity=89 time=26
note_off channel=2 note=59 velocity=89 time=14
note_on channel=2 note=61 velocity=101 time=10
note_off channel=2 note=61 velocity=101 time=88
note_on channel=2 note=59 velocity=79 time=56
note_off channel=2 note=59 velocity=79 time=23
note_on channel=2 note=57 velocity=81 time=1
note_off channel=2 note=57 velocity=81 time=17
note_on channel=2 note=56 velocity=97 time=31
note_off channel=2 note=56 velocity=97 time=18
note_on channel=2 note=52 velocity=85 time=6
note_off channel=2 note=52 velocity=85 time=38
note_on channel=2 note=54 velocity=105 time=34
note_off channel=2 note=54 velocity=105 time=11
note_on channel=2 note=54 velocity=93 time=13
note_off channel=2 note=54 velocity=93 time=22
note_on channel=2 note=54 velocity=97 time=26
note_off channel=2 note=54 velocity=97 time=346
note_on channel=2 note=57 velocity=105 time=86
note_off channel=2 note=57 velocity=105 time=46
note_on channel=2 note=59 velocity=101 time=26
note_off channel=2 note=59 velocity=101 time=54
note_on channel=2 note=61 velocity=101 time=18
note_off channel=2 note=61 velocity=101 time=18
note_on channel=2 note=61 velocity=101 time=30
note_off channel=2 note=61 velocity=101 time=51
note_on channel=2 note=62 velocity=97 time=21
note_off channel=2 note=62 velocity=97 time=18
note_on channel=2 note=62 velocity=97 time=54
note_off channel=2 note=62 velocity=97 time=213
note_on channel=2 note=61 velocity=79 time=3
note_off channel=2 note=61 velocity=79 time=17
note_on channel=2 note=59 velocity=85 time=7
note_off channel=2 note=59 velocity=85 time=152
note_on channel=2 note=64 velocity=97 time=40
note_off channel=2 note=64 velocity=97 time=53
note_on channel=2 note=66 velocity=105 time=19
note_off channel=2 note=66 velocity=105 time=49
note_on channel=2 note=68 velocity=97 time=23
note_off channel=2 note=68 velocity=97 time=20
note_on channel=2 note=68 velocity=97 time=28
note_off channel=2 note=68 velocity=97 time=62
note_on channel=2 note=69 velocity=97 time=10
note_off channel=2 note=69 velocity=97 time=19
note_on channel=2 note=69 velocity=93 time=53
note_off channel=2 note=69 velocity=93 time=201
note_on channel=2 note=68 velocity=97 time=39
note_off channel=2 note=68 velocity=97 time=51
note_on channel=2 note=69 velocity=93 time=21
note_off channel=2 note=69 velocity=93 time=24
note_on channel=2 note=69 velocity=101 time=48
note_off channel=2 note=69 velocity=101 time=89
note_on channel=2 note=71 velocity=97 time=7
note_off channel=2 note=71 velocity=97 time=88
note_on channel=2 note=69 velocity=89 time=8
note_off channel=2 note=69 velocity=89 time=20
note_on channel=2 note=68 velocity=97 time=28
note_off channel=2 note=68 velocity=97 time=65
note_on channel=2 note=69 velocity=93 time=7
note_off channel=2 note=69 velocity=93 time=21
note_on channel=2 note=69 velocity=97 time=51
note_off channel=2 note=69 velocity=97 time=508
note_on channel=2 note=68 velocity=105 time=116
note_off channel=2 note=68 velocity=105 time=51
note_on channel=2 note=69 velocity=97 time=21
note_off channel=2 note=69 velocity=97 time=18
note_on channel=2 note=69 velocity=97 time=54
note_off channel=2 note=69 velocity=97 time=194
note_on channel=2 note=68 velocity=101 time=46
note_off channel=2 note=68 velocity=101 time=50
note_on channel=2 note=69 velocity=93 time=22
note_off channel=2 note=69 velocity=93 time=27
note_on channel=2 note=69 velocity=101 time=45
note_off channel=2 note=69 velocity=101 time=92
note_on channel=2 note=71 velocity=93 time=4
note_off channel=2 note=71 velocity=93 time=94
note_on channel=2 note=69 velocity=105 time=2
note_off channel=2 note=69 velocity=105 time=44
note_on channel=2 note=71 velocity=97 time=4
note_off channel=2 note=71 velocity=97 time=66
note_on channel=2 note=73 velocity=97 time=6
note_off channel=2 note=73 velocity=97 time=19
note_on channel=2 note=73 velocity=101 time=53
note_off channel=2 note=73 velocity=101 time=138
note_on channel=2 note=71 velocity=93 time=6
note_off channel=2 note=71 velocity=93 time=95
note_on channel=2 note=73 velocity=101 time=1
note_off channel=2 note=73 velocity=101 time=24
note_on channel=2 note=71 velocity=93 time=0
note_off channel=2 note=71 velocity=93 time=20
note_on channel=2 note=69 velocity=81 time=4
note_off channel=2 note=69 velocity=81 time=278
note_on channel=2 note=73 velocity=105 time=58
note_off channel=2 note=73 velocity=105 time=63
note_on channel=2 note=71 velocity=101 time=33
note_off channel=2 note=71 velocity=101 time=34
note_on channel=2 note=71 velocity=97 time=14
note_off channel=2 note=71 velocity=97 time=167
note_on channel=2 note=73 velocity=97 time=73
note_off channel=2 note=73 velocity=97 time=49
note_on channel=2 note=71 velocity=101 time=47
note_off channel=2 note=71 velocity=101 time=32
note_on channel=2 note=71 velocity=97 time=16
note_on channel=2 note=73 velocity=101 time=96
note_off channel=2 note=71 velocity=97 time=7
note_off channel=2 note=73 velocity=101 time=111
note_on channel=2 note=69 velocity=89 time=26
note_off channel=2 note=69 velocity=89 time=70
note_on channel=2 note=71 velocity=97 time=2
note_on channel=2 note=68 velocity=93 time=72
note_off channel=2 note=71 velocity=97 time=1
note_off channel=2 note=68 velocity=93 time=46
note_on channel=2 note=69 velocity=97 time=1
note_off channel=2 note=69 velocity=97 time=61
note_on channel=2 note=71 velocity=93 time=11
note_on channel=2 note=68 velocity=101 time=72
note_off channel=2 note=71 velocity=93 time=6
note_off channel=2 note=68 velocity=101 time=41
note_on channel=2 note=69 velocity=93 time=1
note_off channel=2 note=69 velocity=93 time=23
note_on channel=2 note=68 velocity=101 time=1
note_off channel=2 note=68 velocity=101 time=23
note_on channel=2 note=66 velocity=89 time=1
note_off channel=2 note=66 velocity=89 time=136
note_on channel=2 note=73 velocity=101 time=8
note_off channel=2 note=73 velocity=101 time=46
note_on channel=2 note=71 velocity=79 time=2
note_on channel=2 note=73 velocity=93 time=24
note_off channel=2 note=71 velocity=79 time=5
note_off channel=2 note=73 velocity=93 time=16
note_on channel=2 note=71 velocity=79 time=3
note_off channel=2 note=71 velocity=79 time=23
note_on channel=2 note=69 velocity=85 time=1
note_off channel=2 note=69 velocity=85 time=70
note_on channel=2 note=68 velocity=97 time=2
note_off channel=2 note=68 velocity=97 time=67
note_on channel=2 note=69 velocity=81 time=5
note_off channel=2 note=69 velocity=81 time=22
note_on channel=2 note=69 velocity=105 time=50
note_off channel=2 note=69 velocity=105 time=212
note_on channel=2 note=68 velocity=97 time=28
note_off channel=2 note=68 velocity=97 time=58
note_on channel=2 note=69 velocity=89 time=14
note_off channel=2 note=69 velocity=89 time=18
note_on channel=2 note=69 velocity=101 time=54
note_off channel=2 note=69 velocity=101 time=142
note_on channel=2 note=71 velocity=81 time=2
note_off channel=2 note=71 velocity=81 time=23
note_on channel=2 note=69 velocity=101 time=1
note_off channel=2 note=69 velocity=101 time=17
note_on channel=2 note=69 velocity=93 time=31
note_off channel=2 note=69 velocity=93 time=19
note_on channel=2 note=68 velocity=97 time=5
note_off channel=2 note=68 velocity=97 time=61
note_on channel=2 note=69 velocity=97 time=11
note_off channel=2 note=69 velocity=97 time=20
note_on channel=2 note=69 velocity=93 time=52
note_off channel=2 note=69 velocity=93 time=1012
note_on channel=2 note=61 velocity=97 time=1148
note_off channel=2 note=61 velocity=97 time=41
note_on channel=2 note=64 velocity=75 time=7
note_off channel=2 note=64 velocity=75 time=11
note_on channel=2 note=64 velocity=89 time=13
note_off channel=2 note=64 velocity=89 time=17
note_on channel=2 note=64 velocity=77 time=31
note_off channel=2 note=64 velocity=77 time=16
note_on channel=2 note=64 velocity=93 time=32
note_off channel=2 note=64 velocity=93 time=10
note_on channel=2 note=64 velocity=89 time=14
note_off channel=2 note=64 velocity=89 time=26
note_on channel=2 note=64 velocity=81 time=22
note_off channel=2 note=64 velocity=81 time=47
note_on channel=2 note=66 velocity=77 time=1
note_off channel=2 note=66 velocity=77 time=424
note_on channel=2 note=61 velocity=97 time=56
note_off channel=2 note=61 velocity=97 time=39
note_on channel=2 note=64 velocity=81 time=9
note_off channel=2 note=64 velocity=81 time=13
note_on channel=2 note=64 velocity=89 time=11
note_off channel=2 note=64 velocity=89 time=18
note_on channel=2 note=64 velocity=79 time=30
note_off channel=2 note=64 velocity=79 time=17
note_on channel=2 note=64 velocity=79 time=31
note_off channel=2 note=64 velocity=79 time=11
note_on channel=2 note=64 velocity=89 time=13
note_off channel=2 note=64 velocity=89 time=34
note_on channel=2 note=64 velocity=93 time=14
note_off channel=2 note=64 velocity=93 time=35
pitchwheel channel=2 pitch=-122 time=88
pitchwheel channel=2 pitch=-293 time=3
pitchwheel channel=2 pitch=-614 time=3
pitchwheel channel=2 pitch=-873 time=4
pitchwheel channel=2 pitch=-1167 time=3
pitchwheel channel=2 pitch=-1297 time=4
pitchwheel channel=2 pitch=-1365 time=3
note_on channel=2 note=61 velocity=97 time=1
pitchwheel channel=2 pitch=-1297 time=22
pitchwheel channel=2 pitch=-1215 time=2
pitchwheel channel=2 pitch=-1146 time=3
pitchwheel channel=2 pitch=-1085 time=4
pitchwheel channel=2 pitch=-1044 time=4
pitchwheel channel=2 pitch=-996 time=3
pitchwheel channel=2 pitch=-955 time=4
pitchwheel channel=2 pitch=-914 time=5
pitchwheel channel=2 pitch=-873 time=6
pitchwheel channel=2 pitch=-826 time=4
pitchwheel channel=2 pitch=-764 time=3
pitchwheel channel=2 pitch=-723 time=3
pitchwheel channel=2 pitch=-634 time=2
pitchwheel channel=2 pitch=-593 time=6
pitchwheel channel=2 pitch=-532 time=3
pitchwheel channel=2 pitch=-484 time=3
pitchwheel channel=2 pitch=-443 time=4
pitchwheel channel=2 pitch=-402 time=8
pitchwheel channel=2 pitch=-314 time=3
pitchwheel channel=2 pitch=-273 time=3
pitchwheel channel=2 pitch=-191 time=2
pitchwheel channel=2 pitch=-143 time=7
pitchwheel channel=2 pitch=-81 time=5
pitchwheel channel=2 pitch=-40 time=2
pitchwheel channel=2 pitch=0 time=2
note_off channel=2 note=61 velocity=97 time=238
note_on channel=2 note=59 velocity=93 time=33
note_off channel=2 note=59 velocity=93 time=27
note_on channel=2 note=59 velocity=81 time=21
note_off channel=2 note=59 velocity=81 time=11
note_on channel=2 note=59 velocity=89 time=13
note_off channel=2 note=59 velocity=89 time=18
note_on channel=2 note=59 velocity=79 time=30
note_off channel=2 note=59 velocity=79 time=12
note_on channel=2 note=59 velocity=97 time=12
note_off channel=2 note=59 velocity=97 time=42
note_on channel=2 note=61 velocity=97 time=6
note_off channel=2 note=61 velocity=97 time=35
note_on channel=2 note=61 velocity=93 time=13
note_off channel=2 note=61 velocity=93 time=20
note_on channel=2 note=59 velocity=97 time=124
note_off channel=2 note=59 velocity=97 time=36
note_on channel=2 note=59 velocity=67 time=12
note_off channel=2 note=59 velocity=67 time=9
note_on channel=2 note=59 velocity=101 time=15
note_off channel=2 note=59 velocity=101 time=26
note_on channel=2 note=59 velocity=77 time=22
note_off channel=2 note=59 velocity=77 time=17
note_on channel=2 note=61 velocity=93 time=7
note_off channel=2 note=61 velocity=93 time=72
note_on channel=2 note=59 velocity=75 time=72
note_off channel=2 note=59 velocity=75 time=22
note_on channel=2 note=57 velocity=77 time=2
note_off channel=2 note=57 velocity=77 time=16
note_on channel=2 note=56 velocity=97 time=32
note_off channel=2 note=56 velocity=97 time=18
note_on channel=2 note=52 velocity=79 time=6
note_off channel=2 note=52 velocity=79 time=46
note_on channel=2 note=54 velocity=97 time=26
note_off channel=2 note=54 velocity=97 time=8
note_on channel=2 note=54 velocity=89 time=16
note_off channel=2 note=54 velocity=89 time=22
note_on channel=2 note=54 velocity=93 time=26
note_off channel=2 note=54 velocity=93 time=351
note_on channel=2 note=57 velocity=105 time=81
note_off channel=2 note=57 velocity=105 time=44
note_on channel=2 note=59 velocity=93 time=28
note_off channel=2 note=59 velocity=93 time=37
note_on channel=2 note=61 velocity=97 time=35
note_off channel=2 note=61 velocity=97 time=24
note_on channel=2 note=61 velocity=101 time=24
note_off channel=2 note=61 velocity=101 time=46
note_on channel=2 note=62 velocity=93 time=26
note_off channel=2 note=62 velocity=93 time=15
note_on channel=2 note=62 velocity=93 time=57
note_off channel=2 note=62 velocity=93 time=212
note_on channel=2 note=61 velocity=73 time=4
note_off channel=2 note=61 velocity=73 time=17
note_on channel=2 note=59 velocity=93 time=7
note_off channel=2 note=59 velocity=93 time=155
note_on channel=2 note=64 velocity=101 time=37
note_off channel=2 note=64 velocity=101 time=50
note_on channel=2 note=66 velocity=105 time=22
note_off channel=2 note=66 velocity=105 time=44
note_on channel=2 note=68 velocity=85 time=28
note_off channel=2 note=68 velocity=85 time=19
note_on channel=2 note=68 velocity=101 time=29
note_off channel=2 note=68 velocity=101 time=52
note_on channel=2 note=69 velocity=89 time=20
note_off channel=2 note=69 velocity=89 time=19
note_on channel=2 note=69 velocity=97 time=53
note_off channel=2 note=69 velocity=97 time=207
note_on channel=2 note=68 velocity=101 time=33
note_off channel=2 note=68 velocity=101 time=50
note_on channel=2 note=69 velocity=93 time=22
note_off channel=2 note=69 velocity=93 time=25
note_on channel=2 note=69 velocity=97 time=47
note_off channel=2 note=69 velocity=97 time=91
note_on channel=2 note=71 velocity=93 time=5
note_off channel=2 note=71 velocity=93 time=76
note_on channel=2 note=69 velocity=93 time=20
note_off channel=2 note=69 velocity=93 time=19
note_on channel=2 note=68 velocity=97 time=29
note_off channel=2 note=68 velocity=97 time=65
note_on channel=2 note=69 velocity=81 time=7
note_off channel=2 note=69 velocity=81 time=21
note_on channel=2 note=69 velocity=93 time=51
note_off channel=2 note=69 velocity=93 time=570
note_on channel=2 note=68 velocity=101 time=54
note_off channel=2 note=68 velocity=101 time=46
note_on channel=2 note=69 velocity=93 time=26
note_off channel=2 note=69 velocity=93 time=17
note_on channel=2 note=69 velocity=97 time=55
note_off channel=2 note=69 velocity=97 time=197
note_on channel=2 note=68 velocity=101 time=43
note_off channel=2 note=68 velocity=101 time=47
note_on channel=2 note=69 velocity=93 time=25
note_off channel=2 note=69 velocity=93 time=20
note_on channel=2 note=69 velocity=93 time=52
note_off channel=2 note=69 velocity=93 time=88
note_on channel=2 note=71 velocity=89 time=8
note_off channel=2 note=71 velocity=89 time=95
note_on channel=2 note=69 velocity=97 time=1
note_off channel=2 note=69 velocity=97 time=44
note_on channel=2 note=71 velocity=93 time=4
note_off channel=2 note=71 velocity=93 time=62
note_on channel=2 note=73 velocity=97 time=10
note_off channel=2 note=73 velocity=97 time=22
note_on channel=2 note=73 velocity=97 time=50
note_off channel=2 note=73 velocity=97 time=143
note_on channel=2 note=71 velocity=89 time=1
note_off channel=2 note=71 velocity=89 time=95
note_on channel=2 note=73 velocity=81 time=1
note_off channel=2 note=73 velocity=81 time=22
note_on channel=2 note=71 velocity=85 time=2
note_off channel=2 note=71 velocity=85 time=21
note_on channel=2 note=69 velocity=85 time=3
note_off channel=2 note=69 velocity=85 time=289
note_on channel=2 note=73 velocity=101 time=47
note_off channel=2 note=73 velocity=101 time=89
note_on channel=2 note=71 velocity=89 time=7
note_off channel=2 note=71 velocity=89 time=20
note_on channel=2 note=71 velocity=85 time=28
note_off channel=2 note=71 velocity=85 time=179
note_on channel=2 note=73 velocity=97 time=61
note_off channel=2 note=73 velocity=97 time=89
note_on channel=2 note=71 velocity=93 time=7
note_off channel=2 note=71 velocity=93 time=18
note_on channel=2 note=71 velocity=81 time=30
note_on channel=2 note=73 velocity=93 time=96
note_off channel=2 note=71 velocity=81 time=1
note_off channel=2 note=73 velocity=93 time=142
note_on channel=2 note=69 velocity=79 time=1
note_off channel=2 note=69 velocity=79 time=62
note_on channel=2 note=71 velocity=79 time=10
note_off channel=2 note=71 velocity=79 time=31
note_on channel=2 note=68 velocity=89 time=41
note_off channel=2 note=68 velocity=89 time=47
note_on channel=2 note=69 velocity=85 time=1
note_off channel=2 note=69 velocity=85 time=55
note_on channel=2 note=71 velocity=93 time=17
note_off channel=2 note=71 velocity=93 time=56
note_on channel=2 note=68 velocity=97 time=16
note_off channel=2 note=68 velocity=97 time=44
note_on channel=2 note=69 velocity=77 time=4
note_off channel=2 note=69 velocity=77 time=23
note_on channel=2 note=68 velocity=101 time=1
note_off channel=2 note=68 velocity=101 time=22
note_on channel=2 note=66 velocity=77 time=2
note_off channel=2 note=66 velocity=77 time=139
note_on channel=2 note=73 velocity=97 time=5
note_off channel=2 note=73 velocity=97 time=45
note_on channel=2 note=71 velocity=77 time=3
note_off channel=2 note=71 velocity=77 time=20
note_on channel=2 note=73 velocity=89 time=4
note_off channel=2 note=73 velocity=89 time=23
note_on channel=2 note=71 velocity=101 time=1
note_off channel=2 note=71 velocity=101 time=24
note_on channel=2 note=69 velocity=97 time=0
note_off channel=2 note=69 velocity=97 time=70
note_on channel=2 note=68 velocity=97 time=2
note_off channel=2 note=68 velocity=97 time=66
note_on channel=2 note=69 velocity=85 time=6
note_off channel=2 note=69 velocity=85 time=21
note_on channel=2 note=69 velocity=93 time=51
note_off channel=2 note=69 velocity=93 time=211
note_on channel=2 note=68 velocity=93 time=29
note_off channel=2 note=68 velocity=93 time=56
note_on channel=2 note=69 velocity=89 time=16
note_off channel=2 note=69 velocity=89 time=21
note_on channel=2 note=69 velocity=97 time=51
note_off channel=2 note=69 velocity=97 time=130
note_on channel=2 note=71 velocity=93 time=14
note_off channel=2 note=71 velocity=93 time=24
note_on channel=2 note=69 velocity=97 time=0
note_off channel=2 note=69 velocity=97 time=16
note_on channel=2 note=69 velocity=77 time=32
note_off channel=2 note=69 velocity=77 time=17
note_on channel=2 note=68 velocity=93 time=7
note_off channel=2 note=68 velocity=93 time=59
note_on channel=2 note=69 velocity=79 time=13
note_off channel=2 note=69 velocity=79 time=24
note_on channel=2 note=69 velocity=85 time=48
note_off channel=2 note=69 velocity=85 time=613
note_on channel=2 note=71 velocity=97 time=683
note_off channel=2 note=71 velocity=97 time=22
note_on channel=2 note=69 velocity=101 time=2
note_off channel=2 note=69 velocity=101 time=14
note_on channel=2 note=69 velocity=97 time=34
note_off channel=2 note=69 velocity=97 time=17
note_on channel=2 note=68 velocity=97 time=7
note_off channel=2 note=68 velocity=97 time=43
note_on channel=2 note=69 velocity=101 time=29
note_off channel=2 note=69 velocity=101 time=26
note_on channel=2 note=69 velocity=79 time=46
note_off channel=2 note=69 velocity=79 time=1310
control_change channel=2 control=101 value=0 time=3154
control_change channel=2 control=100 value=0 time=0
control_change channel=2 control=6 value=12 time=0
control_change channel=2 control=10 value=64 time=0
control_change channel=2 control=7 value=110 time=0
pitchwheel channel=2 pitch=0 time=0
program_change channel=2 program=0 time=0
control_change channel=2 control=101 value=0 time=1
control_change channel=2 control=100 value=0 time=0
control_change channel=2 control=6 value=12 time=0
control_change channel=2 control=10 value=64 time=0
control_change channel=2 control=7 value=110 time=0
pitchwheel channel=2 pitch=0 time=0
program_change channel=2 program=0 time=0
MetaMessage('end_of_track', time=0)
Track 5:
MetaMessage('track_name', name='Channel #5', time=0)
control_change channel=3 control=10 value=64 time=0
control_change channel=3 control=7 value=100 time=0
pitchwheel channel=3 pitch=0 time=0
control_change channel=3 control=101 value=0 time=0
control_change channel=3 control=100 value=0 time=0
control_change channel=3 control=6 value=12 time=0
control_change channel=3 control=10 value=64 time=0
control_change channel=3 control=7 value=100 time=0
pitchwheel channel=3 pitch=0 time=0
program_change channel=3 program=0 time=0
control_change channel=3 control=101 value=0 time=0
control_change channel=3 control=100 value=0 time=0
control_change channel=3 control=6 value=12 time=0
control_change channel=3 control=10 value=64 time=0
control_change channel=3 control=7 value=100 time=0
pitchwheel channel=3 pitch=0 time=0
program_change channel=3 program=0 time=0
control_change channel=3 control=101 value=0 time=0
control_change channel=3 control=100 value=0 time=0
control_change channel=3 control=6 value=12 time=0
control_change channel=3 control=10 value=64 time=0
control_change channel=3 control=7 value=70 time=0
pitchwheel channel=3 pitch=0 time=0
program_change channel=3 program=0 time=0
control_change channel=3 control=7 value=70 time=119
control_change channel=3 control=10 value=64 time=0
note_on channel=3 note=80 velocity=80 time=4105
note_off channel=3 note=80 velocity=80 time=210
note_on channel=3 note=78 velocity=68 time=6
note_off channel=3 note=78 velocity=68 time=16
note_on channel=3 note=80 velocity=62 time=8
note_off channel=3 note=80 velocity=62 time=19
note_on channel=3 note=78 velocity=66 time=5
note_off channel=3 note=78 velocity=66 time=16
note_on channel=3 note=80 velocity=84 time=8
note_off channel=3 note=80 velocity=84 time=19
note_on channel=3 note=81 velocity=64 time=5
note_on channel=3 note=80 velocity=88 time=72
note_off channel=3 note=81 velocity=64 time=1
note_on channel=3 note=81 velocity=62 time=215
note_off channel=3 note=80 velocity=88 time=1
note_off channel=3 note=81 velocity=62 time=15
note_on channel=3 note=83 velocity=60 time=8
note_off channel=3 note=83 velocity=60 time=17
note_on channel=3 note=81 velocity=62 time=7
note_off channel=3 note=81 velocity=62 time=23
note_on channel=3 note=83 velocity=64 time=1
note_off channel=3 note=83 velocity=64 time=22
note_on channel=3 note=85 velocity=84 time=2
note_off channel=3 note=85 velocity=84 time=57
note_on channel=3 note=81 velocity=68 time=15
note_off channel=3 note=81 velocity=68 time=67
note_on channel=3 note=83 velocity=68 time=5
note_off channel=3 note=83 velocity=68 time=65
note_on channel=3 note=80 velocity=72 time=7
note_off channel=3 note=80 velocity=72 time=46
note_on channel=3 note=81 velocity=68 time=2
note_off channel=3 note=81 velocity=68 time=66
note_on channel=3 note=83 velocity=68 time=6
note_off channel=3 note=83 velocity=68 time=67
note_on channel=3 note=80 velocity=66 time=5
note_off channel=3 note=80 velocity=66 time=46
note_on channel=3 note=81 velocity=68 time=2
note_off channel=3 note=81 velocity=68 time=67
note_on channel=3 note=83 velocity=76 time=5
note_off channel=3 note=83 velocity=76 time=68
note_on channel=3 note=85 velocity=76 time=4
note_off channel=3 note=85 velocity=76 time=47
note_on channel=3 note=87 velocity=62 time=1
note_off channel=3 note=87 velocity=62 time=68
note_on channel=3 note=88 velocity=68 time=4
note_off channel=3 note=88 velocity=68 time=68
note_on channel=3 note=90 velocity=84 time=4
note_off channel=3 note=90 velocity=84 time=48
note_on channel=3 note=88 velocity=66 time=0
note_off channel=3 note=88 velocity=66 time=1066
note_on channel=3 note=81 velocity=93 time=1622
note_off channel=3 note=81 velocity=93 time=13
note_on channel=3 note=78 velocity=85 time=11
note_off channel=3 note=78 velocity=85 time=14
note_on channel=3 note=74 velocity=77 time=10
note_off channel=3 note=74 velocity=77 time=12
note_on channel=3 note=81 velocity=93 time=12
note_off channel=3 note=81 velocity=93 time=7
note_on channel=3 note=78 velocity=86 time=17
note_off channel=3 note=78 velocity=86 time=18
note_on channel=3 note=74 velocity=79 time=6
note_off channel=3 note=74 velocity=79 time=13
note_on channel=3 note=81 velocity=91 time=11
note_off channel=3 note=81 velocity=91 time=10
note_on channel=3 note=78 velocity=83 time=14
note_off channel=3 note=78 velocity=83 time=15
note_on channel=3 note=74 velocity=75 time=9
note_off channel=3 note=74 velocity=75 time=15
note_on channel=3 note=81 velocity=86 time=9
note_off channel=3 note=81 velocity=86 time=13
note_on channel=3 note=78 velocity=79 time=11
note_off channel=3 note=78 velocity=79 time=15
note_on channel=3 note=74 velocity=72 time=9
note_off channel=3 note=74 velocity=72 time=14
note_on channel=3 note=81 velocity=78 time=10
note_off channel=3 note=81 velocity=78 time=14
note_on channel=3 note=80 velocity=76 time=10
note_off channel=3 note=80 velocity=76 time=20
note_on channel=3 note=76 velocity=74 time=4
note_off channel=3 note=76 velocity=74 time=38
note_on channel=3 note=73 velocity=70 time=10
note_off channel=3 note=73 velocity=70 time=86
note_on channel=3 note=81 velocity=93 time=2602
note_off channel=3 note=81 velocity=93 time=13
note_on channel=3 note=78 velocity=85 time=11
note_off channel=3 note=78 velocity=85 time=14
note_on channel=3 note=74 velocity=77 time=10
note_off channel=3 note=74 velocity=77 time=12
note_on channel=3 note=81 velocity=93 time=12
note_off channel=3 note=81 velocity=93 time=7
note_on channel=3 note=78 velocity=86 time=17
note_off channel=3 note=78 velocity=86 time=18
note_on channel=3 note=74 velocity=79 time=6
note_off channel=3 note=74 velocity=79 time=13
note_on channel=3 note=81 velocity=91 time=11
note_off channel=3 note=81 velocity=91 time=10
note_on channel=3 note=78 velocity=83 time=14
note_off channel=3 note=78 velocity=83 time=15
note_on channel=3 note=74 velocity=75 time=9
note_off channel=3 note=74 velocity=75 time=15
note_on channel=3 note=81 velocity=86 time=9
note_off channel=3 note=81 velocity=86 time=13
note_on channel=3 note=78 velocity=79 time=11
note_off channel=3 note=78 velocity=79 time=15
note_on channel=3 note=74 velocity=72 time=9
note_off channel=3 note=74 velocity=72 time=14
note_on channel=3 note=81 velocity=78 time=10
note_off channel=3 note=81 velocity=78 time=14
note_on channel=3 note=80 velocity=76 time=10
note_off channel=3 note=80 velocity=76 time=20
note_on channel=3 note=76 velocity=74 time=4
note_off channel=3 note=76 velocity=74 time=38
note_on channel=3 note=73 velocity=70 time=10
note_off channel=3 note=73 velocity=70 time=86
note_on channel=3 note=71 velocity=84 time=2602
note_off channel=3 note=71 velocity=84 time=18
note_on channel=3 note=73 velocity=72 time=6
note_off channel=3 note=73 velocity=72 time=13
note_on channel=3 note=73 velocity=66 time=11
note_off channel=3 note=73 velocity=66 time=13
note_on channel=3 note=73 velocity=72 time=11
note_off channel=3 note=73 velocity=72 time=13
note_on channel=3 note=73 velocity=84 time=11
note_off channel=3 note=73 velocity=84 time=18
note_on channel=3 note=74 velocity=54 time=6
note_off channel=3 note=74 velocity=54 time=16
note_on channel=3 note=74 velocity=60 time=8
note_off channel=3 note=74 velocity=60 time=14
note_on channel=3 note=74 velocity=68 time=10
note_off channel=3 note=74 velocity=68 time=17
note_on channel=3 note=76 velocity=62 time=7
note_off channel=3 note=76 velocity=62 time=50
note_on channel=3 note=78 velocity=92 time=22
note_off channel=3 note=78 velocity=92 time=49
note_on channel=3 note=80 velocity=64 time=23
note_off channel=3 note=80 velocity=64 time=26
note_on channel=3 note=80 velocity=68 time=22
note_off channel=3 note=80 velocity=68 time=41
note_on channel=3 note=81 velocity=66 time=31
note_off channel=3 note=81 velocity=66 time=26
note_on channel=3 note=81 velocity=66 time=46
note_off channel=3 note=81 velocity=66 time=208
note_on channel=3 note=80 velocity=84 time=32
note_off channel=3 note=80 velocity=84 time=54
note_on channel=3 note=81 velocity=62 time=18
note_off channel=3 note=81 velocity=62 time=30
note_on channel=3 note=81 velocity=64 time=42
note_off channel=3 note=81 velocity=64 time=87
note_on channel=3 note=83 velocity=64 time=9
note_off channel=3 note=83 velocity=64 time=89
note_on channel=3 note=81 velocity=66 time=7
note_off channel=3 note=81 velocity=66 time=47
note_on channel=3 note=80 velocity=64 time=1
note_off channel=3 note=80 velocity=64 time=64
note_on channel=3 note=81 velocity=68 time=8
note_off channel=3 note=81 velocity=68 time=30
note_on channel=3 note=81 velocity=66 time=42
note_off channel=3 note=81 velocity=66 time=508
note_on channel=3 note=81 velocity=64 time=20
note_off channel=3 note=81 velocity=64 time=23
note_on channel=3 note=80 velocity=84 time=1
note_off channel=3 note=80 velocity=84 time=20
note_on channel=3 note=76 velocity=68 time=4
note_off channel=3 note=76 velocity=68 time=21
note_on channel=3 note=80 velocity=76 time=27
note_off channel=3 note=80 velocity=76 time=47
note_on channel=3 note=81 velocity=68 time=25
note_off channel=3 note=81 velocity=68 time=35
note_on channel=3 note=81 velocity=66 time=37
note_off channel=3 note=81 velocity=66 time=207
note_on channel=3 note=80 velocity=72 time=33
note_off channel=3 note=80 velocity=72 time=49
note_on channel=3 note=81 velocity=66 time=23
note_off channel=3 note=81 velocity=66 time=38
note_on channel=3 note=81 velocity=66 time=34
note_on channel=3 note=83 velocity=72 time=96
note_off channel=3 note=81 velocity=66 time=6
note_off channel=3 note=83 velocity=72 time=82
note_on channel=3 note=81 velocity=72 time=8
note_off channel=3 note=81 velocity=72 time=47
note_on channel=3 note=83 velocity=68 time=1
note_off channel=3 note=83 velocity=68 time=42
note_on channel=3 note=85 velocity=84 time=30
note_off channel=3 note=85 velocity=84 time=25
note_on channel=3 note=85 velocity=66 time=47
note_off channel=3 note=85 velocity=66 time=211
note_on channel=3 note=83 velocity=54 time=5
note_off channel=3 note=83 velocity=54 time=12
note_on channel=3 note=83 velocity=76 time=12
note_off channel=3 note=83 velocity=76 time=67
note_on channel=3 note=81 velocity=68 time=5
note_off channel=3 note=81 velocity=68 time=47
note_on channel=3 note=76 velocity=72 time=25
note_off channel=3 note=76 velocity=72 time=223
note_on channel=3 note=80 velocity=76 time=17
note_off channel=3 note=80 velocity=76 time=209
note_on channel=3 note=78 velocity=66 time=7
note_off channel=3 note=78 velocity=66 time=15
note_on channel=3 note=80 velocity=66 time=9
note_off channel=3 note=80 velocity=66 time=20
note_on channel=3 note=78 velocity=64 time=4
note_off channel=3 note=78 velocity=64 time=17
note_on channel=3 note=80 velocity=62 time=7
note_off channel=3 note=80 velocity=62 time=22
note_on channel=3 note=81 velocity=64 time=2
note_on channel=3 note=80 velocity=68 time=72
note_off channel=3 note=81 velocity=64 time=4
note_off channel=3 note=80 velocity=68 time=196
note_on channel=3 note=81 velocity=66 time=16
note_off channel=3 note=81 velocity=66 time=14
note_on channel=3 note=83 velocity=68 time=10
note_off channel=3 note=83 velocity=68 time=17
note_on channel=3 note=81 velocity=62 time=7
note_off channel=3 note=81 velocity=62 time=23
note_on channel=3 note=83 velocity=58 time=1
note_off channel=3 note=83 velocity=58 time=21
note_on channel=3 note=85 velocity=64 time=3
note_off channel=3 note=85 velocity=64 time=56
note_on channel=3 note=81 velocity=62 time=16
note_off channel=3 note=81 velocity=62 time=62
note_on channel=3 note=83 velocity=68 time=10
note_off channel=3 note=83 velocity=68 time=51
note_on channel=3 note=80 velocity=68 time=21
note_off channel=3 note=80 velocity=68 time=41
note_on channel=3 note=81 velocity=66 time=7
note_off channel=3 note=81 velocity=66 time=57
note_on channel=3 note=83 velocity=68 time=15
note_off channel=3 note=83 velocity=68 time=42
note_on channel=3 note=80 velocity=68 time=30
note_off channel=3 note=80 velocity=68 time=46
note_on channel=3 note=81 velocity=60 time=2
note_off channel=3 note=81 velocity=60 time=64
note_on channel=3 note=83 velocity=64 time=8
note_off channel=3 note=83 velocity=64 time=69
note_on channel=3 note=85 velocity=62 time=3
note_on channel=3 note=87 velocity=66 time=48
note_off channel=3 note=85 velocity=62 time=6
note_off channel=3 note=87 velocity=66 time=60
note_on channel=3 note=88 velocity=62 time=6
note_off channel=3 note=88 velocity=62 time=60
note_on channel=3 note=90 velocity=80 time=12
note_off channel=3 note=90 velocity=80 time=45
note_on channel=3 note=88 velocity=58 time=3
note_off channel=3 note=88 velocity=58 time=1065
note_on channel=3 note=81 velocity=93 time=2391
note_off channel=3 note=81 velocity=93 time=13
note_on channel=3 note=78 velocity=85 time=11
note_off channel=3 note=78 velocity=85 time=14
note_on channel=3 note=74 velocity=77 time=10
note_off channel=3 note=74 velocity=77 time=12
note_on channel=3 note=81 velocity=93 time=12
note_off channel=3 note=81 velocity=93 time=7
note_on channel=3 note=78 velocity=86 time=17
note_off channel=3 note=78 velocity=86 time=18
note_on channel=3 note=74 velocity=79 time=6
note_off channel=3 note=74 velocity=79 time=13
note_on channel=3 note=81 velocity=91 time=11
note_off channel=3 note=81 velocity=91 time=10
note_on channel=3 note=78 velocity=83 time=14
note_off channel=3 note=78 velocity=83 time=15
note_on channel=3 note=74 velocity=75 time=9
note_off channel=3 note=74 velocity=75 time=15
note_on channel=3 note=81 velocity=86 time=9
note_off channel=3 note=81 velocity=86 time=13
note_on channel=3 note=78 velocity=79 time=11
note_off channel=3 note=78 velocity=79 time=15
note_on channel=3 note=74 velocity=72 time=9
note_off channel=3 note=74 velocity=72 time=14
note_on channel=3 note=81 velocity=78 time=10
note_off channel=3 note=81 velocity=78 time=14
note_on channel=3 note=80 velocity=76 time=10
note_off channel=3 note=80 velocity=76 time=20
note_on channel=3 note=76 velocity=74 time=4
note_off channel=3 note=76 velocity=74 time=38
note_on channel=3 note=73 velocity=70 time=10
note_off channel=3 note=73 velocity=70 time=86
note_on channel=3 note=52 velocity=72 time=682
note_on channel=3 note=40 velocity=46 time=0
note_off channel=3 note=52 velocity=72 time=49
note_off channel=3 note=40 velocity=46 time=0
note_on channel=3 note=52 velocity=74 time=23
note_on channel=3 note=40 velocity=76 time=0
note_off channel=3 note=52 velocity=74 time=19
note_off channel=3 note=40 velocity=76 time=3
note_on channel=3 note=52 velocity=64 time=50
note_on channel=3 note=40 velocity=60 time=0
note_off channel=3 note=40 velocity=60 time=110
note_off channel=3 note=52 velocity=64 time=17
note_on channel=3 note=52 velocity=68 time=113
note_on channel=3 note=40 velocity=66 time=0
note_off channel=3 note=52 velocity=68 time=55
note_off channel=3 note=40 velocity=66 time=0
note_on channel=3 note=52 velocity=74 time=17
note_on channel=3 note=40 velocity=78 time=0
note_off channel=3 note=52 velocity=74 time=19
note_off channel=3 note=40 velocity=78 time=5
note_on channel=3 note=52 velocity=68 time=48
note_on channel=3 note=40 velocity=66 time=0
note_off channel=3 note=52 velocity=68 time=173
note_off channel=3 note=40 velocity=66 time=3
note_on channel=3 note=52 velocity=72 time=64
note_off channel=3 note=52 velocity=72 time=60
note_on channel=3 note=54 velocity=64 time=12
note_off channel=3 note=54 velocity=64 time=24
note_on channel=3 note=54 velocity=70 time=48
note_off channel=3 note=54 velocity=70 time=165
note_on channel=3 note=71 velocity=66 time=843
note_off channel=3 note=71 velocity=66 time=19
note_on channel=3 note=73 velocity=76 time=5
note_off channel=3 note=73 velocity=76 time=14
note_on channel=3 note=73 velocity=72 time=10
note_off channel=3 note=73 velocity=72 time=12
note_on channel=3 note=73 velocity=76 time=12
note_off channel=3 note=73 velocity=76 time=12
note_on channel=3 note=73 velocity=80 time=12
note_off channel=3 note=73 velocity=80 time=22
note_on channel=3 note=74 velocity=66 time=2
note_off channel=3 note=74 velocity=66 time=14
note_on channel=3 note=74 velocity=50 time=10
note_off channel=3 note=74 velocity=50 time=10
note_on channel=3 note=74 velocity=52 time=14
note_off channel=3 note=74 velocity=52 time=16
note_on channel=3 note=76 velocity=80 time=8
note_off channel=3 note=76 velocity=80 time=47
note_on channel=3 note=78 velocity=88 time=25
note_off channel=3 note=78 velocity=88 time=51
note_on channel=3 note=80 velocity=64 time=21
note_off channel=3 note=80 velocity=64 time=31
note_on channel=3 note=80 velocity=66 time=17
note_off channel=3 note=80 velocity=66 time=45
note_on channel=3 note=81 velocity=66 time=27
note_off channel=3 note=81 velocity=66 time=31
note_on channel=3 note=81 velocity=62 time=41
note_off channel=3 note=81 velocity=62 time=209
note_on channel=3 note=80 velocity=68 time=31
note_off channel=3 note=80 velocity=68 time=54
note_on channel=3 note=81 velocity=66 time=18
note_off channel=3 note=81 velocity=66 time=29
note_on channel=3 note=81 velocity=64 time=43
note_off channel=3 note=81 velocity=64 time=94
note_on channel=3 note=83 velocity=66 time=2
note_off channel=3 note=83 velocity=66 time=95
note_on channel=3 note=81 velocity=62 time=1
note_off channel=3 note=81 velocity=62 time=18
note_on channel=3 note=80 velocity=76 time=30
note_off channel=3 note=80 velocity=76 time=56
note_on channel=3 note=81 velocity=64 time=16
note_off channel=3 note=81 velocity=64 time=28
note_on channel=3 note=81 velocity=64 time=44
note_off channel=3 note=81 velocity=64 time=504
note_on channel=3 note=81 velocity=66 time=24
note_off channel=3 note=81 velocity=66 time=24
note_on channel=3 note=80 velocity=80 time=0
note_off channel=3 note=80 velocity=80 time=22
note_on channel=3 note=76 velocity=64 time=2
note_off channel=3 note=76 velocity=64 time=20
note_on channel=3 note=80 velocity=80 time=28
note_off channel=3 note=80 velocity=80 time=46
note_on channel=3 note=81 velocity=60 time=26
note_off channel=3 note=81 velocity=60 time=37
note_on channel=3 note=81 velocity=66 time=35
note_off channel=3 note=81 velocity=66 time=210
note_on channel=3 note=80 velocity=72 time=30
note_off channel=3 note=80 velocity=72 time=54
note_on channel=3 note=81 velocity=62 time=18
note_off channel=3 note=81 velocity=62 time=34
note_on channel=3 note=81 velocity=66 time=38
note_on channel=3 note=83 velocity=64 time=96
note_off channel=3 note=81 velocity=66 time=5
note_off channel=3 note=83 velocity=64 time=83
note_on channel=3 note=81 velocity=46 time=8
note_off channel=3 note=81 velocity=46 time=21
note_on channel=3 note=83 velocity=66 time=27
note_off channel=3 note=83 velocity=66 time=53
note_on channel=3 note=85 velocity=80 time=19
note_off channel=3 note=85 velocity=80 time=26
note_on channel=3 note=85 velocity=64 time=46
note_off channel=3 note=85 velocity=64 time=210
note_on channel=3 note=83 velocity=68 time=6
note_off channel=3 note=83 velocity=68 time=14
note_on channel=3 note=83 velocity=68 time=10
note_off channel=3 note=83 velocity=68 time=54
note_on channel=3 note=81 velocity=64 time=18
note_off channel=3 note=81 velocity=64 time=33
note_on channel=3 note=76 velocity=66 time=39
note_off channel=3 note=76 velocity=66 time=214
note_on channel=3 note=80 velocity=76 time=26
note_off channel=3 note=80 velocity=76 time=206
note_on channel=3 note=78 velocity=68 time=10
note_off channel=3 note=78 velocity=68 time=17
note_on channel=3 note=80 velocity=72 time=7
note_off channel=3 note=80 velocity=72 time=17
note_on channel=3 note=78 velocity=68 time=7
note_off channel=3 note=78 velocity=68 time=17
note_on channel=3 note=80 velocity=72 time=7
note_off channel=3 note=80 velocity=72 time=23
note_on channel=3 note=81 velocity=66 time=1
note_off channel=3 note=81 velocity=66 time=67
note_on channel=3 note=80 velocity=62 time=5
note_off channel=3 note=80 velocity=62 time=206
note_on channel=3 note=81 velocity=66 time=10
note_off channel=3 note=81 velocity=66 time=18
note_on channel=3 note=83 velocity=66 time=6
note_off channel=3 note=83 velocity=66 time=20
note_on channel=3 note=81 velocity=56 time=4
note_off channel=3 note=81 velocity=56 time=18
note_on channel=3 note=83 velocity=66 time=6
note_off channel=3 note=83 velocity=66 time=19
note_on channel=3 note=85 velocity=66 time=5
note_off channel=3 note=85 velocity=66 time=69
note_on channel=3 note=81 velocity=66 time=3
note_off channel=3 note=81 velocity=66 time=51
note_on channel=3 note=83 velocity=62 time=21
note_off channel=3 note=83 velocity=62 time=57
note_on channel=3 note=80 velocity=76 time=15
note_off channel=3 note=80 velocity=76 time=39
note_on channel=3 note=81 velocity=66 time=9
note_off channel=3 note=81 velocity=66 time=52
note_on channel=3 note=83 velocity=68 time=20
note_off channel=3 note=83 velocity=68 time=67
note_on channel=3 note=80 velocity=64 time=5
note_off channel=3 note=80 velocity=64 time=44
note_on channel=3 note=81 velocity=66 time=4
note_off channel=3 note=81 velocity=66 time=57
note_on channel=3 note=83 velocity=68 time=15
note_off channel=3 note=83 velocity=68 time=55
note_on channel=3 note=85 velocity=80 time=17
note_off channel=3 note=85 velocity=80 time=47
note_on channel=3 note=87 velocity=64 time=1
note_off channel=3 note=87 velocity=64 time=66
note_on channel=3 note=88 velocity=68 time=6
note_off channel=3 note=88 velocity=68 time=62
note_on channel=3 note=90 velocity=80 time=10
note_off channel=3 note=90 velocity=80 time=47
note_on channel=3 note=88 velocity=56 time=1
note_off channel=3 note=88 velocity=56 time=759
note_on channel=3 note=71 velocity=68 time=4401
note_on channel=3 note=59 velocity=68 time=0
note_off channel=3 note=71 velocity=68 time=12
note_off channel=3 note=59 velocity=68 time=3
note_on channel=3 note=73 velocity=60 time=33
note_on channel=3 note=61 velocity=64 time=0
note_off channel=3 note=73 velocity=60 time=13
note_off channel=3 note=61 velocity=64 time=5
note_on channel=3 note=74 velocity=64 time=30
note_on channel=3 note=62 velocity=68 time=0
note_off channel=3 note=74 velocity=64 time=13
note_off channel=3 note=62 velocity=68 time=1
note_on channel=3 note=76 velocity=84 time=34
note_on channel=3 note=64 velocity=68 time=0
note_off channel=3 note=64 velocity=68 time=10
note_off channel=3 note=76 velocity=84 time=0
note_on channel=3 note=76 velocity=44 time=14
note_on channel=3 note=64 velocity=68 time=0
note_off channel=3 note=76 velocity=44 time=6
note_off channel=3 note=64 velocity=68 time=8
note_on channel=3 note=76 velocity=46 time=10
note_on channel=3 note=64 velocity=54 time=0
note_off channel=3 note=64 velocity=54 time=20
note_off channel=3 note=76 velocity=46 time=0
note_on channel=3 note=80 velocity=88 time=4
note_on channel=3 note=68 velocity=88 time=0
note_off channel=3 note=68 velocity=88 time=21
note_off channel=3 note=80 velocity=88 time=2
note_on channel=3 note=81 velocity=68 time=1
note_on channel=3 note=69 velocity=80 time=0
note_off channel=3 note=69 velocity=80 time=10
note_off channel=3 note=81 velocity=68 time=3
note_on channel=3 note=81 velocity=68 time=11
note_on channel=3 note=69 velocity=56 time=0
note_off channel=3 note=81 velocity=68 time=11
note_off channel=3 note=69 velocity=56 time=1
note_on channel=3 note=81 velocity=62 time=12
note_off channel=3 note=81 velocity=62 time=9
note_on channel=3 note=81 velocity=66 time=15
note_on channel=3 note=69 velocity=54 time=0
note_off channel=3 note=81 velocity=66 time=57
note_off channel=3 note=69 velocity=54 time=3
control_change channel=3 control=101 value=0 time=1380
control_change channel=3 control=100 value=0 time=0
control_change channel=3 control=6 value=12 time=0
control_change channel=3 control=10 value=64 time=0
control_change channel=3 control=7 value=70 time=0
pitchwheel channel=3 pitch=0 time=0
program_change channel=3 program=0 time=0
control_change channel=3 control=101 value=0 time=1
control_change channel=3 control=100 value=0 time=0
control_change channel=3 control=6 value=12 time=0
control_change channel=3 control=10 value=64 time=0
control_change channel=3 control=7 value=70 time=0
pitchwheel channel=3 pitch=0 time=0
program_change channel=3 program=0 time=0
MetaMessage('end_of_track', time=0)
Track 6:
MetaMessage('track_name', name='Channel #6', time=0)
control_change channel=4 control=10 value=64 time=0
control_change channel=4 control=7 value=100 time=0
pitchwheel channel=4 pitch=0 time=0
control_change channel=4 control=101 value=0 time=0
control_change channel=4 control=100 value=0 time=0
control_change channel=4 control=6 value=12 time=0
control_change channel=4 control=10 value=64 time=0
control_change channel=4 control=7 value=100 time=0
pitchwheel channel=4 pitch=0 time=0
program_change channel=4 program=0 time=0
control_change channel=4 control=101 value=0 time=0
control_change channel=4 control=100 value=0 time=0
control_change channel=4 control=6 value=12 time=0
control_change channel=4 control=10 value=64 time=0
control_change channel=4 control=7 value=100 time=0
pitchwheel channel=4 pitch=0 time=0
program_change channel=4 program=0 time=0
control_change channel=4 control=101 value=0 time=0
control_change channel=4 control=100 value=0 time=0
control_change channel=4 control=6 value=12 time=0
control_change channel=4 control=10 value=64 time=0
control_change channel=4 control=7 value=100 time=0
pitchwheel channel=4 pitch=-20 time=0
program_change channel=4 program=0 time=0
control_change channel=4 control=7 value=100 time=124
control_change channel=4 control=10 value=64 time=0
note_on channel=4 note=61 velocity=76 time=1028
note_off channel=4 note=61 velocity=76 time=280
note_on channel=4 note=59 velocity=70 time=8
note_off channel=4 note=59 velocity=70 time=94
note_on channel=4 note=62 velocity=72 time=2
note_off channel=4 note=62 velocity=72 time=263
note_on channel=4 note=61 velocity=72 time=25
note_off channel=4 note=61 velocity=72 time=20
note_on channel=4 note=59 velocity=76 time=4
note_off channel=4 note=59 velocity=76 time=17
note_on channel=4 note=57 velocity=66 time=31
note_off channel=4 note=57 velocity=66 time=18
note_on channel=4 note=59 velocity=76 time=6
note_off channel=4 note=59 velocity=76 time=66
note_on channel=4 note=61 velocity=62 time=6
note_off channel=4 note=61 velocity=62 time=50
note_on channel=4 note=61 velocity=60 time=22
note_off channel=4 note=61 velocity=60 time=571
note_on channel=4 note=61 velocity=66 time=53
note_off channel=4 note=61 velocity=66 time=285
note_on channel=4 note=59 velocity=72 time=3
note_off channel=4 note=59 velocity=72 time=88
note_on channel=4 note=62 velocity=74 time=8
note_off channel=4 note=62 velocity=74 time=282
note_on channel=4 note=61 velocity=72 time=6
note_off channel=4 note=61 velocity=72 time=22
note_on channel=4 note=59 velocity=68 time=2
note_off channel=4 note=59 velocity=68 time=16
note_on channel=4 note=57 velocity=52 time=32
note_off channel=4 note=57 velocity=52 time=18
note_on channel=4 note=59 velocity=76 time=6
note_off channel=4 note=59 velocity=76 time=67
note_on channel=4 note=61 velocity=60 time=5
note_off channel=4 note=61 velocity=60 time=48
note_on channel=4 note=61 velocity=64 time=24
note_off channel=4 note=61 velocity=64 time=232
note_on channel=4 note=57 velocity=64 time=8
note_off channel=4 note=57 velocity=64 time=341
note_on channel=4 note=64 velocity=78 time=43
note_off channel=4 note=64 velocity=78 time=72
note_on channel=4 note=64 velocity=82 time=24
note_off channel=4 note=64 velocity=82 time=30
note_on channel=4 note=64 velocity=78 time=18
note_off channel=4 note=64 velocity=78 time=199
note_on channel=4 note=65 velocity=86 time=41
note_off channel=4 note=65 velocity=86 time=64
note_on channel=4 note=65 velocity=70 time=32
note_off channel=4 note=65 velocity=70 time=45
note_on channel=4 note=65 velocity=74 time=3
note_off channel=4 note=65 velocity=74 time=226
note_on channel=4 note=69 velocity=82 time=14
note_off channel=4 note=69 velocity=82 time=68
note_on channel=4 note=71 velocity=78 time=4
note_off channel=4 note=71 velocity=78 time=60
note_on channel=4 note=68 velocity=82 time=12
note_off channel=4 note=68 velocity=82 time=40
note_on channel=4 note=69 velocity=90 time=8
note_off channel=4 note=69 velocity=90 time=66
note_on channel=4 note=71 velocity=76 time=6
note_off channel=4 note=71 velocity=76 time=68
note_on channel=4 note=68 velocity=66 time=4
note_off channel=4 note=68 velocity=66 time=44
note_on channel=4 note=69 velocity=74 time=4
note_off channel=4 note=69 velocity=74 time=22
note_on channel=4 note=68 velocity=82 time=2
note_off channel=4 note=68 velocity=82 time=22
note_on channel=4 note=66 velocity=70 time=2
note_off channel=4 note=66 velocity=70 time=135
note_on channel=4 note=73 velocity=90 time=9
note_off channel=4 note=73 velocity=90 time=43
note_on channel=4 note=71 velocity=66 time=5
note_off channel=4 note=71 velocity=66 time=21
note_on channel=4 note=73 velocity=72 time=3
note_off channel=4 note=73 velocity=72 time=23
note_on channel=4 note=71 velocity=64 time=1
note_off channel=4 note=71 velocity=64 time=21
note_on channel=4 note=69 velocity=86 time=3
note_off channel=4 note=69 velocity=86 time=47
note_on channel=4 note=64 velocity=82 time=25
note_off channel=4 note=64 velocity=82 time=59
note_on channel=4 note=64 velocity=102 time=13
note_off channel=4 note=64 velocity=102 time=33
note_on channel=4 note=64 velocity=90 time=39
note_off channel=4 note=64 velocity=90 time=201
note_on channel=4 note=64 velocity=90 time=39
note_off channel=4 note=64 velocity=90 time=54
note_on channel=4 note=64 velocity=82 time=18
note_off channel=4 note=64 velocity=82 time=41
note_on channel=4 note=64 velocity=82 time=31
note_off channel=4 note=64 velocity=82 time=115
note_on channel=4 note=64 velocity=82 time=29
note_off channel=4 note=64 velocity=82 time=21
note_on channel=4 note=62 velocity=82 time=3
note_off channel=4 note=62 velocity=82 time=19
note_on channel=4 note=62 velocity=94 time=29
note_off channel=4 note=62 velocity=94 time=11
note_on channel=4 note=62 velocity=94 time=13
note_off channel=4 note=62 velocity=94 time=67
note_on channel=4 note=61 velocity=86 time=5
note_off channel=4 note=61 velocity=86 time=27
note_on channel=4 note=61 velocity=86 time=45
note_off channel=4 note=61 velocity=86 time=231
note_on channel=4 note=62 velocity=66 time=9
note_off channel=4 note=62 velocity=66 time=328
pitchwheel channel=4 pitch=-102 time=5019
pitchwheel channel=4 pitch=-273 time=1
pitchwheel channel=4 pitch=-573 time=4
pitchwheel channel=4 pitch=-935 time=3
pitchwheel channel=4 pitch=-1167 time=4
pitchwheel channel=4 pitch=-1365 time=3
note_on channel=4 note=66 velocity=64 time=14
pitchwheel channel=4 pitch=-1297 time=2
pitchwheel channel=4 pitch=-1256 time=3
pitchwheel channel=4 pitch=-1235 time=3
pitchwheel channel=4 pitch=-1215 time=3
pitchwheel channel=4 pitch=-1167 time=3
pitchwheel channel=4 pitch=-1105 time=4
pitchwheel channel=4 pitch=-1044 time=7
pitchwheel channel=4 pitch=-996 time=5
pitchwheel channel=4 pitch=-955 time=8
pitchwheel channel=4 pitch=-914 time=4
pitchwheel channel=4 pitch=-873 time=4
pitchwheel channel=4 pitch=-805 time=3
pitchwheel channel=4 pitch=-764 time=4
pitchwheel channel=4 pitch=-682 time=3
pitchwheel channel=4 pitch=-634 time=5
pitchwheel channel=4 pitch=-573 time=3
pitchwheel channel=4 pitch=-532 time=3
pitchwheel channel=4 pitch=-443 time=3
pitchwheel channel=4 pitch=-402 time=7
pitchwheel channel=4 pitch=-361 time=2
pitchwheel channel=4 pitch=-293 time=3
pitchwheel channel=4 pitch=-252 time=4
pitchwheel channel=4 pitch=-211 time=4
pitchwheel channel=4 pitch=-170 time=3
pitchwheel channel=4 pitch=-122 time=3
pitchwheel channel=4 pitch=-81 time=3
pitchwheel channel=4 pitch=-40 time=3
pitchwheel channel=4 pitch=0 time=4
note_off channel=4 note=66 velocity=64 time=232
note_on channel=4 note=62 velocity=90 time=2158
note_off channel=4 note=62 velocity=90 time=43
note_on channel=4 note=62 velocity=90 time=29
note_off channel=4 note=62 velocity=90 time=34
note_on channel=4 note=62 velocity=76 time=38
note_off channel=4 note=62 velocity=76 time=24
note_on channel=4 note=62 velocity=90 time=24
note_off channel=4 note=62 velocity=90 time=44
note_on channel=4 note=61 velocity=90 time=28
note_off channel=4 note=61 velocity=90 time=27
note_on channel=4 note=61 velocity=72 time=45
note_off channel=4 note=61 velocity=72 time=203
note_on channel=4 note=62 velocity=78 time=37
note_off channel=4 note=62 velocity=78 time=52
note_on channel=4 note=62 velocity=94 time=20
note_off channel=4 note=62 velocity=94 time=22
note_on channel=4 note=62 velocity=90 time=50
note_off channel=4 note=62 velocity=90 time=87
note_on channel=4 note=62 velocity=90 time=9
note_off channel=4 note=62 velocity=90 time=71
note_on channel=4 note=62 velocity=82 time=25
note_off channel=4 note=62 velocity=82 time=17
note_on channel=4 note=62 velocity=82 time=31
note_off channel=4 note=62 velocity=82 time=44
note_on channel=4 note=61 velocity=72 time=28
note_off channel=4 note=61 velocity=72 time=33
note_on channel=4 note=61 velocity=74 time=39
note_off channel=4 note=61 velocity=74 time=233
note_on channel=4 note=62 velocity=74 time=7
note_off channel=4 note=62 velocity=74 time=350
note_on channel=4 note=62 velocity=82 time=34
note_off channel=4 note=62 velocity=82 time=55
note_on channel=4 note=61 velocity=68 time=17
note_off channel=4 note=61 velocity=68 time=28
note_on channel=4 note=61 velocity=76 time=44
note_off channel=4 note=61 velocity=76 time=202
note_on channel=4 note=62 velocity=90 time=38
note_off channel=4 note=62 velocity=90 time=56
note_on channel=4 note=62 velocity=72 time=16
note_off channel=4 note=62 velocity=72 time=44
note_on channel=4 note=62 velocity=78 time=28
note_off channel=4 note=62 velocity=78 time=80
note_on channel=4 note=62 velocity=76 time=16
note_off channel=4 note=62 velocity=76 time=85
note_on channel=4 note=59 velocity=66 time=11
note_off channel=4 note=59 velocity=66 time=44
note_on channel=4 note=68 velocity=78 time=4
note_on channel=4 note=64 velocity=82 time=0
note_off channel=4 note=64 velocity=82 time=55
note_off channel=4 note=68 velocity=78 time=4
note_on channel=4 note=69 velocity=82 time=13
note_on channel=4 note=64 velocity=78 time=0
note_off channel=4 note=69 velocity=82 time=40
note_off channel=4 note=64 velocity=78 time=0
note_on channel=4 note=69 velocity=78 time=32
note_on channel=4 note=64 velocity=76 time=0
note_off channel=4 note=64 velocity=76 time=121
note_off channel=4 note=69 velocity=78 time=22
note_on channel=4 note=64 velocity=86 time=1
note_off channel=4 note=64 velocity=86 time=476
note_on channel=4 note=68 velocity=86 time=4
note_off channel=4 note=68 velocity=86 time=79
note_on channel=4 note=68 velocity=74 time=17
note_off channel=4 note=68 velocity=74 time=23
note_on channel=4 note=68 velocity=82 time=25
note_off channel=4 note=68 velocity=82 time=199
note_on channel=4 note=68 velocity=90 time=41
note_off channel=4 note=68 velocity=90 time=68
note_on channel=4 note=68 velocity=70 time=28
note_off channel=4 note=68 velocity=70 time=21
note_on channel=4 note=68 velocity=98 time=27
note_on channel=4 note=69 velocity=82 time=96
note_off channel=4 note=68 velocity=98 time=4
note_off channel=4 note=69 velocity=82 time=117
note_on channel=4 note=69 velocity=76 time=23
note_off channel=4 note=69 velocity=76 time=71
note_on channel=4 note=71 velocity=86 time=1
note_off channel=4 note=71 velocity=86 time=70
note_on channel=4 note=68 velocity=74 time=2
note_off channel=4 note=68 velocity=74 time=47
note_on channel=4 note=69 velocity=82 time=1
note_off channel=4 note=69 velocity=82 time=63
note_on channel=4 note=71 velocity=82 time=9
note_off channel=4 note=71 velocity=82 time=66
note_on channel=4 note=68 velocity=72 time=6
note_off channel=4 note=68 velocity=72 time=40
note_on channel=4 note=69 velocity=72 time=8
note_off channel=4 note=69 velocity=72 time=23
note_on channel=4 note=68 velocity=86 time=1
note_off channel=4 note=68 velocity=86 time=22
note_on channel=4 note=66 velocity=72 time=2
note_off channel=4 note=66 velocity=72 time=127
note_on channel=4 note=73 velocity=90 time=17
note_off channel=4 note=73 velocity=90 time=42
note_on channel=4 note=71 velocity=68 time=6
note_off channel=4 note=71 velocity=68 time=24
note_on channel=4 note=73 velocity=86 time=0
note_on channel=4 note=71 velocity=68 time=24
note_off channel=4 note=73 velocity=86 time=2
note_off channel=4 note=71 velocity=68 time=16
note_on channel=4 note=69 velocity=72 time=6
note_off channel=4 note=69 velocity=72 time=70
note_on channel=4 note=64 velocity=78 time=2
note_off channel=4 note=64 velocity=78 time=57
note_on channel=4 note=64 velocity=74 time=15
note_off channel=4 note=64 velocity=74 time=19
note_on channel=4 note=64 velocity=64 time=53
note_off channel=4 note=64 velocity=64 time=202
note_on channel=4 note=64 velocity=78 time=38
note_off channel=4 note=64 velocity=78 time=52
note_on channel=4 note=64 velocity=76 time=20
note_off channel=4 note=64 velocity=76 time=18
note_on channel=4 note=64 velocity=76 time=54
note_off channel=4 note=64 velocity=76 time=122
note_on channel=4 note=64 velocity=76 time=22
note_off channel=4 note=64 velocity=76 time=21
note_on channel=4 note=62 velocity=86 time=3
note_off channel=4 note=62 velocity=86 time=21
note_on channel=4 note=62 velocity=62 time=27
note_off channel=4 note=62 velocity=62 time=9
note_on channel=4 note=62 velocity=76 time=15
note_off channel=4 note=62 velocity=76 time=65
note_on channel=4 note=61 velocity=72 time=7
note_off channel=4 note=61 velocity=72 time=31
note_on channel=4 note=61 velocity=72 time=41
note_off channel=4 note=61 velocity=72 time=230
note_on channel=4 note=62 velocity=62 time=10
note_off channel=4 note=62 velocity=62 time=374
pitchwheel channel=4 pitch=-232 time=2690
pitchwheel channel=4 pitch=-443 time=4
pitchwheel channel=4 pitch=-655 time=3
note_on channel=4 note=66 velocity=76 time=1
pitchwheel channel=4 pitch=-723 time=2
pitchwheel channel=4 pitch=-682 time=4
pitchwheel channel=4 pitch=-573 time=4
pitchwheel channel=4 pitch=-464 time=4
pitchwheel channel=4 pitch=-341 time=3
pitchwheel channel=4 pitch=-252 time=4
pitchwheel channel=4 pitch=-191 time=5
pitchwheel channel=4 pitch=-143 time=6
pitchwheel channel=4 pitch=-61 time=6
pitchwheel channel=4 pitch=-20 time=5
note_off channel=4 note=66 velocity=76 time=291
note_on channel=4 note=62 velocity=74 time=2162
note_off channel=4 note=62 velocity=74 time=48
note_on channel=4 note=62 velocity=82 time=24
note_off channel=4 note=62 velocity=82 time=38
note_on channel=4 note=62 velocity=78 time=34
note_off channel=4 note=62 velocity=78 time=15
note_on channel=4 note=62 velocity=78 time=33
note_off channel=4 note=62 velocity=78 time=50
note_on channel=4 note=61 velocity=86 time=22
note_off channel=4 note=61 velocity=86 time=25
note_on channel=4 note=61 velocity=74 time=47
note_off channel=4 note=61 velocity=74 time=193
note_on channel=4 note=62 velocity=78 time=47
note_off channel=4 note=62 velocity=78 time=45
note_on channel=4 note=62 velocity=78 time=27
note_off channel=4 note=62 velocity=78 time=18
note_on channel=4 note=62 velocity=74 time=54
note_off channel=4 note=62 velocity=74 time=83
note_on channel=4 note=62 velocity=64 time=13
note_off channel=4 note=62 velocity=64 time=71
note_on channel=4 note=62 velocity=66 time=25
note_off channel=4 note=62 velocity=66 time=17
note_on channel=4 note=62 velocity=74 time=31
note_off channel=4 note=62 velocity=74 time=48
note_on channel=4 note=61 velocity=70 time=24
note_off channel=4 note=61 velocity=70 time=26
note_on channel=4 note=61 velocity=68 time=46
note_off channel=4 note=61 velocity=68 time=234
note_on channel=4 note=62 velocity=64 time=6
note_off channel=4 note=62 velocity=64 time=349
note_on channel=4 note=62 velocity=74 time=35
note_off channel=4 note=62 velocity=74 time=50
note_on channel=4 note=61 velocity=74 time=22
note_off channel=4 note=61 velocity=74 time=28
note_on channel=4 note=61 velocity=76 time=44
note_off channel=4 note=61 velocity=76 time=206
note_on channel=4 note=62 velocity=74 time=34
note_off channel=4 note=62 velocity=74 time=55
note_on channel=4 note=62 velocity=74 time=17
note_off channel=4 note=62 velocity=74 time=30
note_on channel=4 note=62 velocity=74 time=42
note_off channel=4 note=62 velocity=74 time=80
note_on channel=4 note=62 velocity=78 time=16
note_off channel=4 note=62 velocity=78 time=83
note_on channel=4 note=59 velocity=72 time=13
note_off channel=4 note=59 velocity=72 time=44
note_on channel=4 note=68 velocity=68 time=4
note_on channel=4 note=64 velocity=78 time=0
note_off channel=4 note=64 velocity=78 time=59
note_off channel=4 note=68 velocity=68 time=2
note_on channel=4 note=69 velocity=76 time=11
note_on channel=4 note=64 velocity=82 time=0
note_off channel=4 note=69 velocity=76 time=29
note_off channel=4 note=64 velocity=82 time=5
note_on channel=4 note=69 velocity=76 time=38
note_on channel=4 note=64 velocity=76 time=0
note_off channel=4 note=64 velocity=76 time=130
note_off channel=4 note=69 velocity=76 time=7
note_on channel=4 note=68 velocity=90 time=7
note_on channel=4 note=64 velocity=78 time=0
note_off channel=4 note=64 velocity=78 time=87
note_off channel=4 note=68 velocity=90 time=5
note_on channel=4 note=68 velocity=72 time=386
note_off channel=4 note=68 velocity=72 time=67
note_on channel=4 note=68 velocity=82 time=31
note_off channel=4 note=68 velocity=82 time=15
note_on channel=4 note=68 velocity=90 time=33
note_off channel=4 note=68 velocity=90 time=197
note_on channel=4 note=68 velocity=82 time=43
note_off channel=4 note=68 velocity=82 time=64
note_on channel=4 note=68 velocity=74 time=32
note_off channel=4 note=68 velocity=74 time=20
note_on channel=4 note=68 velocity=94 time=28
note_off channel=4 note=68 velocity=94 time=94
note_on channel=4 note=69 velocity=72 time=2
note_off channel=4 note=69 velocity=72 time=110
note_on channel=4 note=69 velocity=76 time=34
note_off channel=4 note=69 velocity=76 time=68
note_on channel=4 note=71 velocity=72 time=4
note_off channel=4 note=71 velocity=72 time=62
note_on channel=4 note=68 velocity=78 time=10
note_off channel=4 note=68 velocity=78 time=47
note_on channel=4 note=69 velocity=76 time=1
note_off channel=4 note=69 velocity=76 time=69
note_on channel=4 note=71 velocity=76 time=3
note_off channel=4 note=71 velocity=76 time=71
note_on channel=4 note=68 velocity=64 time=1
note_off channel=4 note=68 velocity=64 time=44
note_on channel=4 note=69 velocity=72 time=4
note_off channel=4 note=69 velocity=72 time=23
note_on channel=4 note=68 velocity=66 time=1
note_off channel=4 note=68 velocity=66 time=23
note_on channel=4 note=66 velocity=56 time=1
note_off channel=4 note=66 velocity=56 time=139
note_on channel=4 note=73 velocity=78 time=5
note_off channel=4 note=73 velocity=78 time=44
note_on channel=4 note=71 velocity=68 time=4
note_off channel=4 note=71 velocity=68 time=24
note_on channel=4 note=73 velocity=74 time=0
note_off channel=4 note=73 velocity=74 time=23
note_on channel=4 note=71 velocity=66 time=1
note_off channel=4 note=71 velocity=66 time=19
note_on channel=4 note=69 velocity=74 time=5
note_off channel=4 note=69 velocity=74 time=44
note_on channel=4 note=64 velocity=76 time=28
note_off channel=4 note=64 velocity=76 time=61
note_on channel=4 note=64 velocity=78 time=11
note_off channel=4 note=64 velocity=78 time=21
note_on channel=4 note=64 velocity=76 time=51
note_off channel=4 note=64 velocity=76 time=210
note_on channel=4 note=64 velocity=78 time=30
note_off channel=4 note=64 velocity=78 time=61
note_on channel=4 note=64 velocity=86 time=11
note_off channel=4 note=64 velocity=86 time=16
note_on channel=4 note=64 velocity=82 time=56
note_off channel=4 note=64 velocity=82 time=120
note_on channel=4 note=64 velocity=78 time=24
note_off channel=4 note=64 velocity=78 time=23
note_on channel=4 note=62 velocity=74 time=1
note_off channel=4 note=62 velocity=74 time=19
note_on channel=4 note=62 velocity=78 time=29
note_off channel=4 note=62 velocity=78 time=10
note_on channel=4 note=62 velocity=70 time=14
note_off channel=4 note=62 velocity=70 time=58
note_on channel=4 note=61 velocity=90 time=14
note_off channel=4 note=61 velocity=90 time=25
note_on channel=4 note=61 velocity=76 time=47
note_off channel=4 note=61 velocity=76 time=232
note_on channel=4 note=62 velocity=66 time=8
note_off channel=4 note=62 velocity=66 time=374
note_on channel=4 note=61 velocity=50 time=10
note_off channel=4 note=61 velocity=50 time=70
note_on channel=4 note=62 velocity=78 time=602
note_off channel=4 note=62 velocity=78 time=20
note_on channel=4 note=62 velocity=76 time=4
note_off channel=4 note=62 velocity=76 time=23
note_on channel=4 note=62 velocity=72 time=25
note_off channel=4 note=62 velocity=72 time=10
note_on channel=4 note=62 velocity=76 time=14
note_off channel=4 note=62 velocity=76 time=48
note_on channel=4 note=61 velocity=86 time=24
note_off channel=4 note=61 velocity=86 time=35
note_on channel=4 note=61 velocity=74 time=37
note_off channel=4 note=61 velocity=74 time=235
note_on channel=4 note=62 velocity=72 time=5
note_off channel=4 note=62 velocity=72 time=380
note_on channel=4 note=61 velocity=64 time=4
note_off channel=4 note=61 velocity=64 time=379
note_on channel=4 note=62 velocity=66 time=5
note_off channel=4 note=62 velocity=66 time=322
control_change channel=4 control=101 value=0 time=3134
control_change channel=4 control=100 value=0 time=0
control_change channel=4 control=6 value=12 time=0
control_change channel=4 control=10 value=64 time=0
control_change channel=4 control=7 value=100 time=0
pitchwheel channel=4 pitch=-20 time=0
program_change channel=4 program=0 time=0
control_change channel=4 control=101 value=0 time=1
control_change channel=4 control=100 value=0 time=0
control_change channel=4 control=6 value=12 time=0
control_change channel=4 control=10 value=64 time=0
control_change channel=4 control=7 value=100 time=0
pitchwheel channel=4 pitch=-20 time=0
program_change channel=4 program=0 time=0
MetaMessage('end_of_track', time=0)
Track 7:
MetaMessage('track_name', name='Channel #7', time=0)
control_change channel=5 control=10 value=64 time=0
control_change channel=5 control=7 value=100 time=0
pitchwheel channel=5 pitch=0 time=0
control_change channel=5 control=101 value=0 time=0
control_change channel=5 control=100 value=0 time=0
control_change channel=5 control=6 value=12 time=0
control_change channel=5 control=10 value=64 time=0
control_change channel=5 control=7 value=100 time=0
pitchwheel channel=5 pitch=0 time=0
program_change channel=5 program=0 time=0
control_change channel=5 control=101 value=0 time=0
control_change channel=5 control=100 value=0 time=0
control_change channel=5 control=6 value=12 time=0
control_change channel=5 control=10 value=64 time=0
control_change channel=5 control=7 value=100 time=0
pitchwheel channel=5 pitch=0 time=0
program_change channel=5 program=0 time=0
control_change channel=5 control=101 value=0 time=0
control_change channel=5 control=100 value=0 time=0
control_change channel=5 control=6 value=12 time=0
control_change channel=5 control=10 value=64 time=0
control_change channel=5 control=7 value=100 time=0
pitchwheel channel=5 pitch=0 time=0
program_change channel=5 program=0 time=0
control_change channel=5 control=7 value=100 time=129
control_change channel=5 control=10 value=64 time=0
note_on channel=5 note=73 velocity=86 time=1023
note_on channel=5 note=71 velocity=64 time=288
note_off channel=5 note=73 velocity=86 time=2
note_off channel=5 note=71 velocity=64 time=88
note_on channel=5 note=74 velocity=70 time=6
note_off channel=5 note=74 velocity=70 time=266
note_on channel=5 note=73 velocity=88 time=22
note_off channel=5 note=73 velocity=88 time=19
note_on channel=5 note=71 velocity=86 time=5
note_off channel=5 note=71 velocity=86 time=15
note_on channel=5 note=69 velocity=72 time=33
note_off channel=5 note=69 velocity=72 time=17
note_on channel=5 note=71 velocity=80 time=7
note_off channel=5 note=71 velocity=80 time=66
note_on channel=5 note=73 velocity=76 time=6
note_off channel=5 note=73 velocity=76 time=52
note_on channel=5 note=73 velocity=72 time=20
note_off channel=5 note=73 velocity=72 time=528
note_on channel=5 note=73 velocity=82 time=96
note_off channel=5 note=73 velocity=82 time=283
note_on channel=5 note=71 velocity=86 time=5
note_off channel=5 note=71 velocity=86 time=93
note_on channel=5 note=74 velocity=82 time=3
note_off channel=5 note=74 velocity=82 time=257
note_on channel=5 note=73 velocity=96 time=31
note_off channel=5 note=73 velocity=96 time=19
note_on channel=5 note=71 velocity=84 time=5
note_off channel=5 note=71 velocity=84 time=15
note_on channel=5 note=69 velocity=64 time=33
note_off channel=5 note=69 velocity=64 time=11
note_on channel=5 note=71 velocity=82 time=13
note_off channel=5 note=71 velocity=82 time=69
note_on channel=5 note=73 velocity=82 time=3
note_off channel=5 note=73 velocity=82 time=49
note_on channel=5 note=73 velocity=84 time=23
note_on channel=5 note=71 velocity=82 time=144
note_off channel=5 note=73 velocity=84 time=4
note_off channel=5 note=71 velocity=82 time=91
note_on channel=5 note=69 velocity=86 time=1
note_off channel=5 note=69 velocity=86 time=374
note_on channel=5 note=68 velocity=74 time=10
note_on channel=5 note=64 velocity=76 time=0
note_off channel=5 note=64 velocity=76 time=375
note_on channel=5 note=71 velocity=53 time=9
note_on channel=5 note=61 velocity=59 time=0
note_off channel=5 note=71 velocity=53 time=378
note_off channel=5 note=61 velocity=59 time=4
note_on channel=5 note=69 velocity=84 time=2
note_off channel=5 note=69 velocity=84 time=69
note_off channel=5 note=68 velocity=74 time=1
note_on channel=5 note=71 velocity=80 time=2
note_off channel=5 note=71 velocity=80 time=67
note_on channel=5 note=68 velocity=70 time=5
note_on channel=5 note=69 velocity=88 time=48
note_off channel=5 note=68 velocity=70 time=6
note_off channel=5 note=69 velocity=88 time=58
note_on channel=5 note=71 velocity=84 time=8
note_off channel=5 note=71 velocity=84 time=67
note_on channel=5 note=68 velocity=72 time=5
note_off channel=5 note=68 velocity=72 time=47
note_on channel=5 note=69 velocity=70 time=1
note_off channel=5 note=69 velocity=70 time=22
note_on channel=5 note=68 velocity=74 time=2
note_off channel=5 note=68 velocity=74 time=23
note_on channel=5 note=66 velocity=78 time=1
note_off channel=5 note=66 velocity=78 time=139
note_on channel=5 note=73 velocity=74 time=5
note_off channel=5 note=73 velocity=74 time=46
note_on channel=5 note=71 velocity=78 time=2
note_off channel=5 note=71 velocity=78 time=20
note_on channel=5 note=73 velocity=74 time=4
note_off channel=5 note=73 velocity=74 time=20
note_on channel=5 note=71 velocity=76 time=4
note_on channel=5 note=69 velocity=78 time=24
note_off channel=5 note=71 velocity=76 time=2
note_off channel=5 note=69 velocity=78 time=66
note_on channel=5 note=76 velocity=66 time=4
note_on channel=5 note=64 velocity=56 time=0
note_on channel=5 note=74 velocity=72 time=1152
note_off channel=5 note=64 velocity=56 time=3
note_off channel=5 note=76 velocity=66 time=6
note_off channel=5 note=74 velocity=72 time=261
note_on channel=5 note=73 velocity=74 time=18
note_off channel=5 note=73 velocity=74 time=21
note_on channel=5 note=71 velocity=82 time=3
note_off channel=5 note=71 velocity=82 time=21
note_on channel=5 note=69 velocity=76 time=27
note_off channel=5 note=69 velocity=76 time=19
note_on channel=5 note=71 velocity=76 time=5
note_on channel=5 note=73 velocity=68 time=72
note_off channel=5 note=71 velocity=76 time=2
note_off channel=5 note=73 velocity=68 time=45
note_on channel=5 note=73 velocity=74 time=25
note_off channel=5 note=73 velocity=74 time=551
note_on channel=5 note=64 velocity=76 time=6793
note_off channel=5 note=64 velocity=76 time=60
note_on channel=5 note=66 velocity=78 time=12
note_off channel=5 note=66 velocity=78 time=69
note_on channel=5 note=68 velocity=84 time=3
note_off channel=5 note=68 velocity=84 time=28
note_on channel=5 note=68 velocity=82 time=20
note_off channel=5 note=68 velocity=82 time=67
note_on channel=5 note=69 velocity=82 time=5
note_off channel=5 note=69 velocity=82 time=45
note_on channel=5 note=69 velocity=84 time=27
note_on channel=5 note=66 velocity=66 time=240
note_off channel=5 note=66 velocity=66 time=376
note_on channel=5 note=64 velocity=74 time=8
note_on channel=5 note=66 velocity=66 time=384
note_off channel=5 note=64 velocity=74 time=2
note_off channel=5 note=66 velocity=66 time=369
note_on channel=5 note=64 velocity=62 time=13
note_off channel=5 note=69 velocity=84 time=351
note_off channel=5 note=64 velocity=62 time=15
note_on channel=5 note=69 velocity=60 time=18
note_on channel=5 note=66 velocity=62 time=0
note_off channel=5 note=66 velocity=62 time=381
note_on channel=5 note=71 velocity=86 time=3
note_off channel=5 note=69 velocity=60 time=5
note_off channel=5 note=71 velocity=86 time=65
note_on channel=5 note=73 velocity=76 time=2
note_off channel=5 note=73 velocity=76 time=37
note_on channel=5 note=73 velocity=74 time=35
note_on channel=5 note=69 velocity=70 time=48
note_off channel=5 note=69 velocity=70 time=92
note_on channel=5 note=71 velocity=76 time=4
note_on channel=5 note=68 velocity=74 time=0
note_off channel=5 note=73 velocity=74 time=6
note_off channel=5 note=68 velocity=74 time=66
note_off channel=5 note=71 velocity=76 time=20
note_on channel=5 note=69 velocity=62 time=4
note_on channel=5 note=66 velocity=74 time=0
note_off channel=5 note=66 velocity=74 time=134
note_on channel=5 note=64 velocity=58 time=10
note_off channel=5 note=64 velocity=58 time=222
note_off channel=5 note=69 velocity=62 time=12
note_on channel=5 note=68 velocity=62 time=6
note_on channel=5 note=64 velocity=59 time=0
note_off channel=5 note=64 velocity=59 time=377
note_on channel=5 note=71 velocity=64 time=7
note_off channel=5 note=71 velocity=64 time=371
note_off channel=5 note=68 velocity=62 time=9
note_on channel=5 note=69 velocity=82 time=4
note_off channel=5 note=69 velocity=82 time=65
note_on channel=5 note=71 velocity=78 time=7
note_off channel=5 note=71 velocity=78 time=67
note_on channel=5 note=68 velocity=84 time=5
note_off channel=5 note=68 velocity=84 time=45
note_on channel=5 note=69 velocity=84 time=3
note_off channel=5 note=69 velocity=84 time=66
note_on channel=5 note=71 velocity=72 time=6
note_off channel=5 note=71 velocity=72 time=66
note_on channel=5 note=68 velocity=74 time=6
note_on channel=5 note=69 velocity=84 time=48
note_off channel=5 note=68 velocity=74 time=11
note_off channel=5 note=69 velocity=84 time=32
note_on channel=5 note=71 velocity=88 time=29
note_off channel=5 note=71 velocity=88 time=70
note_on channel=5 note=73 velocity=80 time=2
note_off channel=5 note=73 velocity=80 time=46
note_on channel=5 note=75 velocity=76 time=2
note_off channel=5 note=75 velocity=76 time=66
note_on channel=5 note=76 velocity=86 time=6
note_off channel=5 note=76 velocity=86 time=57
note_on channel=5 note=78 velocity=82 time=15
note_on channel=5 note=76 velocity=80 time=48
note_off channel=5 note=78 velocity=82 time=7
note_off channel=5 note=76 velocity=80 time=758
note_on channel=5 note=68 velocity=72 time=3
note_off channel=5 note=68 velocity=72 time=66
note_on channel=5 note=69 velocity=88 time=6
note_off channel=5 note=69 velocity=88 time=42
note_on channel=5 note=69 velocity=80 time=30
note_on channel=5 note=76 velocity=74 time=144
note_off channel=5 note=69 velocity=80 time=7
note_off channel=5 note=76 velocity=74 time=84
note_on channel=5 note=74 velocity=78 time=5
note_off channel=5 note=74 velocity=78 time=272
note_on channel=5 note=73 velocity=82 time=16
note_on channel=5 note=71 velocity=82 time=24
note_off channel=5 note=73 velocity=82 time=1
note_off channel=5 note=71 velocity=82 time=23
note_on channel=5 note=69 velocity=84 time=24
note_off channel=5 note=69 velocity=84 time=20
note_on channel=5 note=71 velocity=80 time=4
note_off channel=5 note=71 velocity=80 time=68
note_on channel=5 note=73 velocity=74 time=4
note_off channel=5 note=73 velocity=74 time=48
note_on channel=5 note=73 velocity=76 time=24
note_on channel=5 note=64 velocity=49 time=624
note_on channel=5 note=57 velocity=49 time=0
note_off channel=5 note=73 velocity=76 time=3
note_off channel=5 note=64 velocity=49 time=757
note_off channel=5 note=57 velocity=49 time=3
note_on channel=5 note=57 velocity=88 time=2885
note_off channel=5 note=57 velocity=88 time=49
note_on channel=5 note=59 velocity=84 time=23
note_off channel=5 note=59 velocity=84 time=69
note_on channel=5 note=61 velocity=92 time=3
note_off channel=5 note=61 velocity=92 time=28
note_on channel=5 note=61 velocity=100 time=20
note_off channel=5 note=61 velocity=100 time=58
note_on channel=5 note=62 velocity=88 time=14
note_off channel=5 note=62 velocity=88 time=37
note_on channel=5 note=62 velocity=100 time=35
note_on channel=5 note=61 velocity=74 time=192
note_off channel=5 note=62 velocity=100 time=6
note_off channel=5 note=61 velocity=74 time=13
note_on channel=5 note=59 velocity=88 time=29
note_off channel=5 note=59 velocity=88 time=160
note_on channel=5 note=64 velocity=92 time=32
note_off channel=5 note=64 velocity=92 time=60
note_on channel=5 note=66 velocity=86 time=12
note_off channel=5 note=66 velocity=86 time=71
note_on channel=5 note=68 velocity=82 time=1
note_off channel=5 note=68 velocity=82 time=26
note_on channel=5 note=68 velocity=84 time=22
note_off channel=5 note=68 velocity=84 time=62
note_on channel=5 note=69 velocity=86 time=10
note_off channel=5 note=69 velocity=86 time=36
note_on channel=5 note=69 velocity=84 time=36
note_off channel=5 note=69 velocity=84 time=209
note_on channel=5 note=68 velocity=88 time=31
note_off channel=5 note=68 velocity=88 time=60
note_on channel=5 note=69 velocity=86 time=12
note_off channel=5 note=69 velocity=86 time=42
note_on channel=5 note=69 velocity=96 time=30
note_off channel=5 note=69 velocity=96 time=94
note_on channel=5 note=71 velocity=86 time=2
note_off channel=5 note=71 velocity=86 time=83
note_on channel=5 note=69 velocity=78 time=13
note_off channel=5 note=69 velocity=78 time=46
note_on channel=5 note=68 velocity=86 time=2
note_off channel=5 note=68 velocity=86 time=63
note_on channel=5 note=69 velocity=86 time=9
note_off channel=5 note=69 velocity=86 time=36
note_on channel=5 note=69 velocity=86 time=36
note_off channel=5 note=69 velocity=86 time=574
note_on channel=5 note=68 velocity=88 time=50
note_off channel=5 note=68 velocity=88 time=61
note_on channel=5 note=69 velocity=80 time=11
note_off channel=5 note=69 velocity=80 time=32
note_on channel=5 note=69 velocity=82 time=40
note_off channel=5 note=69 velocity=82 time=208
note_on channel=5 note=68 velocity=96 time=32
note_off channel=5 note=68 velocity=96 time=51
note_on channel=5 note=69 velocity=80 time=21
note_off channel=5 note=69 velocity=80 time=31
note_on channel=5 note=69 velocity=84 time=41
note_on channel=5 note=71 velocity=86 time=96
note_off channel=5 note=69 velocity=84 time=5
note_off channel=5 note=71 velocity=86 time=78
note_on channel=5 note=69 velocity=82 time=13
note_off channel=5 note=69 velocity=82 time=34
note_on channel=5 note=71 velocity=84 time=14
note_off channel=5 note=71 velocity=84 time=63
note_on channel=5 note=73 velocity=84 time=9
note_off channel=5 note=73 velocity=84 time=31
note_on channel=5 note=73 velocity=84 time=41
note_off channel=5 note=73 velocity=84 time=136
note_on channel=5 note=71 velocity=86 time=8
note_off channel=5 note=71 velocity=86 time=94
note_on channel=5 note=73 velocity=78 time=2
note_off channel=5 note=73 velocity=78 time=17
note_on channel=5 note=71 velocity=78 time=7
note_off channel=5 note=71 velocity=78 time=21
note_on channel=5 note=69 velocity=82 time=3
note_off channel=5 note=69 velocity=82 time=307
note_on channel=5 note=73 velocity=104 time=29
note_off channel=5 note=73 velocity=104 time=64
note_on channel=5 note=71 velocity=82 time=8
note_off channel=5 note=71 velocity=82 time=40
note_on channel=5 note=71 velocity=88 time=32
note_off channel=5 note=71 velocity=88 time=206
note_on channel=5 note=73 velocity=100 time=34
note_off channel=5 note=73 velocity=100 time=79
note_on channel=5 note=71 velocity=86 time=17
note_off channel=5 note=71 velocity=86 time=31
note_on channel=5 note=71 velocity=84 time=17
note_off channel=5 note=71 velocity=84 time=91
note_on channel=5 note=73 velocity=78 time=5
note_on channel=5 note=69 velocity=88 time=144
note_off channel=5 note=73 velocity=78 time=1
note_off channel=5 note=69 velocity=88 time=70
note_on channel=5 note=71 velocity=82 time=1
note_off channel=5 note=71 velocity=82 time=66
note_on channel=5 note=68 velocity=82 time=6
note_on channel=5 note=69 velocity=84 time=48
note_off channel=5 note=68 velocity=82 time=3
note_off channel=5 note=69 velocity=84 time=63
note_on channel=5 note=71 velocity=84 time=6
note_off channel=5 note=71 velocity=84 time=71
note_on channel=5 note=68 velocity=76 time=1
note_off channel=5 note=68 velocity=76 time=43
note_on channel=5 note=69 velocity=62 time=5
note_off channel=5 note=69 velocity=62 time=19
note_on channel=5 note=68 velocity=62 time=5
note_off channel=5 note=68 velocity=62 time=24
note_on channel=5 note=66 velocity=72 time=0
note_off channel=5 note=66 velocity=72 time=331
note_on channel=5 note=76 velocity=84 time=5
note_off channel=5 note=76 velocity=84 time=1043
note_on channel=5 note=76 velocity=92 time=13
note_off channel=5 note=76 velocity=92 time=90
note_on channel=5 note=74 velocity=82 time=6
note_off channel=5 note=74 velocity=82 time=261
note_on channel=5 note=73 velocity=108 time=27
note_off channel=5 note=73 velocity=108 time=20
note_on channel=5 note=71 velocity=86 time=4
note_off channel=5 note=71 velocity=86 time=12
note_on channel=5 note=69 velocity=76 time=36
note_off channel=5 note=69 velocity=76 time=11
note_on channel=5 note=71 velocity=76 time=13
note_off channel=5 note=71 velocity=76 time=70
note_on channel=5 note=73 velocity=80 time=2
note_off channel=5 note=73 velocity=80 time=36
note_on channel=5 note=73 velocity=84 time=36
note_off channel=5 note=73 velocity=84 time=614
note_on channel=5 note=73 velocity=88 time=10
note_off channel=5 note=73 velocity=88 time=287
note_on channel=5 note=71 velocity=86 time=1
note_off channel=5 note=71 velocity=86 time=90
note_on channel=5 note=74 velocity=82 time=6
note_off channel=5 note=74 velocity=82 time=282
note_on channel=5 note=73 velocity=80 time=6
note_on channel=5 note=71 velocity=66 time=24
note_off channel=5 note=73 velocity=80 time=6
note_off channel=5 note=71 velocity=66 time=9
note_on channel=5 note=69 velocity=68 time=33
note_off channel=5 note=69 velocity=68 time=9
note_on channel=5 note=71 velocity=86 time=15
note_on channel=5 note=73 velocity=74 time=72
note_off channel=5 note=71 velocity=86 time=2
note_off channel=5 note=73 velocity=74 time=34
note_on channel=5 note=73 velocity=88 time=36
note_off channel=5 note=73 velocity=88 time=597
note_on channel=5 note=73 velocity=76 time=27
note_off channel=5 note=73 velocity=76 time=285
note_on channel=5 note=71 velocity=86 time=3
note_off channel=5 note=71 velocity=86 time=92
note_on channel=5 note=74 velocity=80 time=4
note_off channel=5 note=74 velocity=80 time=271
note_on channel=5 note=73 velocity=84 time=17
note_off channel=5 note=73 velocity=84 time=20
note_on channel=5 note=71 velocity=78 time=4
note_off channel=5 note=71 velocity=78 time=14
note_on channel=5 note=69 velocity=68 time=34
note_off channel=5 note=69 velocity=68 time=12
note_on channel=5 note=71 velocity=74 time=12
note_on channel=5 note=73 velocity=84 time=72
note_off channel=5 note=71 velocity=74 time=3
note_off channel=5 note=73 velocity=84 time=35
note_on channel=5 note=73 velocity=92 time=34
note_off channel=5 note=73 velocity=92 time=578
note_on channel=5 note=73 velocity=86 time=46
note_on channel=5 note=71 velocity=80 time=288
note_off channel=5 note=73 velocity=86 time=2
note_off channel=5 note=71 velocity=80 time=85
note_on channel=5 note=74 velocity=82 time=9
note_off channel=5 note=74 velocity=82 time=283
note_on channel=5 note=73 velocity=72 time=5
note_on channel=5 note=71 velocity=86 time=24
note_off channel=5 note=73 velocity=72 time=2
note_off channel=5 note=71 velocity=86 time=9
note_on channel=5 note=69 velocity=66 time=37
note_off channel=5 note=69 velocity=66 time=11
note_on channel=5 note=71 velocity=76 time=13
note_off channel=5 note=71 velocity=76 time=71
note_on channel=5 note=73 velocity=80 time=1
note_off channel=5 note=73 velocity=80 time=41
note_on channel=5 note=73 velocity=78 time=31
note_off channel=5 note=73 velocity=78 time=537
control_change channel=5 control=101 value=0 time=87
control_change channel=5 control=100 value=0 time=0
control_change channel=5 control=6 value=12 time=0
control_change channel=5 control=10 value=64 time=0
control_change channel=5 control=7 value=100 time=0
pitchwheel channel=5 pitch=0 time=0
program_change channel=5 program=0 time=0
control_change channel=5 control=101 value=0 time=1
control_change channel=5 control=100 value=0 time=0
control_change channel=5 control=6 value=12 time=0
control_change channel=5 control=10 value=64 time=0
control_change channel=5 control=7 value=100 time=0
pitchwheel channel=5 pitch=0 time=0
program_change channel=5 program=0 time=0
MetaMessage('end_of_track', time=0)
Track 8:
MetaMessage('track_name', name='Channel #8', time=0)
control_change channel=6 control=10 value=64 time=0
control_change channel=6 control=7 value=100 time=0
pitchwheel channel=6 pitch=0 time=0
control_change channel=6 control=101 value=0 time=0
control_change channel=6 control=100 value=0 time=0
control_change channel=6 control=6 value=12 time=0
control_change channel=6 control=10 value=64 time=0
control_change channel=6 control=7 value=100 time=0
pitchwheel channel=6 pitch=0 time=0
program_change channel=6 program=0 time=0
control_change channel=6 control=101 value=0 time=0
control_change channel=6 control=100 value=0 time=0
control_change channel=6 control=6 value=12 time=0
control_change channel=6 control=10 value=64 time=0
control_change channel=6 control=7 value=100 time=0
pitchwheel channel=6 pitch=0 time=0
program_change channel=6 program=0 time=0
control_change channel=6 control=101 value=0 time=0
control_change channel=6 control=100 value=0 time=0
control_change channel=6 control=6 value=12 time=0
control_change channel=6 control=10 value=64 time=0
control_change channel=6 control=7 value=100 time=0
pitchwheel channel=6 pitch=0 time=0
program_change channel=6 program=0 time=0
control_change channel=6 control=7 value=100 time=134
control_change channel=6 control=10 value=64 time=0
note_on channel=6 note=57 velocity=66 time=1018
note_on channel=6 note=61 velocity=64 time=0
note_on channel=6 note=64 velocity=66 time=0
note_off channel=6 note=57 velocity=66 time=351
note_off channel=6 note=64 velocity=66 time=1
note_off channel=6 note=61 velocity=64 time=4
note_on channel=6 note=66 velocity=62 time=28
note_on channel=6 note=57 velocity=58 time=0
note_on channel=6 note=62 velocity=66 time=0
note_off channel=6 note=62 velocity=66 time=333
note_off channel=6 note=57 velocity=58 time=7
note_off channel=6 note=66 velocity=62 time=1
note_on channel=6 note=57 velocity=56 time=43
note_on channel=6 note=61 velocity=62 time=0
note_on channel=6 note=64 velocity=72 time=0
note_off channel=6 note=57 velocity=56 time=371
note_off channel=6 note=64 velocity=72 time=5
note_off channel=6 note=61 velocity=62 time=5
note_on channel=6 note=57 velocity=56 time=3
note_on channel=6 note=62 velocity=66 time=0
note_on channel=6 note=66 velocity=64 time=0
note_off channel=6 note=66 velocity=64 time=343
note_off channel=6 note=62 velocity=66 time=9
note_off channel=6 note=57 velocity=56 time=4
note_on channel=6 note=57 velocity=62 time=28
note_on channel=6 note=64 velocity=72 time=0
note_on channel=6 note=61 velocity=56 time=0
note_off channel=6 note=57 velocity=62 time=353
note_off channel=6 note=64 velocity=72 time=0
note_off channel=6 note=61 velocity=56 time=9
note_on channel=6 note=57 velocity=54 time=22
note_on channel=6 note=62 velocity=66 time=0
note_on channel=6 note=66 velocity=58 time=0
note_off channel=6 note=57 velocity=54 time=340
note_off channel=6 note=62 velocity=66 time=2
note_off channel=6 note=66 velocity=58 time=2
note_on channel=6 note=68 velocity=68 time=40
note_on channel=6 note=64 velocity=76 time=0
note_on channel=6 note=59 velocity=60 time=0
note_off channel=6 note=64 velocity=76 time=64
note_off channel=6 note=59 velocity=60 time=2
note_off channel=6 note=68 velocity=68 time=2
note_on channel=6 note=64 velocity=38 time=4
note_on channel=6 note=69 velocity=68 time=0
note_on channel=6 note=61 velocity=60 time=0
note_off channel=6 note=61 velocity=60 time=18
note_off channel=6 note=64 velocity=38 time=4
note_off channel=6 note=69 velocity=68 time=0
note_on channel=6 note=61 velocity=66 time=50
note_on channel=6 note=64 velocity=68 time=0
note_on channel=6 note=69 velocity=68 time=0
note_off channel=6 note=64 velocity=68 time=124
note_off channel=6 note=69 velocity=68 time=6
note_off channel=6 note=61 velocity=66 time=4
note_on channel=6 note=68 velocity=64 time=10
note_on channel=6 note=59 velocity=64 time=0
note_on channel=6 note=64 velocity=64 time=0
note_off channel=6 note=68 velocity=64 time=74
note_off channel=6 note=59 velocity=64 time=5
note_off channel=6 note=64 velocity=64 time=9
note_on channel=6 note=66 velocity=68 time=8
note_on channel=6 note=62 velocity=76 time=0
note_on channel=6 note=57 velocity=66 time=0
note_off channel=6 note=66 velocity=68 time=111
note_off channel=6 note=57 velocity=66 time=0
note_off channel=6 note=62 velocity=76 time=2
note_on channel=6 note=57 velocity=68 time=31
note_on channel=6 note=61 velocity=72 time=0
note_on channel=6 note=64 velocity=76 time=0
note_off channel=6 note=64 velocity=76 time=175
note_off channel=6 note=61 velocity=72 time=16
note_off channel=6 note=57 velocity=68 time=3
note_on channel=6 note=59 velocity=66 time=46
note_on channel=6 note=64 velocity=76 time=0
note_on channel=6 note=56 velocity=64 time=0
note_off channel=6 note=56 velocity=64 time=306
note_off channel=6 note=59 velocity=66 time=2
note_off channel=6 note=64 velocity=76 time=1
note_on channel=6 note=61 velocity=66 time=75
note_on channel=6 note=65 velocity=76 time=0
note_on channel=6 note=59 velocity=68 time=0
note_off channel=6 note=65 velocity=76 time=329
note_off channel=6 note=61 velocity=66 time=8
note_off channel=6 note=59 velocity=68 time=1
note_on channel=6 note=61 velocity=64 time=46
note_on channel=6 note=57 velocity=64 time=0
note_on channel=6 note=66 velocity=66 time=0
note_off channel=6 note=61 velocity=64 time=335
note_off channel=6 note=57 velocity=64 time=2
note_off channel=6 note=66 velocity=66 time=1
note_on channel=6 note=66 velocity=64 time=46
note_on channel=6 note=63 velocity=64 time=0
note_on channel=6 note=59 velocity=66 time=0
note_off channel=6 note=63 velocity=64 time=333
note_off channel=6 note=59 velocity=66 time=7
note_off channel=6 note=66 velocity=64 time=2
note_on channel=6 note=62 velocity=72 time=42
note_on channel=6 note=57 velocity=56 time=0
note_on channel=6 note=64 velocity=66 time=0
note_off channel=6 note=64 velocity=66 time=350
note_off channel=6 note=62 velocity=72 time=4
note_off channel=6 note=57 velocity=56 time=2
note_on channel=6 note=57 velocity=54 time=28
note_on channel=6 note=62 velocity=66 time=0
note_on channel=6 note=64 velocity=66 time=0
note_off channel=6 note=62 velocity=66 time=350
note_off channel=6 note=57 velocity=54 time=6
note_off channel=6 note=64 velocity=66 time=12
note_on channel=6 note=64 velocity=72 time=16
note_on channel=6 note=57 velocity=60 time=0
note_on channel=6 note=61 velocity=62 time=0
note_off channel=6 note=57 velocity=60 time=55
note_off channel=6 note=61 velocity=62 time=2
note_off channel=6 note=64 velocity=72 time=4
note_on channel=6 note=61 velocity=50 time=11
note_on channel=6 note=57 velocity=54 time=0
note_on channel=6 note=64 velocity=68 time=0
note_off channel=6 note=61 velocity=50 time=11
note_off channel=6 note=57 velocity=54 time=0
note_off channel=6 note=64 velocity=68 time=0
note_on channel=6 note=57 velocity=66 time=61
note_on channel=6 note=64 velocity=68 time=0
note_on channel=6 note=61 velocity=64 time=0
note_off channel=6 note=57 velocity=66 time=203
note_off channel=6 note=64 velocity=68 time=0
note_off channel=6 note=61 velocity=64 time=2
note_on channel=6 note=66 velocity=66 time=35
note_on channel=6 note=62 velocity=76 time=0
note_on channel=6 note=57 velocity=60 time=0
note_off channel=6 note=66 velocity=66 time=61
note_off channel=6 note=57 velocity=60 time=2
note_off channel=6 note=62 velocity=76 time=4
note_on channel=6 note=66 velocity=66 time=5
note_on channel=6 note=57 velocity=62 time=0
note_on channel=6 note=62 velocity=64 time=0
note_off channel=6 note=62 velocity=64 time=11
note_off channel=6 note=66 velocity=66 time=2
note_off channel=6 note=57 velocity=62 time=1
note_on channel=6 note=57 velocity=60 time=58
note_on channel=6 note=62 velocity=68 time=0
note_on channel=6 note=66 velocity=58 time=0
note_off channel=6 note=62 velocity=68 time=186
note_off channel=6 note=66 velocity=58 time=3
note_off channel=6 note=57 velocity=60 time=12
note_on channel=6 note=57 velocity=64 time=39
note_on channel=6 note=61 velocity=76 time=0
note_on channel=6 note=64 velocity=66 time=0
note_off channel=6 note=57 velocity=64 time=56
note_off channel=6 note=64 velocity=66 time=0
note_off channel=6 note=61 velocity=76 time=2
note_on channel=6 note=61 velocity=50 time=14
note_on channel=6 note=64 velocity=60 time=0
note_on channel=6 note=57 velocity=54 time=0
note_off channel=6 note=61 velocity=50 time=11
note_off channel=6 note=64 velocity=60 time=1
note_off channel=6 note=57 velocity=54 time=0
note_on channel=6 note=64 velocity=60 time=60
note_on channel=6 note=61 velocity=58 time=0
note_on channel=6 note=57 velocity=52 time=0
note_off channel=6 note=61 velocity=58 time=84
note_off channel=6 note=57 velocity=52 time=0
note_off channel=6 note=64 velocity=60 time=1
note_on channel=6 note=64 velocity=58 time=155
note_on channel=6 note=61 velocity=56 time=0
note_on channel=6 note=57 velocity=52 time=0
note_off channel=6 note=64 velocity=58 time=60
note_off channel=6 note=61 velocity=56 time=0
note_off channel=6 note=57 velocity=52 time=0
note_on channel=6 note=57 velocity=54 time=12
note_on channel=6 note=64 velocity=66 time=0
note_on channel=6 note=61 velocity=50 time=0
note_off channel=6 note=61 velocity=50 time=11
note_off channel=6 note=57 velocity=54 time=2
note_off channel=6 note=64 velocity=66 time=0
note_on channel=6 note=64 velocity=54 time=59
note_on channel=6 note=57 velocity=50 time=0
note_on channel=6 note=61 velocity=38 time=0
note_off channel=6 note=57 velocity=50 time=94
note_off channel=6 note=64 velocity=54 time=2
note_off channel=6 note=61 velocity=38 time=1
note_on channel=6 note=64 velocity=60 time=143
note_on channel=6 note=61 velocity=54 time=0
note_on channel=6 note=57 velocity=56 time=0
note_off channel=6 note=57 velocity=56 time=353
note_off channel=6 note=64 velocity=60 time=0
note_off channel=6 note=61 velocity=54 time=6
note_on channel=6 note=57 velocity=56 time=25
note_on channel=6 note=62 velocity=66 time=0
note_on channel=6 note=66 velocity=58 time=0
note_off channel=6 note=62 velocity=66 time=345
note_off channel=6 note=66 velocity=58 time=1
note_off channel=6 note=57 velocity=56 time=6
note_on channel=6 note=57 velocity=56 time=32
note_on channel=6 note=64 velocity=64 time=0
note_on channel=6 note=61 velocity=58 time=0
note_off channel=6 note=61 velocity=58 time=343
note_off channel=6 note=64 velocity=64 time=2
note_off channel=6 note=57 velocity=56 time=5
note_on channel=6 note=61 velocity=58 time=34
note_on channel=6 note=57 velocity=58 time=0
note_on channel=6 note=66 velocity=60 time=0
note_off channel=6 note=66 velocity=60 time=330
note_off channel=6 note=57 velocity=58 time=5
note_off channel=6 note=61 velocity=58 time=1
note_on channel=6 note=59 velocity=68 time=48
note_on channel=6 note=64 velocity=72 time=0
note_on channel=6 note=56 velocity=58 time=0
note_off channel=6 note=56 velocity=58 time=57
note_off channel=6 note=64 velocity=72 time=1
note_off channel=6 note=59 velocity=68 time=2
note_on channel=6 note=59 velocity=66 time=12
note_on channel=6 note=56 velocity=60 time=0
note_on channel=6 note=64 velocity=68 time=0
note_off channel=6 note=56 velocity=60 time=15
note_off channel=6 note=59 velocity=66 time=4
note_off channel=6 note=64 velocity=68 time=7
note_on channel=6 note=61 velocity=60 time=46
note_on channel=6 note=57 velocity=56 time=0
note_on channel=6 note=64 velocity=68 time=0
note_off channel=6 note=64 velocity=68 time=210
note_off channel=6 note=57 velocity=56 time=1
note_off channel=6 note=61 velocity=60 time=10
note_on channel=6 note=59 velocity=68 time=19
note_on channel=6 note=64 velocity=68 time=0
note_on channel=6 note=56 velocity=64 time=0
note_off channel=6 note=56 velocity=64 time=61
note_off channel=6 note=59 velocity=68 time=2
note_off channel=6 note=64 velocity=68 time=2
note_on channel=6 note=56 velocity=66 time=7
note_on channel=6 note=64 velocity=72 time=0
note_on channel=6 note=59 velocity=72 time=0
note_off channel=6 note=56 velocity=66 time=14
note_off channel=6 note=59 velocity=72 time=1
note_off channel=6 note=64 velocity=72 time=2
note_on channel=6 note=61 velocity=60 time=55
note_on channel=6 note=57 velocity=60 time=0
note_on channel=6 note=64 velocity=68 time=0
note_off channel=6 note=64 velocity=68 time=185
note_off channel=6 note=57 velocity=60 time=8
note_off channel=6 note=61 velocity=60 time=1
note_on channel=6 note=59 velocity=64 time=46
note_on channel=6 note=64 velocity=66 time=0
note_on channel=6 note=56 velocity=64 time=0
note_off channel=6 note=56 velocity=64 time=50
note_off channel=6 note=59 velocity=64 time=12
note_off channel=6 note=64 velocity=66 time=1
note_on channel=6 note=66 velocity=72 time=9
note_on channel=6 note=57 velocity=60 time=0
note_on channel=6 note=61 velocity=64 time=0
note_off channel=6 note=61 velocity=64 time=14
note_off channel=6 note=66 velocity=72 time=3
note_off channel=6 note=57 velocity=60 time=0
note_on channel=6 note=61 velocity=64 time=55
note_on channel=6 note=57 velocity=62 time=0
note_on channel=6 note=66 velocity=64 time=0
note_off channel=6 note=57 velocity=62 time=200
note_off channel=6 note=66 velocity=64 time=6
note_off channel=6 note=61 velocity=64 time=5
note_on channel=6 note=56 velocity=68 time=29
note_on channel=6 note=64 velocity=76 time=0
note_on channel=6 note=59 velocity=68 time=0
note_off channel=6 note=56 velocity=68 time=59
note_off channel=6 note=59 velocity=68 time=8
note_off channel=6 note=64 velocity=76 time=0
note_on channel=6 note=57 velocity=64 time=5
note_on channel=6 note=61 velocity=68 time=0
note_on channel=6 note=66 velocity=72 time=0
note_off channel=6 note=61 velocity=68 time=15
note_off channel=6 note=57 velocity=64 time=2
note_off channel=6 note=66 velocity=72 time=1
note_on channel=6 note=61 velocity=66 time=54
note_on channel=6 note=57 velocity=66 time=0
note_on channel=6 note=66 velocity=76 time=0
note_off channel=6 note=66 velocity=76 time=192
note_off channel=6 note=61 velocity=66 time=7
note_off channel=6 note=57 velocity=66 time=5
note_on channel=6 note=64 velocity=68 time=36
note_on channel=6 note=61 velocity=58 time=0
note_on channel=6 note=57 velocity=54 time=0
note_off channel=6 note=57 velocity=54 time=351
note_off channel=6 note=64 velocity=68 time=5
note_off channel=6 note=61 velocity=58 time=4
note_on channel=6 note=57 velocity=54 time=24
note_on channel=6 note=66 velocity=66 time=0
note_on channel=6 note=62 velocity=76 time=0
note_off channel=6 note=66 velocity=66 time=367
note_off channel=6 note=57 velocity=54 time=4
note_off channel=6 note=62 velocity=76 time=8
note_on channel=6 note=61 velocity=64 time=5
note_on channel=6 note=64 velocity=72 time=0
note_on channel=6 note=57 velocity=68 time=0
note_off channel=6 note=61 velocity=64 time=355
note_off channel=6 note=57 velocity=68 time=3
note_off channel=6 note=64 velocity=72 time=12
note_on channel=6 note=61 velocity=60 time=14
note_on channel=6 note=57 velocity=62 time=0
note_on channel=6 note=66 velocity=72 time=0
note_off channel=6 note=57 velocity=62 time=353
note_off channel=6 note=66 velocity=72 time=4
note_off channel=6 note=61 velocity=60 time=7
note_on channel=6 note=59 velocity=68 time=20
note_on channel=6 note=56 velocity=58 time=0
note_on channel=6 note=64 velocity=68 time=0
note_off channel=6 note=64 velocity=68 time=65
note_off channel=6 note=56 velocity=58 time=1
note_off channel=6 note=59 velocity=68 time=1
note_on channel=6 note=56 velocity=58 time=5
note_on channel=6 note=59 velocity=62 time=0
note_on channel=6 note=64 velocity=66 time=0
note_off channel=6 note=56 velocity=58 time=14
note_off channel=6 note=59 velocity=62 time=1
note_off channel=6 note=64 velocity=66 time=3
note_on channel=6 note=64 velocity=76 time=54
note_on channel=6 note=61 velocity=66 time=0
note_on channel=6 note=57 velocity=66 time=0
note_off channel=6 note=64 velocity=76 time=190
note_off channel=6 note=57 velocity=66 time=8
note_off channel=6 note=61 velocity=66 time=6
note_on channel=6 note=59 velocity=64 time=36
note_on channel=6 note=64 velocity=66 time=0
note_on channel=6 note=56 velocity=64 time=0
note_off channel=6 note=56 velocity=64 time=57
note_off channel=6 note=59 velocity=64 time=5
note_off channel=6 note=64 velocity=66 time=1
note_on channel=6 note=64 velocity=68 time=9
note_on channel=6 note=59 velocity=72 time=0
note_on channel=6 note=56 velocity=64 time=0
note_off channel=6 note=56 velocity=64 time=16
note_off channel=6 note=59 velocity=72 time=3
note_off channel=6 note=64 velocity=68 time=1
note_on channel=6 note=61 velocity=56 time=52
note_on channel=6 note=57 velocity=56 time=0
note_on channel=6 note=64 velocity=62 time=0
note_off channel=6 note=64 velocity=62 time=194
note_off channel=6 note=61 velocity=56 time=5
note_off channel=6 note=57 velocity=56 time=0
note_on channel=6 note=64 velocity=68 time=41
note_on channel=6 note=59 velocity=72 time=0
note_on channel=6 note=56 velocity=66 time=0
note_off channel=6 note=56 velocity=66 time=56
note_off channel=6 note=59 velocity=72 time=7
note_off channel=6 note=64 velocity=68 time=3
note_on channel=6 note=57 velocity=64 time=6
note_on channel=6 note=61 velocity=68 time=0
note_on channel=6 note=66 velocity=72 time=0
note_off channel=6 note=57 velocity=64 time=18
note_off channel=6 note=61 velocity=68 time=1
note_off channel=6 note=66 velocity=72 time=4
note_on channel=6 note=61 velocity=66 time=49
note_on channel=6 note=66 velocity=66 time=0
note_on channel=6 note=57 velocity=64 time=0
note_off channel=6 note=57 velocity=64 time=208
note_off channel=6 note=66 velocity=66 time=7
note_off channel=6 note=61 velocity=66 time=16
note_on channel=6 note=64 velocity=72 time=9
note_on channel=6 note=59 velocity=68 time=0
note_on channel=6 note=56 velocity=68 time=0
note_off channel=6 note=56 velocity=68 time=56
note_off channel=6 note=64 velocity=72 time=8
note_off channel=6 note=59 velocity=68 time=1
note_on channel=6 note=61 velocity=66 time=7
note_on channel=6 note=66 velocity=76 time=0
note_on channel=6 note=57 velocity=72 time=0
note_off channel=6 note=57 velocity=72 time=15
note_off channel=6 note=61 velocity=66 time=2
note_off channel=6 note=66 velocity=76 time=2
note_on channel=6 note=57 velocity=64 time=53
note_on channel=6 note=66 velocity=66 time=0
note_on channel=6 note=61 velocity=64 time=0
note_off channel=6 note=66 velocity=66 time=203
note_off channel=6 note=57 velocity=64 time=8
note_off channel=6 note=61 velocity=64 time=0
note_on channel=6 note=66 velocity=66 time=29
note_on channel=6 note=57 velocity=58 time=0
note_on channel=6 note=62 velocity=76 time=0
note_off channel=6 note=57 velocity=58 time=342
note_off channel=6 note=66 velocity=66 time=11
note_off channel=6 note=62 velocity=76 time=13
note_on channel=6 note=64 velocity=72 time=18
note_on channel=6 note=59 velocity=66 time=0
note_on channel=6 note=56 velocity=68 time=0
note_off channel=6 note=59 velocity=66 time=354
note_off channel=6 note=64 velocity=72 time=3
note_off channel=6 note=56 velocity=68 time=2
note_on channel=6 note=57 velocity=54 time=25
note_on channel=6 note=61 velocity=64 time=0
note_on channel=6 note=64 velocity=62 time=0
note_off channel=6 note=61 velocity=64 time=59
note_off channel=6 note=57 velocity=54 time=1
note_off channel=6 note=64 velocity=62 time=1
note_on channel=6 note=64 velocity=76 time=11
note_on channel=6 note=61 velocity=64 time=0
note_on channel=6 note=57 velocity=62 time=0
note_off channel=6 note=64 velocity=76 time=13
note_off channel=6 note=61 velocity=64 time=0
note_off channel=6 note=57 velocity=62 time=0
note_on channel=6 note=57 velocity=52 time=59
note_on channel=6 note=64 velocity=54 time=0
note_on channel=6 note=61 velocity=58 time=0
note_off channel=6 note=57 velocity=52 time=86
note_off channel=6 note=61 velocity=58 time=1
note_off channel=6 note=64 velocity=54 time=3
note_on channel=6 note=64 velocity=72 time=6
note_on channel=6 note=57 velocity=66 time=0
note_on channel=6 note=61 velocity=62 time=0
note_off channel=6 note=57 velocity=66 time=116
note_off channel=6 note=64 velocity=72 time=12
note_off channel=6 note=61 velocity=62 time=2
note_on channel=6 note=57 velocity=64 time=14
note_on channel=6 note=62 velocity=76 time=0
note_on channel=6 note=66 velocity=60 time=0
note_off channel=6 note=66 velocity=60 time=53
note_off channel=6 note=57 velocity=64 time=1
note_off channel=6 note=62 velocity=76 time=6
note_on channel=6 note=57 velocity=64 time=12
note_on channel=6 note=62 velocity=68 time=0
note_on channel=6 note=66 velocity=42 time=0
note_off channel=6 note=62 velocity=68 time=11
note_off channel=6 note=66 velocity=42 time=2
note_off channel=6 note=57 velocity=64 time=3
note_on channel=6 note=57 velocity=54 time=56
note_on channel=6 note=62 velocity=68 time=0
note_on channel=6 note=66 velocity=66 time=0
note_off channel=6 note=62 velocity=68 time=201
note_off channel=6 note=57 velocity=54 time=7
note_off channel=6 note=66 velocity=66 time=1
note_on channel=6 note=64 velocity=80 time=31
note_on channel=6 note=57 velocity=62 time=0
note_on channel=6 note=61 velocity=60 time=0
note_off channel=6 note=64 velocity=80 time=56
note_off channel=6 note=57 velocity=62 time=0
note_off channel=6 note=61 velocity=60 time=0
note_on channel=6 note=61 velocity=62 time=16
note_on channel=6 note=57 velocity=56 time=0
note_on channel=6 note=64 velocity=54 time=0
note_off channel=6 note=57 velocity=56 time=12
note_off channel=6 note=64 velocity=54 time=0
note_off channel=6 note=61 velocity=62 time=2
note_on channel=6 note=61 velocity=60 time=58
note_on channel=6 note=57 velocity=58 time=0
note_on channel=6 note=64 velocity=64 time=0
note_off channel=6 note=61 velocity=60 time=218
note_off channel=6 note=57 velocity=58 time=3
note_off channel=6 note=64 velocity=64 time=3
note_on channel=6 note=66 velocity=66 time=16
note_on channel=6 note=57 velocity=50 time=0
note_on channel=6 note=62 velocity=66 time=0
note_off channel=6 note=57 velocity=50 time=56
note_off channel=6 note=66 velocity=66 time=1
note_off channel=6 note=62 velocity=66 time=4
note_on channel=6 note=57 velocity=60 time=11
note_on channel=6 note=66 velocity=60 time=0
note_on channel=6 note=62 velocity=68 time=0
note_off channel=6 note=62 velocity=68 time=13
note_off channel=6 note=57 velocity=60 time=1
note_off channel=6 note=66 velocity=60 time=3
note_on channel=6 note=62 velocity=68 time=55
note_on channel=6 note=57 velocity=56 time=0
note_on channel=6 note=66 velocity=66 time=0
note_off channel=6 note=66 velocity=66 time=199
note_off channel=6 note=62 velocity=68 time=3
note_off channel=6 note=57 velocity=56 time=2
note_on channel=6 note=57 velocity=58 time=36
note_on channel=6 note=64 velocity=68 time=0
note_on channel=6 note=61 velocity=52 time=0
note_off channel=6 note=57 velocity=58 time=55
note_off channel=6 note=61 velocity=52 time=2
note_off channel=6 note=64 velocity=68 time=2
note_on channel=6 note=61 velocity=64 time=13
note_on channel=6 note=57 velocity=60 time=0
note_on channel=6 note=64 velocity=66 time=0
note_off channel=6 note=61 velocity=64 time=14
note_off channel=6 note=57 velocity=60 time=2
note_off channel=6 note=64 velocity=66 time=0
note_on channel=6 note=64 velocity=68 time=56
note_on channel=6 note=61 velocity=62 time=0
note_on channel=6 note=57 velocity=62 time=0
note_off channel=6 note=64 velocity=68 time=202
note_off channel=6 note=57 velocity=62 time=4
note_off channel=6 note=61 velocity=62 time=3
note_on channel=6 note=66 velocity=84 time=31
note_on channel=6 note=62 velocity=72 time=0
note_on channel=6 note=57 velocity=54 time=0
note_off channel=6 note=66 velocity=84 time=56
note_off channel=6 note=57 velocity=54 time=5
note_off channel=6 note=62 velocity=72 time=3
note_on channel=6 note=66 velocity=66 time=8
note_on channel=6 note=57 velocity=64 time=0
note_on channel=6 note=62 velocity=64 time=0
note_off channel=6 note=62 velocity=64 time=14
note_off channel=6 note=66 velocity=66 time=1
note_off channel=6 note=57 velocity=64 time=0
note_on channel=6 note=62 velocity=64 time=57
note_on channel=6 note=66 velocity=54 time=0
note_on channel=6 note=57 velocity=56 time=0
note_off channel=6 note=57 velocity=56 time=188
note_off channel=6 note=66 velocity=54 time=1
note_off channel=6 note=62 velocity=64 time=4
note_on channel=6 note=64 velocity=80 time=47
note_on channel=6 note=59 velocity=62 time=0
note_on channel=6 note=68 velocity=72 time=0
note_off channel=6 note=64 velocity=80 time=96
note_off channel=6 note=68 velocity=72 time=3
note_off channel=6 note=59 velocity=62 time=0
note_on channel=6 note=64 velocity=72 time=45
note_on channel=6 note=61 velocity=64 time=0
note_on channel=6 note=69 velocity=68 time=0
note_off channel=6 note=64 velocity=72 time=117
note_off channel=6 note=69 velocity=68 time=3
note_off channel=6 note=61 velocity=64 time=4
note_on channel=6 note=68 velocity=64 time=20
note_on channel=6 note=59 velocity=66 time=0
note_on channel=6 note=64 velocity=66 time=0
note_off channel=6 note=68 velocity=64 time=66
note_off channel=6 note=59 velocity=66 time=2
note_off channel=6 note=64 velocity=66 time=12
note_on channel=6 note=57 velocity=58 time=16
note_on channel=6 note=62 velocity=84 time=0
note_on channel=6 note=66 velocity=68 time=0
note_off channel=6 note=62 velocity=84 time=116
note_off channel=6 note=66 velocity=68 time=1
note_off channel=6 note=57 velocity=58 time=2
note_on channel=6 note=57 velocity=68 time=25
note_on channel=6 note=64 velocity=66 time=0
note_on channel=6 note=61 velocity=72 time=0
note_off channel=6 note=64 velocity=66 time=188
note_off channel=6 note=61 velocity=72 time=13
note_off channel=6 note=57 velocity=68 time=5
note_on channel=6 note=59 velocity=64 time=34
note_on channel=6 note=64 velocity=68 time=0
note_on channel=6 note=56 velocity=64 time=0
note_off channel=6 note=59 velocity=64 time=341
note_off channel=6 note=56 velocity=64 time=1
note_off channel=6 note=64 velocity=68 time=3
note_on channel=6 note=61 velocity=64 time=39
note_on channel=6 note=65 velocity=68 time=0
note_on channel=6 note=59 velocity=66 time=0
note_off channel=6 note=65 velocity=68 time=324
note_off channel=6 note=61 velocity=64 time=5
note_off channel=6 note=59 velocity=66 time=3
note_on channel=6 note=61 velocity=64 time=52
note_on channel=6 note=57 velocity=56 time=0
note_on channel=6 note=66 velocity=56 time=0
note_off channel=6 note=66 velocity=56 time=312
note_off channel=6 note=57 velocity=56 time=7
note_off channel=6 note=61 velocity=64 time=4
note_on channel=6 note=63 velocity=68 time=61
note_on channel=6 note=59 velocity=64 time=0
note_on channel=6 note=66 velocity=64 time=0
note_off channel=6 note=63 velocity=68 time=332
note_off channel=6 note=59 velocity=64 time=4
note_off channel=6 note=66 velocity=64 time=7
note_on channel=6 note=64 velocity=68 time=41
note_on channel=6 note=57 velocity=66 time=0
note_on channel=6 note=62 velocity=66 time=0
note_off channel=6 note=62 velocity=66 time=346
note_off channel=6 note=64 velocity=68 time=3
note_off channel=6 note=57 velocity=66 time=2
note_on channel=6 note=64 velocity=68 time=33
note_on channel=6 note=62 velocity=72 time=0
note_on channel=6 note=57 velocity=56 time=0
note_off channel=6 note=64 velocity=68 time=350
note_off channel=6 note=62 velocity=72 time=2
note_off channel=6 note=57 velocity=56 time=2
note_on channel=6 note=64 velocity=68 time=30
note_on channel=6 note=57 velocity=58 time=0
note_on channel=6 note=61 velocity=60 time=0
note_off channel=6 note=57 velocity=58 time=59
note_off channel=6 note=61 velocity=60 time=1
note_off channel=6 note=64 velocity=68 time=2
note_on channel=6 note=57 velocity=64 time=10
note_on channel=6 note=61 velocity=62 time=0
note_on channel=6 note=64 velocity=60 time=0
note_off channel=6 note=61 velocity=62 time=10
note_off channel=6 note=57 velocity=64 time=1
note_off channel=6 note=64 velocity=60 time=1
note_on channel=6 note=64 velocity=62 time=60
note_on channel=6 note=61 velocity=64 time=0
note_on channel=6 note=57 velocity=54 time=0
note_off channel=6 note=64 velocity=62 time=204
note_off channel=6 note=57 velocity=54 time=1
note_off channel=6 note=61 velocity=64 time=7
note_on channel=6 note=57 velocity=64 time=28
note_on channel=6 note=62 velocity=68 time=0
note_on channel=6 note=66 velocity=40 time=0
note_off channel=6 note=66 velocity=40 time=54
note_off channel=6 note=57 velocity=64 time=6
note_off channel=6 note=62 velocity=68 time=4
note_on channel=6 note=57 velocity=64 time=8
note_on channel=6 note=66 velocity=72 time=0
note_on channel=6 note=62 velocity=76 time=0
note_off channel=6 note=62 velocity=76 time=12
note_off channel=6 note=57 velocity=64 time=1
note_off channel=6 note=66 velocity=72 time=1
note_on channel=6 note=62 velocity=68 time=58
note_on channel=6 note=66 velocity=66 time=0
note_on channel=6 note=57 velocity=56 time=0
note_off channel=6 note=66 velocity=66 time=205
note_off channel=6 note=62 velocity=68 time=0
note_off channel=6 note=57 velocity=56 time=7
note_on channel=6 note=57 velocity=56 time=28
note_on channel=6 note=64 velocity=72 time=0
note_on channel=6 note=61 velocity=60 time=0
note_off channel=6 note=57 velocity=56 time=61
note_off channel=6 note=61 velocity=60 time=1
note_off channel=6 note=64 velocity=72 time=4
note_on channel=6 note=64 velocity=72 time=6
note_on channel=6 note=57 velocity=64 time=0
note_on channel=6 note=61 velocity=64 time=0
note_off channel=6 note=64 velocity=72 time=13
note_off channel=6 note=57 velocity=64 time=0
note_off channel=6 note=61 velocity=64 time=0
note_on channel=6 note=64 velocity=66 time=59
note_on channel=6 note=57 velocity=56 time=0
note_on channel=6 note=61 velocity=66 time=0
note_off channel=6 note=57 velocity=56 time=208
note_off channel=6 note=64 velocity=66 time=4
note_off channel=6 note=61 velocity=66 time=12
note_on channel=6 note=57 velocity=56 time=16
note_on channel=6 note=62 velocity=72 time=0
note_on channel=6 note=66 velocity=72 time=0
note_off channel=6 note=66 velocity=72 time=59
note_off channel=6 note=62 velocity=72 time=3
note_off channel=6 note=57 velocity=56 time=0
note_on channel=6 note=57 velocity=66 time=10
note_on channel=6 note=66 velocity=68 time=0
note_on channel=6 note=62 velocity=66 time=0
note_off channel=6 note=62 velocity=66 time=11
note_off channel=6 note=57 velocity=66 time=1
note_off channel=6 note=66 velocity=68 time=3
note_on channel=6 note=62 velocity=66 time=57
note_on channel=6 note=57 velocity=56 time=0
note_on channel=6 note=66 velocity=58 time=0
note_off channel=6 note=57 velocity=56 time=195
note_off channel=6 note=66 velocity=58 time=4
note_off channel=6 note=62 velocity=66 time=2
note_on channel=6 note=45 velocity=52 time=39
note_on channel=6 note=52 velocity=44 time=0
note_on channel=6 note=64 velocity=58 time=0
note_on channel=6 note=61 velocity=50 time=0
note_off channel=6 note=64 velocity=58 time=250
note_off channel=6 note=61 velocity=50 time=1
note_off channel=6 note=52 velocity=44 time=1
note_off channel=6 note=45 velocity=52 time=6
note_on channel=6 note=45 velocity=60 time=126
note_on channel=6 note=52 velocity=56 time=0
note_on channel=6 note=64 velocity=48 time=0
note_on channel=6 note=61 velocity=50 time=0
note_off channel=6 note=52 velocity=56 time=261
note_off channel=6 note=64 velocity=48 time=0
note_off channel=6 note=45 velocity=60 time=3
note_off channel=6 note=61 velocity=50 time=0
note_on channel=6 note=57 velocity=54 time=120
note_on channel=6 note=64 velocity=62 time=0
note_on channel=6 note=61 velocity=54 time=0
note_off channel=6 note=57 velocity=54 time=348
note_off channel=6 note=64 velocity=62 time=19
note_off channel=6 note=61 velocity=54 time=4
note_on channel=6 note=57 velocity=52 time=13
note_on channel=6 note=66 velocity=62 time=0
note_on channel=6 note=62 velocity=66 time=0
note_off channel=6 note=57 velocity=52 time=359
note_off channel=6 note=66 velocity=62 time=1
note_off channel=6 note=62 velocity=66 time=3
note_on channel=6 note=57 velocity=58 time=21
note_on channel=6 note=61 velocity=60 time=0
note_on channel=6 note=64 velocity=64 time=0
note_off channel=6 note=61 velocity=60 time=354
note_off channel=6 note=57 velocity=58 time=2
note_off channel=6 note=64 velocity=64 time=25
note_on channel=6 note=61 velocity=62 time=3
note_on channel=6 note=57 velocity=62 time=0
note_on channel=6 note=66 velocity=76 time=0
note_off channel=6 note=57 velocity=62 time=348
note_off channel=6 note=66 velocity=76 time=0
note_off channel=6 note=61 velocity=62 time=7
note_on channel=6 note=64 velocity=66 time=29
note_on channel=6 note=59 velocity=64 time=0
note_on channel=6 note=56 velocity=64 time=0
note_off channel=6 note=64 velocity=66 time=102
note_off channel=6 note=59 velocity=64 time=2
note_off channel=6 note=56 velocity=64 time=1
note_on channel=6 note=64 velocity=66 time=39
note_on channel=6 note=57 velocity=64 time=0
note_on channel=6 note=61 velocity=66 time=0
note_off channel=6 note=64 velocity=66 time=196
note_off channel=6 note=57 velocity=64 time=12
note_off channel=6 note=61 velocity=66 time=8
note_on channel=6 note=59 velocity=64 time=24
note_on channel=6 note=64 velocity=68 time=0
note_on channel=6 note=56 velocity=62 time=0
note_off channel=6 note=56 velocity=62 time=55
note_off channel=6 note=64 velocity=68 time=4
note_off channel=6 note=59 velocity=64 time=1
note_on channel=6 note=64 velocity=68 time=12
note_on channel=6 note=59 velocity=76 time=0
note_on channel=6 note=56 velocity=66 time=0
note_off channel=6 note=56 velocity=66 time=10
note_off channel=6 note=59 velocity=76 time=2
note_off channel=6 note=64 velocity=68 time=3
note_on channel=6 note=57 velocity=58 time=57
note_on channel=6 note=61 velocity=66 time=0
note_on channel=6 note=64 velocity=72 time=0
note_off channel=6 note=57 velocity=58 time=182
note_off channel=6 note=64 velocity=72 time=0
note_off channel=6 note=61 velocity=66 time=2
note_on channel=6 note=64 velocity=68 time=56
note_on channel=6 note=59 velocity=72 time=0
note_on channel=6 note=56 velocity=68 time=0
note_off channel=6 note=56 velocity=68 time=54
note_off channel=6 note=59 velocity=72 time=7
note_off channel=6 note=64 velocity=68 time=3
note_on channel=6 note=66 velocity=64 time=8
note_on channel=6 note=61 velocity=68 time=0
note_on channel=6 note=57 velocity=62 time=0
note_off channel=6 note=61 velocity=68 time=13
note_off channel=6 note=57 velocity=62 time=2
note_off channel=6 note=66 velocity=64 time=4
note_on channel=6 note=66 velocity=66 time=53
note_on channel=6 note=61 velocity=68 time=0
note_on channel=6 note=57 velocity=66 time=0
note_off channel=6 note=57 velocity=66 time=199
note_off channel=6 note=66 velocity=66 time=3
note_off channel=6 note=61 velocity=68 time=10
note_on channel=6 note=64 velocity=84 time=28
note_on channel=6 note=68 velocity=68 time=0
note_on channel=6 note=59 velocity=68 time=0
note_off channel=6 note=64 velocity=84 time=49
note_off channel=6 note=59 velocity=68 time=7
note_off channel=6 note=68 velocity=68 time=3
note_on channel=6 note=69 velocity=68 time=13
note_on channel=6 note=61 velocity=80 time=0
note_on channel=6 note=66 velocity=76 time=0
note_off channel=6 note=61 velocity=80 time=15
note_off channel=6 note=66 velocity=76 time=1
note_off channel=6 note=69 velocity=68 time=3
note_on channel=6 note=66 velocity=66 time=53
note_on channel=6 note=61 velocity=72 time=0
note_on channel=6 note=69 velocity=66 time=0
note_off channel=6 note=69 velocity=66 time=206
note_off channel=6 note=66 velocity=66 time=6
note_off channel=6 note=61 velocity=72 time=3
note_on channel=6 note=66 velocity=64 time=25
note_on channel=6 note=62 velocity=68 time=0
note_on channel=6 note=57 velocity=58 time=0
note_off channel=6 note=62 velocity=68 time=325
note_off channel=6 note=57 velocity=58 time=18
note_off channel=6 note=66 velocity=64 time=12
note_on channel=6 note=56 velocity=64 time=29
note_on channel=6 note=59 velocity=72 time=0
note_on channel=6 note=64 velocity=68 time=0
note_off channel=6 note=56 velocity=64 time=348
note_off channel=6 note=59 velocity=72 time=0
note_off channel=6 note=64 velocity=68 time=0
note_on channel=6 note=61 velocity=66 time=36
note_on channel=6 note=57 velocity=68 time=0
note_on channel=6 note=64 velocity=66 time=0
note_off channel=6 note=57 velocity=68 time=348
note_off channel=6 note=64 velocity=66 time=3
note_off channel=6 note=61 velocity=66 time=0
note_on channel=6 note=66 velocity=68 time=33
note_on channel=6 note=57 velocity=60 time=0
note_on channel=6 note=62 velocity=84 time=0
note_off channel=6 note=66 velocity=68 time=343
note_off channel=6 note=62 velocity=84 time=9
note_off channel=6 note=57 velocity=60 time=2
note_on channel=6 note=64 velocity=68 time=30
note_on channel=6 note=57 velocity=56 time=0
note_on channel=6 note=61 velocity=66 time=0
note_off channel=6 note=57 velocity=56 time=349
note_off channel=6 note=64 velocity=68 time=0
note_off channel=6 note=61 velocity=66 time=4
note_on channel=6 note=66 velocity=68 time=31
note_on channel=6 note=62 velocity=80 time=0
note_on channel=6 note=57 velocity=58 time=0
note_off channel=6 note=66 velocity=68 time=332
note_off channel=6 note=57 velocity=58 time=5
note_off channel=6 note=62 velocity=80 time=2
note_on channel=6 note=64 velocity=68 time=45
note_on channel=6 note=61 velocity=62 time=0
note_on channel=6 note=57 velocity=58 time=0
note_off channel=6 note=61 velocity=62 time=324
note_off channel=6 note=64 velocity=68 time=3
note_off channel=6 note=57 velocity=58 time=0
note_on channel=6 note=57 velocity=56 time=57
note_on channel=6 note=62 velocity=68 time=0
note_on channel=6 note=66 velocity=60 time=0
note_off channel=6 note=57 velocity=56 time=341
note_off channel=6 note=62 velocity=68 time=2
note_off channel=6 note=66 velocity=60 time=2
note_on channel=6 note=68 velocity=72 time=39
note_on channel=6 note=64 velocity=72 time=0
note_on channel=6 note=59 velocity=62 time=0
note_off channel=6 note=64 velocity=72 time=62
note_off channel=6 note=59 velocity=62 time=1
note_off channel=6 note=68 velocity=72 time=2
note_on channel=6 note=69 velocity=72 time=7
note_on channel=6 note=64 velocity=68 time=0
note_on channel=6 note=61 velocity=72 time=0
note_off channel=6 note=61 velocity=72 time=13
note_off channel=6 note=64 velocity=68 time=1
note_off channel=6 note=69 velocity=72 time=5
note_on channel=6 note=61 velocity=64 time=53
note_on channel=6 note=69 velocity=68 time=0
note_on channel=6 note=64 velocity=64 time=0
note_off channel=6 note=61 velocity=64 time=123
note_off channel=6 note=64 velocity=64 time=5
note_off channel=6 note=69 velocity=68 time=1
note_on channel=6 note=59 velocity=66 time=15
note_on channel=6 note=64 velocity=68 time=0
note_on channel=6 note=68 velocity=68 time=0
note_off channel=6 note=68 velocity=68 time=71
note_off channel=6 note=59 velocity=66 time=5
note_off channel=6 note=64 velocity=68 time=7
note_on channel=6 note=66 velocity=76 time=13
note_on channel=6 note=62 velocity=76 time=0
note_on channel=6 note=57 velocity=66 time=0
note_off channel=6 note=57 velocity=66 time=112
note_off channel=6 note=66 velocity=76 time=2
note_off channel=6 note=62 velocity=76 time=1
note_on channel=6 note=64 velocity=66 time=29
note_on channel=6 note=57 velocity=68 time=0
note_on channel=6 note=61 velocity=72 time=0
note_off channel=6 note=64 velocity=66 time=190
note_off channel=6 note=57 velocity=68 time=8
note_off channel=6 note=61 velocity=72 time=1
note_on channel=6 note=64 velocity=72 time=41
note_on channel=6 note=59 velocity=72 time=0
note_on channel=6 note=56 velocity=68 time=0
note_off channel=6 note=59 velocity=72 time=345
note_off channel=6 note=64 velocity=72 time=5
note_off channel=6 note=56 velocity=68 time=0
note_on channel=6 note=59 velocity=72 time=34
note_on channel=6 note=65 velocity=72 time=0
note_on channel=6 note=61 velocity=68 time=0
note_off channel=6 note=65 velocity=72 time=322
note_off channel=6 note=61 velocity=68 time=2
note_off channel=6 note=59 velocity=72 time=1
note_on channel=6 note=61 velocity=64 time=59
note_on channel=6 note=57 velocity=62 time=0
note_on channel=6 note=66 velocity=54 time=0
note_off channel=6 note=66 velocity=54 time=336
note_off channel=6 note=57 velocity=62 time=6
note_off channel=6 note=61 velocity=64 time=6
note_on channel=6 note=66 velocity=66 time=36
note_on channel=6 note=59 velocity=66 time=0
note_on channel=6 note=63 velocity=58 time=0
note_off channel=6 note=63 velocity=58 time=331
note_off channel=6 note=66 velocity=66 time=11
note_off channel=6 note=59 velocity=66 time=5
note_on channel=6 note=64 velocity=66 time=37
note_on channel=6 note=57 velocity=54 time=0
note_on channel=6 note=62 velocity=68 time=0
note_off channel=6 note=62 velocity=68 time=353
note_off channel=6 note=64 velocity=66 time=1
note_off channel=6 note=57 velocity=54 time=2
note_on channel=6 note=64 velocity=72 time=28
note_on channel=6 note=57 velocity=62 time=0
note_on channel=6 note=62 velocity=72 time=0
note_off channel=6 note=62 velocity=72 time=345
note_off channel=6 note=57 velocity=62 time=9
note_off channel=6 note=64 velocity=72 time=5
note_on channel=6 note=64 velocity=66 time=25
note_on channel=6 note=57 velocity=60 time=0
note_on channel=6 note=61 velocity=76 time=0
note_off channel=6 note=61 velocity=76 time=22
note_off channel=6 note=64 velocity=66 time=18
note_off channel=6 note=57 velocity=60 time=6
note_on channel=6 note=61 velocity=58 time=50
note_on channel=6 note=64 velocity=58 time=0
note_on channel=6 note=57 velocity=58 time=0
note_off channel=6 note=61 velocity=58 time=11
note_off channel=6 note=57 velocity=58 time=1
note_off channel=6 note=64 velocity=58 time=2
note_on channel=6 note=64 velocity=66 time=34
note_on channel=6 note=61 velocity=66 time=0
note_on channel=6 note=57 velocity=56 time=0
note_off channel=6 note=57 velocity=56 time=210
note_off channel=6 note=61 velocity=66 time=11
note_off channel=6 note=64 velocity=66 time=2
note_on channel=6 note=62 velocity=68 time=17
note_on channel=6 note=57 velocity=60 time=0
note_on channel=6 note=66 velocity=44 time=0
note_off channel=6 note=66 velocity=44 time=356
note_off channel=6 note=57 velocity=60 time=5
note_off channel=6 note=62 velocity=68 time=1
note_on channel=6 note=57 velocity=52 time=22
note_on channel=6 note=61 velocity=62 time=0
note_on channel=6 note=64 velocity=68 time=0
note_off channel=6 note=57 velocity=52 time=60
note_off channel=6 note=61 velocity=62 time=0
note_off channel=6 note=64 velocity=68 time=0
note_on channel=6 note=57 velocity=62 time=12
note_on channel=6 note=64 velocity=66 time=0
note_on channel=6 note=61 velocity=56 time=0
note_off channel=6 note=61 velocity=56 time=16
note_off channel=6 note=57 velocity=62 time=2
note_off channel=6 note=64 velocity=66 time=2
note_on channel=6 note=61 velocity=64 time=52
note_on channel=6 note=64 velocity=68 time=0
note_on channel=6 note=57 velocity=56 time=0
note_off channel=6 note=57 velocity=56 time=227
note_off channel=6 note=61 velocity=64 time=5
note_off channel=6 note=64 velocity=68 time=5
note_on channel=6 note=62 velocity=66 time=3
note_on channel=6 note=57 velocity=56 time=0
note_on channel=6 note=66 velocity=54 time=0
note_off channel=6 note=66 velocity=54 time=64
note_off channel=6 note=57 velocity=56 time=2
note_off channel=6 note=62 velocity=66 time=0
note_on channel=6 note=66 velocity=66 time=6
note_on channel=6 note=57 velocity=48 time=0
note_on channel=6 note=62 velocity=64 time=0
note_off channel=6 note=62 velocity=64 time=8
note_off channel=6 note=57 velocity=48 time=7
note_off channel=6 note=66 velocity=66 time=0
note_on channel=6 note=66 velocity=72 time=57
note_on channel=6 note=62 velocity=76 time=0
note_on channel=6 note=57 velocity=60 time=0
note_off channel=6 note=57 velocity=60 time=214
note_off channel=6 note=66 velocity=72 time=0
note_off channel=6 note=62 velocity=76 time=18
note_on channel=6 note=64 velocity=72 time=8
note_on channel=6 note=57 velocity=60 time=0
note_on channel=6 note=61 velocity=64 time=0
note_off channel=6 note=57 velocity=60 time=60
note_off channel=6 note=64 velocity=72 time=0
note_off channel=6 note=61 velocity=64 time=1
note_on channel=6 note=57 velocity=64 time=11
note_on channel=6 note=64 velocity=64 time=0
note_on channel=6 note=61 velocity=62 time=0
note_off channel=6 note=61 velocity=62 time=14
note_off channel=6 note=57 velocity=64 time=2
note_off channel=6 note=64 velocity=64 time=2
note_on channel=6 note=64 velocity=66 time=54
note_on channel=6 note=61 velocity=62 time=0
note_on channel=6 note=57 velocity=58 time=0
note_off channel=6 note=57 velocity=58 time=204
note_off channel=6 note=64 velocity=66 time=4
note_off channel=6 note=61 velocity=62 time=1
note_on channel=6 note=57 velocity=56 time=31
note_on channel=6 note=66 velocity=56 time=0
note_on channel=6 note=62 velocity=66 time=0
note_off channel=6 note=66 velocity=56 time=54
note_off channel=6 note=57 velocity=56 time=6
note_off channel=6 note=62 velocity=66 time=2
note_on channel=6 note=66 velocity=66 time=10
note_on channel=6 note=57 velocity=62 time=0
note_on channel=6 note=62 velocity=64 time=0
note_off channel=6 note=62 velocity=64 time=12
note_off channel=6 note=57 velocity=62 time=5
note_off channel=6 note=66 velocity=66 time=0
note_on channel=6 note=66 velocity=58 time=55
note_on channel=6 note=62 velocity=68 time=0
note_on channel=6 note=57 velocity=56 time=0
note_off channel=6 note=66 velocity=58 time=199
note_off channel=6 note=57 velocity=56 time=3
note_off channel=6 note=62 velocity=68 time=3
note_on channel=6 note=64 velocity=76 time=35
note_on channel=6 note=57 velocity=58 time=0
note_on channel=6 note=61 velocity=54 time=0
note_off channel=6 note=64 velocity=76 time=55
note_off channel=6 note=61 velocity=54 time=3
note_off channel=6 note=57 velocity=58 time=0
note_on channel=6 note=61 velocity=62 time=14
note_on channel=6 note=64 velocity=66 time=0
note_on channel=6 note=57 velocity=60 time=0
note_off channel=6 note=57 velocity=60 time=16
note_off channel=6 note=61 velocity=62 time=0
note_off channel=6 note=64 velocity=66 time=1
note_on channel=6 note=57 velocity=56 time=55
note_on channel=6 note=64 velocity=64 time=0
note_on channel=6 note=61 velocity=64 time=0
note_off channel=6 note=57 velocity=56 time=213
note_off channel=6 note=61 velocity=64 time=12
note_off channel=6 note=64 velocity=64 time=3
note_on channel=6 note=66 velocity=68 time=12
note_on channel=6 note=57 velocity=52 time=0
note_on channel=6 note=62 velocity=76 time=0
note_off channel=6 note=66 velocity=68 time=58
note_off channel=6 note=62 velocity=76 time=4
note_off channel=6 note=57 velocity=52 time=0
note_on channel=6 note=57 velocity=62 time=10
note_on channel=6 note=62 velocity=64 time=0
note_on channel=6 note=66 velocity=52 time=0
note_off channel=6 note=62 velocity=64 time=14
note_off channel=6 note=57 velocity=62 time=2
note_off channel=6 note=66 velocity=52 time=4
note_on channel=6 note=57 velocity=56 time=52
note_on channel=6 note=66 velocity=58 time=0
note_on channel=6 note=62 velocity=72 time=0
note_off channel=6 note=62 velocity=72 time=189
note_off channel=6 note=66 velocity=58 time=3
note_off channel=6 note=57 velocity=56 time=3
note_on channel=6 note=64 velocity=68 time=45
note_on channel=6 note=57 velocity=60 time=0
note_on channel=6 note=61 velocity=60 time=0
note_off channel=6 note=57 velocity=60 time=55
note_off channel=6 note=61 velocity=60 time=1
note_off channel=6 note=64 velocity=68 time=1
note_on channel=6 note=57 velocity=58 time=15
note_on channel=6 note=61 velocity=66 time=0
note_on channel=6 note=64 velocity=68 time=0
note_off channel=6 note=61 velocity=66 time=13
note_off channel=6 note=57 velocity=58 time=2
note_off channel=6 note=64 velocity=68 time=1
note_on channel=6 note=64 velocity=66 time=56
note_on channel=6 note=57 velocity=52 time=0
note_on channel=6 note=61 velocity=62 time=0
note_off channel=6 note=57 velocity=52 time=211
note_off channel=6 note=64 velocity=66 time=10
note_off channel=6 note=61 velocity=62 time=7
note_on channel=6 note=57 velocity=64 time=12
note_on channel=6 note=62 velocity=68 time=0
note_on channel=6 note=66 velocity=48 time=0
note_off channel=6 note=66 velocity=48 time=56
note_off channel=6 note=57 velocity=64 time=2
note_off channel=6 note=62 velocity=68 time=5
note_on channel=6 note=66 velocity=72 time=9
note_on channel=6 note=57 velocity=64 time=0
note_on channel=6 note=62 velocity=68 time=0
note_off channel=6 note=62 velocity=68 time=14
note_off channel=6 note=57 velocity=64 time=2
note_off channel=6 note=66 velocity=72 time=1
note_on channel=6 note=66 velocity=64 time=55
note_on channel=6 note=57 velocity=64 time=0
note_on channel=6 note=62 velocity=68 time=0
note_off channel=6 note=62 velocity=68 time=200
note_off channel=6 note=66 velocity=64 time=2
note_off channel=6 note=57 velocity=64 time=4
note_on channel=6 note=64 velocity=68 time=34
note_on channel=6 note=57 velocity=64 time=0
note_on channel=6 note=61 velocity=60 time=0
note_off channel=6 note=57 velocity=64 time=59
note_off channel=6 note=64 velocity=68 time=0
note_off channel=6 note=61 velocity=60 time=2
note_on channel=6 note=57 velocity=58 time=11
note_on channel=6 note=64 velocity=68 time=0
note_on channel=6 note=61 velocity=60 time=0
note_off channel=6 note=57 velocity=58 time=14
note_off channel=6 note=61 velocity=60 time=1
note_off channel=6 note=64 velocity=68 time=3
note_on channel=6 note=64 velocity=72 time=54
note_on channel=6 note=61 velocity=64 time=0
note_on channel=6 note=57 velocity=56 time=0
note_off channel=6 note=57 velocity=56 time=216
note_off channel=6 note=64 velocity=72 time=10
note_off channel=6 note=61 velocity=64 time=3
note_on channel=6 note=66 velocity=68 time=11
note_on channel=6 note=62 velocity=72 time=0
note_on channel=6 note=57 velocity=64 time=0
note_off channel=6 note=66 velocity=68 time=61
note_off channel=6 note=62 velocity=72 time=5
note_off channel=6 note=57 velocity=64 time=0
note_on channel=6 note=57 velocity=66 time=6
note_on channel=6 note=66 velocity=64 time=0
note_on channel=6 note=62 velocity=60 time=0
note_off channel=6 note=62 velocity=60 time=12
note_off channel=6 note=57 velocity=66 time=4
note_off channel=6 note=66 velocity=64 time=2
note_on channel=6 note=62 velocity=68 time=54
note_on channel=6 note=57 velocity=52 time=0
note_on channel=6 note=66 velocity=56 time=0
note_off channel=6 note=66 velocity=56 time=190
note_off channel=6 note=62 velocity=68 time=0
note_off channel=6 note=57 velocity=52 time=4
note_on channel=6 note=57 velocity=56 time=46
note_on channel=6 note=61 velocity=58 time=0
note_on channel=6 note=64 velocity=72 time=0
note_off channel=6 note=57 velocity=56 time=63
note_off channel=6 note=61 velocity=58 time=1
note_off channel=6 note=64 velocity=72 time=0
note_on channel=6 note=57 velocity=62 time=8
note_on channel=6 note=61 velocity=62 time=0
note_on channel=6 note=64 velocity=66 time=0
note_off channel=6 note=61 velocity=62 time=13
note_off channel=6 note=57 velocity=62 time=1
note_off channel=6 note=64 velocity=66 time=1
note_on channel=6 note=64 velocity=68 time=57
note_on channel=6 note=61 velocity=62 time=0
note_on channel=6 note=57 velocity=50 time=0
note_off channel=6 note=57 velocity=50 time=208
note_off channel=6 note=61 velocity=62 time=12
note_off channel=6 note=64 velocity=68 time=8
note_on channel=6 note=57 velocity=54 time=12
note_on channel=6 note=66 velocity=66 time=0
note_on channel=6 note=62 velocity=72 time=0
note_off channel=6 note=66 velocity=66 time=67
note_off channel=6 note=62 velocity=72 time=1
note_off channel=6 note=57 velocity=54 time=3
note_on channel=6 note=57 velocity=64 time=1
note_on channel=6 note=66 velocity=64 time=0
note_on channel=6 note=62 velocity=64 time=0
note_off channel=6 note=62 velocity=64 time=10
note_off channel=6 note=57 velocity=64 time=5
note_off channel=6 note=66 velocity=64 time=2
note_on channel=6 note=66 velocity=60 time=55
note_on channel=6 note=57 velocity=56 time=0
note_on channel=6 note=62 velocity=68 time=0
note_off channel=6 note=66 velocity=60 time=202
note_off channel=6 note=57 velocity=56 time=3
note_off channel=6 note=62 velocity=68 time=1
note_on channel=6 note=57 velocity=56 time=34
note_on channel=6 note=61 velocity=54 time=0
note_on channel=6 note=64 velocity=72 time=0
note_off channel=6 note=64 velocity=72 time=56
note_off channel=6 note=57 velocity=56 time=1
note_off channel=6 note=61 velocity=54 time=2
note_on channel=6 note=57 velocity=66 time=13
note_on channel=6 note=64 velocity=66 time=0
note_on channel=6 note=61 velocity=62 time=0
note_off channel=6 note=61 velocity=62 time=13
note_off channel=6 note=57 velocity=66 time=2
note_off channel=6 note=64 velocity=66 time=0
note_on channel=6 note=61 velocity=62 time=57
note_on channel=6 note=64 velocity=68 time=0
note_on channel=6 note=57 velocity=56 time=0
note_off channel=6 note=57 velocity=56 time=210
note_off channel=6 note=64 velocity=68 time=8
note_off channel=6 note=61 velocity=62 time=1
note_on channel=6 note=62 velocity=68 time=21
note_on channel=6 note=57 velocity=56 time=0
note_on channel=6 note=66 velocity=60 time=0
note_off channel=6 note=66 velocity=60 time=60
note_off channel=6 note=57 velocity=56 time=5
note_off channel=6 note=62 velocity=68 time=1
note_on channel=6 note=57 velocity=62 time=6
note_on channel=6 note=62 velocity=66 time=0
note_on channel=6 note=66 velocity=39 time=0
note_off channel=6 note=62 velocity=66 time=12
note_off channel=6 note=57 velocity=62 time=1
note_off channel=6 note=66 velocity=39 time=1
note_on channel=6 note=66 velocity=60 time=58
note_on channel=6 note=62 velocity=68 time=0
note_on channel=6 note=57 velocity=54 time=0
note_off channel=6 note=57 velocity=54 time=202
note_off channel=6 note=66 velocity=60 time=0
note_off channel=6 note=62 velocity=68 time=2
control_change channel=6 control=101 value=0 time=36
control_change channel=6 control=100 value=0 time=0
control_change channel=6 control=6 value=12 time=0
control_change channel=6 control=10 value=64 time=0
control_change channel=6 control=7 value=100 time=0
pitchwheel channel=6 pitch=0 time=0
program_change channel=6 program=0 time=0
control_change channel=6 control=101 value=0 time=1
control_change channel=6 control=100 value=0 time=0
control_change channel=6 control=6 value=12 time=0
control_change channel=6 control=10 value=64 time=0
control_change channel=6 control=7 value=100 time=0
pitchwheel channel=6 pitch=0 time=0
program_change channel=6 program=0 time=0
MetaMessage('end_of_track', time=0)
Track 9:
MetaMessage('track_name', name='Channel #9', time=0)
control_change channel=7 control=10 value=64 time=0
control_change channel=7 control=7 value=100 time=0
pitchwheel channel=7 pitch=0 time=0
control_change channel=7 control=101 value=0 time=0
control_change channel=7 control=100 value=0 time=0
control_change channel=7 control=6 value=12 time=0
control_change channel=7 control=10 value=64 time=0
control_change channel=7 control=7 value=100 time=0
pitchwheel channel=7 pitch=0 time=0
program_change channel=7 program=0 time=0
control_change channel=7 control=101 value=0 time=0
control_change channel=7 control=100 value=0 time=0
control_change channel=7 control=6 value=12 time=0
control_change channel=7 control=10 value=64 time=0
control_change channel=7 control=7 value=100 time=0
pitchwheel channel=7 pitch=0 time=0
program_change channel=7 program=0 time=0
control_change channel=7 control=101 value=0 time=0
control_change channel=7 control=100 value=0 time=0
control_change channel=7 control=6 value=12 time=0
control_change channel=7 control=10 value=44 time=0
control_change channel=7 control=7 value=60 time=0
pitchwheel channel=7 pitch=0 time=0
program_change channel=7 program=0 time=0
control_change channel=7 control=7 value=60 time=139
control_change channel=7 control=10 value=44 time=0
note_on channel=7 note=57 velocity=50 time=3725
note_off channel=7 note=57 velocity=50 time=8
note_on channel=7 note=57 velocity=50 time=16
note_off channel=7 note=57 velocity=50 time=8
note_on channel=7 note=57 velocity=50 time=16
note_off channel=7 note=57 velocity=50 time=8
note_on channel=7 note=57 velocity=50 time=16
note_off channel=7 note=57 velocity=50 time=8
note_on channel=7 note=57 velocity=50 time=16
note_off channel=7 note=57 velocity=50 time=8
note_on channel=7 note=64 velocity=50 time=4096
note_on channel=7 note=61 velocity=50 time=0
note_off channel=7 note=64 velocity=50 time=8
note_off channel=7 note=61 velocity=50 time=0
note_on channel=7 note=64 velocity=50 time=16
note_on channel=7 note=61 velocity=50 time=0
note_off channel=7 note=64 velocity=50 time=8
note_off channel=7 note=61 velocity=50 time=0
note_on channel=7 note=64 velocity=50 time=16
note_on channel=7 note=61 velocity=50 time=0
note_off channel=7 note=64 velocity=50 time=8
note_off channel=7 note=61 velocity=50 time=0
note_on channel=7 note=64 velocity=50 time=16
note_on channel=7 note=61 velocity=50 time=0
note_off channel=7 note=64 velocity=50 time=8
note_off channel=7 note=61 velocity=50 time=0
note_on channel=7 note=64 velocity=50 time=16
note_on channel=7 note=61 velocity=50 time=0
note_off channel=7 note=64 velocity=50 time=8
note_off channel=7 note=61 velocity=50 time=0
note_on channel=7 note=64 velocity=50 time=16
note_on channel=7 note=61 velocity=50 time=0
note_off channel=7 note=64 velocity=50 time=8
note_off channel=7 note=61 velocity=50 time=0
note_on channel=7 note=64 velocity=50 time=16
note_on channel=7 note=61 velocity=50 time=0
note_off channel=7 note=64 velocity=50 time=8
note_off channel=7 note=61 velocity=50 time=0
note_on channel=7 note=64 velocity=50 time=16
note_on channel=7 note=61 velocity=50 time=0
note_off channel=7 note=64 velocity=50 time=8
note_off channel=7 note=61 velocity=50 time=0
note_on channel=7 note=64 velocity=50 time=16
note_on channel=7 note=61 velocity=50 time=0
note_off channel=7 note=64 velocity=50 time=8
note_off channel=7 note=61 velocity=50 time=0
note_on channel=7 note=64 velocity=50 time=16
note_on channel=7 note=61 velocity=50 time=0
note_off channel=7 note=61 velocity=50 time=8
note_off channel=7 note=64 velocity=50 time=0
note_on channel=7 note=64 velocity=50 time=16
note_on channel=7 note=61 velocity=50 time=0
note_off channel=7 note=64 velocity=50 time=8
note_off channel=7 note=61 velocity=50 time=0
note_on channel=7 note=64 velocity=50 time=16
note_on channel=7 note=61 velocity=50 time=0
note_off channel=7 note=64 velocity=50 time=8
note_off channel=7 note=61 velocity=50 time=0
note_on channel=7 note=64 velocity=50 time=16
note_on channel=7 note=61 velocity=50 time=0
note_off channel=7 note=64 velocity=50 time=8
note_off channel=7 note=61 velocity=50 time=0
note_on channel=7 note=64 velocity=50 time=16
note_on channel=7 note=61 velocity=50 time=0
note_off channel=7 note=64 velocity=50 time=8
note_off channel=7 note=61 velocity=50 time=0
note_on channel=7 note=64 velocity=50 time=16
note_on channel=7 note=61 velocity=50 time=0
note_off channel=7 note=64 velocity=50 time=8
note_off channel=7 note=61 velocity=50 time=0
note_on channel=7 note=64 velocity=50 time=16
note_on channel=7 note=61 velocity=50 time=0
note_off channel=7 note=64 velocity=50 time=8
note_off channel=7 note=61 velocity=50 time=0
note_on channel=7 note=66 velocity=50 time=16
note_on channel=7 note=62 velocity=50 time=0
note_off channel=7 note=66 velocity=50 time=8
note_off channel=7 note=62 velocity=50 time=0
note_on channel=7 note=66 velocity=50 time=16
note_on channel=7 note=62 velocity=50 time=0
note_off channel=7 note=66 velocity=50 time=8
note_off channel=7 note=62 velocity=50 time=0
note_on channel=7 note=66 velocity=50 time=16
note_on channel=7 note=62 velocity=50 time=0
note_off channel=7 note=66 velocity=50 time=8
note_off channel=7 note=62 velocity=50 time=0
note_on channel=7 note=66 velocity=50 time=16
note_on channel=7 note=62 velocity=50 time=0
note_off channel=7 note=66 velocity=50 time=8
note_off channel=7 note=62 velocity=50 time=0
note_on channel=7 note=66 velocity=50 time=16
note_on channel=7 note=62 velocity=50 time=0
note_off channel=7 note=66 velocity=50 time=8
note_off channel=7 note=62 velocity=50 time=0
note_on channel=7 note=66 velocity=50 time=16
note_on channel=7 note=62 velocity=50 time=0
note_off channel=7 note=66 velocity=50 time=8
note_off channel=7 note=62 velocity=50 time=0
note_on channel=7 note=66 velocity=50 time=16
note_on channel=7 note=62 velocity=50 time=0
note_off channel=7 note=66 velocity=50 time=8
note_off channel=7 note=62 velocity=50 time=0
note_on channel=7 note=66 velocity=50 time=16
note_on channel=7 note=62 velocity=50 time=0
note_off channel=7 note=66 velocity=50 time=8
note_off channel=7 note=62 velocity=50 time=0
note_on channel=7 note=66 velocity=50 time=16
note_on channel=7 note=62 velocity=50 time=0
note_off channel=7 note=66 velocity=50 time=8
note_off channel=7 note=62 velocity=50 time=0
note_on channel=7 note=66 velocity=50 time=16
note_on channel=7 note=62 velocity=50 time=0
note_off channel=7 note=66 velocity=50 time=8
note_off channel=7 note=62 velocity=50 time=0
note_on channel=7 note=66 velocity=50 time=16
note_on channel=7 note=62 velocity=50 time=0
note_off channel=7 note=66 velocity=50 time=8
note_off channel=7 note=62 velocity=50 time=0
note_on channel=7 note=66 velocity=50 time=16
note_on channel=7 note=62 velocity=50 time=0
note_off channel=7 note=62 velocity=50 time=8
note_off channel=7 note=66 velocity=50 time=0
note_on channel=7 note=66 velocity=50 time=16
note_on channel=7 note=62 velocity=50 time=0
note_off channel=7 note=66 velocity=50 time=8
note_off channel=7 note=62 velocity=50 time=0
note_on channel=7 note=66 velocity=50 time=16
note_on channel=7 note=62 velocity=50 time=0
note_off channel=7 note=66 velocity=50 time=8
note_off channel=7 note=62 velocity=50 time=0
note_on channel=7 note=66 velocity=50 time=16
note_on channel=7 note=62 velocity=50 time=0
note_off channel=7 note=66 velocity=50 time=8
note_off channel=7 note=62 velocity=50 time=0
note_on channel=7 note=66 velocity=50 time=16
note_on channel=7 note=62 velocity=50 time=0
note_off channel=7 note=66 velocity=50 time=8
note_off channel=7 note=62 velocity=50 time=0
note_on channel=7 note=64 velocity=50 time=16
note_on channel=7 note=61 velocity=50 time=0
note_off channel=7 note=64 velocity=50 time=8
note_off channel=7 note=61 velocity=50 time=0
note_on channel=7 note=64 velocity=50 time=16
note_on channel=7 note=61 velocity=50 time=0
note_off channel=7 note=64 velocity=50 time=8
note_off channel=7 note=61 velocity=50 time=0
note_on channel=7 note=64 velocity=50 time=16
note_on channel=7 note=61 velocity=50 time=0
note_off channel=7 note=64 velocity=50 time=8
note_off channel=7 note=61 velocity=50 time=0
note_on channel=7 note=64 velocity=50 time=16
note_on channel=7 note=61 velocity=50 time=0
note_off channel=7 note=64 velocity=50 time=8
note_off channel=7 note=61 velocity=50 time=0
note_on channel=7 note=64 velocity=50 time=16
note_on channel=7 note=61 velocity=50 time=0
note_off channel=7 note=61 velocity=50 time=8
note_off channel=7 note=64 velocity=50 time=0
note_on channel=7 note=64 velocity=50 time=16
note_on channel=7 note=61 velocity=50 time=0
note_off channel=7 note=64 velocity=50 time=8
note_off channel=7 note=61 velocity=50 time=0
note_on channel=7 note=64 velocity=50 time=16
note_on channel=7 note=61 velocity=50 time=0
note_off channel=7 note=64 velocity=50 time=8
note_off channel=7 note=61 velocity=50 time=0
note_on channel=7 note=64 velocity=50 time=16
note_on channel=7 note=61 velocity=50 time=0
note_off channel=7 note=64 velocity=50 time=8
note_off channel=7 note=61 velocity=50 time=0
note_on channel=7 note=64 velocity=50 time=16
note_on channel=7 note=61 velocity=50 time=0
note_off channel=7 note=64 velocity=50 time=8
note_off channel=7 note=61 velocity=50 time=0
note_on channel=7 note=64 velocity=50 time=16
note_on channel=7 note=61 velocity=50 time=0
note_off channel=7 note=64 velocity=50 time=8
note_off channel=7 note=61 velocity=50 time=0
note_on channel=7 note=64 velocity=50 time=16
note_on channel=7 note=61 velocity=50 time=0
note_off channel=7 note=64 velocity=50 time=8
note_off channel=7 note=61 velocity=50 time=0
note_on channel=7 note=64 velocity=50 time=16
note_on channel=7 note=61 velocity=50 time=0
note_off channel=7 note=64 velocity=50 time=8
note_off channel=7 note=61 velocity=50 time=0
note_on channel=7 note=64 velocity=50 time=16
note_on channel=7 note=61 velocity=50 time=0
note_off channel=7 note=64 velocity=50 time=8
note_off channel=7 note=61 velocity=50 time=0
note_on channel=7 note=64 velocity=50 time=16
note_on channel=7 note=61 velocity=50 time=0
note_off channel=7 note=64 velocity=50 time=8
note_off channel=7 note=61 velocity=50 time=0
note_on channel=7 note=64 velocity=50 time=16
note_on channel=7 note=61 velocity=50 time=0
note_off channel=7 note=64 velocity=50 time=8
note_off channel=7 note=61 velocity=50 time=0
note_on channel=7 note=64 velocity=50 time=16
note_on channel=7 note=61 velocity=50 time=0
note_off channel=7 note=64 velocity=50 time=8
note_off channel=7 note=61 velocity=50 time=0
note_on channel=7 note=66 velocity=50 time=16
note_on channel=7 note=61 velocity=50 time=0
note_off channel=7 note=66 velocity=50 time=8
note_off channel=7 note=61 velocity=50 time=0
note_on channel=7 note=66 velocity=50 time=16
note_on channel=7 note=61 velocity=50 time=0
note_off channel=7 note=66 velocity=50 time=8
note_off channel=7 note=61 velocity=50 time=0
note_on channel=7 note=66 velocity=50 time=16
note_on channel=7 note=61 velocity=50 time=0
note_off channel=7 note=66 velocity=50 time=8
note_off channel=7 note=61 velocity=50 time=0
note_on channel=7 note=66 velocity=50 time=16
note_on channel=7 note=61 velocity=50 time=0
note_off channel=7 note=66 velocity=50 time=8
note_off channel=7 note=61 velocity=50 time=0
note_on channel=7 note=66 velocity=50 time=16
note_on channel=7 note=61 velocity=50 time=0
note_off channel=7 note=61 velocity=50 time=8
note_off channel=7 note=66 velocity=50 time=0
note_on channel=7 note=66 velocity=50 time=16
note_on channel=7 note=61 velocity=50 time=0
note_off channel=7 note=66 velocity=50 time=8
note_off channel=7 note=61 velocity=50 time=0
note_on channel=7 note=61 velocity=50 time=16
note_off channel=7 note=61 velocity=50 time=8
note_on channel=7 note=66 velocity=50 time=16
note_on channel=7 note=61 velocity=50 time=0
note_off channel=7 note=66 velocity=50 time=8
note_off channel=7 note=61 velocity=50 time=0
note_on channel=7 note=66 velocity=50 time=16
note_on channel=7 note=61 velocity=50 time=0
note_off channel=7 note=66 velocity=50 time=8
note_off channel=7 note=61 velocity=50 time=0
note_on channel=7 note=61 velocity=50 time=16
note_off channel=7 note=61 velocity=50 time=8
note_on channel=7 note=61 velocity=50 time=16
note_off channel=7 note=61 velocity=50 time=8
note_on channel=7 note=66 velocity=50 time=16
note_on channel=7 note=61 velocity=50 time=0
note_off channel=7 note=66 velocity=50 time=8
note_off channel=7 note=61 velocity=50 time=0
note_on channel=7 note=66 velocity=50 time=16
note_on channel=7 note=61 velocity=50 time=0
note_off channel=7 note=66 velocity=50 time=8
note_off channel=7 note=61 velocity=50 time=0
note_on channel=7 note=66 velocity=50 time=16
note_on channel=7 note=61 velocity=50 time=0
note_off channel=7 note=66 velocity=50 time=8
note_off channel=7 note=61 velocity=50 time=0
note_on channel=7 note=66 velocity=50 time=16
note_on channel=7 note=61 velocity=50 time=0
note_off channel=7 note=66 velocity=50 time=8
note_off channel=7 note=61 velocity=50 time=0
note_on channel=7 note=66 velocity=50 time=16
note_on channel=7 note=61 velocity=50 time=0
note_off channel=7 note=61 velocity=50 time=8
note_off channel=7 note=66 velocity=50 time=0
note_on channel=7 note=64 velocity=50 time=1552
note_on channel=7 note=61 velocity=50 time=0
note_off channel=7 note=64 velocity=50 time=8
note_off channel=7 note=61 velocity=50 time=0
note_on channel=7 note=64 velocity=50 time=16
note_on channel=7 note=61 velocity=50 time=0
note_off channel=7 note=64 velocity=50 time=8
note_off channel=7 note=61 velocity=50 time=0
note_on channel=7 note=64 velocity=50 time=16
note_on channel=7 note=61 velocity=50 time=0
note_off channel=7 note=64 velocity=50 time=8
note_off channel=7 note=61 velocity=50 time=0
note_on channel=7 note=64 velocity=50 time=16
note_on channel=7 note=61 velocity=50 time=0
note_off channel=7 note=64 velocity=50 time=8
note_off channel=7 note=61 velocity=50 time=0
note_on channel=7 note=64 velocity=50 time=16
note_on channel=7 note=61 velocity=50 time=0
note_off channel=7 note=64 velocity=50 time=8
note_off channel=7 note=61 velocity=50 time=0
note_on channel=7 note=64 velocity=50 time=16
note_on channel=7 note=61 velocity=50 time=0
note_off channel=7 note=64 velocity=50 time=8
note_off channel=7 note=61 velocity=50 time=0
note_on channel=7 note=64 velocity=50 time=16
note_on channel=7 note=61 velocity=50 time=0
note_off channel=7 note=64 velocity=50 time=8
note_off channel=7 note=61 velocity=50 time=0
note_on channel=7 note=64 velocity=50 time=16
note_on channel=7 note=61 velocity=50 time=0
note_off channel=7 note=64 velocity=50 time=8
note_off channel=7 note=61 velocity=50 time=0
note_on channel=7 note=64 velocity=50 time=16
note_on channel=7 note=61 velocity=50 time=0
note_off channel=7 note=64 velocity=50 time=8
note_off channel=7 note=61 velocity=50 time=0
note_on channel=7 note=64 velocity=50 time=16
note_on channel=7 note=61 velocity=50 time=0
note_off channel=7 note=61 velocity=50 time=8
note_off channel=7 note=64 velocity=50 time=0
note_on channel=7 note=64 velocity=50 time=16
note_on channel=7 note=61 velocity=50 time=0
note_off channel=7 note=64 velocity=50 time=8
note_off channel=7 note=61 velocity=50 time=0
note_on channel=7 note=64 velocity=50 time=16
note_on channel=7 note=61 velocity=50 time=0
note_off channel=7 note=64 velocity=50 time=8
note_off channel=7 note=61 velocity=50 time=0
note_on channel=7 note=64 velocity=50 time=16
note_on channel=7 note=61 velocity=50 time=0
note_off channel=7 note=61 velocity=50 time=8
note_off channel=7 note=64 velocity=50 time=0
note_on channel=7 note=64 velocity=50 time=16
note_on channel=7 note=61 velocity=50 time=0
note_off channel=7 note=64 velocity=50 time=8
note_off channel=7 note=61 velocity=50 time=0
note_on channel=7 note=64 velocity=50 time=16
note_on channel=7 note=61 velocity=50 time=0
note_off channel=7 note=64 velocity=50 time=8
note_off channel=7 note=61 velocity=50 time=0
note_on channel=7 note=64 velocity=50 time=16
note_on channel=7 note=61 velocity=50 time=0
note_off channel=7 note=61 velocity=50 time=8
note_off channel=7 note=64 velocity=50 time=0
note_on channel=7 note=66 velocity=50 time=16
note_on channel=7 note=62 velocity=50 time=0
note_off channel=7 note=66 velocity=50 time=8
note_off channel=7 note=62 velocity=50 time=0
note_on channel=7 note=66 velocity=50 time=16
note_on channel=7 note=62 velocity=50 time=0
note_off channel=7 note=66 velocity=50 time=8
note_off channel=7 note=62 velocity=50 time=0
note_on channel=7 note=66 velocity=50 time=16
note_on channel=7 note=62 velocity=50 time=0
note_off channel=7 note=66 velocity=50 time=8
note_off channel=7 note=62 velocity=50 time=0
note_on channel=7 note=66 velocity=50 time=16
note_on channel=7 note=62 velocity=50 time=0
note_off channel=7 note=66 velocity=50 time=8
note_off channel=7 note=62 velocity=50 time=0
note_on channel=7 note=66 velocity=50 time=16
note_on channel=7 note=62 velocity=50 time=0
note_off channel=7 note=66 velocity=50 time=8
note_off channel=7 note=62 velocity=50 time=0
note_on channel=7 note=66 velocity=50 time=16
note_on channel=7 note=62 velocity=50 time=0
note_off channel=7 note=66 velocity=50 time=8
note_off channel=7 note=62 velocity=50 time=0
note_on channel=7 note=66 velocity=50 time=16
note_on channel=7 note=62 velocity=50 time=0
note_off channel=7 note=66 velocity=50 time=8
note_off channel=7 note=62 velocity=50 time=0
note_on channel=7 note=66 velocity=50 time=16
note_on channel=7 note=62 velocity=50 time=0
note_off channel=7 note=66 velocity=50 time=8
note_off channel=7 note=62 velocity=50 time=0
note_on channel=7 note=66 velocity=50 time=16
note_on channel=7 note=62 velocity=50 time=0
note_off channel=7 note=66 velocity=50 time=8
note_off channel=7 note=62 velocity=50 time=0
note_on channel=7 note=66 velocity=50 time=16
note_on channel=7 note=62 velocity=50 time=0
note_off channel=7 note=66 velocity=50 time=8
note_off channel=7 note=62 velocity=50 time=0
note_on channel=7 note=66 velocity=50 time=16
note_on channel=7 note=62 velocity=50 time=0
note_off channel=7 note=66 velocity=50 time=8
note_off channel=7 note=62 velocity=50 time=0
note_on channel=7 note=66 velocity=50 time=16
note_on channel=7 note=62 velocity=50 time=0
note_off channel=7 note=66 velocity=50 time=8
note_off channel=7 note=62 velocity=50 time=0
note_on channel=7 note=66 velocity=50 time=16
note_on channel=7 note=62 velocity=50 time=0
note_off channel=7 note=66 velocity=50 time=8
note_off channel=7 note=62 velocity=50 time=0
note_on channel=7 note=66 velocity=50 time=16
note_on channel=7 note=62 velocity=50 time=0
note_off channel=7 note=66 velocity=50 time=8
note_off channel=7 note=62 velocity=50 time=0
note_on channel=7 note=66 velocity=50 time=16
note_on channel=7 note=62 velocity=50 time=0
note_off channel=7 note=66 velocity=50 time=8
note_off channel=7 note=62 velocity=50 time=0
note_on channel=7 note=66 velocity=50 time=16
note_on channel=7 note=62 velocity=50 time=0
note_off channel=7 note=62 velocity=50 time=8
note_off channel=7 note=66 velocity=50 time=0
note_on channel=7 note=64 velocity=50 time=16
note_on channel=7 note=61 velocity=50 time=0
note_off channel=7 note=64 velocity=50 time=8
note_off channel=7 note=61 velocity=50 time=0
note_on channel=7 note=64 velocity=50 time=16
note_on channel=7 note=61 velocity=50 time=0
note_off channel=7 note=64 velocity=50 time=8
note_off channel=7 note=61 velocity=50 time=0
note_on channel=7 note=64 velocity=50 time=16
note_on channel=7 note=61 velocity=50 time=0
note_off channel=7 note=61 velocity=50 time=8
note_off channel=7 note=64 velocity=50 time=0
note_on channel=7 note=64 velocity=50 time=16
note_on channel=7 note=61 velocity=50 time=0
note_off channel=7 note=64 velocity=50 time=8
note_off channel=7 note=61 velocity=50 time=0
note_on channel=7 note=64 velocity=50 time=16
note_on channel=7 note=61 velocity=50 time=0
note_off channel=7 note=64 velocity=50 time=8
note_off channel=7 note=61 velocity=50 time=0
note_on channel=7 note=64 velocity=50 time=16
note_on channel=7 note=61 velocity=50 time=0
note_off channel=7 note=64 velocity=50 time=8
note_off channel=7 note=61 velocity=50 time=0
note_on channel=7 note=64 velocity=50 time=16
note_on channel=7 note=61 velocity=50 time=0
note_off channel=7 note=64 velocity=50 time=8
note_off channel=7 note=61 velocity=50 time=0
note_on channel=7 note=64 velocity=50 time=16
note_on channel=7 note=61 velocity=50 time=0
note_off channel=7 note=64 velocity=50 time=8
note_off channel=7 note=61 velocity=50 time=0
note_on channel=7 note=64 velocity=50 time=16
note_on channel=7 note=61 velocity=50 time=0
note_off channel=7 note=64 velocity=50 time=8
note_off channel=7 note=61 velocity=50 time=0
note_on channel=7 note=64 velocity=50 time=16
note_on channel=7 note=61 velocity=50 time=0
note_off channel=7 note=64 velocity=50 time=8
note_off channel=7 note=61 velocity=50 time=0
note_on channel=7 note=64 velocity=50 time=16
note_on channel=7 note=61 velocity=50 time=0
note_off channel=7 note=64 velocity=50 time=8
note_off channel=7 note=61 velocity=50 time=0
note_on channel=7 note=64 velocity=50 time=16
note_on channel=7 note=61 velocity=50 time=0
note_off channel=7 note=61 velocity=50 time=8
note_off channel=7 note=64 velocity=50 time=0
note_on channel=7 note=64 velocity=50 time=16
note_on channel=7 note=61 velocity=50 time=0
note_off channel=7 note=64 velocity=50 time=8
note_off channel=7 note=61 velocity=50 time=0
note_on channel=7 note=64 velocity=50 time=16
note_on channel=7 note=61 velocity=50 time=0
note_off channel=7 note=64 velocity=50 time=8
note_off channel=7 note=61 velocity=50 time=0
note_on channel=7 note=64 velocity=50 time=16
note_on channel=7 note=61 velocity=50 time=0
note_off channel=7 note=61 velocity=50 time=8
note_off channel=7 note=64 velocity=50 time=0
note_on channel=7 note=64 velocity=50 time=16
note_on channel=7 note=61 velocity=50 time=0
note_off channel=7 note=64 velocity=50 time=8
note_off channel=7 note=61 velocity=50 time=0
note_on channel=7 note=66 velocity=50 time=16
note_on channel=7 note=61 velocity=50 time=0
note_off channel=7 note=66 velocity=50 time=8
note_off channel=7 note=61 velocity=50 time=0
note_on channel=7 note=66 velocity=50 time=16
note_on channel=7 note=61 velocity=50 time=0
note_off channel=7 note=66 velocity=50 time=8
note_off channel=7 note=61 velocity=50 time=0
note_on channel=7 note=66 velocity=50 time=16
note_on channel=7 note=61 velocity=50 time=0
note_off channel=7 note=61 velocity=50 time=8
note_off channel=7 note=66 velocity=50 time=0
note_on channel=7 note=66 velocity=50 time=16
note_on channel=7 note=61 velocity=50 time=0
note_off channel=7 note=66 velocity=50 time=8
note_off channel=7 note=61 velocity=50 time=0
note_on channel=7 note=66 velocity=50 time=16
note_on channel=7 note=61 velocity=50 time=0
note_off channel=7 note=61 velocity=50 time=8
note_off channel=7 note=66 velocity=50 time=0
note_on channel=7 note=66 velocity=50 time=16
note_on channel=7 note=61 velocity=50 time=0
note_off channel=7 note=66 velocity=50 time=8
note_off channel=7 note=61 velocity=50 time=0
note_on channel=7 note=66 velocity=50 time=16
note_on channel=7 note=61 velocity=50 time=0
note_off channel=7 note=66 velocity=50 time=8
note_off channel=7 note=61 velocity=50 time=0
note_on channel=7 note=61 velocity=50 time=16
note_off channel=7 note=61 velocity=50 time=8
note_on channel=7 note=66 velocity=50 time=16
note_on channel=7 note=61 velocity=50 time=0
note_off channel=7 note=66 velocity=50 time=8
note_off channel=7 note=61 velocity=50 time=0
note_on channel=7 note=66 velocity=50 time=16
note_on channel=7 note=61 velocity=50 time=0
note_off channel=7 note=66 velocity=50 time=8
note_off channel=7 note=61 velocity=50 time=0
note_on channel=7 note=66 velocity=50 time=16
note_on channel=7 note=61 velocity=50 time=0
note_off channel=7 note=66 velocity=50 time=8
note_off channel=7 note=61 velocity=50 time=0
note_on channel=7 note=66 velocity=50 time=16
note_on channel=7 note=61 velocity=50 time=0
note_off channel=7 note=66 velocity=50 time=8
note_off channel=7 note=61 velocity=50 time=0
note_on channel=7 note=66 velocity=50 time=16
note_on channel=7 note=61 velocity=50 time=0
note_off channel=7 note=66 velocity=50 time=8
note_off channel=7 note=61 velocity=50 time=0
note_on channel=7 note=66 velocity=50 time=16
note_on channel=7 note=61 velocity=50 time=0
note_off channel=7 note=66 velocity=50 time=8
note_off channel=7 note=61 velocity=50 time=0
note_on channel=7 note=66 velocity=50 time=16
note_on channel=7 note=61 velocity=50 time=0
note_off channel=7 note=66 velocity=50 time=8
note_off channel=7 note=61 velocity=50 time=0
note_on channel=7 note=66 velocity=50 time=16
note_on channel=7 note=61 velocity=50 time=0
note_off channel=7 note=66 velocity=50 time=8
note_off channel=7 note=61 velocity=50 time=0
note_on channel=7 note=62 velocity=50 time=1936
note_on channel=7 note=59 velocity=50 time=0
note_off channel=7 note=62 velocity=50 time=8
note_off channel=7 note=59 velocity=50 time=0
note_on channel=7 note=62 velocity=50 time=16
note_on channel=7 note=59 velocity=50 time=0
note_off channel=7 note=62 velocity=50 time=8
note_off channel=7 note=59 velocity=50 time=0
note_on channel=7 note=62 velocity=50 time=16
note_on channel=7 note=59 velocity=50 time=0
note_off channel=7 note=62 velocity=50 time=8
note_off channel=7 note=59 velocity=50 time=0
note_on channel=7 note=62 velocity=50 time=16
note_on channel=7 note=59 velocity=50 time=0
note_off channel=7 note=62 velocity=50 time=8
note_off channel=7 note=59 velocity=50 time=0
note_on channel=7 note=62 velocity=50 time=16
note_on channel=7 note=59 velocity=50 time=0
note_off channel=7 note=62 velocity=50 time=8
note_off channel=7 note=59 velocity=50 time=0
note_on channel=7 note=62 velocity=50 time=16
note_on channel=7 note=59 velocity=50 time=0
note_off channel=7 note=62 velocity=50 time=8
note_off channel=7 note=59 velocity=50 time=0
note_on channel=7 note=62 velocity=50 time=16
note_on channel=7 note=59 velocity=50 time=0
note_off channel=7 note=62 velocity=50 time=8
note_off channel=7 note=59 velocity=50 time=0
note_on channel=7 note=62 velocity=50 time=16
note_on channel=7 note=59 velocity=50 time=0
note_off channel=7 note=62 velocity=50 time=8
note_off channel=7 note=59 velocity=50 time=0
note_on channel=7 note=62 velocity=50 time=16
note_on channel=7 note=59 velocity=50 time=0
note_off channel=7 note=62 velocity=50 time=8
note_off channel=7 note=59 velocity=50 time=0
note_on channel=7 note=62 velocity=50 time=16
note_on channel=7 note=59 velocity=50 time=0
note_off channel=7 note=59 velocity=50 time=8
note_off channel=7 note=62 velocity=50 time=0
note_on channel=7 note=62 velocity=50 time=16
note_on channel=7 note=59 velocity=50 time=0
note_off channel=7 note=59 velocity=50 time=8
note_off channel=7 note=62 velocity=50 time=0
note_on channel=7 note=62 velocity=50 time=16
note_on channel=7 note=59 velocity=50 time=0
note_off channel=7 note=62 velocity=50 time=8
note_off channel=7 note=59 velocity=50 time=0
note_on channel=7 note=62 velocity=50 time=16
note_on channel=7 note=59 velocity=50 time=0
note_off channel=7 note=62 velocity=50 time=8
note_off channel=7 note=59 velocity=50 time=0
note_on channel=7 note=62 velocity=50 time=16
note_on channel=7 note=59 velocity=50 time=0
note_off channel=7 note=59 velocity=50 time=8
note_off channel=7 note=62 velocity=50 time=0
note_on channel=7 note=62 velocity=50 time=16
note_on channel=7 note=59 velocity=50 time=0
note_off channel=7 note=62 velocity=50 time=8
note_off channel=7 note=59 velocity=50 time=0
note_on channel=7 note=62 velocity=50 time=16
note_on channel=7 note=59 velocity=50 time=0
note_off channel=7 note=59 velocity=50 time=8
note_off channel=7 note=62 velocity=50 time=0
note_on channel=7 note=64 velocity=50 time=16
note_on channel=7 note=61 velocity=50 time=0
note_off channel=7 note=64 velocity=50 time=8
note_off channel=7 note=61 velocity=50 time=0
note_on channel=7 note=64 velocity=50 time=16
note_off channel=7 note=64 velocity=50 time=8
note_on channel=7 note=64 velocity=50 time=16
note_on channel=7 note=61 velocity=50 time=0
note_off channel=7 note=61 velocity=50 time=8
note_off channel=7 note=64 velocity=50 time=0
note_on channel=7 note=64 velocity=50 time=16
note_on channel=7 note=61 velocity=50 time=0
note_off channel=7 note=64 velocity=50 time=8
note_off channel=7 note=61 velocity=50 time=0
note_on channel=7 note=64 velocity=50 time=16
note_on channel=7 note=61 velocity=50 time=0
note_off channel=7 note=64 velocity=50 time=8
note_off channel=7 note=61 velocity=50 time=0
note_on channel=7 note=64 velocity=50 time=16
note_on channel=7 note=61 velocity=50 time=0
note_off channel=7 note=64 velocity=50 time=8
note_off channel=7 note=61 velocity=50 time=0
note_on channel=7 note=64 velocity=50 time=16
note_on channel=7 note=61 velocity=50 time=0
note_off channel=7 note=64 velocity=50 time=8
note_off channel=7 note=61 velocity=50 time=0
note_on channel=7 note=64 velocity=50 time=16
note_on channel=7 note=61 velocity=50 time=0
note_off channel=7 note=64 velocity=50 time=8
note_off channel=7 note=61 velocity=50 time=0
note_on channel=7 note=64 velocity=50 time=16
note_on channel=7 note=61 velocity=50 time=0
note_off channel=7 note=61 velocity=50 time=8
note_off channel=7 note=64 velocity=50 time=0
note_on channel=7 note=64 velocity=50 time=16
note_on channel=7 note=61 velocity=50 time=0
note_off channel=7 note=64 velocity=50 time=8
note_off channel=7 note=61 velocity=50 time=0
note_on channel=7 note=64 velocity=50 time=16
note_on channel=7 note=61 velocity=50 time=0
note_off channel=7 note=64 velocity=50 time=8
note_off channel=7 note=61 velocity=50 time=0
note_on channel=7 note=64 velocity=50 time=16
note_on channel=7 note=61 velocity=50 time=0
note_off channel=7 note=64 velocity=50 time=8
note_off channel=7 note=61 velocity=50 time=0
note_on channel=7 note=64 velocity=50 time=16
note_on channel=7 note=61 velocity=50 time=0
note_off channel=7 note=64 velocity=50 time=8
note_off channel=7 note=61 velocity=50 time=0
note_on channel=7 note=64 velocity=50 time=16
note_on channel=7 note=61 velocity=50 time=0
note_off channel=7 note=64 velocity=50 time=8
note_off channel=7 note=61 velocity=50 time=0
note_on channel=7 note=64 velocity=50 time=16
note_on channel=7 note=61 velocity=50 time=0
note_off channel=7 note=64 velocity=50 time=8
note_off channel=7 note=61 velocity=50 time=0
note_on channel=7 note=64 velocity=50 time=16
note_on channel=7 note=61 velocity=50 time=0
note_off channel=7 note=64 velocity=50 time=8
note_off channel=7 note=61 velocity=50 time=0
note_on channel=7 note=62 velocity=50 time=16
note_off channel=7 note=62 velocity=50 time=8
note_on channel=7 note=66 velocity=50 time=16
note_on channel=7 note=62 velocity=50 time=0
note_off channel=7 note=66 velocity=50 time=8
note_off channel=7 note=62 velocity=50 time=0
note_on channel=7 note=66 velocity=50 time=16
note_on channel=7 note=62 velocity=50 time=0
note_off channel=7 note=62 velocity=50 time=8
note_off channel=7 note=66 velocity=50 time=0
note_on channel=7 note=66 velocity=50 time=16
note_on channel=7 note=62 velocity=50 time=0
note_off channel=7 note=66 velocity=50 time=8
note_off channel=7 note=62 velocity=50 time=0
note_on channel=7 note=66 velocity=50 time=16
note_on channel=7 note=62 velocity=50 time=0
note_off channel=7 note=66 velocity=50 time=8
note_off channel=7 note=62 velocity=50 time=0
note_on channel=7 note=66 velocity=50 time=16
note_on channel=7 note=62 velocity=50 time=0
note_off channel=7 note=62 velocity=50 time=8
note_off channel=7 note=66 velocity=50 time=0
note_on channel=7 note=66 velocity=50 time=16
note_on channel=7 note=62 velocity=50 time=0
note_off channel=7 note=66 velocity=50 time=8
note_off channel=7 note=62 velocity=50 time=0
note_on channel=7 note=66 velocity=50 time=16
note_on channel=7 note=62 velocity=50 time=0
note_off channel=7 note=66 velocity=50 time=8
note_off channel=7 note=62 velocity=50 time=0
note_on channel=7 note=66 velocity=50 time=16
note_on channel=7 note=62 velocity=50 time=0
note_off channel=7 note=66 velocity=50 time=8
note_off channel=7 note=62 velocity=50 time=0
note_on channel=7 note=66 velocity=50 time=16
note_on channel=7 note=62 velocity=50 time=0
note_off channel=7 note=66 velocity=50 time=8
note_off channel=7 note=62 velocity=50 time=0
note_on channel=7 note=66 velocity=50 time=16
note_on channel=7 note=62 velocity=50 time=0
note_off channel=7 note=66 velocity=50 time=8
note_off channel=7 note=62 velocity=50 time=0
note_on channel=7 note=66 velocity=50 time=16
note_on channel=7 note=62 velocity=50 time=0
note_off channel=7 note=66 velocity=50 time=8
note_off channel=7 note=62 velocity=50 time=0
note_on channel=7 note=66 velocity=50 time=16
note_on channel=7 note=62 velocity=50 time=0
note_off channel=7 note=66 velocity=50 time=8
note_off channel=7 note=62 velocity=50 time=0
note_on channel=7 note=66 velocity=50 time=16
note_on channel=7 note=62 velocity=50 time=0
note_off channel=7 note=66 velocity=50 time=8
note_off channel=7 note=62 velocity=50 time=0
note_on channel=7 note=66 velocity=50 time=16
note_on channel=7 note=62 velocity=50 time=0
note_off channel=7 note=66 velocity=50 time=8
note_off channel=7 note=62 velocity=50 time=0
note_on channel=7 note=66 velocity=50 time=16
note_on channel=7 note=62 velocity=50 time=0
note_off channel=7 note=66 velocity=50 time=8
note_off channel=7 note=62 velocity=50 time=0
note_on channel=7 note=64 velocity=50 time=16
note_on channel=7 note=61 velocity=50 time=0
note_off channel=7 note=64 velocity=50 time=8
note_off channel=7 note=61 velocity=50 time=0
note_on channel=7 note=64 velocity=50 time=16
note_on channel=7 note=61 velocity=50 time=0
note_off channel=7 note=64 velocity=50 time=8
note_off channel=7 note=61 velocity=50 time=0
note_on channel=7 note=64 velocity=50 time=16
note_on channel=7 note=61 velocity=50 time=0
note_off channel=7 note=64 velocity=50 time=8
note_off channel=7 note=61 velocity=50 time=0
note_on channel=7 note=64 velocity=50 time=16
note_on channel=7 note=61 velocity=50 time=0
note_off channel=7 note=64 velocity=50 time=8
note_off channel=7 note=61 velocity=50 time=0
note_on channel=7 note=64 velocity=50 time=16
note_on channel=7 note=61 velocity=50 time=0
note_off channel=7 note=64 velocity=50 time=8
note_off channel=7 note=61 velocity=50 time=0
note_on channel=7 note=64 velocity=50 time=16
note_on channel=7 note=61 velocity=50 time=0
note_off channel=7 note=61 velocity=50 time=8
note_off channel=7 note=64 velocity=50 time=0
note_on channel=7 note=64 velocity=50 time=16
note_on channel=7 note=61 velocity=50 time=0
note_off channel=7 note=64 velocity=50 time=8
note_off channel=7 note=61 velocity=50 time=0
note_on channel=7 note=64 velocity=50 time=16
note_on channel=7 note=61 velocity=50 time=0
note_off channel=7 note=64 velocity=50 time=8
note_off channel=7 note=61 velocity=50 time=0
note_on channel=7 note=64 velocity=50 time=16
note_on channel=7 note=61 velocity=50 time=0
note_off channel=7 note=64 velocity=50 time=8
note_off channel=7 note=61 velocity=50 time=0
note_on channel=7 note=64 velocity=50 time=16
note_on channel=7 note=61 velocity=50 time=0
note_off channel=7 note=64 velocity=50 time=8
note_off channel=7 note=61 velocity=50 time=0
note_on channel=7 note=64 velocity=50 time=16
note_on channel=7 note=61 velocity=50 time=0
note_off channel=7 note=64 velocity=50 time=8
note_off channel=7 note=61 velocity=50 time=0
note_on channel=7 note=64 velocity=50 time=16
note_on channel=7 note=61 velocity=50 time=0
note_off channel=7 note=64 velocity=50 time=8
note_off channel=7 note=61 velocity=50 time=0
note_on channel=7 note=64 velocity=50 time=16
note_on channel=7 note=61 velocity=50 time=0
note_off channel=7 note=64 velocity=50 time=8
note_off channel=7 note=61 velocity=50 time=0
note_on channel=7 note=64 velocity=50 time=16
note_on channel=7 note=61 velocity=50 time=0
note_off channel=7 note=64 velocity=50 time=8
note_off channel=7 note=61 velocity=50 time=0
note_on channel=7 note=64 velocity=50 time=16
note_on channel=7 note=61 velocity=50 time=0
note_off channel=7 note=64 velocity=50 time=8
note_off channel=7 note=61 velocity=50 time=0
note_on channel=7 note=64 velocity=50 time=16
note_on channel=7 note=61 velocity=50 time=0
note_off channel=7 note=64 velocity=50 time=8
note_off channel=7 note=61 velocity=50 time=0
note_on channel=7 note=66 velocity=50 time=16
note_on channel=7 note=62 velocity=50 time=0
note_off channel=7 note=66 velocity=50 time=8
note_off channel=7 note=62 velocity=50 time=0
note_on channel=7 note=66 velocity=50 time=16
note_on channel=7 note=62 velocity=50 time=0
note_off channel=7 note=66 velocity=50 time=8
note_off channel=7 note=62 velocity=50 time=0
note_on channel=7 note=66 velocity=50 time=16
note_on channel=7 note=62 velocity=50 time=0
note_off channel=7 note=62 velocity=50 time=8
note_off channel=7 note=66 velocity=50 time=0
note_on channel=7 note=66 velocity=50 time=16
note_on channel=7 note=62 velocity=50 time=0
note_off channel=7 note=62 velocity=50 time=8
note_off channel=7 note=66 velocity=50 time=0
note_on channel=7 note=66 velocity=50 time=16
note_on channel=7 note=62 velocity=50 time=0
note_off channel=7 note=66 velocity=50 time=8
note_off channel=7 note=62 velocity=50 time=0
note_on channel=7 note=66 velocity=50 time=16
note_on channel=7 note=62 velocity=50 time=0
note_off channel=7 note=62 velocity=50 time=8
note_off channel=7 note=66 velocity=50 time=0
note_on channel=7 note=66 velocity=50 time=16
note_on channel=7 note=62 velocity=50 time=0
note_off channel=7 note=66 velocity=50 time=8
note_off channel=7 note=62 velocity=50 time=0
note_on channel=7 note=66 velocity=50 time=16
note_on channel=7 note=62 velocity=50 time=0
note_off channel=7 note=66 velocity=50 time=8
note_off channel=7 note=62 velocity=50 time=0
note_on channel=7 note=66 velocity=50 time=16
note_on channel=7 note=62 velocity=50 time=0
note_off channel=7 note=66 velocity=50 time=8
note_off channel=7 note=62 velocity=50 time=0
note_on channel=7 note=66 velocity=50 time=16
note_on channel=7 note=62 velocity=50 time=0
note_off channel=7 note=66 velocity=50 time=8
note_off channel=7 note=62 velocity=50 time=0
note_on channel=7 note=66 velocity=50 time=16
note_on channel=7 note=62 velocity=50 time=0
note_off channel=7 note=66 velocity=50 time=8
note_off channel=7 note=62 velocity=50 time=0
note_on channel=7 note=66 velocity=50 time=16
note_on channel=7 note=62 velocity=50 time=0
note_off channel=7 note=62 velocity=50 time=8
note_off channel=7 note=66 velocity=50 time=0
note_on channel=7 note=66 velocity=50 time=16
note_on channel=7 note=62 velocity=50 time=0
note_off channel=7 note=66 velocity=50 time=8
note_off channel=7 note=62 velocity=50 time=0
note_on channel=7 note=66 velocity=50 time=16
note_on channel=7 note=62 velocity=50 time=0
note_off channel=7 note=66 velocity=50 time=8
note_off channel=7 note=62 velocity=50 time=0
note_on channel=7 note=66 velocity=50 time=16
note_on channel=7 note=62 velocity=50 time=0
note_off channel=7 note=66 velocity=50 time=8
note_off channel=7 note=62 velocity=50 time=0
note_on channel=7 note=66 velocity=50 time=16
note_on channel=7 note=62 velocity=50 time=0
note_off channel=7 note=66 velocity=50 time=8
note_off channel=7 note=62 velocity=50 time=0
note_on channel=7 note=64 velocity=50 time=16
note_on channel=7 note=61 velocity=50 time=0
note_off channel=7 note=64 velocity=50 time=8
note_off channel=7 note=61 velocity=50 time=0
note_on channel=7 note=64 velocity=50 time=16
note_on channel=7 note=61 velocity=50 time=0
note_off channel=7 note=64 velocity=50 time=8
note_off channel=7 note=61 velocity=50 time=0
note_on channel=7 note=64 velocity=50 time=16
note_on channel=7 note=61 velocity=50 time=0
note_off channel=7 note=64 velocity=50 time=8
note_off channel=7 note=61 velocity=50 time=0
note_on channel=7 note=64 velocity=50 time=16
note_on channel=7 note=61 velocity=50 time=0
note_off channel=7 note=64 velocity=50 time=8
note_off channel=7 note=61 velocity=50 time=0
note_on channel=7 note=64 velocity=50 time=16
note_on channel=7 note=61 velocity=50 time=0
note_off channel=7 note=64 velocity=50 time=8
note_off channel=7 note=61 velocity=50 time=0
note_on channel=7 note=64 velocity=50 time=16
note_on channel=7 note=61 velocity=50 time=0
note_off channel=7 note=61 velocity=50 time=8
note_off channel=7 note=64 velocity=50 time=0
note_on channel=7 note=64 velocity=50 time=16
note_on channel=7 note=61 velocity=50 time=0
note_off channel=7 note=64 velocity=50 time=8
note_off channel=7 note=61 velocity=50 time=0
note_on channel=7 note=64 velocity=50 time=16
note_on channel=7 note=61 velocity=50 time=0
note_off channel=7 note=64 velocity=50 time=8
note_off channel=7 note=61 velocity=50 time=0
note_on channel=7 note=64 velocity=50 time=16
note_on channel=7 note=61 velocity=50 time=0
note_off channel=7 note=64 velocity=50 time=8
note_off channel=7 note=61 velocity=50 time=0
note_on channel=7 note=64 velocity=50 time=16
note_on channel=7 note=61 velocity=50 time=0
note_off channel=7 note=64 velocity=50 time=8
note_off channel=7 note=61 velocity=50 time=0
note_on channel=7 note=64 velocity=50 time=16
note_on channel=7 note=61 velocity=50 time=0
note_off channel=7 note=64 velocity=50 time=8
note_off channel=7 note=61 velocity=50 time=0
note_on channel=7 note=64 velocity=50 time=16
note_on channel=7 note=61 velocity=50 time=0
note_off channel=7 note=64 velocity=50 time=8
note_off channel=7 note=61 velocity=50 time=0
note_on channel=7 note=64 velocity=50 time=16
note_on channel=7 note=61 velocity=50 time=0
note_off channel=7 note=64 velocity=50 time=8
note_off channel=7 note=61 velocity=50 time=0
note_on channel=7 note=64 velocity=50 time=16
note_on channel=7 note=61 velocity=50 time=0
note_off channel=7 note=64 velocity=50 time=8
note_off channel=7 note=61 velocity=50 time=0
note_on channel=7 note=64 velocity=50 time=16
note_on channel=7 note=61 velocity=50 time=0
note_off channel=7 note=61 velocity=50 time=8
note_off channel=7 note=64 velocity=50 time=0
note_on channel=7 note=64 velocity=50 time=16
note_on channel=7 note=61 velocity=50 time=0
note_off channel=7 note=64 velocity=50 time=8
note_off channel=7 note=61 velocity=50 time=0
note_on channel=7 note=66 velocity=50 time=16
note_on channel=7 note=62 velocity=50 time=0
note_off channel=7 note=66 velocity=50 time=8
note_off channel=7 note=62 velocity=50 time=0
note_on channel=7 note=66 velocity=50 time=16
note_on channel=7 note=62 velocity=50 time=0
note_off channel=7 note=66 velocity=50 time=8
note_off channel=7 note=62 velocity=50 time=0
note_on channel=7 note=66 velocity=50 time=16
note_on channel=7 note=62 velocity=50 time=0
note_off channel=7 note=66 velocity=50 time=8
note_off channel=7 note=62 velocity=50 time=0
note_on channel=7 note=66 velocity=50 time=16
note_on channel=7 note=62 velocity=50 time=0
note_off channel=7 note=66 velocity=50 time=8
note_off channel=7 note=62 velocity=50 time=0
note_on channel=7 note=66 velocity=50 time=16
note_on channel=7 note=62 velocity=50 time=0
note_off channel=7 note=66 velocity=50 time=8
note_off channel=7 note=62 velocity=50 time=0
note_on channel=7 note=66 velocity=50 time=16
note_on channel=7 note=62 velocity=50 time=0
note_off channel=7 note=62 velocity=50 time=8
note_off channel=7 note=66 velocity=50 time=0
note_on channel=7 note=66 velocity=50 time=16
note_on channel=7 note=62 velocity=50 time=0
note_off channel=7 note=66 velocity=50 time=8
note_off channel=7 note=62 velocity=50 time=0
note_on channel=7 note=66 velocity=50 time=16
note_on channel=7 note=62 velocity=50 time=0
note_off channel=7 note=66 velocity=50 time=8
note_off channel=7 note=62 velocity=50 time=0
note_on channel=7 note=66 velocity=50 time=16
note_on channel=7 note=62 velocity=50 time=0
note_off channel=7 note=66 velocity=50 time=8
note_off channel=7 note=62 velocity=50 time=0
note_on channel=7 note=66 velocity=50 time=16
note_on channel=7 note=62 velocity=50 time=0
note_off channel=7 note=66 velocity=50 time=8
note_off channel=7 note=62 velocity=50 time=0
note_on channel=7 note=66 velocity=50 time=16
note_on channel=7 note=62 velocity=50 time=0
note_off channel=7 note=66 velocity=50 time=8
note_off channel=7 note=62 velocity=50 time=0
note_on channel=7 note=66 velocity=50 time=16
note_on channel=7 note=62 velocity=50 time=0
note_off channel=7 note=66 velocity=50 time=8
note_off channel=7 note=62 velocity=50 time=0
note_on channel=7 note=66 velocity=50 time=16
note_on channel=7 note=62 velocity=50 time=0
note_off channel=7 note=66 velocity=50 time=8
note_off channel=7 note=62 velocity=50 time=0
note_on channel=7 note=66 velocity=50 time=16
note_on channel=7 note=62 velocity=50 time=0
note_off channel=7 note=66 velocity=50 time=8
note_off channel=7 note=62 velocity=50 time=0
note_on channel=7 note=66 velocity=50 time=16
note_on channel=7 note=62 velocity=50 time=0
note_off channel=7 note=66 velocity=50 time=8
note_off channel=7 note=62 velocity=50 time=0
note_on channel=7 note=66 velocity=50 time=16
note_on channel=7 note=62 velocity=50 time=0
note_off channel=7 note=62 velocity=50 time=8
note_off channel=7 note=66 velocity=50 time=0
note_on channel=7 note=68 velocity=50 time=784
note_on channel=7 note=64 velocity=50 time=0
note_off channel=7 note=68 velocity=50 time=8
note_off channel=7 note=64 velocity=50 time=0
note_on channel=7 note=68 velocity=50 time=16
note_on channel=7 note=64 velocity=50 time=0
note_off channel=7 note=68 velocity=50 time=8
note_off channel=7 note=64 velocity=50 time=0
note_on channel=7 note=68 velocity=50 time=16
note_on channel=7 note=64 velocity=50 time=0
note_off channel=7 note=64 velocity=50 time=8
note_off channel=7 note=68 velocity=50 time=0
note_on channel=7 note=68 velocity=50 time=16
note_on channel=7 note=64 velocity=50 time=0
note_off channel=7 note=68 velocity=50 time=8
note_off channel=7 note=64 velocity=50 time=0
note_on channel=7 note=68 velocity=50 time=16
note_on channel=7 note=64 velocity=50 time=0
note_off channel=7 note=68 velocity=50 time=8
note_off channel=7 note=64 velocity=50 time=0
note_on channel=7 note=68 velocity=50 time=16
note_on channel=7 note=64 velocity=50 time=0
note_off channel=7 note=68 velocity=50 time=8
note_off channel=7 note=64 velocity=50 time=0
note_on channel=7 note=68 velocity=50 time=16
note_on channel=7 note=64 velocity=50 time=0
note_off channel=7 note=68 velocity=50 time=8
note_off channel=7 note=64 velocity=50 time=0
note_on channel=7 note=68 velocity=50 time=16
note_on channel=7 note=64 velocity=50 time=0
note_off channel=7 note=68 velocity=50 time=8
note_off channel=7 note=64 velocity=50 time=0
note_on channel=7 note=68 velocity=50 time=16
note_on channel=7 note=64 velocity=50 time=0
note_off channel=7 note=64 velocity=50 time=8
note_off channel=7 note=68 velocity=50 time=0
note_on channel=7 note=68 velocity=50 time=16
note_on channel=7 note=64 velocity=50 time=0
note_off channel=7 note=68 velocity=50 time=8
note_off channel=7 note=64 velocity=50 time=0
note_on channel=7 note=68 velocity=50 time=16
note_on channel=7 note=64 velocity=50 time=0
note_off channel=7 note=68 velocity=50 time=8
note_off channel=7 note=64 velocity=50 time=0
note_on channel=7 note=68 velocity=50 time=16
note_on channel=7 note=64 velocity=50 time=0
note_off channel=7 note=68 velocity=50 time=8
note_off channel=7 note=64 velocity=50 time=0
note_on channel=7 note=68 velocity=50 time=16
note_on channel=7 note=64 velocity=50 time=0
note_off channel=7 note=68 velocity=50 time=8
note_off channel=7 note=64 velocity=50 time=0
note_on channel=7 note=68 velocity=50 time=16
note_on channel=7 note=64 velocity=50 time=0
note_off channel=7 note=68 velocity=50 time=8
note_off channel=7 note=64 velocity=50 time=0
note_on channel=7 note=68 velocity=50 time=16
note_on channel=7 note=64 velocity=50 time=0
note_off channel=7 note=64 velocity=50 time=8
note_off channel=7 note=68 velocity=50 time=0
note_on channel=7 note=68 velocity=50 time=16
note_on channel=7 note=64 velocity=50 time=0
note_off channel=7 note=68 velocity=50 time=8
note_off channel=7 note=64 velocity=50 time=0
note_on channel=7 note=68 velocity=50 time=16
note_on channel=7 note=65 velocity=50 time=0
note_off channel=7 note=68 velocity=50 time=8
note_off channel=7 note=65 velocity=50 time=0
note_on channel=7 note=68 velocity=50 time=16
note_on channel=7 note=65 velocity=50 time=0
note_off channel=7 note=68 velocity=50 time=8
note_off channel=7 note=65 velocity=50 time=0
note_on channel=7 note=68 velocity=50 time=16
note_on channel=7 note=65 velocity=50 time=0
note_off channel=7 note=65 velocity=50 time=8
note_off channel=7 note=68 velocity=50 time=0
note_on channel=7 note=68 velocity=50 time=16
note_on channel=7 note=65 velocity=50 time=0
note_off channel=7 note=68 velocity=50 time=8
note_off channel=7 note=65 velocity=50 time=0
note_on channel=7 note=68 velocity=50 time=16
note_on channel=7 note=65 velocity=50 time=0
note_off channel=7 note=68 velocity=50 time=8
note_off channel=7 note=65 velocity=50 time=0
note_on channel=7 note=68 velocity=50 time=16
note_on channel=7 note=65 velocity=50 time=0
note_off channel=7 note=68 velocity=50 time=8
note_off channel=7 note=65 velocity=50 time=0
note_on channel=7 note=68 velocity=50 time=16
note_on channel=7 note=65 velocity=50 time=0
note_off channel=7 note=68 velocity=50 time=8
note_off channel=7 note=65 velocity=50 time=0
note_on channel=7 note=68 velocity=50 time=16
note_on channel=7 note=65 velocity=50 time=0
note_off channel=7 note=68 velocity=50 time=8
note_off channel=7 note=65 velocity=50 time=0
note_on channel=7 note=68 velocity=50 time=16
note_on channel=7 note=65 velocity=50 time=0
note_off channel=7 note=65 velocity=50 time=8
note_off channel=7 note=68 velocity=50 time=0
note_on channel=7 note=68 velocity=50 time=16
note_on channel=7 note=65 velocity=50 time=0
note_off channel=7 note=68 velocity=50 time=8
note_off channel=7 note=65 velocity=50 time=0
note_on channel=7 note=68 velocity=50 time=16
note_on channel=7 note=65 velocity=50 time=0
note_off channel=7 note=68 velocity=50 time=8
note_off channel=7 note=65 velocity=50 time=0
note_on channel=7 note=68 velocity=50 time=16
note_on channel=7 note=65 velocity=50 time=0
note_off channel=7 note=68 velocity=50 time=8
note_off channel=7 note=65 velocity=50 time=0
note_on channel=7 note=68 velocity=50 time=16
note_on channel=7 note=65 velocity=50 time=0
note_off channel=7 note=68 velocity=50 time=8
note_off channel=7 note=65 velocity=50 time=0
note_on channel=7 note=68 velocity=50 time=16
note_on channel=7 note=65 velocity=50 time=0
note_off channel=7 note=68 velocity=50 time=8
note_off channel=7 note=65 velocity=50 time=0
note_on channel=7 note=68 velocity=50 time=16
note_on channel=7 note=65 velocity=50 time=0
note_off channel=7 note=68 velocity=50 time=8
note_off channel=7 note=65 velocity=50 time=0
note_on channel=7 note=68 velocity=50 time=16
note_on channel=7 note=65 velocity=50 time=0
note_off channel=7 note=65 velocity=50 time=8
note_off channel=7 note=68 velocity=50 time=0
note_on channel=7 note=69 velocity=50 time=16
note_on channel=7 note=66 velocity=50 time=0
note_off channel=7 note=69 velocity=50 time=8
note_off channel=7 note=66 velocity=50 time=0
note_on channel=7 note=69 velocity=50 time=16
note_on channel=7 note=66 velocity=50 time=0
note_off channel=7 note=69 velocity=50 time=8
note_off channel=7 note=66 velocity=50 time=0
note_on channel=7 note=69 velocity=50 time=16
note_on channel=7 note=66 velocity=50 time=0
note_off channel=7 note=66 velocity=50 time=8
note_off channel=7 note=69 velocity=50 time=0
note_on channel=7 note=69 velocity=50 time=16
note_on channel=7 note=66 velocity=50 time=0
note_off channel=7 note=69 velocity=50 time=8
note_off channel=7 note=66 velocity=50 time=0
note_on channel=7 note=69 velocity=50 time=16
note_on channel=7 note=66 velocity=50 time=0
note_off channel=7 note=69 velocity=50 time=8
note_off channel=7 note=66 velocity=50 time=0
note_on channel=7 note=69 velocity=50 time=16
note_on channel=7 note=66 velocity=50 time=0
note_off channel=7 note=66 velocity=50 time=8
note_off channel=7 note=69 velocity=50 time=0
note_on channel=7 note=69 velocity=50 time=16
note_on channel=7 note=66 velocity=50 time=0
note_off channel=7 note=69 velocity=50 time=8
note_off channel=7 note=66 velocity=50 time=0
note_on channel=7 note=69 velocity=50 time=16
note_on channel=7 note=66 velocity=50 time=0
note_off channel=7 note=69 velocity=50 time=8
note_off channel=7 note=66 velocity=50 time=0
note_on channel=7 note=69 velocity=50 time=16
note_on channel=7 note=66 velocity=50 time=0
note_off channel=7 note=69 velocity=50 time=8
note_off channel=7 note=66 velocity=50 time=0
note_on channel=7 note=69 velocity=50 time=16
note_on channel=7 note=66 velocity=50 time=0
note_off channel=7 note=69 velocity=50 time=8
note_off channel=7 note=66 velocity=50 time=0
note_on channel=7 note=69 velocity=50 time=16
note_on channel=7 note=66 velocity=50 time=0
note_off channel=7 note=69 velocity=50 time=8
note_off channel=7 note=66 velocity=50 time=0
note_on channel=7 note=69 velocity=50 time=16
note_on channel=7 note=66 velocity=50 time=0
note_off channel=7 note=69 velocity=50 time=8
note_off channel=7 note=66 velocity=50 time=0
note_on channel=7 note=69 velocity=50 time=16
note_on channel=7 note=66 velocity=50 time=0
note_off channel=7 note=69 velocity=50 time=8
note_off channel=7 note=66 velocity=50 time=0
note_on channel=7 note=69 velocity=50 time=16
note_on channel=7 note=66 velocity=50 time=0
note_off channel=7 note=66 velocity=50 time=8
note_off channel=7 note=69 velocity=50 time=0
note_on channel=7 note=69 velocity=50 time=16
note_on channel=7 note=66 velocity=50 time=0
note_off channel=7 note=69 velocity=50 time=8
note_off channel=7 note=66 velocity=50 time=0
note_on channel=7 note=69 velocity=50 time=16
note_on channel=7 note=66 velocity=50 time=0
note_off channel=7 note=69 velocity=50 time=8
note_off channel=7 note=66 velocity=50 time=0
note_on channel=7 note=69 velocity=50 time=16
note_on channel=7 note=66 velocity=50 time=0
note_off channel=7 note=69 velocity=50 time=8
note_off channel=7 note=66 velocity=50 time=0
note_on channel=7 note=69 velocity=50 time=16
note_on channel=7 note=66 velocity=50 time=0
note_off channel=7 note=69 velocity=50 time=8
note_off channel=7 note=66 velocity=50 time=0
note_on channel=7 note=69 velocity=50 time=16
note_on channel=7 note=66 velocity=50 time=0
note_off channel=7 note=66 velocity=50 time=8
note_off channel=7 note=69 velocity=50 time=0
note_on channel=7 note=69 velocity=50 time=16
note_on channel=7 note=66 velocity=50 time=0
note_off channel=7 note=69 velocity=50 time=8
note_off channel=7 note=66 velocity=50 time=0
note_on channel=7 note=69 velocity=50 time=16
note_on channel=7 note=66 velocity=50 time=0
note_off channel=7 note=69 velocity=50 time=8
note_off channel=7 note=66 velocity=50 time=0
note_on channel=7 note=69 velocity=50 time=16
note_on channel=7 note=66 velocity=50 time=0
note_off channel=7 note=69 velocity=50 time=8
note_off channel=7 note=66 velocity=50 time=0
note_on channel=7 note=69 velocity=50 time=16
note_on channel=7 note=66 velocity=50 time=0
note_off channel=7 note=69 velocity=50 time=8
note_off channel=7 note=66 velocity=50 time=0
note_on channel=7 note=69 velocity=50 time=16
note_on channel=7 note=66 velocity=50 time=0
note_off channel=7 note=66 velocity=50 time=8
note_off channel=7 note=69 velocity=50 time=0
note_on channel=7 note=69 velocity=50 time=16
note_on channel=7 note=66 velocity=50 time=0
note_off channel=7 note=69 velocity=50 time=8
note_off channel=7 note=66 velocity=50 time=0
note_on channel=7 note=69 velocity=50 time=16
note_on channel=7 note=66 velocity=50 time=0
note_off channel=7 note=69 velocity=50 time=8
note_off channel=7 note=66 velocity=50 time=0
note_on channel=7 note=69 velocity=50 time=16
note_on channel=7 note=66 velocity=50 time=0
note_off channel=7 note=69 velocity=50 time=8
note_off channel=7 note=66 velocity=50 time=0
note_on channel=7 note=69 velocity=50 time=16
note_on channel=7 note=66 velocity=50 time=0
note_off channel=7 note=66 velocity=50 time=8
note_off channel=7 note=69 velocity=50 time=0
note_on channel=7 note=69 velocity=50 time=16
note_on channel=7 note=66 velocity=50 time=0
note_off channel=7 note=69 velocity=50 time=8
note_off channel=7 note=66 velocity=50 time=0
note_on channel=7 note=69 velocity=50 time=16
note_on channel=7 note=66 velocity=50 time=0
note_off channel=7 note=69 velocity=50 time=8
note_off channel=7 note=66 velocity=50 time=0
note_on channel=7 note=69 velocity=50 time=16
note_on channel=7 note=66 velocity=50 time=0
note_off channel=7 note=69 velocity=50 time=8
note_off channel=7 note=66 velocity=50 time=0
note_on channel=7 note=69 velocity=50 time=16
note_on channel=7 note=66 velocity=50 time=0
note_off channel=7 note=69 velocity=50 time=8
note_off channel=7 note=66 velocity=50 time=0
note_on channel=7 note=69 velocity=50 time=16
note_on channel=7 note=64 velocity=50 time=0
note_off channel=7 note=69 velocity=50 time=8
note_off channel=7 note=64 velocity=50 time=0
note_on channel=7 note=69 velocity=50 time=16
note_on channel=7 note=64 velocity=50 time=0
note_off channel=7 note=69 velocity=50 time=8
note_off channel=7 note=64 velocity=50 time=0
note_on channel=7 note=69 velocity=50 time=16
note_on channel=7 note=64 velocity=50 time=0
note_off channel=7 note=69 velocity=50 time=8
note_off channel=7 note=64 velocity=50 time=0
note_on channel=7 note=69 velocity=50 time=16
note_on channel=7 note=64 velocity=50 time=0
note_off channel=7 note=69 velocity=50 time=8
note_off channel=7 note=64 velocity=50 time=0
note_on channel=7 note=69 velocity=50 time=16
note_on channel=7 note=64 velocity=50 time=0
note_off channel=7 note=69 velocity=50 time=8
note_off channel=7 note=64 velocity=50 time=0
note_on channel=7 note=69 velocity=50 time=16
note_on channel=7 note=64 velocity=50 time=0
note_off channel=7 note=64 velocity=50 time=8
note_off channel=7 note=69 velocity=50 time=0
note_on channel=7 note=69 velocity=50 time=16
note_on channel=7 note=64 velocity=50 time=0
note_off channel=7 note=69 velocity=50 time=8
note_off channel=7 note=64 velocity=50 time=0
note_on channel=7 note=69 velocity=50 time=16
note_on channel=7 note=64 velocity=50 time=0
note_off channel=7 note=69 velocity=50 time=8
note_off channel=7 note=64 velocity=50 time=0
note_on channel=7 note=69 velocity=50 time=16
note_on channel=7 note=64 velocity=50 time=0
note_off channel=7 note=69 velocity=50 time=8
note_off channel=7 note=64 velocity=50 time=0
note_on channel=7 note=69 velocity=50 time=16
note_on channel=7 note=64 velocity=50 time=0
note_off channel=7 note=64 velocity=50 time=8
note_off channel=7 note=69 velocity=50 time=0
note_on channel=7 note=69 velocity=50 time=16
note_on channel=7 note=64 velocity=50 time=0
note_off channel=7 note=69 velocity=50 time=8
note_off channel=7 note=64 velocity=50 time=0
note_on channel=7 note=69 velocity=50 time=16
note_on channel=7 note=64 velocity=50 time=0
note_off channel=7 note=69 velocity=50 time=8
note_off channel=7 note=64 velocity=50 time=0
note_on channel=7 note=69 velocity=50 time=16
note_on channel=7 note=64 velocity=50 time=0
note_off channel=7 note=69 velocity=50 time=8
note_off channel=7 note=64 velocity=50 time=0
note_on channel=7 note=69 velocity=50 time=16
note_on channel=7 note=64 velocity=50 time=0
note_off channel=7 note=69 velocity=50 time=8
note_off channel=7 note=64 velocity=50 time=0
note_on channel=7 note=69 velocity=50 time=16
note_on channel=7 note=64 velocity=50 time=0
note_off channel=7 note=69 velocity=50 time=8
note_off channel=7 note=64 velocity=50 time=0
note_on channel=7 note=69 velocity=50 time=16
note_on channel=7 note=64 velocity=50 time=0
note_off channel=7 note=64 velocity=50 time=8
note_off channel=7 note=69 velocity=50 time=0
note_on channel=7 note=69 velocity=50 time=16
note_on channel=7 note=62 velocity=50 time=0
note_off channel=7 note=69 velocity=50 time=8
note_off channel=7 note=62 velocity=50 time=0
note_on channel=7 note=69 velocity=50 time=16
note_on channel=7 note=62 velocity=50 time=0
note_off channel=7 note=69 velocity=50 time=8
note_off channel=7 note=62 velocity=50 time=0
note_on channel=7 note=69 velocity=50 time=16
note_on channel=7 note=62 velocity=50 time=0
note_off channel=7 note=69 velocity=50 time=8
note_off channel=7 note=62 velocity=50 time=0
note_on channel=7 note=69 velocity=50 time=16
note_on channel=7 note=62 velocity=50 time=0
note_off channel=7 note=69 velocity=50 time=8
note_off channel=7 note=62 velocity=50 time=0
note_on channel=7 note=69 velocity=50 time=16
note_on channel=7 note=62 velocity=50 time=0
note_off channel=7 note=69 velocity=50 time=8
note_off channel=7 note=62 velocity=50 time=0
note_on channel=7 note=69 velocity=50 time=16
note_on channel=7 note=62 velocity=50 time=0
note_off channel=7 note=62 velocity=50 time=8
note_off channel=7 note=69 velocity=50 time=0
note_on channel=7 note=69 velocity=50 time=16
note_on channel=7 note=62 velocity=50 time=0
note_off channel=7 note=69 velocity=50 time=8
note_off channel=7 note=62 velocity=50 time=0
note_on channel=7 note=69 velocity=50 time=16
note_on channel=7 note=62 velocity=50 time=0
note_off channel=7 note=69 velocity=50 time=8
note_off channel=7 note=62 velocity=50 time=0
note_on channel=7 note=69 velocity=50 time=16
note_on channel=7 note=62 velocity=50 time=0
note_off channel=7 note=69 velocity=50 time=8
note_off channel=7 note=62 velocity=50 time=0
note_on channel=7 note=69 velocity=50 time=16
note_on channel=7 note=62 velocity=50 time=0
note_off channel=7 note=69 velocity=50 time=8
note_off channel=7 note=62 velocity=50 time=0
note_on channel=7 note=69 velocity=50 time=16
note_on channel=7 note=62 velocity=50 time=0
note_off channel=7 note=69 velocity=50 time=8
note_off channel=7 note=62 velocity=50 time=0
note_on channel=7 note=69 velocity=50 time=16
note_on channel=7 note=62 velocity=50 time=0
note_off channel=7 note=62 velocity=50 time=8
note_off channel=7 note=69 velocity=50 time=0
note_on channel=7 note=69 velocity=50 time=16
note_on channel=7 note=62 velocity=50 time=0
note_off channel=7 note=69 velocity=50 time=8
note_off channel=7 note=62 velocity=50 time=0
note_on channel=7 note=69 velocity=50 time=16
note_on channel=7 note=62 velocity=50 time=0
note_off channel=7 note=69 velocity=50 time=8
note_off channel=7 note=62 velocity=50 time=0
note_on channel=7 note=69 velocity=50 time=16
note_on channel=7 note=62 velocity=50 time=0
note_off channel=7 note=69 velocity=50 time=8
note_off channel=7 note=62 velocity=50 time=0
note_on channel=7 note=69 velocity=50 time=16
note_on channel=7 note=62 velocity=50 time=0
note_off channel=7 note=62 velocity=50 time=8
note_off channel=7 note=69 velocity=50 time=0
note_on channel=7 note=64 velocity=50 time=16
note_on channel=7 note=61 velocity=50 time=0
note_off channel=7 note=64 velocity=50 time=8
note_off channel=7 note=61 velocity=50 time=0
note_on channel=7 note=64 velocity=50 time=16
note_on channel=7 note=61 velocity=50 time=0
note_off channel=7 note=64 velocity=50 time=8
note_off channel=7 note=61 velocity=50 time=0
note_on channel=7 note=64 velocity=50 time=16
note_on channel=7 note=61 velocity=50 time=0
note_off channel=7 note=64 velocity=50 time=8
note_off channel=7 note=61 velocity=50 time=0
note_on channel=7 note=64 velocity=50 time=16
note_on channel=7 note=61 velocity=50 time=0
note_off channel=7 note=64 velocity=50 time=8
note_off channel=7 note=61 velocity=50 time=0
note_on channel=7 note=64 velocity=50 time=16
note_on channel=7 note=61 velocity=50 time=0
note_off channel=7 note=64 velocity=50 time=8
note_off channel=7 note=61 velocity=50 time=0
note_on channel=7 note=64 velocity=50 time=16
note_on channel=7 note=61 velocity=50 time=0
note_off channel=7 note=64 velocity=50 time=8
note_off channel=7 note=61 velocity=50 time=0
note_on channel=7 note=64 velocity=50 time=16
note_on channel=7 note=61 velocity=50 time=0
note_off channel=7 note=64 velocity=50 time=8
note_off channel=7 note=61 velocity=50 time=0
note_on channel=7 note=64 velocity=50 time=16
note_on channel=7 note=61 velocity=50 time=0
note_off channel=7 note=64 velocity=50 time=8
note_off channel=7 note=61 velocity=50 time=0
note_on channel=7 note=64 velocity=50 time=16
note_on channel=7 note=61 velocity=50 time=0
note_off channel=7 note=64 velocity=50 time=8
note_off channel=7 note=61 velocity=50 time=0
note_on channel=7 note=64 velocity=50 time=16
note_on channel=7 note=61 velocity=50 time=0
note_off channel=7 note=64 velocity=50 time=8
note_off channel=7 note=61 velocity=50 time=0
note_on channel=7 note=64 velocity=50 time=16
note_on channel=7 note=61 velocity=50 time=0
note_off channel=7 note=64 velocity=50 time=8
note_off channel=7 note=61 velocity=50 time=0
note_on channel=7 note=64 velocity=50 time=16
note_on channel=7 note=61 velocity=50 time=0
note_off channel=7 note=61 velocity=50 time=8
note_off channel=7 note=64 velocity=50 time=0
note_on channel=7 note=64 velocity=50 time=16
note_on channel=7 note=61 velocity=50 time=0
note_off channel=7 note=64 velocity=50 time=8
note_off channel=7 note=61 velocity=50 time=0
note_on channel=7 note=64 velocity=50 time=16
note_on channel=7 note=61 velocity=50 time=0
note_off channel=7 note=61 velocity=50 time=8
note_off channel=7 note=64 velocity=50 time=0
note_on channel=7 note=64 velocity=50 time=16
note_on channel=7 note=61 velocity=50 time=0
note_off channel=7 note=64 velocity=50 time=8
note_off channel=7 note=61 velocity=50 time=0
note_on channel=7 note=64 velocity=50 time=16
note_on channel=7 note=61 velocity=50 time=0
note_off channel=7 note=61 velocity=50 time=8
note_off channel=7 note=64 velocity=50 time=0
note_on channel=7 note=66 velocity=50 time=16
note_on channel=7 note=62 velocity=50 time=0
note_off channel=7 note=66 velocity=50 time=8
note_off channel=7 note=62 velocity=50 time=0
note_on channel=7 note=66 velocity=50 time=16
note_on channel=7 note=62 velocity=50 time=0
note_off channel=7 note=66 velocity=50 time=8
note_off channel=7 note=62 velocity=50 time=0
note_on channel=7 note=66 velocity=50 time=16
note_on channel=7 note=62 velocity=50 time=0
note_off channel=7 note=62 velocity=50 time=8
note_off channel=7 note=66 velocity=50 time=0
note_on channel=7 note=66 velocity=50 time=16
note_on channel=7 note=62 velocity=50 time=0
note_off channel=7 note=62 velocity=50 time=8
note_off channel=7 note=66 velocity=50 time=0
note_on channel=7 note=66 velocity=50 time=16
note_on channel=7 note=62 velocity=50 time=0
note_off channel=7 note=66 velocity=50 time=8
note_off channel=7 note=62 velocity=50 time=0
note_on channel=7 note=66 velocity=50 time=16
note_on channel=7 note=62 velocity=50 time=0
note_off channel=7 note=62 velocity=50 time=8
note_off channel=7 note=66 velocity=50 time=0
note_on channel=7 note=66 velocity=50 time=16
note_on channel=7 note=62 velocity=50 time=0
note_off channel=7 note=66 velocity=50 time=8
note_off channel=7 note=62 velocity=50 time=0
note_on channel=7 note=66 velocity=50 time=16
note_on channel=7 note=62 velocity=50 time=0
note_off channel=7 note=66 velocity=50 time=8
note_off channel=7 note=62 velocity=50 time=0
note_on channel=7 note=66 velocity=50 time=16
note_on channel=7 note=62 velocity=50 time=0
note_off channel=7 note=62 velocity=50 time=8
note_off channel=7 note=66 velocity=50 time=0
note_on channel=7 note=66 velocity=50 time=16
note_on channel=7 note=62 velocity=50 time=0
note_off channel=7 note=66 velocity=50 time=8
note_off channel=7 note=62 velocity=50 time=0
note_on channel=7 note=66 velocity=50 time=16
note_on channel=7 note=62 velocity=50 time=0
note_off channel=7 note=66 velocity=50 time=8
note_off channel=7 note=62 velocity=50 time=0
note_on channel=7 note=66 velocity=50 time=16
note_on channel=7 note=62 velocity=50 time=0
note_off channel=7 note=66 velocity=50 time=8
note_off channel=7 note=62 velocity=50 time=0
note_on channel=7 note=66 velocity=50 time=16
note_on channel=7 note=62 velocity=50 time=0
note_off channel=7 note=66 velocity=50 time=8
note_off channel=7 note=62 velocity=50 time=0
note_on channel=7 note=66 velocity=50 time=16
note_on channel=7 note=62 velocity=50 time=0
note_off channel=7 note=66 velocity=50 time=8
note_off channel=7 note=62 velocity=50 time=0
note_on channel=7 note=66 velocity=50 time=16
note_on channel=7 note=62 velocity=50 time=0
note_off channel=7 note=62 velocity=50 time=8
note_off channel=7 note=66 velocity=50 time=0
note_on channel=7 note=66 velocity=50 time=16
note_on channel=7 note=62 velocity=50 time=0
note_off channel=7 note=66 velocity=50 time=8
note_off channel=7 note=62 velocity=50 time=0
note_on channel=7 note=64 velocity=47 time=16
note_on channel=7 note=61 velocity=47 time=0
note_off channel=7 note=64 velocity=47 time=8
note_off channel=7 note=61 velocity=47 time=0
note_on channel=7 note=64 velocity=46 time=16
note_on channel=7 note=61 velocity=46 time=0
note_off channel=7 note=64 velocity=46 time=8
note_off channel=7 note=61 velocity=46 time=0
note_on channel=7 note=64 velocity=44 time=16
note_on channel=7 note=61 velocity=44 time=0
note_off channel=7 note=61 velocity=44 time=8
note_off channel=7 note=64 velocity=44 time=0
note_on channel=7 note=64 velocity=43 time=16
note_on channel=7 note=61 velocity=43 time=0
note_off channel=7 note=64 velocity=43 time=8
note_off channel=7 note=61 velocity=43 time=0
note_on channel=7 note=64 velocity=42 time=16
note_on channel=7 note=61 velocity=42 time=0
note_off channel=7 note=64 velocity=42 time=8
note_off channel=7 note=61 velocity=42 time=0
note_on channel=7 note=64 velocity=40 time=16
note_on channel=7 note=61 velocity=40 time=0
note_off channel=7 note=61 velocity=40 time=8
note_off channel=7 note=64 velocity=40 time=0
note_on channel=7 note=64 velocity=39 time=16
note_on channel=7 note=61 velocity=39 time=0
note_off channel=7 note=64 velocity=39 time=8
note_off channel=7 note=61 velocity=39 time=0
note_on channel=7 note=64 velocity=37 time=16
note_on channel=7 note=61 velocity=37 time=0
note_off channel=7 note=64 velocity=37 time=8
note_off channel=7 note=61 velocity=37 time=0
note_on channel=7 note=64 velocity=36 time=16
note_on channel=7 note=61 velocity=36 time=0
note_off channel=7 note=64 velocity=36 time=8
note_off channel=7 note=61 velocity=36 time=0
note_on channel=7 note=64 velocity=34 time=16
note_on channel=7 note=61 velocity=34 time=0
note_off channel=7 note=64 velocity=34 time=8
note_off channel=7 note=61 velocity=34 time=0
note_on channel=7 note=64 velocity=33 time=16
note_on channel=7 note=61 velocity=33 time=0
note_off channel=7 note=64 velocity=33 time=8
note_off channel=7 note=61 velocity=33 time=0
note_on channel=7 note=64 velocity=32 time=16
note_on channel=7 note=61 velocity=32 time=0
note_off channel=7 note=61 velocity=32 time=8
note_off channel=7 note=64 velocity=32 time=0
note_on channel=7 note=64 velocity=30 time=16
note_on channel=7 note=61 velocity=30 time=0
note_off channel=7 note=64 velocity=30 time=8
note_off channel=7 note=61 velocity=30 time=0
note_on channel=7 note=64 velocity=29 time=16
note_on channel=7 note=61 velocity=29 time=0
note_off channel=7 note=64 velocity=29 time=8
note_off channel=7 note=61 velocity=29 time=0
note_on channel=7 note=64 velocity=27 time=16
note_on channel=7 note=61 velocity=27 time=0
note_off channel=7 note=64 velocity=27 time=8
note_off channel=7 note=61 velocity=27 time=0
note_on channel=7 note=64 velocity=26 time=16
note_on channel=7 note=61 velocity=26 time=0
note_off channel=7 note=64 velocity=26 time=8
note_off channel=7 note=61 velocity=26 time=0
note_on channel=7 note=66 velocity=24 time=16
note_on channel=7 note=62 velocity=24 time=0
note_off channel=7 note=66 velocity=24 time=8
note_off channel=7 note=62 velocity=24 time=0
note_on channel=7 note=66 velocity=23 time=16
note_on channel=7 note=62 velocity=23 time=0
note_off channel=7 note=66 velocity=23 time=8
note_off channel=7 note=62 velocity=23 time=0
note_on channel=7 note=66 velocity=22 time=16
note_on channel=7 note=62 velocity=22 time=0
note_off channel=7 note=66 velocity=22 time=8
note_off channel=7 note=62 velocity=22 time=0
note_on channel=7 note=62 velocity=20 time=16
note_off channel=7 note=62 velocity=20 time=8
note_on channel=7 note=66 velocity=19 time=16
note_on channel=7 note=62 velocity=19 time=0
note_off channel=7 note=66 velocity=19 time=8
note_off channel=7 note=62 velocity=19 time=0
note_on channel=7 note=66 velocity=17 time=16
note_on channel=7 note=62 velocity=17 time=0
note_off channel=7 note=66 velocity=17 time=8
note_off channel=7 note=62 velocity=17 time=0
note_on channel=7 note=66 velocity=16 time=16
note_on channel=7 note=62 velocity=16 time=0
note_off channel=7 note=66 velocity=16 time=8
note_off channel=7 note=62 velocity=16 time=0
note_on channel=7 note=66 velocity=14 time=16
note_on channel=7 note=62 velocity=14 time=0
note_off channel=7 note=66 velocity=14 time=8
note_off channel=7 note=62 velocity=14 time=0
note_on channel=7 note=64 velocity=50 time=976
note_on channel=7 note=61 velocity=50 time=0
note_off channel=7 note=64 velocity=50 time=8
note_off channel=7 note=61 velocity=50 time=0
note_on channel=7 note=64 velocity=50 time=16
note_on channel=7 note=61 velocity=50 time=0
note_off channel=7 note=64 velocity=50 time=8
note_off channel=7 note=61 velocity=50 time=0
note_on channel=7 note=64 velocity=50 time=16
note_on channel=7 note=61 velocity=50 time=0
note_off channel=7 note=64 velocity=50 time=8
note_off channel=7 note=61 velocity=50 time=0
note_on channel=7 note=64 velocity=50 time=16
note_on channel=7 note=61 velocity=50 time=0
note_off channel=7 note=64 velocity=50 time=8
note_off channel=7 note=61 velocity=50 time=0
note_on channel=7 note=64 velocity=50 time=16
note_on channel=7 note=61 velocity=50 time=0
note_off channel=7 note=61 velocity=50 time=8
note_off channel=7 note=64 velocity=50 time=0
note_on channel=7 note=64 velocity=50 time=16
note_on channel=7 note=61 velocity=50 time=0
note_off channel=7 note=64 velocity=50 time=8
note_off channel=7 note=61 velocity=50 time=0
note_on channel=7 note=64 velocity=50 time=16
note_on channel=7 note=61 velocity=50 time=0
note_off channel=7 note=64 velocity=50 time=8
note_off channel=7 note=61 velocity=50 time=0
note_on channel=7 note=64 velocity=50 time=16
note_on channel=7 note=61 velocity=50 time=0
note_off channel=7 note=64 velocity=50 time=8
note_off channel=7 note=61 velocity=50 time=0
note_on channel=7 note=64 velocity=50 time=16
note_on channel=7 note=61 velocity=50 time=0
note_off channel=7 note=64 velocity=50 time=8
note_off channel=7 note=61 velocity=50 time=0
note_on channel=7 note=64 velocity=50 time=16
note_on channel=7 note=61 velocity=50 time=0
note_off channel=7 note=61 velocity=50 time=8
note_off channel=7 note=64 velocity=50 time=0
note_on channel=7 note=64 velocity=50 time=16
note_on channel=7 note=61 velocity=50 time=0
note_off channel=7 note=64 velocity=50 time=8
note_off channel=7 note=61 velocity=50 time=0
note_on channel=7 note=64 velocity=50 time=16
note_on channel=7 note=61 velocity=50 time=0
note_off channel=7 note=64 velocity=50 time=8
note_off channel=7 note=61 velocity=50 time=0
note_on channel=7 note=64 velocity=50 time=16
note_on channel=7 note=61 velocity=50 time=0
note_off channel=7 note=64 velocity=50 time=8
note_off channel=7 note=61 velocity=50 time=0
note_on channel=7 note=64 velocity=50 time=16
note_on channel=7 note=61 velocity=50 time=0
note_off channel=7 note=64 velocity=50 time=8
note_off channel=7 note=61 velocity=50 time=0
note_on channel=7 note=64 velocity=50 time=16
note_on channel=7 note=61 velocity=50 time=0
note_off channel=7 note=61 velocity=50 time=8
note_off channel=7 note=64 velocity=50 time=0
note_on channel=7 note=64 velocity=50 time=16
note_on channel=7 note=61 velocity=50 time=0
note_off channel=7 note=61 velocity=50 time=8
note_off channel=7 note=64 velocity=50 time=0
note_on channel=7 note=66 velocity=50 time=16
note_on channel=7 note=62 velocity=50 time=0
note_off channel=7 note=66 velocity=50 time=8
note_off channel=7 note=62 velocity=50 time=0
note_on channel=7 note=66 velocity=50 time=16
note_on channel=7 note=62 velocity=50 time=0
note_off channel=7 note=66 velocity=50 time=8
note_off channel=7 note=62 velocity=50 time=0
note_on channel=7 note=66 velocity=50 time=16
note_on channel=7 note=62 velocity=50 time=0
note_off channel=7 note=66 velocity=50 time=8
note_off channel=7 note=62 velocity=50 time=0
note_on channel=7 note=66 velocity=50 time=16
note_on channel=7 note=62 velocity=50 time=0
note_off channel=7 note=66 velocity=50 time=8
note_off channel=7 note=62 velocity=50 time=0
note_on channel=7 note=66 velocity=50 time=16
note_on channel=7 note=62 velocity=50 time=0
note_off channel=7 note=66 velocity=50 time=8
note_off channel=7 note=62 velocity=50 time=0
note_on channel=7 note=66 velocity=50 time=16
note_on channel=7 note=62 velocity=50 time=0
note_off channel=7 note=66 velocity=50 time=8
note_off channel=7 note=62 velocity=50 time=0
note_on channel=7 note=66 velocity=50 time=16
note_on channel=7 note=62 velocity=50 time=0
note_off channel=7 note=66 velocity=50 time=8
note_off channel=7 note=62 velocity=50 time=0
note_on channel=7 note=66 velocity=50 time=16
note_on channel=7 note=62 velocity=50 time=0
note_off channel=7 note=66 velocity=50 time=8
note_off channel=7 note=62 velocity=50 time=0
note_on channel=7 note=66 velocity=50 time=16
note_on channel=7 note=62 velocity=50 time=0
note_off channel=7 note=66 velocity=50 time=8
note_off channel=7 note=62 velocity=50 time=0
note_on channel=7 note=66 velocity=50 time=16
note_on channel=7 note=62 velocity=50 time=0
note_off channel=7 note=66 velocity=50 time=8
note_off channel=7 note=62 velocity=50 time=0
note_on channel=7 note=66 velocity=50 time=16
note_on channel=7 note=62 velocity=50 time=0
note_off channel=7 note=66 velocity=50 time=8
note_off channel=7 note=62 velocity=50 time=0
note_on channel=7 note=66 velocity=50 time=16
note_on channel=7 note=62 velocity=50 time=0
note_off channel=7 note=66 velocity=50 time=8
note_off channel=7 note=62 velocity=50 time=0
note_on channel=7 note=66 velocity=50 time=16
note_on channel=7 note=62 velocity=50 time=0
note_off channel=7 note=66 velocity=50 time=8
note_off channel=7 note=62 velocity=50 time=0
note_on channel=7 note=66 velocity=50 time=16
note_on channel=7 note=62 velocity=50 time=0
note_off channel=7 note=66 velocity=50 time=8
note_off channel=7 note=62 velocity=50 time=0
note_on channel=7 note=66 velocity=50 time=16
note_on channel=7 note=62 velocity=50 time=0
note_off channel=7 note=66 velocity=50 time=8
note_off channel=7 note=62 velocity=50 time=0
note_on channel=7 note=66 velocity=50 time=16
note_on channel=7 note=62 velocity=50 time=0
note_off channel=7 note=62 velocity=50 time=8
note_off channel=7 note=66 velocity=50 time=0
note_on channel=7 note=64 velocity=50 time=16
note_on channel=7 note=61 velocity=50 time=0
note_off channel=7 note=64 velocity=50 time=8
note_off channel=7 note=61 velocity=50 time=0
note_on channel=7 note=64 velocity=50 time=16
note_on channel=7 note=61 velocity=50 time=0
note_off channel=7 note=64 velocity=50 time=8
note_off channel=7 note=61 velocity=50 time=0
note_on channel=7 note=64 velocity=50 time=16
note_on channel=7 note=61 velocity=50 time=0
note_off channel=7 note=64 velocity=50 time=8
note_off channel=7 note=61 velocity=50 time=0
note_on channel=7 note=64 velocity=50 time=16
note_on channel=7 note=61 velocity=50 time=0
note_off channel=7 note=64 velocity=50 time=8
note_off channel=7 note=61 velocity=50 time=0
note_on channel=7 note=64 velocity=50 time=16
note_on channel=7 note=61 velocity=50 time=0
note_off channel=7 note=61 velocity=50 time=8
note_off channel=7 note=64 velocity=50 time=0
note_on channel=7 note=64 velocity=50 time=16
note_on channel=7 note=61 velocity=50 time=0
note_off channel=7 note=64 velocity=50 time=8
note_off channel=7 note=61 velocity=50 time=0
note_on channel=7 note=64 velocity=50 time=16
note_on channel=7 note=61 velocity=50 time=0
note_off channel=7 note=64 velocity=50 time=8
note_off channel=7 note=61 velocity=50 time=0
note_on channel=7 note=64 velocity=50 time=16
note_on channel=7 note=61 velocity=50 time=0
note_off channel=7 note=64 velocity=50 time=8
note_off channel=7 note=61 velocity=50 time=0
note_on channel=7 note=64 velocity=50 time=16
note_on channel=7 note=61 velocity=50 time=0
note_off channel=7 note=64 velocity=50 time=8
note_off channel=7 note=61 velocity=50 time=0
note_on channel=7 note=64 velocity=50 time=16
note_on channel=7 note=61 velocity=50 time=0
note_off channel=7 note=64 velocity=50 time=8
note_off channel=7 note=61 velocity=50 time=0
note_on channel=7 note=64 velocity=50 time=16
note_on channel=7 note=61 velocity=50 time=0
note_off channel=7 note=64 velocity=50 time=8
note_off channel=7 note=61 velocity=50 time=0
note_on channel=7 note=64 velocity=50 time=16
note_on channel=7 note=61 velocity=50 time=0
note_off channel=7 note=64 velocity=50 time=8
note_off channel=7 note=61 velocity=50 time=0
note_on channel=7 note=64 velocity=50 time=16
note_on channel=7 note=61 velocity=50 time=0
note_off channel=7 note=64 velocity=50 time=8
note_off channel=7 note=61 velocity=50 time=0
note_on channel=7 note=64 velocity=50 time=16
note_on channel=7 note=61 velocity=50 time=0
note_off channel=7 note=64 velocity=50 time=8
note_off channel=7 note=61 velocity=50 time=0
note_on channel=7 note=64 velocity=50 time=16
note_on channel=7 note=61 velocity=50 time=0
note_off channel=7 note=61 velocity=50 time=8
note_off channel=7 note=64 velocity=50 time=0
note_on channel=7 note=64 velocity=50 time=16
note_on channel=7 note=61 velocity=50 time=0
note_off channel=7 note=64 velocity=50 time=8
note_off channel=7 note=61 velocity=50 time=0
note_on channel=7 note=66 velocity=50 time=16
note_on channel=7 note=61 velocity=50 time=0
note_off channel=7 note=66 velocity=50 time=8
note_off channel=7 note=61 velocity=50 time=0
note_on channel=7 note=66 velocity=50 time=16
note_on channel=7 note=61 velocity=50 time=0
note_off channel=7 note=66 velocity=50 time=8
note_off channel=7 note=61 velocity=50 time=0
note_on channel=7 note=66 velocity=50 time=16
note_on channel=7 note=61 velocity=50 time=0
note_off channel=7 note=66 velocity=50 time=8
note_off channel=7 note=61 velocity=50 time=0
note_on channel=7 note=66 velocity=50 time=16
note_on channel=7 note=61 velocity=50 time=0
note_off channel=7 note=66 velocity=50 time=8
note_off channel=7 note=61 velocity=50 time=0
note_on channel=7 note=66 velocity=50 time=16
note_on channel=7 note=61 velocity=50 time=0
note_off channel=7 note=61 velocity=50 time=8
note_off channel=7 note=66 velocity=50 time=0
note_on channel=7 note=61 velocity=50 time=16
note_off channel=7 note=61 velocity=50 time=8
note_on channel=7 note=66 velocity=50 time=16
note_on channel=7 note=61 velocity=50 time=0
note_off channel=7 note=66 velocity=50 time=8
note_off channel=7 note=61 velocity=50 time=0
note_on channel=7 note=61 velocity=50 time=16
note_off channel=7 note=61 velocity=50 time=8
note_on channel=7 note=66 velocity=50 time=16
note_on channel=7 note=61 velocity=50 time=0
note_off channel=7 note=66 velocity=50 time=8
note_off channel=7 note=61 velocity=50 time=0
note_on channel=7 note=66 velocity=50 time=16
note_on channel=7 note=61 velocity=50 time=0
note_off channel=7 note=66 velocity=50 time=8
note_off channel=7 note=61 velocity=50 time=0
note_on channel=7 note=66 velocity=50 time=16
note_on channel=7 note=61 velocity=50 time=0
note_off channel=7 note=66 velocity=50 time=8
note_off channel=7 note=61 velocity=50 time=0
note_on channel=7 note=66 velocity=50 time=16
note_on channel=7 note=61 velocity=50 time=0
note_off channel=7 note=66 velocity=50 time=8
note_off channel=7 note=61 velocity=50 time=0
note_on channel=7 note=66 velocity=50 time=16
note_on channel=7 note=61 velocity=50 time=0
note_off channel=7 note=66 velocity=50 time=8
note_off channel=7 note=61 velocity=50 time=0
note_on channel=7 note=66 velocity=50 time=16
note_on channel=7 note=61 velocity=50 time=0
note_off channel=7 note=66 velocity=50 time=8
note_off channel=7 note=61 velocity=50 time=0
note_on channel=7 note=66 velocity=50 time=16
note_on channel=7 note=61 velocity=50 time=0
note_off channel=7 note=66 velocity=50 time=8
note_off channel=7 note=61 velocity=50 time=0
note_on channel=7 note=66 velocity=50 time=16
note_on channel=7 note=61 velocity=50 time=0
note_off channel=7 note=66 velocity=50 time=8
note_off channel=7 note=61 velocity=50 time=0
note_on channel=7 note=68 velocity=50 time=5392
note_on channel=7 note=64 velocity=50 time=0
note_off channel=7 note=68 velocity=50 time=8
note_off channel=7 note=64 velocity=50 time=0
note_on channel=7 note=68 velocity=50 time=16
note_on channel=7 note=64 velocity=50 time=0
note_off channel=7 note=68 velocity=50 time=8
note_off channel=7 note=64 velocity=50 time=0
note_on channel=7 note=68 velocity=50 time=16
note_on channel=7 note=64 velocity=50 time=0
note_off channel=7 note=64 velocity=50 time=8
note_off channel=7 note=68 velocity=50 time=0
note_on channel=7 note=68 velocity=50 time=16
note_on channel=7 note=64 velocity=50 time=0
note_off channel=7 note=68 velocity=50 time=8
note_off channel=7 note=64 velocity=50 time=0
note_on channel=7 note=68 velocity=50 time=16
note_on channel=7 note=64 velocity=50 time=0
note_off channel=7 note=68 velocity=50 time=8
note_off channel=7 note=64 velocity=50 time=0
note_on channel=7 note=68 velocity=50 time=16
note_on channel=7 note=64 velocity=50 time=0
note_off channel=7 note=68 velocity=50 time=8
note_off channel=7 note=64 velocity=50 time=0
note_on channel=7 note=68 velocity=50 time=16
note_on channel=7 note=64 velocity=50 time=0
note_off channel=7 note=68 velocity=50 time=8
note_off channel=7 note=64 velocity=50 time=0
note_on channel=7 note=68 velocity=50 time=16
note_on channel=7 note=64 velocity=50 time=0
note_off channel=7 note=68 velocity=50 time=8
note_off channel=7 note=64 velocity=50 time=0
note_on channel=7 note=68 velocity=50 time=16
note_on channel=7 note=64 velocity=50 time=0
note_off channel=7 note=64 velocity=50 time=8
note_off channel=7 note=68 velocity=50 time=0
note_on channel=7 note=68 velocity=50 time=16
note_on channel=7 note=64 velocity=50 time=0
note_off channel=7 note=68 velocity=50 time=8
note_off channel=7 note=64 velocity=50 time=0
note_on channel=7 note=68 velocity=50 time=16
note_on channel=7 note=64 velocity=50 time=0
note_off channel=7 note=68 velocity=50 time=8
note_off channel=7 note=64 velocity=50 time=0
note_on channel=7 note=68 velocity=50 time=16
note_on channel=7 note=64 velocity=50 time=0
note_off channel=7 note=68 velocity=50 time=8
note_off channel=7 note=64 velocity=50 time=0
note_on channel=7 note=68 velocity=50 time=16
note_on channel=7 note=64 velocity=50 time=0
note_off channel=7 note=68 velocity=50 time=8
note_off channel=7 note=64 velocity=50 time=0
note_on channel=7 note=68 velocity=50 time=16
note_on channel=7 note=64 velocity=50 time=0
note_off channel=7 note=68 velocity=50 time=8
note_off channel=7 note=64 velocity=50 time=0
note_on channel=7 note=68 velocity=50 time=16
note_on channel=7 note=64 velocity=50 time=0
note_off channel=7 note=68 velocity=50 time=8
note_off channel=7 note=64 velocity=50 time=0
note_on channel=7 note=68 velocity=50 time=16
note_on channel=7 note=64 velocity=50 time=0
note_off channel=7 note=68 velocity=50 time=8
note_off channel=7 note=64 velocity=50 time=0
note_on channel=7 note=68 velocity=50 time=16
note_on channel=7 note=65 velocity=50 time=0
note_off channel=7 note=68 velocity=50 time=8
note_off channel=7 note=65 velocity=50 time=0
note_on channel=7 note=68 velocity=50 time=16
note_on channel=7 note=65 velocity=50 time=0
note_off channel=7 note=68 velocity=50 time=8
note_off channel=7 note=65 velocity=50 time=0
note_on channel=7 note=68 velocity=50 time=16
note_on channel=7 note=65 velocity=50 time=0
note_off channel=7 note=68 velocity=50 time=8
note_off channel=7 note=65 velocity=50 time=0
note_on channel=7 note=68 velocity=50 time=16
note_on channel=7 note=65 velocity=50 time=0
note_off channel=7 note=68 velocity=50 time=8
note_off channel=7 note=65 velocity=50 time=0
note_on channel=7 note=68 velocity=50 time=16
note_on channel=7 note=65 velocity=50 time=0
note_off channel=7 note=68 velocity=50 time=8
note_off channel=7 note=65 velocity=50 time=0
note_on channel=7 note=68 velocity=50 time=16
note_on channel=7 note=65 velocity=50 time=0
note_off channel=7 note=65 velocity=50 time=8
note_off channel=7 note=68 velocity=50 time=0
note_on channel=7 note=68 velocity=50 time=16
note_on channel=7 note=65 velocity=50 time=0
note_off channel=7 note=68 velocity=50 time=8
note_off channel=7 note=65 velocity=50 time=0
note_on channel=7 note=68 velocity=50 time=16
note_on channel=7 note=65 velocity=50 time=0
note_off channel=7 note=68 velocity=50 time=8
note_off channel=7 note=65 velocity=50 time=0
note_on channel=7 note=68 velocity=50 time=16
note_on channel=7 note=65 velocity=50 time=0
note_off channel=7 note=68 velocity=50 time=8
note_off channel=7 note=65 velocity=50 time=0
note_on channel=7 note=68 velocity=50 time=16
note_on channel=7 note=65 velocity=50 time=0
note_off channel=7 note=68 velocity=50 time=8
note_off channel=7 note=65 velocity=50 time=0
note_on channel=7 note=68 velocity=50 time=16
note_on channel=7 note=65 velocity=50 time=0
note_off channel=7 note=68 velocity=50 time=8
note_off channel=7 note=65 velocity=50 time=0
note_on channel=7 note=68 velocity=50 time=16
note_on channel=7 note=65 velocity=50 time=0
note_off channel=7 note=68 velocity=50 time=8
note_off channel=7 note=65 velocity=50 time=0
note_on channel=7 note=68 velocity=50 time=16
note_on channel=7 note=65 velocity=50 time=0
note_off channel=7 note=68 velocity=50 time=8
note_off channel=7 note=65 velocity=50 time=0
note_on channel=7 note=68 velocity=50 time=16
note_on channel=7 note=65 velocity=50 time=0
note_off channel=7 note=68 velocity=50 time=8
note_off channel=7 note=65 velocity=50 time=0
note_on channel=7 note=68 velocity=50 time=16
note_on channel=7 note=65 velocity=50 time=0
note_off channel=7 note=68 velocity=50 time=8
note_off channel=7 note=65 velocity=50 time=0
note_on channel=7 note=68 velocity=50 time=16
note_on channel=7 note=65 velocity=50 time=0
note_off channel=7 note=68 velocity=50 time=8
note_off channel=7 note=65 velocity=50 time=0
note_on channel=7 note=69 velocity=50 time=16
note_on channel=7 note=66 velocity=50 time=0
note_off channel=7 note=69 velocity=50 time=8
note_off channel=7 note=66 velocity=50 time=0
note_on channel=7 note=69 velocity=50 time=16
note_on channel=7 note=66 velocity=50 time=0
note_off channel=7 note=69 velocity=50 time=8
note_off channel=7 note=66 velocity=50 time=0
note_on channel=7 note=69 velocity=50 time=16
note_on channel=7 note=66 velocity=50 time=0
note_off channel=7 note=66 velocity=50 time=8
note_off channel=7 note=69 velocity=50 time=0
note_on channel=7 note=69 velocity=50 time=16
note_on channel=7 note=66 velocity=50 time=0
note_off channel=7 note=69 velocity=50 time=8
note_off channel=7 note=66 velocity=50 time=0
note_on channel=7 note=69 velocity=50 time=16
note_on channel=7 note=66 velocity=50 time=0
note_off channel=7 note=66 velocity=50 time=8
note_off channel=7 note=69 velocity=50 time=0
note_on channel=7 note=69 velocity=50 time=16
note_on channel=7 note=66 velocity=50 time=0
note_off channel=7 note=69 velocity=50 time=8
note_off channel=7 note=66 velocity=50 time=0
note_on channel=7 note=69 velocity=50 time=16
note_on channel=7 note=66 velocity=50 time=0
note_off channel=7 note=69 velocity=50 time=8
note_off channel=7 note=66 velocity=50 time=0
note_on channel=7 note=69 velocity=50 time=16
note_on channel=7 note=66 velocity=50 time=0
note_off channel=7 note=69 velocity=50 time=8
note_off channel=7 note=66 velocity=50 time=0
note_on channel=7 note=69 velocity=50 time=16
note_on channel=7 note=66 velocity=50 time=0
note_off channel=7 note=69 velocity=50 time=8
note_off channel=7 note=66 velocity=50 time=0
note_on channel=7 note=69 velocity=50 time=16
note_on channel=7 note=66 velocity=50 time=0
note_off channel=7 note=69 velocity=50 time=8
note_off channel=7 note=66 velocity=50 time=0
note_on channel=7 note=69 velocity=50 time=16
note_on channel=7 note=66 velocity=50 time=0
note_off channel=7 note=66 velocity=50 time=8
note_off channel=7 note=69 velocity=50 time=0
note_on channel=7 note=69 velocity=50 time=16
note_on channel=7 note=66 velocity=50 time=0
note_off channel=7 note=69 velocity=50 time=8
note_off channel=7 note=66 velocity=50 time=0
note_on channel=7 note=69 velocity=50 time=16
note_on channel=7 note=66 velocity=50 time=0
note_off channel=7 note=69 velocity=50 time=8
note_off channel=7 note=66 velocity=50 time=0
note_on channel=7 note=69 velocity=50 time=16
note_on channel=7 note=66 velocity=50 time=0
note_off channel=7 note=69 velocity=50 time=8
note_off channel=7 note=66 velocity=50 time=0
note_on channel=7 note=69 velocity=50 time=16
note_on channel=7 note=66 velocity=50 time=0
note_off channel=7 note=69 velocity=50 time=8
note_off channel=7 note=66 velocity=50 time=0
note_on channel=7 note=69 velocity=50 time=16
note_on channel=7 note=66 velocity=50 time=0
note_off channel=7 note=69 velocity=50 time=8
note_off channel=7 note=66 velocity=50 time=0
note_on channel=7 note=69 velocity=50 time=16
note_on channel=7 note=66 velocity=50 time=0
note_off channel=7 note=69 velocity=50 time=8
note_off channel=7 note=66 velocity=50 time=0
note_on channel=7 note=69 velocity=50 time=16
note_on channel=7 note=66 velocity=50 time=0
note_off channel=7 note=69 velocity=50 time=8
note_off channel=7 note=66 velocity=50 time=0
note_on channel=7 note=69 velocity=50 time=16
note_on channel=7 note=66 velocity=50 time=0
note_off channel=7 note=69 velocity=50 time=8
note_off channel=7 note=66 velocity=50 time=0
note_on channel=7 note=69 velocity=50 time=16
note_on channel=7 note=66 velocity=50 time=0
note_off channel=7 note=66 velocity=50 time=8
note_off channel=7 note=69 velocity=50 time=0
note_on channel=7 note=69 velocity=50 time=16
note_on channel=7 note=66 velocity=50 time=0
note_off channel=7 note=69 velocity=50 time=8
note_off channel=7 note=66 velocity=50 time=0
note_on channel=7 note=69 velocity=50 time=16
note_on channel=7 note=66 velocity=50 time=0
note_off channel=7 note=66 velocity=50 time=8
note_off channel=7 note=69 velocity=50 time=0
note_on channel=7 note=69 velocity=50 time=16
note_on channel=7 note=66 velocity=50 time=0
note_off channel=7 note=69 velocity=50 time=8
note_off channel=7 note=66 velocity=50 time=0
note_on channel=7 note=69 velocity=50 time=16
note_on channel=7 note=66 velocity=50 time=0
note_off channel=7 note=69 velocity=50 time=8
note_off channel=7 note=66 velocity=50 time=0
note_on channel=7 note=69 velocity=50 time=16
note_on channel=7 note=66 velocity=50 time=0
note_off channel=7 note=69 velocity=50 time=8
note_off channel=7 note=66 velocity=50 time=0
note_on channel=7 note=69 velocity=50 time=16
note_on channel=7 note=66 velocity=50 time=0
note_off channel=7 note=66 velocity=50 time=8
note_off channel=7 note=69 velocity=50 time=0
note_on channel=7 note=69 velocity=50 time=16
note_on channel=7 note=66 velocity=50 time=0
note_off channel=7 note=69 velocity=50 time=8
note_off channel=7 note=66 velocity=50 time=0
note_on channel=7 note=69 velocity=50 time=16
note_on channel=7 note=66 velocity=50 time=0
note_off channel=7 note=66 velocity=50 time=8
note_off channel=7 note=69 velocity=50 time=0
note_on channel=7 note=69 velocity=50 time=16
note_on channel=7 note=66 velocity=50 time=0
note_off channel=7 note=69 velocity=50 time=8
note_off channel=7 note=66 velocity=50 time=0
note_on channel=7 note=69 velocity=50 time=16
note_on channel=7 note=66 velocity=50 time=0
note_off channel=7 note=69 velocity=50 time=8
note_off channel=7 note=66 velocity=50 time=0
note_on channel=7 note=69 velocity=50 time=16
note_on channel=7 note=66 velocity=50 time=0
note_off channel=7 note=66 velocity=50 time=8
note_off channel=7 note=69 velocity=50 time=0
note_on channel=7 note=69 velocity=50 time=16
note_on channel=7 note=66 velocity=50 time=0
note_off channel=7 note=69 velocity=50 time=8
note_off channel=7 note=66 velocity=50 time=0
note_on channel=7 note=69 velocity=50 time=16
note_on channel=7 note=64 velocity=50 time=0
note_off channel=7 note=69 velocity=50 time=8
note_off channel=7 note=64 velocity=50 time=0
note_on channel=7 note=69 velocity=50 time=16
note_on channel=7 note=64 velocity=50 time=0
note_off channel=7 note=69 velocity=50 time=8
note_off channel=7 note=64 velocity=50 time=0
note_on channel=7 note=69 velocity=50 time=16
note_on channel=7 note=64 velocity=50 time=0
note_off channel=7 note=69 velocity=50 time=8
note_off channel=7 note=64 velocity=50 time=0
note_on channel=7 note=69 velocity=50 time=16
note_on channel=7 note=64 velocity=50 time=0
note_off channel=7 note=69 velocity=50 time=8
note_off channel=7 note=64 velocity=50 time=0
note_on channel=7 note=69 velocity=50 time=16
note_on channel=7 note=64 velocity=50 time=0
note_off channel=7 note=69 velocity=50 time=8
note_off channel=7 note=64 velocity=50 time=0
note_on channel=7 note=69 velocity=50 time=16
note_on channel=7 note=64 velocity=50 time=0
note_off channel=7 note=64 velocity=50 time=8
note_off channel=7 note=69 velocity=50 time=0
note_on channel=7 note=69 velocity=50 time=16
note_on channel=7 note=64 velocity=50 time=0
note_off channel=7 note=69 velocity=50 time=8
note_off channel=7 note=64 velocity=50 time=0
note_on channel=7 note=69 velocity=50 time=16
note_on channel=7 note=64 velocity=50 time=0
note_off channel=7 note=69 velocity=50 time=8
note_off channel=7 note=64 velocity=50 time=0
note_on channel=7 note=69 velocity=50 time=16
note_on channel=7 note=64 velocity=50 time=0
note_off channel=7 note=69 velocity=50 time=8
note_off channel=7 note=64 velocity=50 time=0
note_on channel=7 note=69 velocity=50 time=16
note_on channel=7 note=64 velocity=50 time=0
note_off channel=7 note=69 velocity=50 time=8
note_off channel=7 note=64 velocity=50 time=0
note_on channel=7 note=69 velocity=50 time=16
note_on channel=7 note=64 velocity=50 time=0
note_off channel=7 note=69 velocity=50 time=8
note_off channel=7 note=64 velocity=50 time=0
note_on channel=7 note=69 velocity=50 time=16
note_on channel=7 note=64 velocity=50 time=0
note_off channel=7 note=69 velocity=50 time=8
note_off channel=7 note=64 velocity=50 time=0
note_on channel=7 note=69 velocity=50 time=16
note_on channel=7 note=64 velocity=50 time=0
note_off channel=7 note=69 velocity=50 time=8
note_off channel=7 note=64 velocity=50 time=0
note_on channel=7 note=69 velocity=50 time=16
note_on channel=7 note=64 velocity=50 time=0
note_off channel=7 note=64 velocity=50 time=8
note_off channel=7 note=69 velocity=50 time=0
note_on channel=7 note=69 velocity=50 time=16
note_on channel=7 note=64 velocity=50 time=0
note_off channel=7 note=69 velocity=50 time=8
note_off channel=7 note=64 velocity=50 time=0
note_on channel=7 note=69 velocity=50 time=16
note_on channel=7 note=64 velocity=50 time=0
note_off channel=7 note=69 velocity=50 time=8
note_off channel=7 note=64 velocity=50 time=0
note_on channel=7 note=69 velocity=50 time=16
note_on channel=7 note=62 velocity=50 time=0
note_off channel=7 note=69 velocity=50 time=8
note_off channel=7 note=62 velocity=50 time=0
note_on channel=7 note=69 velocity=50 time=16
note_on channel=7 note=62 velocity=50 time=0
note_off channel=7 note=69 velocity=50 time=8
note_off channel=7 note=62 velocity=50 time=0
note_on channel=7 note=69 velocity=50 time=16
note_on channel=7 note=62 velocity=50 time=0
note_off channel=7 note=62 velocity=50 time=8
note_off channel=7 note=69 velocity=50 time=0
note_on channel=7 note=69 velocity=50 time=16
note_on channel=7 note=62 velocity=50 time=0
note_off channel=7 note=69 velocity=50 time=8
note_off channel=7 note=62 velocity=50 time=0
note_on channel=7 note=69 velocity=50 time=16
note_on channel=7 note=62 velocity=50 time=0
note_off channel=7 note=69 velocity=50 time=8
note_off channel=7 note=62 velocity=50 time=0
note_on channel=7 note=69 velocity=50 time=16
note_on channel=7 note=62 velocity=50 time=0
note_off channel=7 note=62 velocity=50 time=8
note_off channel=7 note=69 velocity=50 time=0
note_on channel=7 note=69 velocity=50 time=16
note_on channel=7 note=62 velocity=50 time=0
note_off channel=7 note=69 velocity=50 time=8
note_off channel=7 note=62 velocity=50 time=0
note_on channel=7 note=69 velocity=50 time=16
note_on channel=7 note=62 velocity=50 time=0
note_off channel=7 note=69 velocity=50 time=8
note_off channel=7 note=62 velocity=50 time=0
note_on channel=7 note=69 velocity=50 time=16
note_on channel=7 note=62 velocity=50 time=0
note_off channel=7 note=69 velocity=50 time=8
note_off channel=7 note=62 velocity=50 time=0
note_on channel=7 note=69 velocity=50 time=16
note_on channel=7 note=62 velocity=50 time=0
note_off channel=7 note=62 velocity=50 time=8
note_off channel=7 note=69 velocity=50 time=0
note_on channel=7 note=69 velocity=50 time=16
note_on channel=7 note=62 velocity=50 time=0
note_off channel=7 note=69 velocity=50 time=8
note_off channel=7 note=62 velocity=50 time=0
note_on channel=7 note=69 velocity=50 time=16
note_on channel=7 note=62 velocity=50 time=0
note_off channel=7 note=62 velocity=50 time=8
note_off channel=7 note=69 velocity=50 time=0
note_on channel=7 note=69 velocity=50 time=16
note_on channel=7 note=62 velocity=50 time=0
note_off channel=7 note=69 velocity=50 time=8
note_off channel=7 note=62 velocity=50 time=0
note_on channel=7 note=69 velocity=50 time=16
note_on channel=7 note=62 velocity=50 time=0
note_off channel=7 note=69 velocity=50 time=8
note_off channel=7 note=62 velocity=50 time=0
note_on channel=7 note=69 velocity=50 time=16
note_on channel=7 note=62 velocity=50 time=0
note_off channel=7 note=69 velocity=50 time=8
note_off channel=7 note=62 velocity=50 time=0
note_on channel=7 note=69 velocity=50 time=16
note_on channel=7 note=62 velocity=50 time=0
note_off channel=7 note=69 velocity=50 time=8
note_off channel=7 note=62 velocity=50 time=0
note_on channel=7 note=64 velocity=50 time=16
note_on channel=7 note=61 velocity=50 time=0
note_off channel=7 note=64 velocity=50 time=8
note_off channel=7 note=61 velocity=50 time=0
note_on channel=7 note=64 velocity=50 time=16
note_on channel=7 note=61 velocity=50 time=0
note_off channel=7 note=64 velocity=50 time=8
note_off channel=7 note=61 velocity=50 time=0
note_on channel=7 note=64 velocity=50 time=16
note_on channel=7 note=61 velocity=50 time=0
note_off channel=7 note=64 velocity=50 time=8
note_off channel=7 note=61 velocity=50 time=0
note_on channel=7 note=64 velocity=50 time=16
note_on channel=7 note=61 velocity=50 time=0
note_off channel=7 note=64 velocity=50 time=8
note_off channel=7 note=61 velocity=50 time=0
note_on channel=7 note=64 velocity=50 time=16
note_on channel=7 note=61 velocity=50 time=0
note_off channel=7 note=64 velocity=50 time=8
note_off channel=7 note=61 velocity=50 time=0
note_on channel=7 note=64 velocity=50 time=16
note_on channel=7 note=61 velocity=50 time=0
note_off channel=7 note=64 velocity=50 time=8
note_off channel=7 note=61 velocity=50 time=0
note_on channel=7 note=64 velocity=50 time=16
note_on channel=7 note=61 velocity=50 time=0
note_off channel=7 note=64 velocity=50 time=8
note_off channel=7 note=61 velocity=50 time=0
note_on channel=7 note=64 velocity=50 time=16
note_on channel=7 note=61 velocity=50 time=0
note_off channel=7 note=64 velocity=50 time=8
note_off channel=7 note=61 velocity=50 time=0
note_on channel=7 note=64 velocity=50 time=16
note_on channel=7 note=61 velocity=50 time=0
note_off channel=7 note=61 velocity=50 time=8
note_off channel=7 note=64 velocity=50 time=0
note_on channel=7 note=64 velocity=50 time=16
note_on channel=7 note=61 velocity=50 time=0
note_off channel=7 note=61 velocity=50 time=8
note_off channel=7 note=64 velocity=50 time=0
note_on channel=7 note=64 velocity=50 time=16
note_on channel=7 note=61 velocity=50 time=0
note_off channel=7 note=64 velocity=50 time=8
note_off channel=7 note=61 velocity=50 time=0
note_on channel=7 note=64 velocity=50 time=16
note_on channel=7 note=61 velocity=50 time=0
note_off channel=7 note=64 velocity=50 time=8
note_off channel=7 note=61 velocity=50 time=0
note_on channel=7 note=64 velocity=50 time=16
note_on channel=7 note=61 velocity=50 time=0
note_off channel=7 note=64 velocity=50 time=8
note_off channel=7 note=61 velocity=50 time=0
note_on channel=7 note=64 velocity=50 time=16
note_on channel=7 note=61 velocity=50 time=0
note_off channel=7 note=64 velocity=50 time=8
note_off channel=7 note=61 velocity=50 time=0
note_on channel=7 note=64 velocity=50 time=16
note_on channel=7 note=61 velocity=50 time=0
note_off channel=7 note=64 velocity=50 time=8
note_off channel=7 note=61 velocity=50 time=0
note_on channel=7 note=64 velocity=50 time=16
note_on channel=7 note=61 velocity=50 time=0
note_off channel=7 note=64 velocity=50 time=8
note_off channel=7 note=61 velocity=50 time=0
note_on channel=7 note=66 velocity=50 time=16
note_on channel=7 note=62 velocity=50 time=0
note_off channel=7 note=66 velocity=50 time=8
note_off channel=7 note=62 velocity=50 time=0
note_on channel=7 note=66 velocity=50 time=16
note_on channel=7 note=62 velocity=50 time=0
note_off channel=7 note=66 velocity=50 time=8
note_off channel=7 note=62 velocity=50 time=0
note_on channel=7 note=66 velocity=50 time=16
note_on channel=7 note=62 velocity=50 time=0
note_off channel=7 note=62 velocity=50 time=8
note_off channel=7 note=66 velocity=50 time=0
note_on channel=7 note=66 velocity=50 time=16
note_on channel=7 note=62 velocity=50 time=0
note_off channel=7 note=66 velocity=50 time=8
note_off channel=7 note=62 velocity=50 time=0
note_on channel=7 note=66 velocity=50 time=16
note_on channel=7 note=62 velocity=50 time=0
note_off channel=7 note=66 velocity=50 time=8
note_off channel=7 note=62 velocity=50 time=0
note_on channel=7 note=66 velocity=50 time=16
note_on channel=7 note=62 velocity=50 time=0
note_off channel=7 note=62 velocity=50 time=8
note_off channel=7 note=66 velocity=50 time=0
note_on channel=7 note=66 velocity=50 time=16
note_on channel=7 note=62 velocity=50 time=0
note_off channel=7 note=66 velocity=50 time=8
note_off channel=7 note=62 velocity=50 time=0
note_on channel=7 note=66 velocity=50 time=16
note_on channel=7 note=62 velocity=50 time=0
note_off channel=7 note=66 velocity=50 time=8
note_off channel=7 note=62 velocity=50 time=0
note_on channel=7 note=66 velocity=50 time=16
note_on channel=7 note=62 velocity=50 time=0
note_off channel=7 note=66 velocity=50 time=8
note_off channel=7 note=62 velocity=50 time=0
note_on channel=7 note=66 velocity=50 time=16
note_on channel=7 note=62 velocity=50 time=0
note_off channel=7 note=66 velocity=50 time=8
note_off channel=7 note=62 velocity=50 time=0
note_on channel=7 note=66 velocity=50 time=16
note_on channel=7 note=62 velocity=50 time=0
note_off channel=7 note=66 velocity=50 time=8
note_off channel=7 note=62 velocity=50 time=0
note_on channel=7 note=66 velocity=50 time=16
note_on channel=7 note=62 velocity=50 time=0
note_off channel=7 note=66 velocity=50 time=8
note_off channel=7 note=62 velocity=50 time=0
note_on channel=7 note=66 velocity=50 time=16
note_on channel=7 note=62 velocity=50 time=0
note_off channel=7 note=66 velocity=50 time=8
note_off channel=7 note=62 velocity=50 time=0
note_on channel=7 note=66 velocity=50 time=16
note_on channel=7 note=62 velocity=50 time=0
note_off channel=7 note=66 velocity=50 time=8
note_off channel=7 note=62 velocity=50 time=0
note_on channel=7 note=66 velocity=50 time=16
note_on channel=7 note=62 velocity=50 time=0
note_off channel=7 note=66 velocity=50 time=8
note_off channel=7 note=62 velocity=50 time=0
note_on channel=7 note=66 velocity=50 time=16
note_on channel=7 note=62 velocity=50 time=0
note_off channel=7 note=62 velocity=50 time=8
note_off channel=7 note=66 velocity=50 time=0
note_on channel=7 note=64 velocity=50 time=16
note_on channel=7 note=61 velocity=50 time=0
note_off channel=7 note=64 velocity=50 time=8
note_off channel=7 note=61 velocity=50 time=0
note_on channel=7 note=64 velocity=50 time=16
note_on channel=7 note=61 velocity=50 time=0
note_off channel=7 note=64 velocity=50 time=8
note_off channel=7 note=61 velocity=50 time=0
note_on channel=7 note=64 velocity=50 time=16
note_on channel=7 note=61 velocity=50 time=0
note_off channel=7 note=61 velocity=50 time=8
note_off channel=7 note=64 velocity=50 time=0
note_on channel=7 note=64 velocity=50 time=16
note_on channel=7 note=61 velocity=50 time=0
note_off channel=7 note=64 velocity=50 time=8
note_off channel=7 note=61 velocity=50 time=0
note_on channel=7 note=64 velocity=50 time=16
note_on channel=7 note=61 velocity=50 time=0
note_off channel=7 note=64 velocity=50 time=8
note_off channel=7 note=61 velocity=50 time=0
note_on channel=7 note=64 velocity=50 time=16
note_on channel=7 note=61 velocity=50 time=0
note_off channel=7 note=64 velocity=50 time=8
note_off channel=7 note=61 velocity=50 time=0
note_on channel=7 note=64 velocity=50 time=16
note_on channel=7 note=61 velocity=50 time=0
note_off channel=7 note=64 velocity=50 time=8
note_off channel=7 note=61 velocity=50 time=0
note_on channel=7 note=64 velocity=50 time=16
note_on channel=7 note=61 velocity=50 time=0
note_off channel=7 note=64 velocity=50 time=8
note_off channel=7 note=61 velocity=50 time=0
note_on channel=7 note=64 velocity=50 time=16
note_on channel=7 note=61 velocity=50 time=0
note_off channel=7 note=61 velocity=50 time=8
note_off channel=7 note=64 velocity=50 time=0
note_on channel=7 note=64 velocity=50 time=16
note_on channel=7 note=61 velocity=50 time=0
note_off channel=7 note=64 velocity=50 time=8
note_off channel=7 note=61 velocity=50 time=0
note_on channel=7 note=64 velocity=50 time=16
note_on channel=7 note=61 velocity=50 time=0
note_off channel=7 note=64 velocity=50 time=8
note_off channel=7 note=61 velocity=50 time=0
note_on channel=7 note=64 velocity=50 time=16
note_on channel=7 note=61 velocity=50 time=0
note_off channel=7 note=64 velocity=50 time=8
note_off channel=7 note=61 velocity=50 time=0
note_on channel=7 note=64 velocity=50 time=16
note_on channel=7 note=61 velocity=50 time=0
note_off channel=7 note=64 velocity=50 time=8
note_off channel=7 note=61 velocity=50 time=0
note_on channel=7 note=64 velocity=50 time=16
note_on channel=7 note=61 velocity=50 time=0
note_off channel=7 note=61 velocity=50 time=8
note_off channel=7 note=64 velocity=50 time=0
note_on channel=7 note=64 velocity=50 time=16
note_on channel=7 note=61 velocity=50 time=0
note_off channel=7 note=64 velocity=50 time=8
note_off channel=7 note=61 velocity=50 time=0
note_on channel=7 note=64 velocity=50 time=16
note_on channel=7 note=61 velocity=50 time=0
note_off channel=7 note=61 velocity=50 time=8
note_off channel=7 note=64 velocity=50 time=0
note_on channel=7 note=66 velocity=50 time=16
note_on channel=7 note=62 velocity=50 time=0
note_off channel=7 note=66 velocity=50 time=8
note_off channel=7 note=62 velocity=50 time=0
note_on channel=7 note=66 velocity=50 time=16
note_on channel=7 note=62 velocity=50 time=0
note_off channel=7 note=66 velocity=50 time=8
note_off channel=7 note=62 velocity=50 time=0
note_on channel=7 note=66 velocity=50 time=16
note_on channel=7 note=62 velocity=50 time=0
note_off channel=7 note=62 velocity=50 time=8
note_off channel=7 note=66 velocity=50 time=0
note_on channel=7 note=66 velocity=50 time=16
note_on channel=7 note=62 velocity=50 time=0
note_off channel=7 note=62 velocity=50 time=8
note_off channel=7 note=66 velocity=50 time=0
note_on channel=7 note=66 velocity=50 time=16
note_on channel=7 note=62 velocity=50 time=0
note_off channel=7 note=66 velocity=50 time=8
note_off channel=7 note=62 velocity=50 time=0
note_on channel=7 note=66 velocity=50 time=16
note_on channel=7 note=62 velocity=50 time=0
note_off channel=7 note=62 velocity=50 time=8
note_off channel=7 note=66 velocity=50 time=0
note_on channel=7 note=66 velocity=50 time=16
note_on channel=7 note=62 velocity=50 time=0
note_off channel=7 note=66 velocity=50 time=8
note_off channel=7 note=62 velocity=50 time=0
note_on channel=7 note=66 velocity=50 time=16
note_on channel=7 note=62 velocity=50 time=0
note_off channel=7 note=66 velocity=50 time=8
note_off channel=7 note=62 velocity=50 time=0
note_on channel=7 note=66 velocity=50 time=16
note_on channel=7 note=62 velocity=50 time=0
note_off channel=7 note=66 velocity=50 time=8
note_off channel=7 note=62 velocity=50 time=0
note_on channel=7 note=66 velocity=50 time=16
note_on channel=7 note=62 velocity=50 time=0
note_off channel=7 note=66 velocity=50 time=8
note_off channel=7 note=62 velocity=50 time=0
note_on channel=7 note=66 velocity=50 time=16
note_on channel=7 note=62 velocity=50 time=0
note_off channel=7 note=66 velocity=50 time=8
note_off channel=7 note=62 velocity=50 time=0
note_on channel=7 note=66 velocity=50 time=16
note_on channel=7 note=62 velocity=50 time=0
note_off channel=7 note=66 velocity=50 time=8
note_off channel=7 note=62 velocity=50 time=0
note_on channel=7 note=66 velocity=50 time=16
note_on channel=7 note=62 velocity=50 time=0
note_off channel=7 note=66 velocity=50 time=8
note_off channel=7 note=62 velocity=50 time=0
note_on channel=7 note=66 velocity=50 time=16
note_on channel=7 note=62 velocity=50 time=0
note_off channel=7 note=66 velocity=50 time=8
note_off channel=7 note=62 velocity=50 time=0
note_on channel=7 note=66 velocity=50 time=16
note_on channel=7 note=62 velocity=50 time=0
note_off channel=7 note=66 velocity=50 time=8
note_off channel=7 note=62 velocity=50 time=0
note_on channel=7 note=66 velocity=50 time=16
note_on channel=7 note=62 velocity=50 time=0
note_off channel=7 note=66 velocity=50 time=8
note_off channel=7 note=62 velocity=50 time=0
note_on channel=7 note=64 velocity=50 time=16
note_on channel=7 note=61 velocity=50 time=0
note_off channel=7 note=64 velocity=50 time=8
note_off channel=7 note=61 velocity=50 time=0
note_on channel=7 note=64 velocity=50 time=16
note_on channel=7 note=61 velocity=50 time=0
note_off channel=7 note=64 velocity=50 time=8
note_off channel=7 note=61 velocity=50 time=0
note_on channel=7 note=64 velocity=50 time=16
note_on channel=7 note=61 velocity=50 time=0
note_off channel=7 note=64 velocity=50 time=8
note_off channel=7 note=61 velocity=50 time=0
note_on channel=7 note=64 velocity=50 time=16
note_on channel=7 note=61 velocity=50 time=0
note_off channel=7 note=64 velocity=50 time=8
note_off channel=7 note=61 velocity=50 time=0
note_on channel=7 note=64 velocity=50 time=16
note_on channel=7 note=61 velocity=50 time=0
note_off channel=7 note=64 velocity=50 time=8
note_off channel=7 note=61 velocity=50 time=0
note_on channel=7 note=64 velocity=50 time=16
note_on channel=7 note=61 velocity=50 time=0
note_off channel=7 note=61 velocity=50 time=8
note_off channel=7 note=64 velocity=50 time=0
note_on channel=7 note=64 velocity=50 time=16
note_on channel=7 note=61 velocity=50 time=0
note_off channel=7 note=64 velocity=50 time=8
note_off channel=7 note=61 velocity=50 time=0
note_on channel=7 note=64 velocity=50 time=16
note_on channel=7 note=61 velocity=50 time=0
note_off channel=7 note=64 velocity=50 time=8
note_off channel=7 note=61 velocity=50 time=0
note_on channel=7 note=64 velocity=50 time=16
note_on channel=7 note=61 velocity=50 time=0
note_off channel=7 note=61 velocity=50 time=8
note_off channel=7 note=64 velocity=50 time=0
note_on channel=7 note=64 velocity=50 time=16
note_on channel=7 note=61 velocity=50 time=0
note_off channel=7 note=61 velocity=50 time=8
note_off channel=7 note=64 velocity=50 time=0
note_on channel=7 note=64 velocity=50 time=16
note_on channel=7 note=61 velocity=50 time=0
note_off channel=7 note=64 velocity=50 time=8
note_off channel=7 note=61 velocity=50 time=0
note_on channel=7 note=64 velocity=50 time=16
note_on channel=7 note=61 velocity=50 time=0
note_off channel=7 note=64 velocity=50 time=8
note_off channel=7 note=61 velocity=50 time=0
note_on channel=7 note=64 velocity=50 time=16
note_on channel=7 note=61 velocity=50 time=0
note_off channel=7 note=64 velocity=50 time=8
note_off channel=7 note=61 velocity=50 time=0
note_on channel=7 note=64 velocity=50 time=16
note_on channel=7 note=61 velocity=50 time=0
note_off channel=7 note=61 velocity=50 time=8
note_off channel=7 note=64 velocity=50 time=0
note_on channel=7 note=64 velocity=50 time=16
note_on channel=7 note=61 velocity=50 time=0
note_off channel=7 note=64 velocity=50 time=8
note_off channel=7 note=61 velocity=50 time=0
note_on channel=7 note=64 velocity=50 time=16
note_on channel=7 note=61 velocity=50 time=0
note_off channel=7 note=61 velocity=50 time=8
note_off channel=7 note=64 velocity=50 time=0
note_on channel=7 note=66 velocity=50 time=16
note_on channel=7 note=62 velocity=50 time=0
note_off channel=7 note=66 velocity=50 time=8
note_off channel=7 note=62 velocity=50 time=0
note_on channel=7 note=66 velocity=50 time=16
note_on channel=7 note=62 velocity=50 time=0
note_off channel=7 note=66 velocity=50 time=8
note_off channel=7 note=62 velocity=50 time=0
note_on channel=7 note=66 velocity=50 time=16
note_on channel=7 note=62 velocity=50 time=0
note_off channel=7 note=66 velocity=50 time=8
note_off channel=7 note=62 velocity=50 time=0
note_on channel=7 note=66 velocity=50 time=16
note_on channel=7 note=62 velocity=50 time=0
note_off channel=7 note=66 velocity=50 time=8
note_off channel=7 note=62 velocity=50 time=0
note_on channel=7 note=66 velocity=50 time=16
note_on channel=7 note=62 velocity=50 time=0
note_off channel=7 note=66 velocity=50 time=8
note_off channel=7 note=62 velocity=50 time=0
note_on channel=7 note=66 velocity=50 time=16
note_on channel=7 note=62 velocity=50 time=0
note_off channel=7 note=62 velocity=50 time=8
note_off channel=7 note=66 velocity=50 time=0
note_on channel=7 note=66 velocity=50 time=16
note_on channel=7 note=62 velocity=50 time=0
note_off channel=7 note=66 velocity=50 time=8
note_off channel=7 note=62 velocity=50 time=0
note_on channel=7 note=66 velocity=50 time=16
note_on channel=7 note=62 velocity=50 time=0
note_off channel=7 note=66 velocity=50 time=8
note_off channel=7 note=62 velocity=50 time=0
note_on channel=7 note=66 velocity=50 time=16
note_on channel=7 note=62 velocity=50 time=0
note_off channel=7 note=66 velocity=50 time=8
note_off channel=7 note=62 velocity=50 time=0
note_on channel=7 note=66 velocity=50 time=16
note_on channel=7 note=62 velocity=50 time=0
note_off channel=7 note=66 velocity=50 time=8
note_off channel=7 note=62 velocity=50 time=0
note_on channel=7 note=66 velocity=50 time=16
note_on channel=7 note=62 velocity=50 time=0
note_off channel=7 note=66 velocity=50 time=8
note_off channel=7 note=62 velocity=50 time=0
note_on channel=7 note=66 velocity=50 time=16
note_on channel=7 note=62 velocity=50 time=0
note_off channel=7 note=66 velocity=50 time=8
note_off channel=7 note=62 velocity=50 time=0
note_on channel=7 note=66 velocity=50 time=16
note_on channel=7 note=62 velocity=50 time=0
note_off channel=7 note=66 velocity=50 time=8
note_off channel=7 note=62 velocity=50 time=0
note_on channel=7 note=66 velocity=50 time=16
note_on channel=7 note=62 velocity=50 time=0
note_off channel=7 note=66 velocity=50 time=8
note_off channel=7 note=62 velocity=50 time=0
note_on channel=7 note=66 velocity=50 time=16
note_on channel=7 note=62 velocity=50 time=0
note_off channel=7 note=66 velocity=50 time=8
note_off channel=7 note=62 velocity=50 time=0
note_on channel=7 note=66 velocity=50 time=16
note_on channel=7 note=62 velocity=50 time=0
note_off channel=7 note=66 velocity=50 time=8
note_off channel=7 note=62 velocity=50 time=0
note_on channel=7 note=64 velocity=50 time=16
note_on channel=7 note=61 velocity=50 time=0
note_off channel=7 note=64 velocity=50 time=8
note_off channel=7 note=61 velocity=50 time=0
note_on channel=7 note=64 velocity=50 time=16
note_on channel=7 note=61 velocity=50 time=0
note_off channel=7 note=64 velocity=50 time=8
note_off channel=7 note=61 velocity=50 time=0
note_on channel=7 note=64 velocity=50 time=16
note_on channel=7 note=61 velocity=50 time=0
note_off channel=7 note=61 velocity=50 time=8
note_off channel=7 note=64 velocity=50 time=0
note_on channel=7 note=64 velocity=50 time=16
note_on channel=7 note=61 velocity=50 time=0
note_off channel=7 note=64 velocity=50 time=8
note_off channel=7 note=61 velocity=50 time=0
note_on channel=7 note=64 velocity=50 time=16
note_on channel=7 note=61 velocity=50 time=0
note_off channel=7 note=64 velocity=50 time=8
note_off channel=7 note=61 velocity=50 time=0
note_on channel=7 note=64 velocity=50 time=16
note_on channel=7 note=61 velocity=50 time=0
note_off channel=7 note=61 velocity=50 time=8
note_off channel=7 note=64 velocity=50 time=0
note_on channel=7 note=64 velocity=50 time=16
note_on channel=7 note=61 velocity=50 time=0
note_off channel=7 note=64 velocity=50 time=8
note_off channel=7 note=61 velocity=50 time=0
note_on channel=7 note=64 velocity=50 time=16
note_on channel=7 note=61 velocity=50 time=0
note_off channel=7 note=64 velocity=50 time=8
note_off channel=7 note=61 velocity=50 time=0
note_on channel=7 note=64 velocity=50 time=16
note_on channel=7 note=61 velocity=50 time=0
note_off channel=7 note=61 velocity=50 time=8
note_off channel=7 note=64 velocity=50 time=0
note_on channel=7 note=64 velocity=50 time=16
note_on channel=7 note=61 velocity=50 time=0
note_off channel=7 note=64 velocity=50 time=8
note_off channel=7 note=61 velocity=50 time=0
note_on channel=7 note=64 velocity=50 time=16
note_on channel=7 note=61 velocity=50 time=0
note_off channel=7 note=64 velocity=50 time=8
note_off channel=7 note=61 velocity=50 time=0
note_on channel=7 note=64 velocity=50 time=16
note_on channel=7 note=61 velocity=50 time=0
note_off channel=7 note=64 velocity=50 time=8
note_off channel=7 note=61 velocity=50 time=0
note_on channel=7 note=64 velocity=50 time=16
note_on channel=7 note=61 velocity=50 time=0
note_off channel=7 note=64 velocity=50 time=8
note_off channel=7 note=61 velocity=50 time=0
note_on channel=7 note=64 velocity=50 time=16
note_on channel=7 note=61 velocity=50 time=0
note_off channel=7 note=64 velocity=50 time=8
note_off channel=7 note=61 velocity=50 time=0
note_on channel=7 note=64 velocity=50 time=16
note_on channel=7 note=61 velocity=50 time=0
note_off channel=7 note=64 velocity=50 time=8
note_off channel=7 note=61 velocity=50 time=0
note_on channel=7 note=64 velocity=50 time=16
note_on channel=7 note=61 velocity=50 time=0
note_off channel=7 note=64 velocity=50 time=8
note_off channel=7 note=61 velocity=50 time=0
note_on channel=7 note=66 velocity=50 time=16
note_on channel=7 note=62 velocity=50 time=0
note_off channel=7 note=66 velocity=50 time=8
note_off channel=7 note=62 velocity=50 time=0
note_on channel=7 note=66 velocity=50 time=16
note_on channel=7 note=62 velocity=50 time=0
note_off channel=7 note=66 velocity=50 time=8
note_off channel=7 note=62 velocity=50 time=0
note_on channel=7 note=66 velocity=50 time=16
note_on channel=7 note=62 velocity=50 time=0
note_off channel=7 note=62 velocity=50 time=8
note_off channel=7 note=66 velocity=50 time=0
note_on channel=7 note=66 velocity=50 time=16
note_on channel=7 note=62 velocity=50 time=0
note_off channel=7 note=62 velocity=50 time=8
note_off channel=7 note=66 velocity=50 time=0
note_on channel=7 note=66 velocity=50 time=16
note_on channel=7 note=62 velocity=50 time=0
note_off channel=7 note=66 velocity=50 time=8
note_off channel=7 note=62 velocity=50 time=0
note_on channel=7 note=66 velocity=50 time=16
note_on channel=7 note=62 velocity=50 time=0
note_off channel=7 note=66 velocity=50 time=8
note_off channel=7 note=62 velocity=50 time=0
note_on channel=7 note=66 velocity=50 time=16
note_on channel=7 note=62 velocity=50 time=0
note_off channel=7 note=66 velocity=50 time=8
note_off channel=7 note=62 velocity=50 time=0
note_on channel=7 note=66 velocity=50 time=16
note_on channel=7 note=62 velocity=50 time=0
note_off channel=7 note=66 velocity=50 time=8
note_off channel=7 note=62 velocity=50 time=0
note_on channel=7 note=66 velocity=50 time=16
note_on channel=7 note=62 velocity=50 time=0
note_off channel=7 note=66 velocity=50 time=8
note_off channel=7 note=62 velocity=50 time=0
note_on channel=7 note=66 velocity=50 time=16
note_on channel=7 note=62 velocity=50 time=0
note_off channel=7 note=62 velocity=50 time=8
note_off channel=7 note=66 velocity=50 time=0
note_on channel=7 note=66 velocity=50 time=16
note_on channel=7 note=62 velocity=50 time=0
note_off channel=7 note=66 velocity=50 time=8
note_off channel=7 note=62 velocity=50 time=0
note_on channel=7 note=66 velocity=50 time=16
note_on channel=7 note=62 velocity=50 time=0
note_off channel=7 note=66 velocity=50 time=8
note_off channel=7 note=62 velocity=50 time=0
note_on channel=7 note=66 velocity=50 time=16
note_on channel=7 note=62 velocity=50 time=0
note_off channel=7 note=62 velocity=50 time=8
note_off channel=7 note=66 velocity=50 time=0
note_on channel=7 note=66 velocity=50 time=16
note_on channel=7 note=62 velocity=50 time=0
note_off channel=7 note=66 velocity=50 time=8
note_off channel=7 note=62 velocity=50 time=0
note_on channel=7 note=66 velocity=50 time=16
note_on channel=7 note=62 velocity=50 time=0
note_off channel=7 note=62 velocity=50 time=8
note_off channel=7 note=66 velocity=50 time=0
note_on channel=7 note=66 velocity=50 time=16
note_on channel=7 note=62 velocity=50 time=0
note_off channel=7 note=62 velocity=50 time=8
note_off channel=7 note=66 velocity=50 time=0
note_on channel=7 note=64 velocity=50 time=16
note_on channel=7 note=61 velocity=50 time=0
note_off channel=7 note=64 velocity=50 time=8
note_off channel=7 note=61 velocity=50 time=0
note_on channel=7 note=64 velocity=50 time=16
note_on channel=7 note=61 velocity=50 time=0
note_off channel=7 note=64 velocity=50 time=8
note_off channel=7 note=61 velocity=50 time=0
note_on channel=7 note=64 velocity=50 time=16
note_on channel=7 note=61 velocity=50 time=0
note_off channel=7 note=64 velocity=50 time=8
note_off channel=7 note=61 velocity=50 time=0
note_on channel=7 note=64 velocity=50 time=16
note_on channel=7 note=61 velocity=50 time=0
note_off channel=7 note=64 velocity=50 time=8
note_off channel=7 note=61 velocity=50 time=0
note_on channel=7 note=64 velocity=50 time=16
note_on channel=7 note=61 velocity=50 time=0
note_off channel=7 note=64 velocity=50 time=8
note_off channel=7 note=61 velocity=50 time=0
note_on channel=7 note=64 velocity=50 time=16
note_on channel=7 note=61 velocity=50 time=0
note_off channel=7 note=64 velocity=50 time=8
note_off channel=7 note=61 velocity=50 time=0
note_on channel=7 note=64 velocity=50 time=16
note_on channel=7 note=61 velocity=50 time=0
note_off channel=7 note=64 velocity=50 time=8
note_off channel=7 note=61 velocity=50 time=0
note_on channel=7 note=64 velocity=50 time=16
note_on channel=7 note=61 velocity=50 time=0
note_off channel=7 note=64 velocity=50 time=8
note_off channel=7 note=61 velocity=50 time=0
note_on channel=7 note=64 velocity=50 time=16
note_on channel=7 note=61 velocity=50 time=0
note_off channel=7 note=64 velocity=50 time=8
note_off channel=7 note=61 velocity=50 time=0
note_on channel=7 note=64 velocity=50 time=16
note_on channel=7 note=61 velocity=50 time=0
note_off channel=7 note=64 velocity=50 time=8
note_off channel=7 note=61 velocity=50 time=0
note_on channel=7 note=64 velocity=50 time=16
note_on channel=7 note=61 velocity=50 time=0
note_off channel=7 note=64 velocity=50 time=8
note_off channel=7 note=61 velocity=50 time=0
note_on channel=7 note=64 velocity=50 time=16
note_on channel=7 note=61 velocity=50 time=0
note_off channel=7 note=64 velocity=50 time=8
note_off channel=7 note=61 velocity=50 time=0
note_on channel=7 note=64 velocity=50 time=16
note_on channel=7 note=61 velocity=50 time=0
note_off channel=7 note=64 velocity=50 time=8
note_off channel=7 note=61 velocity=50 time=0
note_on channel=7 note=64 velocity=50 time=16
note_on channel=7 note=61 velocity=50 time=0
note_off channel=7 note=61 velocity=50 time=8
note_off channel=7 note=64 velocity=50 time=0
note_on channel=7 note=64 velocity=50 time=16
note_on channel=7 note=61 velocity=50 time=0
note_off channel=7 note=64 velocity=50 time=8
note_off channel=7 note=61 velocity=50 time=0
note_on channel=7 note=64 velocity=50 time=16
note_on channel=7 note=61 velocity=50 time=0
note_off channel=7 note=61 velocity=50 time=8
note_off channel=7 note=64 velocity=50 time=0
note_on channel=7 note=66 velocity=50 time=16
note_on channel=7 note=62 velocity=50 time=0
note_off channel=7 note=66 velocity=50 time=8
note_off channel=7 note=62 velocity=50 time=0
note_on channel=7 note=66 velocity=50 time=16
note_on channel=7 note=62 velocity=50 time=0
note_off channel=7 note=66 velocity=50 time=8
note_off channel=7 note=62 velocity=50 time=0
note_on channel=7 note=66 velocity=50 time=16
note_on channel=7 note=62 velocity=50 time=0
note_off channel=7 note=62 velocity=50 time=8
note_off channel=7 note=66 velocity=50 time=0
note_on channel=7 note=66 velocity=50 time=16
note_on channel=7 note=62 velocity=50 time=0
note_off channel=7 note=66 velocity=50 time=8
note_off channel=7 note=62 velocity=50 time=0
note_on channel=7 note=66 velocity=50 time=16
note_on channel=7 note=62 velocity=50 time=0
note_off channel=7 note=66 velocity=50 time=8
note_off channel=7 note=62 velocity=50 time=0
note_on channel=7 note=66 velocity=50 time=16
note_on channel=7 note=62 velocity=50 time=0
note_off channel=7 note=62 velocity=50 time=8
note_off channel=7 note=66 velocity=50 time=0
note_on channel=7 note=66 velocity=50 time=16
note_on channel=7 note=62 velocity=50 time=0
note_off channel=7 note=66 velocity=50 time=8
note_off channel=7 note=62 velocity=50 time=0
note_on channel=7 note=66 velocity=50 time=16
note_on channel=7 note=62 velocity=50 time=0
note_off channel=7 note=66 velocity=50 time=8
note_off channel=7 note=62 velocity=50 time=0
note_on channel=7 note=66 velocity=50 time=16
note_on channel=7 note=62 velocity=50 time=0
note_off channel=7 note=66 velocity=50 time=8
note_off channel=7 note=62 velocity=50 time=0
note_on channel=7 note=66 velocity=50 time=16
note_on channel=7 note=62 velocity=50 time=0
note_off channel=7 note=66 velocity=50 time=8
note_off channel=7 note=62 velocity=50 time=0
note_on channel=7 note=66 velocity=50 time=16
note_on channel=7 note=62 velocity=50 time=0
note_off channel=7 note=66 velocity=50 time=8
note_off channel=7 note=62 velocity=50 time=0
note_on channel=7 note=66 velocity=50 time=16
note_on channel=7 note=62 velocity=50 time=0
note_off channel=7 note=62 velocity=50 time=8
note_off channel=7 note=66 velocity=50 time=0
note_on channel=7 note=66 velocity=50 time=16
note_on channel=7 note=62 velocity=50 time=0
note_off channel=7 note=66 velocity=50 time=8
note_off channel=7 note=62 velocity=50 time=0
note_on channel=7 note=66 velocity=50 time=16
note_on channel=7 note=62 velocity=50 time=0
note_off channel=7 note=66 velocity=50 time=8
note_off channel=7 note=62 velocity=50 time=0
note_on channel=7 note=66 velocity=50 time=16
note_on channel=7 note=62 velocity=50 time=0
note_off channel=7 note=66 velocity=50 time=8
note_off channel=7 note=62 velocity=50 time=0
note_on channel=7 note=66 velocity=50 time=16
note_on channel=7 note=62 velocity=50 time=0
note_off channel=7 note=66 velocity=50 time=8
note_off channel=7 note=62 velocity=50 time=0
note_on channel=7 note=64 velocity=50 time=16
note_on channel=7 note=61 velocity=50 time=0
note_off channel=7 note=64 velocity=50 time=8
note_off channel=7 note=61 velocity=50 time=0
note_on channel=7 note=64 velocity=50 time=16
note_on channel=7 note=61 velocity=50 time=0
note_off channel=7 note=64 velocity=50 time=8
note_off channel=7 note=61 velocity=50 time=0
note_on channel=7 note=64 velocity=50 time=16
note_on channel=7 note=61 velocity=50 time=0
note_off channel=7 note=61 velocity=50 time=8
note_off channel=7 note=64 velocity=50 time=0
note_on channel=7 note=64 velocity=50 time=16
note_on channel=7 note=61 velocity=50 time=0
note_off channel=7 note=64 velocity=50 time=8
note_off channel=7 note=61 velocity=50 time=0
note_on channel=7 note=64 velocity=50 time=16
note_on channel=7 note=61 velocity=50 time=0
note_off channel=7 note=64 velocity=50 time=8
note_off channel=7 note=61 velocity=50 time=0
note_on channel=7 note=64 velocity=50 time=16
note_on channel=7 note=61 velocity=50 time=0
note_off channel=7 note=61 velocity=50 time=8
note_off channel=7 note=64 velocity=50 time=0
note_on channel=7 note=64 velocity=50 time=16
note_on channel=7 note=61 velocity=50 time=0
note_off channel=7 note=64 velocity=50 time=8
note_off channel=7 note=61 velocity=50 time=0
note_on channel=7 note=64 velocity=50 time=16
note_on channel=7 note=61 velocity=50 time=0
note_off channel=7 note=64 velocity=50 time=8
note_off channel=7 note=61 velocity=50 time=0
note_on channel=7 note=64 velocity=50 time=16
note_on channel=7 note=61 velocity=50 time=0
note_off channel=7 note=61 velocity=50 time=8
note_off channel=7 note=64 velocity=50 time=0
note_on channel=7 note=64 velocity=50 time=16
note_on channel=7 note=61 velocity=50 time=0
note_off channel=7 note=64 velocity=50 time=8
note_off channel=7 note=61 velocity=50 time=0
note_on channel=7 note=64 velocity=50 time=16
note_on channel=7 note=61 velocity=50 time=0
note_off channel=7 note=64 velocity=50 time=8
note_off channel=7 note=61 velocity=50 time=0
note_on channel=7 note=64 velocity=50 time=16
note_on channel=7 note=61 velocity=50 time=0
note_off channel=7 note=64 velocity=50 time=8
note_off channel=7 note=61 velocity=50 time=0
note_on channel=7 note=64 velocity=50 time=16
note_on channel=7 note=61 velocity=50 time=0
note_off channel=7 note=64 velocity=50 time=8
note_off channel=7 note=61 velocity=50 time=0
note_on channel=7 note=64 velocity=50 time=16
note_on channel=7 note=61 velocity=50 time=0
note_off channel=7 note=64 velocity=50 time=8
note_off channel=7 note=61 velocity=50 time=0
note_on channel=7 note=64 velocity=50 time=16
note_on channel=7 note=61 velocity=50 time=0
note_off channel=7 note=64 velocity=50 time=8
note_off channel=7 note=61 velocity=50 time=0
note_on channel=7 note=64 velocity=50 time=16
note_on channel=7 note=61 velocity=50 time=0
note_off channel=7 note=61 velocity=50 time=8
note_off channel=7 note=64 velocity=50 time=0
note_on channel=7 note=66 velocity=50 time=16
note_on channel=7 note=62 velocity=50 time=0
note_off channel=7 note=66 velocity=50 time=8
note_off channel=7 note=62 velocity=50 time=0
note_on channel=7 note=66 velocity=50 time=16
note_on channel=7 note=62 velocity=50 time=0
note_off channel=7 note=66 velocity=50 time=8
note_off channel=7 note=62 velocity=50 time=0
note_on channel=7 note=66 velocity=50 time=16
note_on channel=7 note=62 velocity=50 time=0
note_off channel=7 note=62 velocity=50 time=8
note_off channel=7 note=66 velocity=50 time=0
note_on channel=7 note=66 velocity=50 time=16
note_on channel=7 note=62 velocity=50 time=0
note_off channel=7 note=62 velocity=50 time=8
note_off channel=7 note=66 velocity=50 time=0
note_on channel=7 note=66 velocity=50 time=16
note_on channel=7 note=62 velocity=50 time=0
note_off channel=7 note=66 velocity=50 time=8
note_off channel=7 note=62 velocity=50 time=0
note_on channel=7 note=66 velocity=50 time=16
note_on channel=7 note=62 velocity=50 time=0
note_off channel=7 note=66 velocity=50 time=8
note_off channel=7 note=62 velocity=50 time=0
note_on channel=7 note=66 velocity=50 time=16
note_on channel=7 note=62 velocity=50 time=0
note_off channel=7 note=66 velocity=50 time=8
note_off channel=7 note=62 velocity=50 time=0
note_on channel=7 note=66 velocity=50 time=16
note_on channel=7 note=62 velocity=50 time=0
note_off channel=7 note=66 velocity=50 time=8
note_off channel=7 note=62 velocity=50 time=0
note_on channel=7 note=66 velocity=50 time=16
note_on channel=7 note=62 velocity=50 time=0
note_off channel=7 note=62 velocity=50 time=8
note_off channel=7 note=66 velocity=50 time=0
note_on channel=7 note=66 velocity=50 time=16
note_on channel=7 note=62 velocity=50 time=0
note_off channel=7 note=66 velocity=50 time=8
note_off channel=7 note=62 velocity=50 time=0
note_on channel=7 note=66 velocity=50 time=16
note_on channel=7 note=62 velocity=50 time=0
note_off channel=7 note=66 velocity=50 time=8
note_off channel=7 note=62 velocity=50 time=0
note_on channel=7 note=66 velocity=50 time=16
note_on channel=7 note=62 velocity=50 time=0
note_off channel=7 note=66 velocity=50 time=8
note_off channel=7 note=62 velocity=50 time=0
note_on channel=7 note=66 velocity=50 time=16
note_on channel=7 note=62 velocity=50 time=0
note_off channel=7 note=62 velocity=50 time=8
note_off channel=7 note=66 velocity=50 time=0
note_on channel=7 note=66 velocity=50 time=16
note_on channel=7 note=62 velocity=50 time=0
note_off channel=7 note=66 velocity=50 time=8
note_off channel=7 note=62 velocity=50 time=0
note_on channel=7 note=66 velocity=50 time=16
note_on channel=7 note=62 velocity=50 time=0
note_off channel=7 note=66 velocity=50 time=8
note_off channel=7 note=62 velocity=50 time=0
note_on channel=7 note=66 velocity=50 time=16
note_on channel=7 note=62 velocity=50 time=0
note_off channel=7 note=66 velocity=50 time=8
note_off channel=7 note=62 velocity=50 time=0
note_on channel=7 note=64 velocity=50 time=16
note_on channel=7 note=61 velocity=50 time=0
note_off channel=7 note=64 velocity=50 time=8
note_off channel=7 note=61 velocity=50 time=0
note_on channel=7 note=64 velocity=50 time=16
note_on channel=7 note=61 velocity=50 time=0
note_off channel=7 note=64 velocity=50 time=8
note_off channel=7 note=61 velocity=50 time=0
note_on channel=7 note=64 velocity=50 time=16
note_on channel=7 note=61 velocity=50 time=0
note_off channel=7 note=64 velocity=50 time=8
note_off channel=7 note=61 velocity=50 time=0
note_on channel=7 note=64 velocity=50 time=16
note_on channel=7 note=61 velocity=50 time=0
note_off channel=7 note=64 velocity=50 time=8
note_off channel=7 note=61 velocity=50 time=0
note_on channel=7 note=64 velocity=50 time=16
note_on channel=7 note=61 velocity=50 time=0
note_off channel=7 note=64 velocity=50 time=8
note_off channel=7 note=61 velocity=50 time=0
note_on channel=7 note=64 velocity=50 time=16
note_on channel=7 note=61 velocity=50 time=0
note_off channel=7 note=61 velocity=50 time=8
note_off channel=7 note=64 velocity=50 time=0
note_on channel=7 note=64 velocity=50 time=16
note_on channel=7 note=61 velocity=50 time=0
note_off channel=7 note=64 velocity=50 time=8
note_off channel=7 note=61 velocity=50 time=0
note_on channel=7 note=64 velocity=50 time=16
note_on channel=7 note=61 velocity=50 time=0
note_off channel=7 note=64 velocity=50 time=8
note_off channel=7 note=61 velocity=50 time=0
note_on channel=7 note=64 velocity=50 time=16
note_on channel=7 note=61 velocity=50 time=0
note_off channel=7 note=61 velocity=50 time=8
note_off channel=7 note=64 velocity=50 time=0
note_on channel=7 note=64 velocity=50 time=16
note_on channel=7 note=61 velocity=50 time=0
note_off channel=7 note=61 velocity=50 time=8
note_off channel=7 note=64 velocity=50 time=0
note_on channel=7 note=64 velocity=50 time=16
note_on channel=7 note=61 velocity=50 time=0
note_off channel=7 note=64 velocity=50 time=8
note_off channel=7 note=61 velocity=50 time=0
note_on channel=7 note=64 velocity=50 time=16
note_on channel=7 note=61 velocity=50 time=0
note_off channel=7 note=64 velocity=50 time=8
note_off channel=7 note=61 velocity=50 time=0
note_on channel=7 note=64 velocity=50 time=16
note_on channel=7 note=61 velocity=50 time=0
note_off channel=7 note=64 velocity=50 time=8
note_off channel=7 note=61 velocity=50 time=0
note_on channel=7 note=64 velocity=50 time=16
note_on channel=7 note=61 velocity=50 time=0
note_off channel=7 note=64 velocity=50 time=8
note_off channel=7 note=61 velocity=50 time=0
note_on channel=7 note=64 velocity=50 time=16
note_on channel=7 note=61 velocity=50 time=0
note_off channel=7 note=64 velocity=50 time=8
note_off channel=7 note=61 velocity=50 time=0
note_on channel=7 note=64 velocity=50 time=16
note_on channel=7 note=61 velocity=50 time=0
note_off channel=7 note=61 velocity=50 time=8
note_off channel=7 note=64 velocity=50 time=0
note_on channel=7 note=66 velocity=50 time=16
note_on channel=7 note=62 velocity=50 time=0
note_off channel=7 note=66 velocity=50 time=8
note_off channel=7 note=62 velocity=50 time=0
note_on channel=7 note=66 velocity=50 time=16
note_on channel=7 note=62 velocity=50 time=0
note_off channel=7 note=66 velocity=50 time=8
note_off channel=7 note=62 velocity=50 time=0
note_on channel=7 note=66 velocity=50 time=16
note_on channel=7 note=62 velocity=50 time=0
note_off channel=7 note=62 velocity=50 time=8
note_off channel=7 note=66 velocity=50 time=0
note_on channel=7 note=66 velocity=50 time=16
note_on channel=7 note=62 velocity=50 time=0
note_off channel=7 note=66 velocity=50 time=8
note_off channel=7 note=62 velocity=50 time=0
note_on channel=7 note=66 velocity=50 time=16
note_on channel=7 note=62 velocity=50 time=0
note_off channel=7 note=66 velocity=50 time=8
note_off channel=7 note=62 velocity=50 time=0
note_on channel=7 note=66 velocity=50 time=16
note_on channel=7 note=62 velocity=50 time=0
note_off channel=7 note=66 velocity=50 time=8
note_off channel=7 note=62 velocity=50 time=0
note_on channel=7 note=66 velocity=50 time=16
note_on channel=7 note=62 velocity=50 time=0
note_off channel=7 note=66 velocity=50 time=8
note_off channel=7 note=62 velocity=50 time=0
note_on channel=7 note=66 velocity=50 time=16
note_on channel=7 note=62 velocity=50 time=0
note_off channel=7 note=66 velocity=50 time=8
note_off channel=7 note=62 velocity=50 time=0
note_on channel=7 note=66 velocity=50 time=16
note_on channel=7 note=62 velocity=50 time=0
note_off channel=7 note=66 velocity=50 time=8
note_off channel=7 note=62 velocity=50 time=0
note_on channel=7 note=66 velocity=50 time=16
note_on channel=7 note=62 velocity=50 time=0
note_off channel=7 note=66 velocity=50 time=8
note_off channel=7 note=62 velocity=50 time=0
note_on channel=7 note=66 velocity=50 time=16
note_on channel=7 note=62 velocity=50 time=0
note_off channel=7 note=66 velocity=50 time=8
note_off channel=7 note=62 velocity=50 time=0
note_on channel=7 note=66 velocity=50 time=16
note_on channel=7 note=62 velocity=50 time=0
note_off channel=7 note=66 velocity=50 time=8
note_off channel=7 note=62 velocity=50 time=0
note_on channel=7 note=66 velocity=50 time=16
note_on channel=7 note=62 velocity=50 time=0
note_off channel=7 note=66 velocity=50 time=8
note_off channel=7 note=62 velocity=50 time=0
note_on channel=7 note=66 velocity=50 time=16
note_on channel=7 note=62 velocity=50 time=0
note_off channel=7 note=66 velocity=50 time=8
note_off channel=7 note=62 velocity=50 time=0
note_on channel=7 note=66 velocity=50 time=16
note_on channel=7 note=62 velocity=50 time=0
note_off channel=7 note=66 velocity=50 time=8
note_off channel=7 note=62 velocity=50 time=0
note_on channel=7 note=66 velocity=50 time=16
note_on channel=7 note=62 velocity=50 time=0
note_off channel=7 note=66 velocity=50 time=8
note_off channel=7 note=62 velocity=50 time=0
note_on channel=7 note=64 velocity=50 time=16
note_on channel=7 note=61 velocity=50 time=0
note_off channel=7 note=64 velocity=50 time=8
note_off channel=7 note=61 velocity=50 time=0
note_on channel=7 note=64 velocity=50 time=16
note_on channel=7 note=61 velocity=50 time=0
note_off channel=7 note=64 velocity=50 time=8
note_off channel=7 note=61 velocity=50 time=0
note_on channel=7 note=64 velocity=50 time=16
note_on channel=7 note=61 velocity=50 time=0
note_off channel=7 note=61 velocity=50 time=8
note_off channel=7 note=64 velocity=50 time=0
note_on channel=7 note=64 velocity=50 time=16
note_on channel=7 note=61 velocity=50 time=0
note_off channel=7 note=64 velocity=50 time=8
note_off channel=7 note=61 velocity=50 time=0
note_on channel=7 note=64 velocity=50 time=16
note_on channel=7 note=61 velocity=50 time=0
note_off channel=7 note=64 velocity=50 time=8
note_off channel=7 note=61 velocity=50 time=0
note_on channel=7 note=64 velocity=50 time=16
note_on channel=7 note=61 velocity=50 time=0
note_off channel=7 note=64 velocity=50 time=8
note_off channel=7 note=61 velocity=50 time=0
note_on channel=7 note=64 velocity=50 time=16
note_on channel=7 note=61 velocity=50 time=0
note_off channel=7 note=64 velocity=50 time=8
note_off channel=7 note=61 velocity=50 time=0
note_on channel=7 note=64 velocity=50 time=16
note_on channel=7 note=61 velocity=50 time=0
note_off channel=7 note=64 velocity=50 time=8
note_off channel=7 note=61 velocity=50 time=0
note_on channel=7 note=64 velocity=50 time=16
note_on channel=7 note=61 velocity=50 time=0
note_off channel=7 note=64 velocity=50 time=8
note_off channel=7 note=61 velocity=50 time=0
note_on channel=7 note=64 velocity=50 time=16
note_on channel=7 note=61 velocity=50 time=0
note_off channel=7 note=61 velocity=50 time=8
note_off channel=7 note=64 velocity=50 time=0
note_on channel=7 note=64 velocity=50 time=16
note_on channel=7 note=61 velocity=50 time=0
note_off channel=7 note=64 velocity=50 time=8
note_off channel=7 note=61 velocity=50 time=0
note_on channel=7 note=64 velocity=50 time=16
note_on channel=7 note=61 velocity=50 time=0
note_off channel=7 note=64 velocity=50 time=8
note_off channel=7 note=61 velocity=50 time=0
note_on channel=7 note=64 velocity=50 time=16
note_on channel=7 note=61 velocity=50 time=0
note_off channel=7 note=64 velocity=50 time=8
note_off channel=7 note=61 velocity=50 time=0
note_on channel=7 note=64 velocity=50 time=16
note_on channel=7 note=61 velocity=50 time=0
note_off channel=7 note=61 velocity=50 time=8
note_off channel=7 note=64 velocity=50 time=0
note_on channel=7 note=64 velocity=50 time=16
note_on channel=7 note=61 velocity=50 time=0
note_off channel=7 note=64 velocity=50 time=8
note_off channel=7 note=61 velocity=50 time=0
note_on channel=7 note=64 velocity=50 time=16
note_on channel=7 note=61 velocity=50 time=0
note_off channel=7 note=61 velocity=50 time=8
note_off channel=7 note=64 velocity=50 time=0
note_on channel=7 note=66 velocity=50 time=16
note_on channel=7 note=62 velocity=50 time=0
note_off channel=7 note=66 velocity=50 time=8
note_off channel=7 note=62 velocity=50 time=0
note_on channel=7 note=66 velocity=50 time=16
note_on channel=7 note=62 velocity=50 time=0
note_off channel=7 note=66 velocity=50 time=8
note_off channel=7 note=62 velocity=50 time=0
note_on channel=7 note=66 velocity=50 time=16
note_on channel=7 note=62 velocity=50 time=0
note_off channel=7 note=66 velocity=50 time=8
note_off channel=7 note=62 velocity=50 time=0
note_on channel=7 note=66 velocity=50 time=16
note_on channel=7 note=62 velocity=50 time=0
note_off channel=7 note=62 velocity=50 time=8
note_off channel=7 note=66 velocity=50 time=0
note_on channel=7 note=66 velocity=50 time=16
note_on channel=7 note=62 velocity=50 time=0
note_off channel=7 note=66 velocity=50 time=8
note_off channel=7 note=62 velocity=50 time=0
note_on channel=7 note=66 velocity=50 time=16
note_on channel=7 note=62 velocity=50 time=0
note_off channel=7 note=66 velocity=50 time=8
note_off channel=7 note=62 velocity=50 time=0
note_on channel=7 note=62 velocity=50 time=16
note_off channel=7 note=62 velocity=50 time=8
note_on channel=7 note=66 velocity=50 time=16
note_on channel=7 note=62 velocity=50 time=0
note_off channel=7 note=66 velocity=50 time=8
note_off channel=7 note=62 velocity=50 time=0
note_on channel=7 note=66 velocity=50 time=16
note_on channel=7 note=62 velocity=50 time=0
note_off channel=7 note=62 velocity=50 time=8
note_off channel=7 note=66 velocity=50 time=0
note_on channel=7 note=66 velocity=50 time=16
note_on channel=7 note=62 velocity=50 time=0
note_off channel=7 note=66 velocity=50 time=8
note_off channel=7 note=62 velocity=50 time=0
note_on channel=7 note=66 velocity=50 time=16
note_on channel=7 note=62 velocity=50 time=0
note_off channel=7 note=66 velocity=50 time=8
note_off channel=7 note=62 velocity=50 time=0
note_on channel=7 note=66 velocity=50 time=16
note_on channel=7 note=62 velocity=50 time=0
note_off channel=7 note=66 velocity=50 time=8
note_off channel=7 note=62 velocity=50 time=0
note_on channel=7 note=66 velocity=50 time=16
note_on channel=7 note=62 velocity=50 time=0
note_off channel=7 note=62 velocity=50 time=8
note_off channel=7 note=66 velocity=50 time=0
note_on channel=7 note=66 velocity=50 time=16
note_on channel=7 note=62 velocity=50 time=0
note_off channel=7 note=66 velocity=50 time=8
note_off channel=7 note=62 velocity=50 time=0
note_on channel=7 note=66 velocity=50 time=16
note_on channel=7 note=62 velocity=50 time=0
note_off channel=7 note=66 velocity=50 time=8
note_off channel=7 note=62 velocity=50 time=0
note_on channel=7 note=66 velocity=50 time=16
note_on channel=7 note=62 velocity=50 time=0
note_off channel=7 note=66 velocity=50 time=8
note_off channel=7 note=62 velocity=50 time=0
control_change channel=7 control=101 value=0 time=16
control_change channel=7 control=100 value=0 time=0
control_change channel=7 control=6 value=12 time=0
control_change channel=7 control=10 value=44 time=0
control_change channel=7 control=7 value=60 time=0
pitchwheel channel=7 pitch=0 time=0
program_change channel=7 program=0 time=0
control_change channel=7 control=101 value=0 time=1
control_change channel=7 control=100 value=0 time=0
control_change channel=7 control=6 value=12 time=0
control_change channel=7 control=10 value=44 time=0
control_change channel=7 control=7 value=60 time=0
pitchwheel channel=7 pitch=0 time=0
program_change channel=7 program=0 time=0
MetaMessage('end_of_track', time=0)
Track 10:
MetaMessage('track_name', name='Channel #11', time=0)
control_change channel=8 control=10 value=64 time=0
control_change channel=8 control=7 value=100 time=0
pitchwheel channel=8 pitch=0 time=0
control_change channel=8 control=101 value=0 time=0
control_change channel=8 control=100 value=0 time=0
control_change channel=8 control=6 value=12 time=0
control_change channel=8 control=10 value=64 time=0
control_change channel=8 control=7 value=100 time=0
pitchwheel channel=8 pitch=0 time=0
program_change channel=8 program=0 time=0
control_change channel=8 control=101 value=0 time=0
control_change channel=8 control=100 value=0 time=0
control_change channel=8 control=6 value=12 time=0
control_change channel=8 control=10 value=64 time=0
control_change channel=8 control=7 value=100 time=0
pitchwheel channel=8 pitch=0 time=0
program_change channel=8 program=0 time=0
control_change channel=8 control=101 value=0 time=0
control_change channel=8 control=100 value=0 time=0
control_change channel=8 control=6 value=12 time=0
control_change channel=8 control=10 value=84 time=0
control_change channel=8 control=7 value=70 time=0
pitchwheel channel=8 pitch=0 time=0
program_change channel=8 program=0 time=0
control_change channel=8 control=7 value=70 time=149
control_change channel=8 control=10 value=84 time=0
note_on channel=8 note=93 velocity=91 time=2038
note_on channel=8 note=88 velocity=99 time=0
note_on channel=8 note=85 velocity=87 time=0
note_on channel=8 note=81 velocity=85 time=0
note_off channel=8 note=93 velocity=91 time=18
note_off channel=8 note=88 velocity=99 time=0
note_off channel=8 note=85 velocity=87 time=0
note_off channel=8 note=81 velocity=85 time=0
note_on channel=8 note=93 velocity=107 time=3
note_on channel=8 note=88 velocity=115 time=0
note_on channel=8 note=85 velocity=111 time=0
note_on channel=8 note=81 velocity=107 time=0
note_off channel=8 note=81 velocity=107 time=72
note_off channel=8 note=85 velocity=111 time=0
note_off channel=8 note=88 velocity=115 time=0
note_off channel=8 note=93 velocity=107 time=0
note_on channel=8 note=92 velocity=95 time=3
note_on channel=8 note=88 velocity=87 time=0
note_on channel=8 note=83 velocity=95 time=0
note_on channel=8 note=80 velocity=91 time=0
note_off channel=8 note=80 velocity=91 time=18
note_off channel=8 note=88 velocity=87 time=0
note_off channel=8 note=83 velocity=95 time=0
note_off channel=8 note=92 velocity=95 time=0
note_on channel=8 note=92 velocity=95 time=3
note_on channel=8 note=88 velocity=107 time=0
note_on channel=8 note=83 velocity=111 time=0
note_on channel=8 note=80 velocity=103 time=0
note_off channel=8 note=92 velocity=95 time=72
note_off channel=8 note=88 velocity=107 time=0
note_off channel=8 note=83 velocity=111 time=0
note_off channel=8 note=80 velocity=103 time=0
note_on channel=8 note=90 velocity=91 time=3
note_on channel=8 note=86 velocity=91 time=0
note_on channel=8 note=81 velocity=91 time=0
note_on channel=8 note=78 velocity=91 time=0
note_off channel=8 note=90 velocity=91 time=18
note_off channel=8 note=86 velocity=91 time=0
note_off channel=8 note=81 velocity=91 time=0
note_off channel=8 note=78 velocity=91 time=0
note_on channel=8 note=90 velocity=103 time=3
note_on channel=8 note=86 velocity=111 time=0
note_on channel=8 note=81 velocity=107 time=0
note_on channel=8 note=78 velocity=103 time=0
note_off channel=8 note=81 velocity=107 time=198
note_off channel=8 note=78 velocity=103 time=1
note_off channel=8 note=86 velocity=111 time=0
note_off channel=8 note=90 velocity=103 time=2
note_on channel=8 note=83 velocity=91 time=1143
note_on channel=8 note=80 velocity=89 time=0
note_on channel=8 note=76 velocity=91 time=0
note_off channel=8 note=83 velocity=91 time=93
note_off channel=8 note=80 velocity=89 time=0
note_off channel=8 note=76 velocity=91 time=0
note_on channel=8 note=81 velocity=87 time=3
note_on channel=8 note=78 velocity=95 time=0
note_on channel=8 note=74 velocity=85 time=0
note_off channel=8 note=81 velocity=87 time=141
note_off channel=8 note=78 velocity=95 time=0
note_off channel=8 note=74 velocity=85 time=0
note_on channel=8 note=81 velocity=81 time=3
note_on channel=8 note=76 velocity=85 time=0
note_on channel=8 note=73 velocity=73 time=0
note_off channel=8 note=81 velocity=81 time=187
note_off channel=8 note=73 velocity=73 time=1
note_off channel=8 note=76 velocity=85 time=2
note_on channel=8 note=81 velocity=115 time=1202
note_on channel=8 note=69 velocity=107 time=0
note_off channel=8 note=81 velocity=115 time=72
note_off channel=8 note=69 velocity=107 time=0
note_on channel=8 note=83 velocity=120 time=3
note_on channel=8 note=71 velocity=85 time=0
note_off channel=8 note=71 velocity=85 time=66
note_off channel=8 note=83 velocity=120 time=0
note_on channel=8 note=85 velocity=115 time=3
note_on channel=8 note=73 velocity=103 time=0
note_off channel=8 note=85 velocity=115 time=45
note_off channel=8 note=73 velocity=103 time=0
note_on channel=8 note=87 velocity=115 time=3
note_on channel=8 note=75 velocity=103 time=0
note_off channel=8 note=75 velocity=103 time=72
note_off channel=8 note=87 velocity=115 time=0
note_on channel=8 note=88 velocity=111 time=3
note_on channel=8 note=76 velocity=103 time=0
note_off channel=8 note=88 velocity=111 time=66
note_off channel=8 note=76 velocity=103 time=0
note_on channel=8 note=90 velocity=115 time=3
note_on channel=8 note=78 velocity=99 time=0
note_off channel=8 note=90 velocity=115 time=45
note_off channel=8 note=78 velocity=99 time=0
note_on channel=8 note=88 velocity=95 time=3
note_on channel=8 note=76 velocity=103 time=0
note_off channel=8 note=76 velocity=103 time=354
note_off channel=8 note=88 velocity=95 time=1
note_on channel=8 note=93 velocity=95 time=680
note_on channel=8 note=88 velocity=95 time=0
note_on channel=8 note=85 velocity=95 time=0
note_on channel=8 note=81 velocity=95 time=0
note_off channel=8 note=93 velocity=95 time=18
note_off channel=8 note=88 velocity=95 time=0
note_off channel=8 note=85 velocity=95 time=0
note_off channel=8 note=81 velocity=95 time=0
note_on channel=8 note=93 velocity=119 time=3
note_on channel=8 note=88 velocity=119 time=0
note_on channel=8 note=85 velocity=119 time=0
note_on channel=8 note=81 velocity=119 time=0
note_off channel=8 note=81 velocity=119 time=72
note_off channel=8 note=85 velocity=119 time=0
note_off channel=8 note=88 velocity=119 time=0
note_off channel=8 note=93 velocity=119 time=0
note_on channel=8 note=92 velocity=87 time=3
note_on channel=8 note=88 velocity=95 time=0
note_on channel=8 note=83 velocity=91 time=0
note_on channel=8 note=80 velocity=87 time=0
note_off channel=8 note=80 velocity=87 time=18
note_off channel=8 note=83 velocity=91 time=0
note_off channel=8 note=88 velocity=95 time=0
note_off channel=8 note=92 velocity=87 time=0
note_on channel=8 note=92 velocity=123 time=3
note_on channel=8 note=88 velocity=123 time=0
note_on channel=8 note=83 velocity=123 time=0
note_on channel=8 note=80 velocity=123 time=0
note_off channel=8 note=92 velocity=123 time=72
note_off channel=8 note=88 velocity=123 time=0
note_off channel=8 note=83 velocity=123 time=0
note_off channel=8 note=80 velocity=123 time=0
note_on channel=8 note=90 velocity=77 time=3
note_on channel=8 note=86 velocity=83 time=0
note_on channel=8 note=81 velocity=89 time=0
note_on channel=8 note=78 velocity=75 time=0
note_off channel=8 note=81 velocity=89 time=18
note_off channel=8 note=78 velocity=75 time=0
note_off channel=8 note=90 velocity=77 time=0
note_off channel=8 note=86 velocity=83 time=0
note_on channel=8 note=90 velocity=117 time=3
note_on channel=8 note=86 velocity=117 time=0
note_on channel=8 note=81 velocity=117 time=0
note_on channel=8 note=78 velocity=117 time=0
note_off channel=8 note=90 velocity=117 time=235
note_off channel=8 note=81 velocity=117 time=0
note_off channel=8 note=86 velocity=117 time=1
note_off channel=8 note=78 velocity=117 time=2
note_on channel=8 note=81 velocity=115 time=2237
note_on channel=8 note=69 velocity=91 time=0
note_off channel=8 note=69 velocity=91 time=22
note_off channel=8 note=81 velocity=115 time=1
note_on channel=8 note=80 velocity=107 time=25
note_on channel=8 note=68 velocity=111 time=0
note_off channel=8 note=80 velocity=107 time=24
note_off channel=8 note=68 velocity=111 time=22
note_on channel=8 note=76 velocity=89 time=2
note_on channel=8 note=64 velocity=69 time=0
note_off channel=8 note=64 velocity=69 time=13
note_off channel=8 note=76 velocity=89 time=2
note_on channel=8 note=74 velocity=111 time=6
note_on channel=8 note=62 velocity=95 time=0
note_off channel=8 note=74 velocity=111 time=44
note_off channel=8 note=62 velocity=95 time=2
note_on channel=8 note=76 velocity=87 time=29
note_on channel=8 note=64 velocity=83 time=0
note_off channel=8 note=76 velocity=87 time=17
note_off channel=8 note=64 velocity=83 time=7
note_on channel=8 note=76 velocity=115 time=45
note_on channel=8 note=64 velocity=91 time=0
note_on channel=8 note=81 velocity=75 time=96
note_on channel=8 note=69 velocity=69 time=0
note_off channel=8 note=76 velocity=115 time=4
note_off channel=8 note=64 velocity=91 time=5
note_off channel=8 note=69 velocity=69 time=1
note_off channel=8 note=81 velocity=75 time=1
note_on channel=8 note=81 velocity=120 time=16
note_on channel=8 note=69 velocity=115 time=0
note_off channel=8 note=69 velocity=115 time=20
note_off channel=8 note=81 velocity=120 time=2
note_on channel=8 note=80 velocity=107 time=26
note_on channel=8 note=68 velocity=111 time=0
note_off channel=8 note=80 velocity=107 time=23
note_off channel=8 note=68 velocity=111 time=5
note_on channel=8 note=76 velocity=91 time=20
note_on channel=8 note=64 velocity=81 time=0
note_off channel=8 note=64 velocity=81 time=15
note_off channel=8 note=76 velocity=91 time=0
note_on channel=8 note=74 velocity=107 time=6
note_on channel=8 note=62 velocity=91 time=0
note_off channel=8 note=74 velocity=107 time=72
note_off channel=8 note=62 velocity=91 time=0
note_on channel=8 note=76 velocity=111 time=3
note_on channel=8 note=64 velocity=89 time=0
note_off channel=8 note=64 velocity=89 time=66
note_off channel=8 note=76 velocity=111 time=0
note_on channel=8 note=76 velocity=115 time=3
note_on channel=8 note=64 velocity=89 time=0
note_off channel=8 note=76 velocity=115 time=237
note_off channel=8 note=64 velocity=89 time=0
note_on channel=8 note=76 velocity=111 time=3
note_on channel=8 note=64 velocity=95 time=0
note_off channel=8 note=76 velocity=111 time=72
note_off channel=8 note=64 velocity=95 time=0
note_on channel=8 note=78 velocity=115 time=3
note_on channel=8 note=66 velocity=89 time=0
note_off channel=8 note=78 velocity=115 time=66
note_off channel=8 note=66 velocity=89 time=0
note_on channel=8 note=78 velocity=115 time=3
note_on channel=8 note=66 velocity=87 time=0
note_off channel=8 note=78 velocity=115 time=237
note_off channel=8 note=66 velocity=87 time=0
note_on channel=8 note=88 velocity=111 time=3
note_on channel=8 note=76 velocity=99 time=0
note_off channel=8 note=88 velocity=111 time=72
note_off channel=8 note=76 velocity=99 time=0
note_on channel=8 note=90 velocity=111 time=3
note_on channel=8 note=78 velocity=87 time=0
note_off channel=8 note=78 velocity=87 time=66
note_off channel=8 note=90 velocity=111 time=0
note_on channel=8 note=90 velocity=107 time=3
note_on channel=8 note=78 velocity=89 time=0
note_off channel=8 note=90 velocity=107 time=199
note_off channel=8 note=78 velocity=89 time=0
note_on channel=8 note=81 velocity=103 time=1460
note_on channel=8 note=69 velocity=87 time=0
note_off channel=8 note=69 velocity=87 time=22
note_off channel=8 note=81 velocity=103 time=0
note_on channel=8 note=80 velocity=115 time=26
note_on channel=8 note=68 velocity=111 time=0
note_off channel=8 note=80 velocity=115 time=23
note_off channel=8 note=68 velocity=111 time=12
note_on channel=8 note=76 velocity=87 time=13
note_on channel=8 note=64 velocity=83 time=0
note_off channel=8 note=76 velocity=87 time=18
note_on channel=8 note=74 velocity=91 time=3
note_on channel=8 note=62 velocity=91 time=0
note_off channel=8 note=64 velocity=83 time=3
note_off channel=8 note=62 velocity=91 time=40
note_off channel=8 note=74 velocity=91 time=1
note_on channel=8 note=76 velocity=115 time=31
note_on channel=8 note=64 velocity=103 time=0
note_off channel=8 note=76 velocity=115 time=17
note_off channel=8 note=64 velocity=103 time=3
note_on channel=8 note=76 velocity=115 time=49
note_on channel=8 note=64 velocity=83 time=0
note_off channel=8 note=64 velocity=83 time=79
note_off channel=8 note=76 velocity=115 time=5
note_on channel=8 note=81 velocity=77 time=12
note_on channel=8 note=69 velocity=75 time=0
note_off channel=8 note=69 velocity=75 time=9
note_off channel=8 note=81 velocity=77 time=1
note_on channel=8 note=81 velocity=111 time=17
note_on channel=8 note=69 velocity=107 time=0
note_off channel=8 note=81 velocity=111 time=21
note_off channel=8 note=69 velocity=107 time=3
note_on channel=8 note=80 velocity=107 time=24
note_on channel=8 note=68 velocity=107 time=0
note_off channel=8 note=80 velocity=107 time=20
note_off channel=8 note=68 velocity=107 time=9
note_on channel=8 note=76 velocity=83 time=19
note_on channel=8 note=64 velocity=87 time=0
note_off channel=8 note=76 velocity=83 time=15
note_on channel=8 note=74 velocity=107 time=6
note_on channel=8 note=62 velocity=83 time=0
note_off channel=8 note=64 velocity=87 time=1
note_off channel=8 note=62 velocity=83 time=40
note_off channel=8 note=74 velocity=107 time=2
note_on channel=8 note=76 velocity=107 time=32
note_on channel=8 note=64 velocity=91 time=0
note_off channel=8 note=76 velocity=107 time=16
note_off channel=8 note=64 velocity=91 time=6
note_on channel=8 note=76 velocity=103 time=47
note_on channel=8 note=64 velocity=89 time=0
note_off channel=8 note=76 velocity=103 time=75
note_off channel=8 note=64 velocity=89 time=7
note_on channel=8 note=76 velocity=89 time=14
note_on channel=8 note=64 velocity=89 time=0
note_off channel=8 note=76 velocity=89 time=110
note_off channel=8 note=64 velocity=89 time=9
note_on channel=8 note=76 velocity=111 time=25
note_on channel=8 note=64 velocity=91 time=0
note_off channel=8 note=76 velocity=111 time=72
note_off channel=8 note=64 velocity=91 time=0
note_on channel=8 note=78 velocity=120 time=3
note_on channel=8 note=66 velocity=103 time=0
note_off channel=8 note=66 velocity=103 time=66
note_off channel=8 note=78 velocity=120 time=0
note_on channel=8 note=78 velocity=107 time=3
note_on channel=8 note=66 velocity=99 time=0
note_off channel=8 note=78 velocity=107 time=237
note_off channel=8 note=66 velocity=99 time=0
note_on channel=8 note=88 velocity=107 time=3
note_on channel=8 note=76 velocity=85 time=0
note_off channel=8 note=88 velocity=107 time=72
note_off channel=8 note=76 velocity=85 time=0
note_on channel=8 note=90 velocity=99 time=3
note_on channel=8 note=78 velocity=89 time=0
note_off channel=8 note=90 velocity=99 time=66
note_off channel=8 note=78 velocity=89 time=0
note_on channel=8 note=90 velocity=99 time=3
note_on channel=8 note=78 velocity=91 time=0
note_off channel=8 note=78 velocity=91 time=219
note_off channel=8 note=90 velocity=99 time=2
note_on channel=8 note=93 velocity=81 time=1054
note_on channel=8 note=88 velocity=79 time=0
note_on channel=8 note=85 velocity=85 time=0
note_on channel=8 note=81 velocity=83 time=0
note_off channel=8 note=81 velocity=83 time=8
note_off channel=8 note=93 velocity=81 time=0
note_off channel=8 note=85 velocity=85 time=1
note_off channel=8 note=88 velocity=79 time=2
note_on channel=8 note=93 velocity=91 time=10
note_on channel=8 note=88 velocity=95 time=0
note_on channel=8 note=85 velocity=91 time=0
note_on channel=8 note=81 velocity=91 time=0
note_off channel=8 note=93 velocity=91 time=84
note_off channel=8 note=81 velocity=91 time=2
note_off channel=8 note=85 velocity=91 time=1
note_off channel=8 note=88 velocity=95 time=2
note_on channel=8 note=93 velocity=87 time=274
note_on channel=8 note=86 velocity=85 time=0
note_on channel=8 note=81 velocity=71 time=0
note_off channel=8 note=81 velocity=71 time=10
note_off channel=8 note=86 velocity=85 time=0
note_off channel=8 note=93 velocity=87 time=4
note_on channel=8 note=93 velocity=99 time=7
note_on channel=8 note=86 velocity=107 time=0
note_on channel=8 note=81 velocity=103 time=0
note_off channel=8 note=93 velocity=99 time=83
note_off channel=8 note=81 velocity=103 time=2
note_off channel=8 note=86 velocity=107 time=3
note_on channel=8 note=93 velocity=79 time=275
note_on channel=8 note=88 velocity=75 time=0
note_on channel=8 note=85 velocity=69 time=0
note_off channel=8 note=85 velocity=69 time=18
note_off channel=8 note=93 velocity=79 time=0
note_off channel=8 note=88 velocity=75 time=0
note_on channel=8 note=93 velocity=103 time=3
note_on channel=8 note=88 velocity=120 time=0
note_on channel=8 note=85 velocity=115 time=0
note_on channel=8 note=81 velocity=103 time=0
note_off channel=8 note=93 velocity=103 time=72
note_off channel=8 note=88 velocity=120 time=0
note_off channel=8 note=85 velocity=115 time=0
note_off channel=8 note=81 velocity=103 time=0
note_on channel=8 note=92 velocity=79 time=3
note_on channel=8 note=88 velocity=77 time=0
note_on channel=8 note=83 velocity=89 time=0
note_on channel=8 note=80 velocity=81 time=0
note_off channel=8 note=88 velocity=77 time=18
note_off channel=8 note=80 velocity=81 time=0
note_off channel=8 note=92 velocity=79 time=0
note_off channel=8 note=83 velocity=89 time=0
note_on channel=8 note=92 velocity=95 time=3
note_on channel=8 note=88 velocity=99 time=0
note_on channel=8 note=83 velocity=111 time=0
note_on channel=8 note=80 velocity=103 time=0
note_off channel=8 note=92 velocity=95 time=72
note_off channel=8 note=88 velocity=99 time=0
note_off channel=8 note=83 velocity=111 time=0
note_off channel=8 note=80 velocity=103 time=0
note_on channel=8 note=90 velocity=65 time=3
note_on channel=8 note=86 velocity=87 time=0
note_on channel=8 note=81 velocity=95 time=0
note_on channel=8 note=78 velocity=81 time=0
note_off channel=8 note=81 velocity=95 time=18
note_off channel=8 note=90 velocity=65 time=0
note_off channel=8 note=86 velocity=87 time=0
note_off channel=8 note=78 velocity=81 time=0
note_on channel=8 note=90 velocity=103 time=3
note_on channel=8 note=86 velocity=91 time=0
note_on channel=8 note=81 velocity=115 time=0
note_on channel=8 note=78 velocity=95 time=0
note_off channel=8 note=81 velocity=115 time=203
note_off channel=8 note=86 velocity=91 time=1
note_off channel=8 note=78 velocity=95 time=1
note_off channel=8 note=90 velocity=103 time=2
note_on channel=8 note=93 velocity=67 time=348
note_on channel=8 note=88 velocity=71 time=0
note_on channel=8 note=85 velocity=75 time=0
note_on channel=8 note=81 velocity=85 time=0
note_off channel=8 note=81 velocity=85 time=8
note_off channel=8 note=85 velocity=75 time=0
note_off channel=8 note=88 velocity=71 time=1
note_off channel=8 note=93 velocity=67 time=1
note_on channel=8 note=93 velocity=107 time=11
note_on channel=8 note=88 velocity=115 time=0
note_on channel=8 note=85 velocity=103 time=0
note_on channel=8 note=81 velocity=89 time=0
note_off channel=8 note=93 velocity=107 time=87
note_off channel=8 note=81 velocity=89 time=0
note_off channel=8 note=85 velocity=103 time=2
note_off channel=8 note=88 velocity=115 time=1
note_on channel=8 note=97 velocity=77 time=657
note_on channel=8 note=93 velocity=85 time=0
note_on channel=8 note=88 velocity=71 time=0
note_on channel=8 note=85 velocity=57 time=0
note_off channel=8 note=85 velocity=57 time=18
note_off channel=8 note=88 velocity=71 time=0
note_off channel=8 note=97 velocity=77 time=0
note_off channel=8 note=93 velocity=85 time=0
note_on channel=8 note=97 velocity=89 time=3
note_on channel=8 note=93 velocity=83 time=0
note_on channel=8 note=88 velocity=99 time=0
note_on channel=8 note=85 velocity=95 time=0
note_off channel=8 note=97 velocity=89 time=72
note_off channel=8 note=93 velocity=83 time=0
note_off channel=8 note=88 velocity=99 time=0
note_off channel=8 note=85 velocity=95 time=0
note_on channel=8 note=95 velocity=75 time=3
note_on channel=8 note=92 velocity=89 time=0
note_on channel=8 note=88 velocity=87 time=0
note_on channel=8 note=83 velocity=55 time=0
note_off channel=8 note=83 velocity=55 time=18
note_off channel=8 note=92 velocity=89 time=0
note_off channel=8 note=95 velocity=75 time=0
note_off channel=8 note=88 velocity=87 time=0
note_on channel=8 note=95 velocity=103 time=3
note_on channel=8 note=92 velocity=111 time=0
note_on channel=8 note=88 velocity=107 time=0
note_on channel=8 note=83 velocity=103 time=0
note_off channel=8 note=95 velocity=103 time=72
note_off channel=8 note=92 velocity=111 time=0
note_off channel=8 note=88 velocity=107 time=0
note_off channel=8 note=83 velocity=103 time=0
note_on channel=8 note=93 velocity=99 time=3
note_on channel=8 note=90 velocity=89 time=0
note_on channel=8 note=86 velocity=91 time=0
note_on channel=8 note=81 velocity=89 time=0
note_off channel=8 note=90 velocity=89 time=66
note_off channel=8 note=86 velocity=91 time=0
note_off channel=8 note=93 velocity=99 time=0
note_off channel=8 note=81 velocity=89 time=0
note_on channel=8 note=88 velocity=91 time=3
note_on channel=8 note=85 velocity=107 time=0
note_on channel=8 note=76 velocity=65 time=0
note_off channel=8 note=76 velocity=65 time=210
note_off channel=8 note=85 velocity=107 time=1
note_off channel=8 note=88 velocity=91 time=3
note_on channel=8 note=81 velocity=103 time=1178
note_on channel=8 note=69 velocity=103 time=0
note_off channel=8 note=81 velocity=103 time=72
note_off channel=8 note=69 velocity=103 time=0
note_on channel=8 note=83 velocity=107 time=3
note_on channel=8 note=71 velocity=89 time=0
note_off channel=8 note=83 velocity=107 time=66
note_off channel=8 note=71 velocity=89 time=0
note_on channel=8 note=85 velocity=99 time=3
note_on channel=8 note=73 velocity=85 time=0
note_off channel=8 note=85 velocity=99 time=45
note_off channel=8 note=73 velocity=85 time=0
note_on channel=8 note=87 velocity=111 time=3
note_on channel=8 note=75 velocity=115 time=0
note_off channel=8 note=87 velocity=111 time=72
note_off channel=8 note=75 velocity=115 time=0
note_on channel=8 note=88 velocity=103 time=3
note_on channel=8 note=76 velocity=87 time=0
note_off channel=8 note=76 velocity=87 time=66
note_off channel=8 note=88 velocity=103 time=0
note_on channel=8 note=90 velocity=103 time=3
note_on channel=8 note=78 velocity=91 time=0
note_off channel=8 note=78 velocity=91 time=45
note_off channel=8 note=90 velocity=103 time=0
note_on channel=8 note=88 velocity=99 time=3
note_on channel=8 note=76 velocity=95 time=0
note_off channel=8 note=76 velocity=95 time=386
note_off channel=8 note=88 velocity=99 time=3
note_on channel=8 note=93 velocity=85 time=646
note_on channel=8 note=88 velocity=83 time=0
note_on channel=8 note=85 velocity=75 time=0
note_on channel=8 note=81 velocity=75 time=0
note_off channel=8 note=81 velocity=75 time=18
note_off channel=8 note=85 velocity=75 time=0
note_off channel=8 note=93 velocity=85 time=0
note_off channel=8 note=88 velocity=83 time=0
note_on channel=8 note=93 velocity=103 time=3
note_on channel=8 note=88 velocity=115 time=0
note_on channel=8 note=85 velocity=107 time=0
note_on channel=8 note=81 velocity=107 time=0
note_off channel=8 note=81 velocity=107 time=72
note_off channel=8 note=88 velocity=115 time=0
note_off channel=8 note=85 velocity=107 time=0
note_off channel=8 note=93 velocity=103 time=0
note_on channel=8 note=92 velocity=73 time=3
note_on channel=8 note=88 velocity=87 time=0
note_on channel=8 note=83 velocity=103 time=0
note_on channel=8 note=80 velocity=87 time=0
note_off channel=8 note=80 velocity=87 time=18
note_off channel=8 note=92 velocity=73 time=0
note_off channel=8 note=83 velocity=103 time=0
note_off channel=8 note=88 velocity=87 time=0
note_on channel=8 note=92 velocity=91 time=3
note_on channel=8 note=88 velocity=91 time=0
note_on channel=8 note=83 velocity=103 time=0
note_on channel=8 note=80 velocity=103 time=0
note_off channel=8 note=92 velocity=91 time=72
note_off channel=8 note=88 velocity=91 time=0
note_off channel=8 note=83 velocity=103 time=0
note_off channel=8 note=80 velocity=103 time=0
note_on channel=8 note=90 velocity=89 time=3
note_on channel=8 note=86 velocity=95 time=0
note_on channel=8 note=81 velocity=107 time=0
note_on channel=8 note=78 velocity=95 time=0
note_off channel=8 note=81 velocity=107 time=18
note_off channel=8 note=90 velocity=89 time=0
note_off channel=8 note=86 velocity=95 time=0
note_off channel=8 note=78 velocity=95 time=0
note_on channel=8 note=90 velocity=85 time=3
note_on channel=8 note=86 velocity=99 time=0
note_on channel=8 note=81 velocity=111 time=0
note_on channel=8 note=78 velocity=89 time=0
note_off channel=8 note=86 velocity=99 time=241
note_off channel=8 note=78 velocity=89 time=0
note_off channel=8 note=90 velocity=85 time=2
note_off channel=8 note=81 velocity=111 time=0
note_on channel=8 note=81 velocity=111 time=3000
note_on channel=8 note=69 velocity=103 time=0
note_off channel=8 note=69 velocity=103 time=16
note_off channel=8 note=81 velocity=111 time=1
note_on channel=8 note=80 velocity=99 time=31
note_on channel=8 note=68 velocity=99 time=0
note_off channel=8 note=80 velocity=99 time=15
note_off channel=8 note=68 velocity=99 time=8
note_on channel=8 note=76 velocity=79 time=25
note_on channel=8 note=64 velocity=79 time=0
note_off channel=8 note=76 velocity=79 time=12
note_off channel=8 note=64 velocity=79 time=5
note_on channel=8 note=74 velocity=103 time=4
note_on channel=8 note=62 velocity=89 time=0
note_off channel=8 note=74 velocity=103 time=42
note_off channel=8 note=62 velocity=89 time=0
note_on channel=8 note=76 velocity=99 time=33
note_on channel=8 note=64 velocity=83 time=0
note_off channel=8 note=76 velocity=99 time=12
note_off channel=8 note=64 velocity=83 time=3
note_on channel=8 note=76 velocity=107 time=54
note_on channel=8 note=64 velocity=91 time=0
note_off channel=8 note=64 velocity=91 time=68
note_off channel=8 note=76 velocity=107 time=19
note_on channel=8 note=81 velocity=45 time=9
note_on channel=8 note=69 velocity=73 time=0
note_off channel=8 note=81 velocity=45 time=8
note_off channel=8 note=69 velocity=73 time=0
note_on channel=8 note=81 velocity=99 time=19
note_on channel=8 note=69 velocity=89 time=0
note_off channel=8 note=69 velocity=89 time=15
note_off channel=8 note=81 velocity=99 time=3
note_on channel=8 note=80 velocity=99 time=30
note_on channel=8 note=68 velocity=95 time=0
note_off channel=8 note=80 velocity=99 time=17
note_off channel=8 note=68 velocity=95 time=3
note_on channel=8 note=76 velocity=79 time=28
note_on channel=8 note=64 velocity=69 time=0
note_off channel=8 note=64 velocity=69 time=14
note_off channel=8 note=76 velocity=79 time=1
note_on channel=8 note=74 velocity=107 time=6
note_on channel=8 note=62 velocity=89 time=0
note_off channel=8 note=74 velocity=107 time=46
note_off channel=8 note=62 velocity=89 time=0
note_on channel=8 note=76 velocity=103 time=29
note_on channel=8 note=64 velocity=89 time=0
note_off channel=8 note=76 velocity=103 time=22
note_off channel=8 note=64 velocity=89 time=3
note_on channel=8 note=76 velocity=95 time=44
note_on channel=8 note=64 velocity=91 time=0
note_off channel=8 note=76 velocity=95 time=69
note_off channel=8 note=64 velocity=91 time=10
note_on channel=8 note=76 velocity=91 time=17
note_on channel=8 note=64 velocity=89 time=0
note_off channel=8 note=64 velocity=89 time=96
note_off channel=8 note=76 velocity=91 time=15
note_on channel=8 note=76 velocity=111 time=33
note_on channel=8 note=64 velocity=89 time=0
note_off channel=8 note=64 velocity=89 time=52
note_off channel=8 note=76 velocity=111 time=20
note_on channel=8 note=78 velocity=115 time=3
note_on channel=8 note=66 velocity=99 time=0
note_off channel=8 note=66 velocity=99 time=25
note_off channel=8 note=78 velocity=115 time=41
note_on channel=8 note=78 velocity=95 time=3
note_on channel=8 note=66 velocity=91 time=0
note_off channel=8 note=66 velocity=91 time=196
note_off channel=8 note=78 velocity=95 time=41
note_on channel=8 note=88 velocity=111 time=3
note_on channel=8 note=76 velocity=87 time=0
note_off channel=8 note=88 velocity=111 time=72
note_off channel=8 note=76 velocity=87 time=0
note_on channel=8 note=90 velocity=103 time=3
note_on channel=8 note=78 velocity=87 time=0
note_off channel=8 note=90 velocity=103 time=66
note_off channel=8 note=78 velocity=87 time=0
note_on channel=8 note=90 velocity=99 time=3
note_on channel=8 note=78 velocity=87 time=0
note_off channel=8 note=90 velocity=99 time=216
note_off channel=8 note=78 velocity=87 time=4
note_on channel=8 note=93 velocity=73 time=1055
note_on channel=8 note=88 velocity=83 time=0
note_on channel=8 note=85 velocity=87 time=0
note_on channel=8 note=81 velocity=85 time=0
note_off channel=8 note=93 velocity=73 time=8
note_off channel=8 note=85 velocity=87 time=0
note_off channel=8 note=81 velocity=85 time=0
note_off channel=8 note=88 velocity=83 time=1
note_on channel=8 note=93 velocity=107 time=12
note_on channel=8 note=88 velocity=111 time=0
note_on channel=8 note=85 velocity=107 time=0
note_on channel=8 note=81 velocity=99 time=0
note_off channel=8 note=93 velocity=107 time=100
note_off channel=8 note=81 velocity=99 time=0
note_off channel=8 note=85 velocity=107 time=1
note_off channel=8 note=88 velocity=111 time=2
note_on channel=8 note=95 velocity=72 time=260
note_on channel=8 note=86 velocity=72 time=0
note_on channel=8 note=83 velocity=72 time=0
note_off channel=8 note=83 velocity=72 time=9
note_off channel=8 note=86 velocity=72 time=4
note_off channel=8 note=95 velocity=72 time=2
note_on channel=8 note=95 velocity=84 time=6
note_on channel=8 note=86 velocity=84 time=0
note_on channel=8 note=83 velocity=84 time=0
note_off channel=8 note=95 velocity=84 time=96
note_off channel=8 note=83 velocity=84 time=4
note_off channel=8 note=86 velocity=84 time=4
note_on channel=8 note=93 velocity=81 time=259
note_on channel=8 note=88 velocity=69 time=0
note_on channel=8 note=85 velocity=87 time=0
note_on channel=8 note=81 velocity=77 time=0
note_off channel=8 note=93 velocity=81 time=18
note_off channel=8 note=88 velocity=69 time=0
note_off channel=8 note=85 velocity=87 time=0
note_off channel=8 note=81 velocity=77 time=0
note_on channel=8 note=93 velocity=103 time=3
note_on channel=8 note=88 velocity=111 time=0
note_on channel=8 note=85 velocity=111 time=0
note_on channel=8 note=81 velocity=91 time=0
note_off channel=8 note=81 velocity=91 time=72
note_off channel=8 note=88 velocity=111 time=0
note_off channel=8 note=85 velocity=111 time=0
note_off channel=8 note=93 velocity=103 time=0
note_on channel=8 note=92 velocity=83 time=3
note_on channel=8 note=88 velocity=91 time=0
note_on channel=8 note=83 velocity=91 time=0
note_on channel=8 note=80 velocity=95 time=0
note_off channel=8 note=80 velocity=95 time=18
note_off channel=8 note=83 velocity=91 time=0
note_off channel=8 note=92 velocity=83 time=0
note_off channel=8 note=88 velocity=91 time=0
note_on channel=8 note=92 velocity=89 time=3
note_on channel=8 note=88 velocity=103 time=0
note_on channel=8 note=83 velocity=107 time=0
note_on channel=8 note=80 velocity=99 time=0
note_off channel=8 note=92 velocity=89 time=72
note_off channel=8 note=88 velocity=103 time=0
note_off channel=8 note=83 velocity=107 time=0
note_off channel=8 note=80 velocity=99 time=0
note_on channel=8 note=90 velocity=87 time=3
note_on channel=8 note=86 velocity=75 time=0
note_on channel=8 note=81 velocity=95 time=0
note_on channel=8 note=78 velocity=87 time=0
note_off channel=8 note=90 velocity=87 time=18
note_off channel=8 note=86 velocity=75 time=0
note_off channel=8 note=81 velocity=95 time=0
note_off channel=8 note=78 velocity=87 time=0
note_on channel=8 note=90 velocity=89 time=3
note_on channel=8 note=86 velocity=91 time=0
note_on channel=8 note=81 velocity=103 time=0
note_on channel=8 note=78 velocity=87 time=0
note_off channel=8 note=86 velocity=91 time=244
note_off channel=8 note=81 velocity=103 time=2
note_off channel=8 note=78 velocity=87 time=4
note_off channel=8 note=90 velocity=89 time=11
note_on channel=8 note=88 velocity=83 time=294
note_on channel=8 note=85 velocity=83 time=0
note_on channel=8 note=81 velocity=73 time=0
note_off channel=8 note=85 velocity=83 time=6
note_off channel=8 note=81 velocity=73 time=1
note_off channel=8 note=88 velocity=83 time=3
note_on channel=8 note=93 velocity=103 time=11
note_on channel=8 note=88 velocity=99 time=0
note_on channel=8 note=85 velocity=103 time=0
note_on channel=8 note=81 velocity=89 time=0
note_off channel=8 note=93 velocity=103 time=96
note_off channel=8 note=81 velocity=89 time=3
note_off channel=8 note=85 velocity=103 time=7
note_off channel=8 note=88 velocity=99 time=1
note_on channel=8 note=93 velocity=85 time=256
note_on channel=8 note=90 velocity=59 time=0
note_on channel=8 note=86 velocity=75 time=0
note_off channel=8 note=86 velocity=75 time=7
note_off channel=8 note=90 velocity=59 time=1
note_off channel=8 note=93 velocity=85 time=4
note_on channel=8 note=93 velocity=89 time=9
note_on channel=8 note=90 velocity=115 time=0
note_on channel=8 note=86 velocity=107 time=0
note_on channel=8 note=81 velocity=91 time=0
note_off channel=8 note=93 velocity=89 time=79
note_off channel=8 note=86 velocity=107 time=1
note_off channel=8 note=90 velocity=115 time=2
note_off channel=8 note=81 velocity=91 time=1
note_on channel=8 note=97 velocity=61 time=280
note_on channel=8 note=93 velocity=79 time=0
note_on channel=8 note=88 velocity=89 time=0
note_off channel=8 note=88 velocity=89 time=18
note_off channel=8 note=97 velocity=61 time=0
note_off channel=8 note=93 velocity=79 time=0
note_on channel=8 note=97 velocity=91 time=3
note_on channel=8 note=93 velocity=95 time=0
note_on channel=8 note=88 velocity=103 time=0
note_on channel=8 note=85 velocity=103 time=0
note_off channel=8 note=97 velocity=91 time=72
note_off channel=8 note=93 velocity=95 time=0
note_off channel=8 note=88 velocity=103 time=0
note_off channel=8 note=85 velocity=103 time=0
note_on channel=8 note=95 velocity=69 time=3
note_on channel=8 note=92 velocity=73 time=0
note_on channel=8 note=88 velocity=69 time=0
note_on channel=8 note=83 velocity=73 time=0
note_off channel=8 note=88 velocity=69 time=18
note_off channel=8 note=95 velocity=69 time=0
note_off channel=8 note=92 velocity=73 time=0
note_off channel=8 note=83 velocity=73 time=0
note_on channel=8 note=95 velocity=91 time=3
note_on channel=8 note=92 velocity=99 time=0
note_on channel=8 note=88 velocity=99 time=0
note_on channel=8 note=83 velocity=91 time=0
note_off channel=8 note=95 velocity=91 time=72
note_off channel=8 note=92 velocity=99 time=0
note_off channel=8 note=88 velocity=99 time=0
note_off channel=8 note=83 velocity=91 time=0
note_on channel=8 note=93 velocity=99 time=3
note_on channel=8 note=90 velocity=91 time=0
note_on channel=8 note=86 velocity=95 time=0
note_on channel=8 note=81 velocity=103 time=0
note_off channel=8 note=93 velocity=99 time=15
note_off channel=8 note=90 velocity=91 time=1
note_off channel=8 note=86 velocity=95 time=0
note_off channel=8 note=81 velocity=103 time=2
note_on channel=8 note=88 velocity=89 time=51
note_on channel=8 note=85 velocity=85 time=0
note_on channel=8 note=81 velocity=89 time=0
note_on channel=8 note=76 velocity=89 time=0
note_off channel=8 note=85 velocity=85 time=231
note_off channel=8 note=81 velocity=89 time=0
note_off channel=8 note=88 velocity=89 time=1
note_off channel=8 note=76 velocity=89 time=1
note_on channel=8 note=81 velocity=107 time=775
note_on channel=8 note=69 velocity=89 time=0
note_off channel=8 note=81 velocity=107 time=72
note_off channel=8 note=69 velocity=89 time=0
note_on channel=8 note=83 velocity=95 time=3
note_on channel=8 note=71 velocity=85 time=0
note_off channel=8 note=71 velocity=85 time=65
note_off channel=8 note=83 velocity=95 time=3
note_on channel=8 note=80 velocity=111 time=1
note_on channel=8 note=68 velocity=85 time=0
note_off channel=8 note=80 velocity=111 time=45
note_off channel=8 note=68 velocity=85 time=0
note_on channel=8 note=81 velocity=111 time=3
note_on channel=8 note=69 velocity=89 time=0
note_off channel=8 note=81 velocity=111 time=72
note_off channel=8 note=69 velocity=89 time=0
note_on channel=8 note=83 velocity=107 time=3
note_on channel=8 note=71 velocity=85 time=0
note_on channel=8 note=80 velocity=103 time=69
note_on channel=8 note=68 velocity=83 time=0
note_off channel=8 note=83 velocity=107 time=1
note_off channel=8 note=71 velocity=85 time=3
note_off channel=8 note=80 velocity=103 time=41
note_on channel=8 note=81 velocity=99 time=3
note_on channel=8 note=69 velocity=103 time=0
note_off channel=8 note=68 velocity=83 time=5
note_off channel=8 note=81 velocity=99 time=67
note_off channel=8 note=69 velocity=103 time=0
note_on channel=8 note=83 velocity=111 time=3
note_on channel=8 note=71 velocity=95 time=0
note_off channel=8 note=83 velocity=111 time=64
note_on channel=8 note=85 velocity=111 time=5
note_on channel=8 note=73 velocity=87 time=0
note_off channel=8 note=71 velocity=95 time=6
note_on channel=8 note=87 velocity=107 time=42
note_on channel=8 note=75 velocity=95 time=0
note_off channel=8 note=85 velocity=111 time=6
note_off channel=8 note=73 velocity=87 time=0
note_off channel=8 note=75 velocity=95 time=66
note_off channel=8 note=87 velocity=107 time=0
note_on channel=8 note=88 velocity=95 time=3
note_on channel=8 note=76 velocity=95 time=0
note_off channel=8 note=76 velocity=95 time=67
note_on channel=8 note=90 velocity=115 time=2
note_on channel=8 note=78 velocity=99 time=0
note_off channel=8 note=88 velocity=95 time=6
note_off channel=8 note=90 velocity=115 time=39
note_off channel=8 note=78 velocity=99 time=0
note_on channel=8 note=88 velocity=111 time=3
note_on channel=8 note=76 velocity=99 time=0
note_off channel=8 note=76 velocity=99 time=376
note_off channel=8 note=88 velocity=111 time=6
note_on channel=8 note=93 velocity=71 time=1421
note_on channel=8 note=88 velocity=77 time=0
note_on channel=8 note=85 velocity=77 time=0
note_on channel=8 note=81 velocity=67 time=0
note_off channel=8 note=81 velocity=67 time=18
note_off channel=8 note=85 velocity=77 time=0
note_off channel=8 note=93 velocity=71 time=0
note_off channel=8 note=88 velocity=77 time=0
note_on channel=8 note=93 velocity=107 time=3
note_on channel=8 note=88 velocity=115 time=0
note_on channel=8 note=85 velocity=103 time=0
note_on channel=8 note=81 velocity=99 time=0
note_off channel=8 note=81 velocity=99 time=72
note_off channel=8 note=93 velocity=107 time=0
note_off channel=8 note=88 velocity=115 time=0
note_off channel=8 note=85 velocity=103 time=0
note_on channel=8 note=92 velocity=48 time=3
note_on channel=8 note=88 velocity=85 time=0
note_on channel=8 note=83 velocity=75 time=0
note_on channel=8 note=80 velocity=60 time=0
note_off channel=8 note=88 velocity=85 time=18
note_off channel=8 note=83 velocity=75 time=0
note_off channel=8 note=80 velocity=60 time=0
note_off channel=8 note=92 velocity=48 time=0
note_on channel=8 note=92 velocity=107 time=3
note_on channel=8 note=88 velocity=115 time=0
note_on channel=8 note=83 velocity=111 time=0
note_on channel=8 note=80 velocity=111 time=0
note_off channel=8 note=92 velocity=107 time=72
note_off channel=8 note=88 velocity=115 time=0
note_off channel=8 note=83 velocity=111 time=0
note_off channel=8 note=80 velocity=111 time=0
note_on channel=8 note=90 velocity=85 time=3
note_on channel=8 note=86 velocity=77 time=0
note_on channel=8 note=81 velocity=103 time=0
note_on channel=8 note=78 velocity=91 time=0
note_off channel=8 note=86 velocity=77 time=7
note_off channel=8 note=78 velocity=91 time=1
note_off channel=8 note=90 velocity=85 time=0
note_off channel=8 note=81 velocity=103 time=2
note_on channel=8 note=90 velocity=95 time=11
note_on channel=8 note=86 velocity=99 time=0
note_on channel=8 note=81 velocity=107 time=0
note_on channel=8 note=78 velocity=89 time=0
note_off channel=8 note=81 velocity=107 time=282
note_off channel=8 note=86 velocity=99 time=2
note_off channel=8 note=78 velocity=89 time=2
note_off channel=8 note=90 velocity=95 time=2
note_on channel=8 note=93 velocity=75 time=1035
note_on channel=8 note=88 velocity=65 time=0
note_on channel=8 note=85 velocity=73 time=0
note_on channel=8 note=81 velocity=75 time=0
note_off channel=8 note=88 velocity=65 time=18
note_off channel=8 note=81 velocity=75 time=0
note_off channel=8 note=85 velocity=73 time=0
note_off channel=8 note=93 velocity=75 time=0
note_on channel=8 note=93 velocity=107 time=3
note_on channel=8 note=88 velocity=111 time=0
note_on channel=8 note=85 velocity=103 time=0
note_on channel=8 note=81 velocity=107 time=0
note_off channel=8 note=93 velocity=107 time=72
note_off channel=8 note=88 velocity=111 time=0
note_off channel=8 note=85 velocity=103 time=0
note_off channel=8 note=81 velocity=107 time=0
note_on channel=8 note=92 velocity=77 time=3
note_on channel=8 note=88 velocity=71 time=0
note_on channel=8 note=83 velocity=89 time=0
note_on channel=8 note=80 velocity=77 time=0
note_off channel=8 note=92 velocity=77 time=18
note_off channel=8 note=88 velocity=71 time=0
note_off channel=8 note=80 velocity=77 time=0
note_off channel=8 note=83 velocity=89 time=0
note_on channel=8 note=92 velocity=95 time=3
note_on channel=8 note=88 velocity=91 time=0
note_on channel=8 note=83 velocity=111 time=0
note_on channel=8 note=80 velocity=99 time=0
note_off channel=8 note=92 velocity=95 time=72
note_off channel=8 note=88 velocity=91 time=0
note_off channel=8 note=83 velocity=111 time=0
note_off channel=8 note=80 velocity=99 time=0
note_on channel=8 note=90 velocity=89 time=3
note_on channel=8 note=86 velocity=91 time=0
note_on channel=8 note=81 velocity=95 time=0
note_on channel=8 note=78 velocity=91 time=0
note_off channel=8 note=78 velocity=91 time=11
note_off channel=8 note=90 velocity=89 time=0
note_off channel=8 note=86 velocity=91 time=0
note_off channel=8 note=81 velocity=95 time=0
note_on channel=8 note=90 velocity=99 time=10
note_on channel=8 note=86 velocity=107 time=0
note_on channel=8 note=81 velocity=107 time=0
note_on channel=8 note=78 velocity=89 time=0
note_off channel=8 note=86 velocity=107 time=260
note_off channel=8 note=81 velocity=107 time=4
note_off channel=8 note=78 velocity=89 time=0
note_off channel=8 note=90 velocity=99 time=2
note_on channel=8 note=93 velocity=65 time=1057
note_on channel=8 note=88 velocity=56 time=0
note_on channel=8 note=85 velocity=63 time=0
note_off channel=8 note=85 velocity=63 time=18
note_off channel=8 note=88 velocity=56 time=0
note_off channel=8 note=93 velocity=65 time=0
note_on channel=8 note=93 velocity=111 time=3
note_on channel=8 note=88 velocity=111 time=0
note_on channel=8 note=85 velocity=95 time=0
note_on channel=8 note=81 velocity=85 time=0
note_off channel=8 note=93 velocity=111 time=72
note_off channel=8 note=88 velocity=111 time=0
note_off channel=8 note=85 velocity=95 time=0
note_off channel=8 note=81 velocity=85 time=0
note_on channel=8 note=92 velocity=71 time=3
note_on channel=8 note=88 velocity=73 time=0
note_on channel=8 note=83 velocity=91 time=0
note_on channel=8 note=80 velocity=79 time=0
note_off channel=8 note=80 velocity=79 time=18
note_off channel=8 note=88 velocity=73 time=0
note_off channel=8 note=83 velocity=91 time=0
note_off channel=8 note=92 velocity=71 time=0
note_on channel=8 note=92 velocity=107 time=3
note_on channel=8 note=88 velocity=107 time=0
note_on channel=8 note=83 velocity=99 time=0
note_on channel=8 note=80 velocity=99 time=0
note_off channel=8 note=92 velocity=107 time=72
note_off channel=8 note=88 velocity=107 time=0
note_off channel=8 note=83 velocity=99 time=0
note_off channel=8 note=80 velocity=99 time=0
note_on channel=8 note=86 velocity=65 time=3
note_on channel=8 note=81 velocity=87 time=0
note_on channel=8 note=78 velocity=67 time=0
note_off channel=8 note=86 velocity=65 time=5
note_off channel=8 note=78 velocity=67 time=1
note_off channel=8 note=81 velocity=87 time=3
note_on channel=8 note=90 velocity=103 time=12
note_on channel=8 note=86 velocity=103 time=0
note_on channel=8 note=81 velocity=107 time=0
note_on channel=8 note=78 velocity=87 time=0
note_off channel=8 note=86 velocity=103 time=196
note_off channel=8 note=90 velocity=103 time=2
note_off channel=8 note=81 velocity=107 time=0
note_off channel=8 note=78 velocity=87 time=2
note_on channel=8 note=93 velocity=77 time=1123
note_on channel=8 note=88 velocity=69 time=0
note_on channel=8 note=85 velocity=75 time=0
note_on channel=8 note=81 velocity=75 time=0
note_off channel=8 note=81 velocity=75 time=18
note_off channel=8 note=85 velocity=75 time=0
note_off channel=8 note=93 velocity=77 time=0
note_off channel=8 note=88 velocity=69 time=0
note_on channel=8 note=93 velocity=111 time=3
note_on channel=8 note=88 velocity=115 time=0
note_on channel=8 note=85 velocity=107 time=0
note_on channel=8 note=81 velocity=99 time=0
note_off channel=8 note=85 velocity=107 time=72
note_off channel=8 note=81 velocity=99 time=0
note_off channel=8 note=93 velocity=111 time=0
note_off channel=8 note=88 velocity=115 time=0
note_on channel=8 note=92 velocity=59 time=3
note_on channel=8 note=88 velocity=62 time=0
note_on channel=8 note=83 velocity=87 time=0
note_on channel=8 note=80 velocity=67 time=0
note_off channel=8 note=83 velocity=87 time=18
note_off channel=8 note=80 velocity=67 time=0
note_off channel=8 note=88 velocity=62 time=0
note_off channel=8 note=92 velocity=59 time=0
note_on channel=8 note=92 velocity=99 time=3
note_on channel=8 note=88 velocity=103 time=0
note_on channel=8 note=83 velocity=111 time=0
note_on channel=8 note=80 velocity=89 time=0
note_off channel=8 note=92 velocity=99 time=72
note_off channel=8 note=88 velocity=103 time=0
note_off channel=8 note=83 velocity=111 time=0
note_off channel=8 note=80 velocity=89 time=0
note_on channel=8 note=90 velocity=85 time=3
note_on channel=8 note=86 velocity=87 time=0
note_on channel=8 note=81 velocity=91 time=0
note_on channel=8 note=78 velocity=75 time=0
note_off channel=8 note=78 velocity=75 time=8
note_off channel=8 note=81 velocity=91 time=2
note_off channel=8 note=86 velocity=87 time=1
note_off channel=8 note=90 velocity=85 time=1
note_on channel=8 note=90 velocity=79 time=9
note_on channel=8 note=86 velocity=107 time=0
note_on channel=8 note=81 velocity=103 time=0
note_on channel=8 note=78 velocity=91 time=0
note_off channel=8 note=78 velocity=91 time=285
note_off channel=8 note=90 velocity=79 time=0
note_off channel=8 note=86 velocity=107 time=0
note_off channel=8 note=81 velocity=103 time=0
control_change channel=8 control=101 value=0 time=3
control_change channel=8 control=100 value=0 time=0
control_change channel=8 control=6 value=12 time=0
control_change channel=8 control=10 value=84 time=0
control_change channel=8 control=7 value=70 time=0
pitchwheel channel=8 pitch=0 time=0
program_change channel=8 program=0 time=0
control_change channel=8 control=101 value=0 time=1
control_change channel=8 control=100 value=0 time=0
control_change channel=8 control=6 value=12 time=0
control_change channel=8 control=10 value=84 time=0
control_change channel=8 control=7 value=70 time=0
pitchwheel channel=8 pitch=0 time=0
program_change channel=8 program=0 time=0
MetaMessage('end_of_track', time=0)
